<svg xmlns="http://www.w3.org/2000/svg" width="294" height="60" viewBox="0 0 294 60">
  <defs>
    <style>
      .cls-1 {
        fill: #ffca61;
        fill-rule: evenodd;
      }
    </style>
  </defs>
  <path class="cls-1" d="M787.992,570.61l-2.7.268-45.606.135-2.7-.269-2.7.134-74.591-.268-2.566.134-3.916-.134-2.7.268-22.836-.268-2.3.4H585.694l-2.7-.4-2.836.134-2.43-.134-2.836.268-2.3-.268-3.106-1.344-1.215-2.687,0.4-2.686L568,521.206l0.135-4.567,1.62-4.03,3.511-1.209,20.932-.269,2.565,0.269h151.02l28.052-.4,6.481,0.4,2.836-.269L862,511v60Zm-6.347-53.837,0.27,0.4h-0.54l-0.135-.537Zm-0.4,49.269v0.4l-0.4.269-0.135-.672h0.54Zm-2.161-49.672-0.81.4-0.675.135,0.4-.538,0.81-.268,0.676-.135Zm-28.861-.94-0.54.134v-0.806l0.4-.134Zm-2.431,50.478-0.54-.135-0.27.135-0.135.134v-0.134l0.4-.4Zm-0.54-50.881,0.135-.269,0.135,0.269v0.4Zm-2.566,52.09-0.27.268-1.62.269-0.946,1.075-0.135-1.075,1.756-.672Zm-5.806-1.075-0.541.269-0.135-.538,0.27-.537Zm-0.406-52.09-0.54.269-0.135-.672ZM738.2,569.4l-0.81-1.074-0.135-.672,0.54,0.269,0.675,0.806Zm-1.08-2.955h0.81l-0.135.134Zm0-49.672-1.485.135-0.406-1.344h1.486Zm-0.81,50.747-0.81.806h-0.676l-0.27.4-0.135-.538-0.27-.671-0.945.4-0.675-.806,1.89-.538h1.621v-0.4l0.135,0.538Zm-1.621-52.9-0.27-.134,0.27-.4,0.27,0.268Zm-73.781.94h-0.675l0.135-.537h0.405Zm-3.781,52.762-1.891.134,0.135-1.075,1.891,0.135,1.215,0.4,1.081-.538-0.4-1.074-1.081.4v-0.806h0.946l1.485,0.537-0.27,1.612h-1.486Zm0.945-52.9-1.08-.806-0.27-.94,1.215,0.671,0.54,1.075-1.215.269-0.945-.135h0.945Zm-0.135,1.881-0.54-.269,0.27-.4,0.4,0.269Zm-5.266,50.343-0.135-1.075,1.08,0.135,0.135,1.343Zm-24.322-53.97v0.94l1.351,0.134-0.4.941-1.891-1.075,0.675-1.209Zm1.351,51.955h-0.946l0.135-.672,0.676-.268Zm-1.486,1.478-0.54-.269,0.135-.4,0.54,0.134Zm-1.62-.806-0.81.671-0.676.135,0.54-.538,0.811-.4v-0.537l0.27-.4,0.135,0.537Zm-1.621-51.553h0.946l0.135,1.075-0.811-.134Zm-1.08,51.015-0.27.538-0.135-.269Zm-15.916,3.493,0.27-.134,0.135-.672H621.6l0.4,0.806-13.08-.4Zm13.62-53.7-12.135.269-0.675.134,0.27-.4H621.6ZM607.03,566.848l-0.27.537-0.135.135-0.135-.269Zm-3.646.269-1.485-.941,0.81-.806,0.675,0.135,0.27,0.671,0.811,0.806,0.135,1.075-0.54-.269-0.406.941-1.08-.135,0.27-.806,0.54,0.135v-0.806Zm0.946-52.762h-0.405l-0.811-.268,0.135-.269ZM599.6,566.714l0.945-.269,0.811,0.672v0.268l-0.135-.268-0.676-.4-1.35,1.343,0.4,0.269-0.27.4h-0.27l-0.4-1.075Zm-0.4-53.165,0.945,0.538-0.4.671-0.27-.671-0.27-.538-0.81.941-1.08.134h-0.271l0.135-.269,0.406-.94Zm-0.675,2.418-0.54.269v0.4l-0.54-.134,0.54-.538h0.54Zm-1.891,50.344v-0.672l-0.135-.4,0.27,0.269,0.811,0.537-0.135.806Zm-2.16,2.015,0.675-.806,1.08,0.671-1.08-.4-0.54.538-0.27.671Zm-5.942-54.508h0.4l-0.4-.672,1.35-.806,1.351,1.881,0.81,0.4,2.026-.537h0.675l0.27-.941,0.945-.268,0.135,0.806-0.945.537-0.405.4,0.54,1.075-0.54.806-0.4,1.074-1.081-.537-0.675-1.478-0.945,1.612-1.486-1.612-1.215,1.075-0.945.269-0.676-.4-0.4-.806-1.215,1.209-1.08.671-0.27-1.343,0.27-1.612H586.1l-0.135-.806-0.81-.537,0.81-.538,0.81,0.806,0.54,0.941Zm5.4-1.075-0.405.269-0.135-.269,0.135-.268Zm-1.89,54.374,0.4,0.94H591.5l-0.27-1.075Zm-2.431.806,0.4,0.537-0.675.4-0.81-.4-0.135-.537,0.4,0.134Zm-0.135-54.239-0.27.671,0.675-.134Zm0.27,53.03-0.27-.135,0.135-.537,0.27,0.134Zm-7.7-1.612,1.08,1.612,0.945-.538,0.811-.134,0.945,0.94,1.35,0.135,0.271-.269-0.136.4-1.215,1.075h-0.81l-0.945-1.344-0.676.538-1.485-.269-0.675-.94V565.37l-1.351-.268,0.135-.538Zm-0.81-49.806-1.216-.538,0.81-.671,0.541-.941h1.62l0.135,2.015Zm-1.216,1.209,1.351-.135-0.405,1.075-1.081.269Zm-1.485,52.761-1.081-.806-0.4.134h-0.27l-0.81.269-1.35.269,0.135-.538v-0.537l-0.676-.134-1.215.537-1.62-.94-1.081-.806v-0.269l0.81-1.075,1.351-1.074-0.405-1.209,2.025,0.134,1.351-.268-0.135-.538,0.405,0.538,1.08,1.208,2.026,1.612,0.54,1.344h1.08l0.27,0.94-0.4.134-0.945,1.478Zm-0.27-56.254,1.215,1.075-0.27,1.88-2.026.269-1.08-1.075,0.4-.671,0.27-1.478h1.486Zm-0.811,52.9-0.81.4,0.405,1.209,0.541,0.537,1.215,0.134,0.4-1.074-0.675-.538Zm-1.08-47.657,0.54-.94,0.54,0.134v0.672Zm-6.617,44.7,0.675-1.209L569.489,520l0.27-1.074,0.81-.941,0.946,0.538,1.62-.941,1.08-1.209,0.541,0.672-0.4.806,0.81,0.134-2.135-.925L571.81,518.4l0.65,43.611-0.945.4-1.081.941-0.81.134Zm0.4-45.777-0.27-1.209,1.216-.671h0.4l1.35-.672,1.35-.806-0.27.94-0.675,1.075-1.08,1.612ZM573,565.37l-0.675.806h0.81l0.675-.806H573Z" transform="translate(-568 -511)"/>
</svg>
