<?xml version="1.0" standalone="no"?>
<!DOCTYPE svg PUBLIC "-//W3C//DTD SVG 1.1//EN" "http://www.w3.org/Graphics/SVG/1.1/DTD/svg11.dtd" >
<svg xmlns="http://www.w3.org/2000/svg" xmlns:xlink="http://www.w3.org/1999/xlink" version="1.1">
<metadata>
Created by FontForge 20170731 at Tue Oct  6 20:11:49 2015
 By Aleksey,,,
Copyright 2015 by Paulo Goode. All rights reserved.
</metadata>
<defs>
<font id="WoodfordBourne-Regular" horiz-adv-x="0" >
  <font-face 
    font-family="Woodford Bourne"
    font-weight="400"
    font-stretch="normal"
    units-per-em="1000"
    panose-1="0 0 5 0 0 0 0 0 0 0"
    ascent="800"
    descent="-200"
    x-height="423"
    cap-height="700"
    bbox="-695 -295 1255 940"
    underline-thickness="50"
    underline-position="-200"
    unicode-range="U+0020-FB02"
  />
<missing-glyph horiz-adv-x="791" 
d="M219 815q16 0 16 -15v-44q0 -15 -16 -15h-75v-837h75q16 0 16 -15v-44q0 -15 -16 -15h-105h-42q-6 0 -10.5 4.5t-4.5 10.5v955q0 6 4.5 10.5t10.5 4.5h58h89zM719 815q6 0 10.5 -4.5t4.5 -10.5v-955q0 -6 -4.5 -10.5t-10.5 -4.5h-58h-89q-16 0 -16 15v44q0 15 16 15h75
v837h-75q-16 0 -16 15v44q0 15 16 15h105h42zM556 211q12 -11 1 -22l-29 -29q-11 -13 -21 -1l-108 107l-106 -106q-11 -12 -22 -1l-30 30q-10 10 1 22l106 106l-106 106q-12 11 -1 22l30 29q11 13 21 1l107 -107l107 106q12 12 22 1l29 -30q10 -10 -1 -22l-106 -106z" />
    <glyph glyph-name="fi" unicode="fi" horiz-adv-x="484" 
d="M404 423q6 0 10.5 -4.5t4.5 -10.5v-38v-356q0 -14 -15 -14h-54q-15 0 -15 14v341h-156v-340q0 -15 -15 -15h-54q-15 0 -15 15v340h-49q-14 0 -14 15v38q0 15 14 15h49v104v1q1 55 14.5 92t39 55.5t55 25.5t70.5 7q69 0 119 -30q13 -8 7 -21l-23 -33q-7 -12 -19 -5
q-33 21 -79 21q-61 0 -80.5 -25t-19.5 -92v-100h225z" />
    <glyph glyph-name="fl" unicode="fl" horiz-adv-x="528" 
d="M447 708q6 0 10.5 -4.5t4.5 -11.5v-677q0 -15 -15 -15h-55q-14 0 -14 15v566q-11 22 -49 42v1q-30 16 -59 16q-50 0 -70.5 -26.5t-20.5 -90.5v-100h90q6 0 10.5 -4.5t4.5 -10.5v-38q0 -6 -4.5 -10.5t-10.5 -4.5h-90v-340q0 -15 -15 -15h-54q-15 0 -15 15v340h-49
q-14 0 -14 15v38q0 15 14 15h49v104v1q1 48 12 82.5t27 53t40.5 29t45 13t47.5 2.5q39 0 67 -11q33 -9 46 2q3 9 12 9h55z" />
    <glyph glyph-name="f_f" unicode="ff" horiz-adv-x="638" 
d="M619 682q12 -8 7 -21l-23 -33q-8 -12 -19 -5q-29 17 -61 17q-50 0 -70.5 -26.5t-20.5 -90.5v-100h121q6 0 10.5 -4.5t4.5 -10.5v-38q0 -6 -4.5 -10.5t-10.5 -4.5h-121v-340q0 -15 -15 -15h-54q-15 0 -15 15v340h-25h-3h-141v-340q0 -15 -15 -15h-54q-15 0 -15 15v340h-49
q-14 0 -14 15v38q0 15 14 15h49v86q0 99 40.5 141.5t131.5 42.5q52 0 102 -28q1 0 1 -1q4 -2 12 -7q39 51 138 51q56 0 99 -26zM348 423v104v1v6q-1 61 -21 76q-26 15 -57 15q-51 0 -71 -27t-20 -90v-85h169z" />
    <glyph glyph-name="f_f_i" unicode="ffi" horiz-adv-x="738" 
d="M657 423q6 0 10.5 -4.5t4.5 -10.5v-38v-356q0 -14 -15 -14h-54q-15 0 -15 14v341h-156v-340q0 -15 -15 -15h-54q-15 0 -15 15v340h-26h-2h-141v-340q0 -15 -15 -15h-54q-15 0 -15 15v340h-49q-14 0 -14 15v38q0 15 14 15h49v86q0 99 40.5 141.5t131.5 42.5q52 0 102 -28
q1 0 2 -1q6 -3 11 -8q41 52 145 52q70 0 120 -30q13 -8 7 -21l-23 -33q-8 -11 -19 -5q-35 21 -80 21q-61 0 -80.5 -25t-19.5 -92v-100h225zM348 423v104v1v3q-1 39 -6.5 56.5t-21.5 25.5q-24 12 -50 12q-51 0 -71 -27t-20 -90v-85h169z" />
    <glyph glyph-name="f_f_l" unicode="ffl" horiz-adv-x="783" 
d="M701 708q6 0 10.5 -4.5t4.5 -11.5v-677q0 -15 -15 -15h-55q-14 0 -14 15v566q-11 22 -49 42v1q-29 16 -59 16q-50 0 -70.5 -26.5t-20.5 -90.5v-100h91q6 0 10.5 -4.5t4.5 -10.5v-38q0 -6 -4.5 -10.5t-10.5 -4.5h-91v-340q0 -15 -15 -15h-54q-15 0 -15 15v340h-25h-2h-143
v-340q0 -15 -15 -15h-54q-15 0 -15 15v340h-49q-14 0 -14 15v38q0 15 14 15h49v86q0 99 40.5 141.5t131.5 42.5q52 0 102 -28q1 0 2 -1q4 -2 12 -8q38 52 138 52q37 0 65 -10q37 -9 47 1q5 9 13 9h55zM349 423v103q-1 41 -6 59t-20 27q-29 13 -53 13q-51 0 -71 -27t-20 -90
v-85h170z" />
    <glyph glyph-name=".notdef" horiz-adv-x="791" 
d="M219 815q16 0 16 -15v-44q0 -15 -16 -15h-75v-837h75q16 0 16 -15v-44q0 -15 -16 -15h-105h-42q-6 0 -10.5 4.5t-4.5 10.5v955q0 6 4.5 10.5t10.5 4.5h58h89zM719 815q6 0 10.5 -4.5t4.5 -10.5v-955q0 -6 -4.5 -10.5t-10.5 -4.5h-58h-89q-16 0 -16 15v44q0 15 16 15h75
v837h-75q-16 0 -16 15v44q0 15 16 15h105h42zM556 211q12 -11 1 -22l-29 -29q-11 -13 -21 -1l-108 107l-106 -106q-11 -12 -22 -1l-30 30q-10 10 1 22l106 106l-106 106q-12 11 -1 22l30 29q11 13 21 1l107 -107l107 106q12 12 22 1l29 -30q10 -10 -1 -22l-106 -106z" />
    <glyph glyph-name=".null" 
 />
    <glyph glyph-name="nonmarkingreturn" horiz-adv-x="333" 
 />
    <glyph glyph-name="space" unicode=" " horiz-adv-x="195" 
 />
    <glyph glyph-name="exclam" unicode="!" horiz-adv-x="207" 
d="M92 154q-16 0 -16 15l-19 524q0 15 14 15h64q15 0 15 -15l-19 -524q0 -15 -16 -15h-23zM74 -8q-16 0 -16 15v65q0 15 16 15h59q16 0 16 -15v-65q0 -15 -16 -15h-59z" />
    <glyph glyph-name="quotedbl" unicode="&#x22;" horiz-adv-x="317" 
d="M76 452q-14 0 -16 15l-30 248q-2 15 13 15h83q14 0 13 -15l-30 -248q-1 -15 -16 -15h-17zM224 452q-14 0 -16 15l-30 248q-2 15 13 15h83q14 0 13 -15l-29 -248q-2 -15 -16 -15h-18z" />
    <glyph glyph-name="numbersign" unicode="#" horiz-adv-x="608" 
d="M535 538q16 0 16 -15v-38q0 -15 -16 -15h-56l-35 -194h44q16 0 16 -15v-38q0 -15 -16 -15h-57l-34 -193q-3 -15 -21 -15h-38q-19 0 -15 22l33 186h-161l-34 -193q-3 -15 -21 -15h-38q-19 0 -15 22l33 186h-47q-16 0 -16 15v38q0 15 16 15h59l35 194h-48q-16 0 -16 15v38
q0 15 16 15h60l28 155q3 15 20 15h44q15 0 11 -18l-27 -152h160l27 155q3 15 20 15h45q15 0 11 -18l-27 -152h44zM368 276l35 194h-160l-35 -194h160z" />
    <glyph glyph-name="dollar" unicode="$" horiz-adv-x="626" 
d="M565 192q0 -68 -53 -127t-161 -71v-56q0 -14 -15 -14h-54q-15 0 -15 14v56q-126 9 -210 93q-8 8 0 20l29 36q10 12 22 4q1 0 10.5 -9t22 -17.5t31 -19.5t43.5 -19t52 -12v255q-103 29 -154.5 73t-51.5 118q0 67 50.5 123.5t155.5 66.5v53q0 17 15 17h54q15 0 15 -17v-53
q108 -9 183 -69q10 -8 1 -22l-29 -39q-6 -12 -19 -2q-63 47 -136 56v-243q42 -10 73 -21.5t66.5 -33.5t55 -57.5t19.5 -82.5zM149 521q0 -39 29.5 -65t88.5 -46v220q-54 -9 -86 -38.5t-32 -70.5zM351 72q51 10 88.5 39t37.5 81q0 45 -32.5 69t-93.5 41v-230z" />
    <glyph glyph-name="percent" unicode="%" horiz-adv-x="931" 
d="M192 252q-152 0 -152 228t152 228q151 0 151 -228t-151 -228zM274 0q-10 0 -14.5 7t-0.5 15l339 663q8 15 20 15h41q8 0 11.5 -5t-0.5 -13l-341 -667q-7 -15 -21 -15h-34zM192 317q80 0 80 164q0 162 -80 162q-81 0 -81 -162q0 -164 81 -164zM740 15q-152 0 -152 228
t152 228q151 0 151 -228t-151 -228zM740 80q80 0 80 164q0 162 -80 162q-81 0 -81 -162q0 -164 81 -164z" />
    <glyph glyph-name="ampersand" unicode="&#x26;" horiz-adv-x="641" 
d="M608 59q10 -11 1 -20l-31 -33q-12 -12 -22 -2q-101 86 -120 103q-86 -115 -196 -115q-85 0 -143.5 52t-58.5 142q0 61 31 107t101 98q-68 96 -68 158q0 71 44.5 115t105.5 44t103.5 -44t42.5 -113q0 -94 -125 -176q64 -76 153 -158q42 51 108 105q11 8 21 -2l29 -35
q8 -11 -2 -20q-43 -33 -99 -100q70 -61 125 -106zM185 551q-1 -49 46 -120q85 54 85 120q0 36 -18 62t-46 26q-31 0 -49 -25.5t-18 -62.5zM241 64q64 0 140 94q-106 101 -169 179q-89 -63 -89 -151q0 -54 35 -88t83 -34z" />
    <glyph glyph-name="quotesingle" unicode="'" horiz-adv-x="169" 
d="M76 452q-14 0 -16 15l-30 248q-2 15 13 15h83q14 0 13 -15l-30 -248q-1 -15 -16 -15h-17z" />
    <glyph glyph-name="parenleft" unicode="(" horiz-adv-x="318" 
d="M218 -104q-11 -6 -20 3q-64 86 -102.5 204t-38.5 244q0 127 37.5 244t98.5 192q10 12 24 5l34 -19q16 -7 8 -21q-61 -84 -88.5 -192t-24.5 -210q-2 -240 115 -410q6 -12 -7 -18z" />
    <glyph glyph-name="parenright" unicode=")" horiz-adv-x="318" 
d="M101 -104l-36 22q-13 6 -7 18q117 172 115 410q3 102 -24.5 210t-89.5 192q-8 14 8 21l35 19q14 7 24 -5q61 -75 98.5 -192.5t37.5 -243.5t-38.5 -243.5t-102.5 -204.5q-9 -9 -20 -3z" />
    <glyph glyph-name="asterisk" unicode="*" horiz-adv-x="361" 
d="M300 596q4 -14 -8 -17l-100 -16v-1l73 -70q7 -12 -4 -19l-31 -22q-12 -8 -19 4l-45 89l-44 -90q-7 -12 -19 -4l-31 22q-12 8 -4 19l71 72l-100 16q-12 3 -8 17l11 36q4 13 17 9l90 -47l1 1l-17 99q-2 14 14 14h37q6 0 10.5 -3.5t3.5 -9.5l-16 -100v-1l89 46q14 5 18 -9z
" />
    <glyph glyph-name="plus" unicode="+" horiz-adv-x="518" 
d="M445 376q16 0 16 -15v-37q0 -15 -16 -15h-147v-152q0 -16 -15 -16h-48q-15 0 -15 16v152h-147q-16 0 -16 15v37q0 15 16 15h147v151q0 16 15 16h48q15 0 15 -16v-151h147z" />
    <glyph glyph-name="comma" unicode="," horiz-adv-x="194" 
d="M137 81v-66q0 -4 -1 -6l-47 -117h-24q-5 0 -9 4.5t-1 11.5l35 92h-34q-16 0 -16 15v66q0 15 16 15h65q16 0 16 -15z" />
    <glyph glyph-name="hyphen" unicode="-" horiz-adv-x="382" 
d="M73 241q-16 0 -16 15v38q0 15 16 15h237q16 0 16 -15v-38q0 -15 -16 -15h-237z" />
    <glyph glyph-name="period" unicode="." horiz-adv-x="193" 
d="M54 0q-16 0 -16 15v66q0 15 16 15h66q16 0 16 -15v-66q0 -15 -16 -15h-66z" />
    <glyph glyph-name="slash" unicode="/" horiz-adv-x="423" 
d="M87 0h-41q-10 0 -14 7t-1 15l280 663q6 15 20 15h48q8 0 11 -5.5t0 -12.5l-282 -667q-6 -15 -21 -15z" />
    <glyph glyph-name="zero" unicode="0" horiz-adv-x="588" 
d="M295 -8q-238 0 -238 358t238 358q236 0 236 -358t-236 -358zM295 66q149 0 149 285q0 283 -149 283q-151 0 -151 -283q0 -285 151 -285z" />
    <glyph glyph-name="one" unicode="1" horiz-adv-x="494" 
d="M439 72q6 0 10.5 -4.5t4.5 -10.5v-43q0 -14 -15 -14h-213h-154q-15 0 -15 14v43q0 6 4.5 10.5t10.5 4.5h139v531l-114 -83q-8 -6 -16 -2t-8 12v47q0 10 14 19l133 100q6 4 16 4h49q14 0 14 -15v-613h140z" />
    <glyph glyph-name="two" unicode="2" horiz-adv-x="582" 
d="M510 74q6 0 10.5 -4.5t4.5 -10.5v-45q0 -14 -15 -14h-437q-15 0 -15 14v34q0 5 5 10h-1l267 307q86 90 86 144q0 61 -34.5 93t-90.5 32q-73 0 -107 -34t-40 -75q-3 -12 -14 -12h-57q-7 0 -11.5 4.5t-3.5 11.5q5 34 19 63t40 56.5t70.5 43.5t103.5 16h1q108 0 160 -56
t52 -143q0 -37 -15.5 -73t-31.5 -54l-16 -17l-257 -291h327z" />
    <glyph glyph-name="three" unicode="3" horiz-adv-x="582" 
d="M525 197q0 -39 -11.5 -73t-37 -65t-73 -49t-112.5 -18h-1q-114 0 -173.5 52.5t-59.5 123.5q0 17 15 17h57q14 0 14 -12q0 -51 39.5 -79t107.5 -28q70 0 109 34t39 97q0 73 -45 99t-130 26h-41q-15 0 -15 14v46q0 14 15 14h41q77 0 118 27t41 97q0 114 -132 114
q-67 0 -107 -29.5t-40 -77.5q0 -12 -14 -12h-57q-15 0 -15 17q0 72 59.5 124t173.5 52h1q63 0 107.5 -16.5t67.5 -45t33 -59t10 -65.5q0 -116 -85 -160q101 -41 101 -165z" />
    <glyph glyph-name="four" unicode="4" horiz-adv-x="620" 
d="M548 222q15 0 15 -14v-46q0 -14 -15 -14h-61v-133q0 -15 -14 -15h-59q-6 0 -10.5 4.5t-4.5 10.5v133h-327q-15 0 -15 14v42q0 4 2 8l311 480q4 8 16 8h87q14 0 14 -15v-463h61zM154 222h245v379z" />
    <glyph glyph-name="five" unicode="5" horiz-adv-x="582" 
d="M525 227q0 -45 -12.5 -85t-38.5 -74.5t-75 -55t-115 -20.5h-1q-100 0 -163 56.5t-63 119.5q0 17 15 17h49q12 0 14 -12q5 -34 46 -71t102 -38q73 1 114 44t41 117q0 81 -46.5 121.5t-111.5 33.5t-123 -54q-4 -2 -8.5 -3t-7.5 -1l-3 1l-63 13q-12 3 -11 15l53 335
q2 14 15 14h336q15 0 15 -14v-46q0 -14 -15 -14h-281l-36 -221q53 35 118 42t122 -12t95.5 -73.5t38.5 -134.5z" />
    <glyph glyph-name="six" unicode="6" horiz-adv-x="582" 
d="M305 460q91 0 155.5 -66t64.5 -163q0 -102 -65 -170.5t-162 -68.5q-142 0 -198 116q-43 90 -43 217q0 194 66 288.5t174 94.5q49 0 90 -16.5t66 -43t39 -56t17 -57.5q2 -16 -11 -16h-60q-13 0 -16 12q-33 103 -128 103q-65 0 -108 -71t-47 -195q58 92 166 92zM305 66
q59 0 96.5 45.5t37.5 114.5q0 74 -41 118.5t-95 44.5q-63 0 -105 -42.5t-42 -111.5q0 -72 34.5 -120.5t114.5 -48.5z" />
    <glyph glyph-name="seven" unicode="7" horiz-adv-x="553" 
d="M514 699q6 -2 9 -8t0 -13l-304 -664q-9 -14 -24 -14h-53q-8 0 -12.5 7t-0.5 14l277 605h-335q-14 0 -14 14v44q0 16 14 16h439q2 0 4 -1z" />
    <glyph glyph-name="eight" unicode="8" horiz-adv-x="582" 
d="M405 361q53 -25 86.5 -72t33.5 -104q0 -80 -64.5 -136.5t-169.5 -56.5q-103 0 -168.5 57t-65.5 137q0 57 34.5 104t88.5 71q-47 24 -76.5 68.5t-29.5 99.5q0 77 58 128t158 51q102 0 159 -50.5t57 -129.5q0 -54 -27 -99t-74 -68zM292 634q-60 0 -95.5 -29.5t-35.5 -80.5
t36 -82.5t94 -43.5q57 12 93 43.5t36 83.5q0 49 -33.5 79t-94.5 30zM292 66q64 0 104.5 32t40.5 88q0 57 -41 94t-103 53q-64 -15 -106.5 -52t-42.5 -94q0 -58 42.5 -89.5t105.5 -31.5z" />
    <glyph glyph-name="nine" unicode="9" horiz-adv-x="582" 
d="M490 588q35 -74 35 -243q0 -180 -65 -266.5t-176 -86.5q-96 0 -154.5 58t-58.5 119q0 17 11 17h59q13 0 16 -12q5 -34 39.5 -71t83.5 -37q80 0 117.5 58t43.5 179q-47 -61 -156 -61q-105 0 -166.5 66.5t-61.5 161.5q0 109 66.5 173.5t163.5 64.5q150 0 203 -120zM286 314
q61 0 103.5 39t42.5 117q0 77 -40 121t-107 44q-59 0 -100.5 -39t-40.5 -126q0 -69 42.5 -112.5t99.5 -43.5z" />
    <glyph glyph-name="colon" unicode=":" horiz-adv-x="209" 
d="M76 340q-16 0 -16 15v61q0 15 16 15h60q16 0 16 -15v-61q0 -15 -16 -15h-60zM76 0q-16 0 -16 15v61q0 15 16 15h60q16 0 16 -15v-61q0 -15 -16 -15h-60z" />
    <glyph glyph-name="semicolon" unicode=";" horiz-adv-x="216" 
d="M76 338q-16 0 -16 15v65q0 15 16 15h65q16 0 16 -15v-65q0 -15 -16 -15h-65zM159 81v-66q0 -3 -2 -7l-46 -116h-25q-5 0 -9 4.5t-1 11.5l35 92h-33q-16 0 -16 15v66q0 15 16 15h65q16 0 16 -15z" />
    <glyph glyph-name="less" unicode="&#x3c;" horiz-adv-x="559" 
d="M491 216q14 -6 9 -20l-14 -35q-6 -14 -21 -8l-396 164q-15 7 -12 17v32q-3 10 12 17l396 165q15 6 21 -8l13 -35q5 -14 -9 -20l-323 -135z" />
    <glyph glyph-name="equal" unicode="=" horiz-adv-x="512" 
d="M73 398q-16 0 -16 15v38q0 15 16 15h366q16 0 16 -15v-38q0 -15 -16 -15h-366zM73 229q-16 0 -16 15v37q0 15 16 15h366q16 0 16 -15v-37q0 -15 -16 -15h-366z" />
    <glyph glyph-name="greater" unicode="&#x3e;" horiz-adv-x="559" 
d="M502 368v-36q1 -8 -12 -15l-396 -164q-15 -6 -21 8l-14 35q-5 14 9 20l323 134l-322 135q-14 6 -9 20l13 35q6 14 21 8l396 -165q13 -7 12 -15z" />
    <glyph glyph-name="question" unicode="?" horiz-adv-x="486" 
d="M252 708q68 0 114 -30.5t64 -73t18 -92.5q0 -71 -27 -113.5t-77 -81.5q-55 -42 -72 -75t-17 -70q0 -14 -13 -14h-57q-14 0 -14 14q0 55 17 93.5t70 81.5q65 49 84.5 84.5t19.5 74.5q0 128 -111 128q-53 0 -82 -28t-38 -62q-3 -9 -14 -7l-58 14q-10 3 -7 15
q14 59 61.5 100.5t137.5 41.5h1zM243 87q16 0 16 -15v-65q0 -15 -16 -15h-58q-16 0 -16 15v65q0 15 16 15h58z" />
    <glyph glyph-name="at" unicode="@" horiz-adv-x="872" 
d="M633 573q79 0 122.5 -38.5t43.5 -111.5v-300q0 -66 -36 -99t-94 -33q-44 0 -68 14.5t-41 46.5q-49 -60 -136 -60q-95 0 -146.5 63t-51.5 159q0 95 52.5 156t146.5 61q74 0 121 -42l13 18q12 16 24 16h33q14 0 14 -16v-301q0 -24 11 -36t28 -12q47 0 47 70v295
q0 38 -21.5 60t-61.5 22h-230q-111 0 -184 -77t-73 -218q0 -104 50 -189q4 -6 1 -13.5t-12 -7.5h-54q-19 0 -30 21q-38 89 -38 189q-1 173 94 268t246 95h230zM428 59q70 0 94 36t24 117q0 82 -24 116.5t-94 34.5q-56 0 -88 -37.5t-32 -112.5q0 -74 31 -114t89 -40z" />
    <glyph glyph-name="A" unicode="A" horiz-adv-x="707" 
d="M663 20q3 -7 -1.5 -13.5t-12.5 -6.5h-57q-10 0 -13 10l-57 137h-338l-57 -138q-4 -9 -13 -9h-57q-7 0 -11.5 6.5t-1.5 14.5l282 678q4 9 13 9h18h8q9 0 12 -9zM214 221h277l-139 334z" />
    <glyph glyph-name="B" unicode="B" horiz-adv-x="620" 
d="M566 199q0 -82 -54.5 -140t-128.5 -59h-251h-44q-6 0 -10.5 4.5t-4.5 10.5v670q0 6 4.5 10.5t10.5 4.5h59h216q78 -1 128 -52t50 -138q0 -90 -72 -147q45 -21 71 -63.5t26 -100.5zM343 626h-182v-239h184q44 0 76 31t32 90q0 55 -32 86.5t-78 31.5zM363 74q45 0 80 36
t35 92q0 35 -12 59t-31.5 34.5t-33.5 14t-28 4.5h-58h-154v-240h202z" />
    <glyph glyph-name="C" unicode="C" horiz-adv-x="716" 
d="M401 -8q-148 0 -253 105.5t-105 252.5t104.5 252.5t253.5 105.5q78 0 147.5 -32t115.5 -91q9 -12 -1 -19l-36 -36q-4 -5 -10.5 -4.5t-10.5 5.5q-30 42 -86 72.5t-119 30.5q-111 0 -190.5 -84t-79.5 -200q0 -113 80.5 -198.5t189.5 -85.5q65 0 121.5 31.5t89.5 79.5
q9 13 22 2l34 -33q11 -9 2 -20q-49 -64 -119 -99t-150 -35z" />
    <glyph glyph-name="D" unicode="D" horiz-adv-x="674" 
d="M621 349q0 -155 -87.5 -251t-218.5 -98h-201h-26q-6 0 -10.5 4.5t-4.5 10.5v670q0 6 4.5 10.5t10.5 4.5h59h172q130 -4 216 -98.5t86 -252.5zM310 74q94 0 158.5 74t64.5 201q0 128 -64.5 202.5t-158.5 74.5h-149v-552h149z" />
    <glyph glyph-name="E" unicode="E" horiz-adv-x="531" 
d="M480 74q6 0 10.5 -4.5t4.5 -10.5v-44q0 -6 -4.5 -10.5t-10.5 -4.5h-356h-36q-6 0 -10.5 4.5t-4.5 10.5v670q0 6 4.5 10.5t10.5 4.5h59h332q14 0 14 -15v-44q0 -15 -14 -15h-318v-239h219q15 0 15 -14v-46q0 -14 -15 -14h-219v-239h319z" />
    <glyph glyph-name="F" unicode="F" horiz-adv-x="518" 
d="M469 700q6 0 10.5 -4.5t4.5 -10.5v-44q0 -6 -4.5 -10.5t-10.5 -4.5h-308v-261h218q15 0 15 -14v-45q0 -14 -15 -14h-218v-277q0 -15 -14 -15h-59q-6 0 -10.5 4.5t-4.5 10.5v670q0 6 4.5 10.5t10.5 4.5h59h322z" />
    <glyph glyph-name="G" unicode="G" horiz-adv-x="743" 
d="M657 338q14 0 14 -14v-40v-193q0 -6 -4 -10q-38 -37 -117.5 -63t-157.5 -26q-84 0 -163 43t-132.5 127t-53.5 188t53 187.5t133.5 127t168.5 43.5q79 0 152.5 -30.5t116.5 -81.5q8 -10 -2 -20l-37 -37q-9 -9 -18 1q-15 16 -38.5 34.5t-73 39t-100.5 20.5
q-106 0 -186 -82.5t-81 -201.5q-1 -111 79.5 -197.5t181.5 -86.5q115 0 190 58v146h-135q-15 0 -15 14v40q0 14 15 14h210z" />
    <glyph glyph-name="H" unicode="H" horiz-adv-x="695" 
d="M608 700q14 0 14 -15v-670q0 -15 -14 -15h-59q-15 0 -15 15v298h-373v-298q0 -15 -14 -15h-59q-6 0 -10.5 4.5t-4.5 10.5v670q0 15 15 15h59q14 0 14 -15v-298h373v298q0 15 15 15h59z" />
    <glyph glyph-name="I" unicode="I" horiz-adv-x="245" 
d="M89 0q-6 0 -10.5 4.5t-4.5 10.5v670q0 6 4.5 10.5t10.5 4.5h59q14 0 14 -15v-670q0 -15 -14 -15h-59z" />
    <glyph glyph-name="J" unicode="J" horiz-adv-x="496" 
d="M408 700q6 0 10.5 -4.5t4.5 -11.5v-474q-1 -109 -60.5 -163.5t-142.5 -54.5q-64 0 -118.5 32t-76.5 77q-5 13 7 18l44 28q11 4 20 -8q17 -28 49 -50t72 -22q52 0 85 36t33 110v471q0 16 14 16h59z" />
    <glyph glyph-name="K" unicode="K" horiz-adv-x="614" 
d="M242 350l334 -326q6 -6 3 -15t-14 -9h-60q-14 0 -29 15l-315 309v-309q0 -15 -14 -15h-59q-6 0 -10.5 4.5t-4.5 10.5v670q0 6 4.5 10.5t10.5 4.5h59q14 0 14 -15v-309l315 309q16 15 29 15h60q10 0 14 -9.5t-2 -14.5z" />
    <glyph glyph-name="L" unicode="L" horiz-adv-x="527" 
d="M477 74q14 0 14 -15v-44q0 -15 -14 -15h-344h-47q-6 0 -10.5 4.5t-4.5 10.5v669q0 7 4.5 11.5t10.5 4.5h59q14 0 14 -16v-610h318z" />
    <glyph glyph-name="M" unicode="M" horiz-adv-x="814" 
d="M727 700q14 0 14 -15v-671q0 -14 -14 -14h-59q-15 0 -15 14v492l-227 -499q-8 -15 -15 -15h-6h-2q-7 0 -15 15l-227 501v-494q0 -14 -15 -14h-59q-14 0 -14 14v671q0 15 14 15h39h21q15 0 22 -15l238 -527l239 527q8 15 22 15h35h24z" />
    <glyph glyph-name="N" unicode="N" horiz-adv-x="677" 
d="M589 700q6 0 10.5 -4.5t4.5 -10.5v-671q0 -14 -15 -14h-35h-9q-16 0 -25 14l-359 523v-523q0 -14 -14 -14h-59q-15 0 -15 14v671q0 6 4.5 10.5t10.5 4.5h35h10q16 0 24 -15l359 -526v526q0 15 14 15h59z" />
    <glyph glyph-name="O" unicode="O" horiz-adv-x="800" 
d="M401 -8q-148 0 -253 104.5t-105 252.5q0 149 105 254t253 105t252.5 -105t104.5 -254q0 -148 -104.5 -252.5t-252.5 -104.5zM401 66q109 0 189 83t80 200t-80 201t-189 84q-111 0 -190.5 -83.5t-79.5 -201.5q0 -117 79.5 -200t190.5 -83z" />
    <glyph glyph-name="P" unicode="P" horiz-adv-x="573" 
d="M530 480q0 -99 -55.5 -158t-135.5 -60h-180v-248q0 -14 -14 -14h-59q-15 0 -15 14v671q0 15 15 15h59h202q77 -1 130 -61t53 -159zM311 336q38 0 65.5 13t41 35.5t19 45.5t5.5 50t-5.5 50t-19 46t-41.5 36.5t-67 13.5h-150v-290h152z" />
    <glyph glyph-name="Q" unicode="Q" horiz-adv-x="789" 
d="M663 117l76 -76q10 -10 0 -20l-39 -39q-10 -10 -20 0l-78 78q-93 -68 -210 -68q-148 0 -253 104.5t-105 252.5q0 149 105 254t253 105t252.5 -105t104.5 -254q0 -133 -86 -232zM392 66q109 0 189 83t80 200t-80 201t-189 84q-111 0 -190.5 -84t-79.5 -201t79.5 -200
t190.5 -83z" />
    <glyph glyph-name="R" unicode="R" horiz-adv-x="646" 
d="M581 21q4 -9 -1 -15t-12 -6h-58q-14 0 -21 15l-135 264h-195v-265q0 -14 -14 -14h-59q-15 0 -15 14v671q0 15 15 15h59h242q73 -1 128.5 -56t55.5 -152q0 -73 -35.5 -126.5t-91.5 -74.5zM159 353h200q68 0 96 41t28 98q0 134 -125 134h-199v-273z" />
    <glyph glyph-name="S" unicode="S" horiz-adv-x="617" 
d="M306 -8q-155 0 -250 95q-8 8 0 20l30 36q10 12 22 4q1 0 10 -8.5t19 -16t28.5 -18t37.5 -18.5t46.5 -13.5t56.5 -5.5q22 0 48 5.5t55 18.5t48 39.5t19 61.5q0 37 -27 62t-54 34.5t-85 24.5q-3 1 -5 1.5t-5 1t-5 1.5q-118 30 -176.5 75.5t-58.5 123.5q0 33 13 65t40 61.5
t76.5 47.5t115.5 18q140 0 229 -71q10 -8 1 -22l-29 -39q-6 -12 -19 -2q-82 59 -180 59q-70 0 -114.5 -31.5t-44.5 -80.5q0 -48 43.5 -76.5t131.5 -50.5q28 -7 42.5 -10.5t44 -13t47 -18.5t40.5 -25t35.5 -34t22 -44.5t9.5 -56.5q0 -34 -14 -67t-42.5 -64t-81 -50
t-120.5 -19z" />
    <glyph glyph-name="T" unicode="T" horiz-adv-x="586" 
d="M546 700q6 0 10 -5t4 -11v-43q0 -15 -14 -15h-200v-611q0 -6 -4.5 -10.5t-10.5 -4.5h-59q-14 0 -14 15v611h-200q-6 0 -10.5 4.5t-4.5 10.5v43q0 6 4.5 11t10.5 5h227h46h215z" />
    <glyph glyph-name="U" unicode="U" horiz-adv-x="661" 
d="M575 700q14 0 14 -16v-395q-1 -143 -60 -220t-199 -77q-139 0 -199 77.5t-60 219.5v395q0 7 4.5 11.5t10.5 4.5h59q14 0 14 -16v-376q0 -127 40 -184.5t131 -57.5t131 57.5t40 184.5v376q0 7 4.5 11.5t10.5 4.5h59z" />
    <glyph glyph-name="V" unicode="V" horiz-adv-x="688" 
d="M641 700q7 0 11.5 -6.5t1.5 -14.5l-279 -669q-5 -10 -14 -10h-25h-9q-10 0 -14 11l-279 668q-3 9 1.5 15t11.5 6h56q15 0 21 -15l220 -540l220 540q6 15 21 15h56z" />
    <glyph glyph-name="W" unicode="W" horiz-adv-x="954" 
d="M906 700q6 0 10.5 -6t2.5 -14l-236 -670q-3 -10 -13 -10h-25q-9 0 -13 9l-155 510l-151 -509q-3 -10 -14 -10h-23q-10 0 -14 10l-240 670q-2 8 2.5 14t11.5 6h58q9 0 13 -10l177 -505l146 505q3 10 14 10h36h3q10 0 14 -10l150 -505l174 505q4 10 14 10h58z" />
    <glyph glyph-name="X" unicode="X" horiz-adv-x="614" 
d="M580 22q4 -6 0.5 -14t-13.5 -8h-55q-14 0 -24 14l-181 274l-180 -274q-11 -14 -25 -14h-55q-8 0 -12.5 7t0.5 16l224 338l-208 316q-5 9 -0.5 16t12.5 7h55q15 0 24 -15l165 -251l166 251q9 15 24 15h55q8 0 12.5 -7.5t-0.5 -15.5l-208 -316z" />
    <glyph glyph-name="Y" unicode="Y" horiz-adv-x="639" 
d="M590 700q8 0 13 -7.5t0 -15.5l-239 -378v-285q0 -14 -15 -14h-58q-15 0 -15 14v284l-239 380q-6 8 -0.5 15t13.5 7h53q14 0 25 -15l192 -309l192 309q11 15 24 15h54z" />
    <glyph glyph-name="Z" unicode="Z" horiz-adv-x="620" 
d="M567 74q14 0 14 -15v-44q0 -15 -14 -15h-493h-5q-8 0 -12.5 7t-0.5 14l395 605h-357q-14 0 -14 14v44q0 16 14 16h456h18q8 0 12.5 -7.5t0.5 -14.5l-395 -604h381z" />
    <glyph glyph-name="bracketleft" unicode="[" horiz-adv-x="292" 
d="M219 741h-75v-837h75q16 0 16 -15v-44q0 -15 -16 -15h-105h-42q-6 0 -10.5 4.5t-4.5 10.5v955q0 6 4.5 10.5t10.5 4.5h58h89q16 0 16 -15v-44q0 -15 -16 -15z" />
    <glyph glyph-name="backslash" unicode="\" horiz-adv-x="425" 
d="M336 0q-15 0 -21 15l-282 667q-3 7 0 12.5t11 5.5h48q14 0 20 -15l280 -663q3 -8 -1 -15t-14 -7h-41z" />
    <glyph glyph-name="bracketright" unicode="]" horiz-adv-x="292" 
d="M220 815q6 0 10.5 -4.5t4.5 -10.5v-955q0 -6 -4.5 -10.5t-10.5 -4.5h-58h-89q-16 0 -16 15v44q0 15 16 15h75v837h-75q-16 0 -16 15v44q0 15 16 15h105h42z" />
    <glyph glyph-name="asciicircum" unicode="^" horiz-adv-x="386" 
d="M327 581q4 -8 -0.5 -15t-14.5 -7h-16q-10 0 -21 15l-82 123l-82 -123q-11 -15 -21 -15h-16q-10 0 -14.5 7t-0.5 15l101 204q7 15 20 15h23h3q12 0 20 -15z" />
    <glyph glyph-name="underscore" unicode="_" horiz-adv-x="614" 
d="M73 -120q-16 0 -16 15v21q0 15 16 15h468q16 0 16 -15v-21q0 -15 -16 -15h-468z" />
    <glyph glyph-name="grave" unicode="`" horiz-adv-x="294" 
d="M200 642l-136 97q-12 12 -3 22l23 35q11 13 23 3l122 -116q12 -12 5 -21l-12 -17q-10 -12 -22 -3z" />
    <glyph glyph-name="a" unicode="a" horiz-adv-x="497" 
d="M426 423q14 0 14 -16v-392q0 -6 -4.5 -10.5t-9.5 -4.5h-26q-19 0 -28 19l-14 29q-48 -56 -124 -56q-92 0 -144.5 61.5t-52.5 157.5t52 158t145 62q69 0 116 -50l20 26q12 16 24 16h32zM237 59q69 0 95.5 37.5t26.5 113.5q0 75 -25.5 114t-95.5 39q-57 0 -88.5 -40.5
t-31.5 -111.5q0 -67 33 -109.5t86 -42.5z" />
    <glyph glyph-name="b" unicode="b" horiz-adv-x="499" 
d="M266 431q88 0 141 -65t53 -159t-53.5 -154.5t-139.5 -60.5q-78 0 -131 56l-14 -29q-10 -19 -23 -19h-26q-6 0 -10.5 4.5t-4.5 10.5v677q0 7 4.5 11.5t10.5 4.5h51q15 0 15 -16v-315q51 54 127 54zM250 59q63 0 96 42t33 113q0 65 -30.5 107t-97.5 42q-113 0 -113 -151
q0 -153 112 -153z" />
    <glyph glyph-name="c" unicode="c" horiz-adv-x="476" 
d="M262 -8q-91 0 -157.5 64t-66.5 154q0 91 66.5 156t157.5 65q108 0 170 -75q7 -10 -1 -19l-31 -32q-11 -11 -20 1q-43 57 -116 57q-60 0 -102 -44t-42 -109q0 -62 42.5 -106.5t101.5 -44.5q44 0 74.5 19.5t45.5 40.5q8 13 21 2l28 -28q9 -9 2 -19q-60 -82 -173 -82z" />
    <glyph glyph-name="d" unicode="d" horiz-adv-x="499" 
d="M427 708q14 0 14 -16v-677q0 -15 -14 -15h-27q-17 0 -24 19l-15 32q-52 -59 -132 -59q-87 0 -139 62t-52 156q0 95 51.5 158t140.5 63q79 0 129 -52v313q0 7 4.5 11.5t10.5 4.5h53zM249 59q66 0 89 42t23 118q0 144 -115 144q-126 0 -126 -149q0 -73 33.5 -114t95.5 -41z
" />
    <glyph glyph-name="e" unicode="e" horiz-adv-x="492" 
d="M251 431q99 0 150 -62t51 -167q0 -6 -4.5 -10.5t-10.5 -4.5h-66h-250q9 -59 49 -94t87 -35q65 0 121 47q11 11 21 -3l22 -27q8 -12 0 -21q-21 -23 -69 -42.5t-102 -19.5q-89 0 -151 62.5t-62 157.5t63.5 157t150.5 62zM247 365q-46 0 -82 -31.5t-44 -85.5h247
q-6 52 -38 84.5t-83 32.5z" />
    <glyph glyph-name="f" unicode="f" horiz-adv-x="384" 
d="M366 682q13 -9 6 -21l-22 -33q-8 -12 -19 -5q-29 17 -61 17q-50 0 -70.5 -26.5t-20.5 -90.5v-100h120q6 0 10.5 -4.5t4.5 -10.5v-38q0 -6 -4.5 -10.5t-10.5 -4.5h-120v-340q0 -15 -15 -15h-54q-15 0 -15 15v340h-49q-14 0 -14 15v38q0 15 14 15h49v104v1q1 48 12 82.5
t27 53t40.5 29t45 13t47.5 2.5q56 0 99 -26z" />
    <glyph glyph-name="g" unicode="g" horiz-adv-x="496" 
d="M425 423q14 0 14 -16v-392v-87q0 -85 -52 -138t-144 -53q-65 0 -114.5 29.5t-71.5 72.5q-4 7 3 14l32 31q11 9 19 -2q43 -76 132 -76q19 0 36.5 5t37.5 17.5t32 40t12 66.5l-1 110q-45 -53 -126 -53q-93 0 -145 64.5t-52 157.5q0 94 52 155.5t144 61.5q68 0 114 -46
l17 22q12 16 24 16h37zM238 59q72 0 96.5 38t24.5 115q0 74 -23.5 112.5t-98.5 38.5q-57 0 -88 -40.5t-31 -107.5q0 -70 33 -113t87 -43z" />
    <glyph glyph-name="h" unicode="h" horiz-adv-x="495" 
d="M271 431q72 0 119.5 -48.5t47.5 -146.5v-221q0 -15 -14 -15h-55q-15 0 -15 15v219q0 61 -27 95t-77 34q-53 0 -80.5 -29t-27.5 -62v-257q0 -15 -14 -15h-55q-15 0 -15 15v677q0 16 15 16h55q14 0 14 -16v-312q47 51 129 51z" />
    <glyph glyph-name="i" unicode="i" horiz-adv-x="232" 
d="M116 589q-20 0 -35 14.5t-15 34.5q0 21 15 35.5t35 14.5t35 -14.5t15 -35.5q0 -20 -15 -34.5t-35 -14.5zM89 0q-15 0 -15 14v392q0 17 15 17h54q15 0 15 -17v-392q0 -14 -15 -14h-54z" />
    <glyph glyph-name="j" unicode="j" horiz-adv-x="248" 
d="M141 588q-20 0 -35 15t-15 35t15 35t35 15t35 -15t15 -35t-15 -35t-35 -15zM15 -280q-101 0 -149 89q-6 10 4 18l39 26q13 7 19 -4q35 -60 88 -60q83 0 83 116l-1 503q0 15 14 15h55q15 0 15 -15l1 -506q0 -90 -44.5 -136t-123.5 -46z" />
    <glyph glyph-name="k" unicode="k" horiz-adv-x="462" 
d="M439 23q6 -6 1.5 -14.5t-13.5 -8.5h-49q-16 0 -30 14l-206 210v-209q0 -15 -15 -15h-55q-14 0 -14 15v677q0 16 14 16h55q6 0 10.5 -4.5t4.5 -11.5v-435l169 151q18 15 31 15h52q9 0 13 -9t-4 -17l-176 -158z" />
    <glyph glyph-name="l" unicode="l" horiz-adv-x="216" 
d="M80 0q-14 0 -14 15v677q0 16 14 16h55q6 0 10.5 -4.5t4.5 -11.5v-677q0 -15 -15 -15h-55z" />
    <glyph glyph-name="m" unicode="m" horiz-adv-x="782" 
d="M549 431q95 0 135.5 -45t40.5 -137v-234q0 -6 -4.5 -10.5t-10.5 -4.5h-55q-14 0 -14 15v231q0 117 -98 117q-47 0 -78.5 -26t-31.5 -66v-256q0 -15 -15 -15h-55q-14 0 -14 15v220q0 70 -22.5 99t-73.5 29t-81.5 -26.5t-30.5 -65.5v-256q0 -15 -14 -15h-55q-15 0 -15 15
v391q0 7 4.5 12t10.5 5h40q13 0 18 -17l10 -31q51 56 133 56q95 0 136 -64q26 29 64 46.5t76 17.5z" />
    <glyph glyph-name="n" unicode="n" horiz-adv-x="516" 
d="M281 431q178 0 178 -188v-228q0 -7 -5.5 -11t-10.5 -4h-53q-15 0 -15 15v222q0 65 -25 95.5t-89 30.5q-58 0 -89 -27t-31 -64v-257q0 -15 -15 -15h-55q-14 0 -14 15v391q0 17 14 17h43q12 0 17 -17l10 -32q51 57 140 57z" />
    <glyph glyph-name="o" unicode="o" horiz-adv-x="517" 
d="M259 -8q-94 0 -157.5 63.5t-63.5 154.5q0 92 63.5 156.5t157.5 64.5t157 -64.5t63 -156.5q0 -91 -63 -154.5t-157 -63.5zM259 59q58 0 98 43.5t40 107.5q0 65 -39.5 109t-98.5 44t-99 -44t-39 -109q-1 -64 39 -107.5t99 -43.5z" />
    <glyph glyph-name="p" unicode="p" horiz-adv-x="489" 
d="M266 431q86 0 139.5 -64.5t53.5 -158.5q0 -92 -53 -154t-139 -62q-77 0 -129 54v-311q0 -6 -4.5 -10.5t-10.5 -4.5h-52q-14 0 -14 15v671q0 17 14 17h25q13 0 20 -18l15 -36q54 62 135 62zM250 59q59 0 93.5 40t34.5 111q0 70 -33.5 111.5t-91.5 41.5q-116 0 -116 -155
q0 -149 113 -149z" />
    <glyph glyph-name="q" unicode="q" horiz-adv-x="496" 
d="M425 423q14 0 14 -17v-671q0 -15 -14 -15h-52q-6 0 -10.5 4.5t-4.5 10.5v309q-49 -52 -120 -52q-91 0 -146 62.5t-55 155.5q0 95 55.5 158t147.5 63q67 0 116 -47l22 21q18 18 27 18h20zM244 59q63 0 89 38.5t26 112.5q0 78 -24.5 115.5t-90.5 37.5q-59 0 -92.5 -44
t-33.5 -109t33.5 -108t92.5 -43z" />
    <glyph glyph-name="r" unicode="r" horiz-adv-x="374" 
d="M348 401q13 -8 5 -18l-25 -41q-7 -10 -18 -4q-31 26 -74 26q-38 0 -66.5 -24t-28.5 -67v-258q0 -15 -15 -15h-54q-15 0 -15 15v391q0 17 15 17h33q12 0 20 -17l6 -16q41 41 111 41q60 0 106 -30z" />
    <glyph glyph-name="s" unicode="s" horiz-adv-x="401" 
d="M198 -8q-47 0 -91.5 14.5t-71.5 39.5q-8 8 -2 19l18 32q6 14 20 6q63 -44 127 -44q90 0 90 64q0 24 -22 37t-69 24q-77 17 -116 45t-39 78q0 51 43 87.5t109 36.5q82 0 142 -34q12 -7 6 -19l-17 -32q-9 -11 -20 -6q-49 24 -101 24q-81 0 -81 -57q0 -15 20 -30t62 -25
q88 -21 117 -40q46 -32 47 -89q0 -47 -41 -89t-130 -42z" />
    <glyph glyph-name="t" unicode="t" horiz-adv-x="363" 
d="M343 54q5 -10 -3 -18q-19 -18 -53.5 -31t-71.5 -13q-115 0 -117 121v242h-46q-14 0 -14 16v35q0 17 14 17h46v105q0 15 15 15h54q15 0 15 -15v-105h112q15 0 15 -17v-35q0 -16 -15 -16h-112v-225q0 -21 2.5 -34t14 -24.5t33.5 -11.5q38 0 69 31q12 12 22 -2z" />
    <glyph glyph-name="u" unicode="u" horiz-adv-x="513" 
d="M442 423q15 0 15 -17v-392q0 -14 -15 -14h-25q-14 0 -22 14l-23 36q-46 -58 -137 -58q-85 0 -131.5 50t-46.5 127v237q0 17 14 17h55q15 0 15 -17v-230q0 -51 30 -84t88 -33q56 0 84.5 28.5t29.5 62.5v256q0 17 15 17h54z" />
    <glyph glyph-name="v" unicode="v" horiz-adv-x="458" 
d="M424 423q8 0 13 -7t1 -15l-179 -387q-6 -14 -16 -14h-22h-6q-11 0 -17 14l-179 388q-2 7 2 14t12 7h57q9 0 15 -15l124 -293l124 293q7 15 15 15h56z" />
    <glyph glyph-name="w" unicode="w" horiz-adv-x="629" 
d="M587 423q8 0 11.5 -7t1.5 -14l-129 -392q-4 -10 -14 -10h-22h-10q-9 0 -14 10l-96 284l-96 -285q-3 -9 -13 -9h-24h-9q-9 0 -14 9l-129 393q-3 7 0.5 14t12.5 7h52q12 0 15 -10l80 -278l104 278q4 10 12 10h14h5q10 0 13 -10l103 -275l79 274q3 11 15 11h52z" />
    <glyph glyph-name="x" unicode="x" horiz-adv-x="436" 
d="M373 423q8 0 12.5 -7.5t-0.5 -15.5l-125 -191l123 -187q4 -6 0.5 -14t-13.5 -8h-42q-15 0 -24 14l-86 131l-85 -131q-9 -14 -25 -14h-41q-8 0 -12.5 7t0.5 16l122 185l-126 192q-5 9 -0.5 16t12.5 7h42q15 0 24 -15l89 -136l90 136q9 15 24 15h41z" />
    <glyph glyph-name="y" unicode="y" horiz-adv-x="505" 
d="M463 423q7 0 12.5 -6.5t1.5 -14.5l-341 -674q-4 -8 -13 -8h-50q-8 0 -12.5 6.5t-0.5 14.5l143 283l-175 378q-3 6 0.5 13.5t12.5 7.5h54q11 0 17 -15l133 -300l155 306q4 9 14 9h49z" />
    <glyph glyph-name="z" unicode="z" horiz-adv-x="421" 
d="M367 423q9 0 13 -7.5t-2 -16.5l-216 -331h196q6 0 10.5 -4.5t4.5 -10.5v-39q0 -14 -15 -14h-272h-32q-8 0 -12.5 7.5t2.5 16.5l219 331h-191q-15 0 -15 14v39q0 6 4.5 10.5t10.5 4.5h265h30z" />
    <glyph glyph-name="braceleft" unicode="{" horiz-adv-x="339" 
d="M217 402q0 -33 -19 -53.5t-49 -26.5q30 -6 49 -26.5t19 -53.5v-308q0 -14 6.5 -22t13.5 -9l7 -1h22q16 0 16 -15v-44q0 -15 -16 -15h-32h-7q-51 0 -74.5 25.5t-23.5 80.5v301q0 22 -11.5 34.5t-22.5 14.5l-11 1h-11q-16 0 -16 15v44q0 15 16 15h11q2 0 5 0.5t10.5 3
t13.5 7t11 15t5 24.5v301q0 53 22.5 79t75.5 26h30h9q16 0 16 -15v-44q0 -15 -16 -15h-23q-3 0 -7.5 -1t-11.5 -8.5t-7 -21.5v-308z" />
    <glyph glyph-name="bar" unicode="|" horiz-adv-x="226" 
d="M88 -116q-15 0 -15 14v900q0 17 15 17h50q15 0 15 -17v-900q0 -14 -15 -14h-50z" />
    <glyph glyph-name="braceright" unicode="}" horiz-adv-x="339" 
d="M266 359q16 0 16 -15v-44q0 -15 -16 -15h-11q-5 0 -12.5 -1.5t-20 -14t-12.5 -34.5v-301q0 -55 -23.5 -80.5t-74.5 -25.5h-30h-9q-16 0 -16 15v44q0 15 16 15h22q3 0 7.5 1t12 9t7.5 22v308q0 33 19 53.5t49 26.5q-30 6 -49 26.5t-19 53.5v308q0 14 -6.5 21.5t-13.5 8.5
l-6 1h-23q-16 0 -16 15v44q0 15 16 15h32h7q53 0 75.5 -26t22.5 -79v-301q0 -22 11 -34.5t23 -14.5l11 -1h11z" />
    <glyph glyph-name="asciitilde" unicode="~" horiz-adv-x="508" 
d="M446 383q7 -3 4 -12q-6 -23 -36.5 -48t-74.5 -26h-1q-48 0 -93 16.5t-71 16.5q-61 0 -89 -26q-8 -6 -14 -1l-9 9q-7 3 -4 12q5 22 37.5 47.5t78.5 26.5h1q42 -1 88 -17.5t76 -16.5q53 0 84 26q7 6 14 2z" />
    <glyph glyph-name="exclamdown" unicode="&#xa1;" horiz-adv-x="207" 
d="M74 432h59q16 0 16 -15v-65q0 -15 -16 -15h-59q-16 0 -16 15v65q0 15 16 15zM92 270h23q16 0 16 -15l19 -524q0 -15 -15 -15h-64q-14 0 -14 15l19 524q0 15 16 15z" />
    <glyph glyph-name="cent" unicode="&#xa2;" horiz-adv-x="476" 
d="M433 93q9 -9 2 -19q-48 -65 -133 -79v-57q0 -14 -15 -14h-53q-15 0 -15 14v58q-77 16 -129 76t-52 138q0 80 52 140.5t129 76.5v55q0 17 15 17h53q15 0 15 -17v-54q81 -12 130 -72q7 -10 -1 -19l-31 -32q-11 -11 -20 1q-32 42 -78 53v-295q49 12 82 55q8 13 21 2z
M120 210q0 -49 27.5 -88.5t71.5 -54.5v289q-44 -15 -71.5 -54.5t-27.5 -91.5z" />
    <glyph glyph-name="sterling" unicode="&#xa3;" horiz-adv-x="556" 
d="M511 74q6 0 10.5 -4.5t4.5 -10.5v-44q0 -6 -4.5 -10.5t-10.5 -4.5h-436q-6 0 -10.5 4.5t-4.5 10.5v40q0 6 4.5 10.5t10.5 4.5h3q20 2 33 29.5t13 68.5v146h-52q-6 0 -10.5 4.5t-4.5 10.5v44q0 6 4.5 10.5t10.5 4.5h52v82q0 101 55 170t162 69q108 0 168 -87q6 -9 -2 -19
l-42 -25q-12 -10 -19 2q-40 55 -105 55q-129 0 -129 -166v-81h166q6 0 10.5 -4.5t4.5 -10.5v-44q0 -6 -4.5 -10.5t-10.5 -4.5h-166v-147q0 -67 -26 -93h325z" />
    <glyph glyph-name="currency" unicode="&#xa4;" horiz-adv-x="505" 
d="M410 251l33 -38q4 -5 4 -11.5t-4 -9.5l-38 -31q-5 -4 -11 -3.5t-9 4.5l-29 33q-48 -32 -103 -32t-104 31l-29 -33q-3 -4 -9 -4.5t-11 3.5l-38 30q-4 3 -4 9.5t4 11.5l33 40q-27 44 -27 97q0 52 26 95l-33 40q-10 12 0 21l38 30q5 4 11 3.5t9 -4.5l29 -33q46 33 105 33
q57 0 102 -31l29 34q10 10 21 1l38 -31q10 -9 0 -21l-33 -39q28 -45 28 -98t-28 -97zM139 348q0 -46 33.5 -80t80.5 -34t80.5 34t33.5 80t-33.5 80t-80.5 34t-80.5 -34t-33.5 -80z" />
    <glyph glyph-name="yen" unicode="&#xa5;" horiz-adv-x="640" 
d="M591 700q8 0 13 -7.5t0 -15.5l-217 -343h84q6 0 10.5 -4.5t4.5 -10.5v-33q0 -6 -4.5 -10.5t-10.5 -4.5h-106v-85h106q6 0 10.5 -4.5t4.5 -10.5v-33q0 -6 -4.5 -10.5t-10.5 -4.5h-106v-109q0 -14 -15 -14h-58q-15 0 -15 14v109h-109q-6 0 -10.5 4.5t-4.5 10.5v33
q0 6 4.5 10.5t10.5 4.5h109v85h-109q-6 0 -10.5 4.5t-4.5 10.5v33q0 6 4.5 10.5t10.5 4.5h86l-216 344q-6 8 -0.5 15t13.5 7h53q14 0 25 -15l192 -309l191 309q11 15 24 15h55z" />
    <glyph glyph-name="brokenbar" unicode="&#xa6;" horiz-adv-x="226" 
d="M88 438q-15 0 -15 14v346q0 17 15 17h50q15 0 15 -17v-346q0 -14 -15 -14h-50zM88 -116q-15 0 -15 14v346q0 17 15 17h50q15 0 15 -17v-346q0 -14 -15 -14h-50z" />
    <glyph glyph-name="section" unicode="&#xa7;" horiz-adv-x="535" 
d="M392 159q80 -45 80 -125q0 -59 -55 -109t-160 -50q-122 0 -198 76q-7 6 0 16l33 37q8 8 17 1l13 -11q14 -11 28.5 -20.5t44.5 -18t63 -8.5q127 0 127 87q0 29 -19.5 49t-37.5 26t-65 18q-9 3 -14 4q-94 23 -144 61.5t-50 100.5q0 38 22.5 77.5t66.5 63.5q-81 44 -81 120
q0 58 51.5 106t151.5 48q113 0 184 -57q9 -7 1 -18l-31 -38q-7 -9 -16 -2q-56 43 -136 43q-56 0 -87.5 -20.5t-31.5 -57.5q0 -38 31 -59t100 -38q31 -7 50.5 -12.5t51.5 -19t51 -29.5t34 -43.5t15 -60.5q0 -38 -23 -76.5t-67 -60.5zM226 401q-39 -9 -62.5 -38.5t-23.5 -65.5
q0 -38 31.5 -59t100.5 -38l32 -8q37 10 64 35.5t27 68.5q0 23 -9 38.5t-28.5 25.5t-37.5 16t-49 13q-4 1 -7 1.5t-6 1.5z" />
    <glyph glyph-name="dieresis" unicode="&#xa8;" horiz-adv-x="319" 
d="M97 670q-17 0 -28.5 11.5t-11.5 27.5q0 17 11.5 28.5t28.5 11.5t28.5 -11.5t11.5 -28.5q0 -16 -11.5 -27.5t-28.5 -11.5zM222 670q-16 0 -27.5 11t-11.5 28t11 28.5t28 11.5t28.5 -11.5t11.5 -28.5t-11.5 -28t-28.5 -11z" />
    <glyph glyph-name="copyright" unicode="&#xa9;" horiz-adv-x="829" 
d="M415 -8q-148 0 -253 104.5t-105 252.5q0 149 105 254t253 105t252.5 -105t104.5 -254q0 -148 -104.5 -252.5t-252.5 -104.5zM415 54q125 0 205 85.5t80 209.5q0 125 -80 211t-205 86t-205.5 -86.5t-80.5 -210.5t80.5 -209.5t205.5 -85.5zM415 114q-89 0 -143 65t-54 171
t54.5 171t142.5 65q67 0 113 -33t63 -88q7 -18 -12 -23l-34 -6q-18 -4 -23 16q-7 28 -37.5 49t-69.5 21q-54 0 -89 -48t-35 -123q0 -82 37.5 -127.5t87.5 -45.5q37 0 67.5 24t40.5 53q3 15 21 13l37 -8q7 -1 10 -7.5t1 -13.5q-15 -53 -63.5 -89t-114.5 -36z" />
    <glyph glyph-name="ordfeminine" unicode="&#xaa;" horiz-adv-x="383" 
d="M343 544v-196q0 -5 -3.5 -9t-8.5 -4h-29q-13 0 -17 16l-4 19q-34 -44 -98 -44q-67 0 -105 37.5t-38 91.5q0 48 40.5 84t104.5 36q54 0 84 -27v14q0 44 -19.5 63t-58.5 19q-36 0 -98 -24q-11 -4 -14 5l-11 34q-2 7 4 12q48 29 123 29q87 0 117.5 -39.5t30.5 -116.5z
M190 381q42 0 60.5 17.5t18.5 56.5q0 66 -79 66q-30 0 -53 -18t-23 -48q0 -36 22.5 -55t53.5 -19zM272 163q6 0 10.5 -4.5t4.5 -10.5v-44q0 -6 -4.5 -10.5t-10.5 -4.5h-146q-6 0 -10.5 4.5t-4.5 10.5v44q0 6 4.5 10.5t10.5 4.5h146z" />
    <glyph glyph-name="guillemotleft" unicode="&#xab;" horiz-adv-x="490" 
d="M148 212l121 -201q5 -8 2 -13.5t-12 -5.5h-24q-17 0 -24 10l-132 181q-14 18 -14 25v5v2q0 7 14 25l132 181q7 10 24 10h24q9 0 12 -5.5t-2 -13.5zM319 212l121 -201q5 -8 2 -13.5t-12 -5.5h-24q-17 0 -24 10l-132 181q-14 18 -14 25v5v2q0 7 14 25l132 181q7 10 24 10
h24q9 0 12 -5.5t-2 -13.5z" />
    <glyph glyph-name="logicalnot" unicode="&#xac;" horiz-adv-x="513" 
d="M441 382q16 0 16 -15v-37v-129q0 -16 -15 -16h-49q-15 0 -15 16v114h-305q-16 0 -16 15v37q0 15 16 15h368z" />
    <glyph glyph-name="registered" unicode="&#xae;" horiz-adv-x="829" 
d="M415 708q148 0 252.5 -105t104.5 -254q0 -148 -104.5 -252.5t-252.5 -104.5t-253 104.5t-105 252.5q0 149 105 254t253 105zM415 54q125 0 205 85.5t80 209.5q0 125 -80 211t-205 86t-205.5 -86.5t-80.5 -210.5t80.5 -209.5t205.5 -85.5zM589 441q0 -85 -60 -121
q56 -71 56 -186q0 -7 -8 -7h-52q-8 0 -8 7q0 102 -62 170h-126v-170q0 -7 -8 -7h-53q-7 0 -7 7v434q0 8 7 8h53h147q58 0 89.5 -39.5t31.5 -95.5zM329 517v-154h127q33 0 49 23t16 55q0 31 -15 53.5t-51 22.5h-126z" />
    <glyph glyph-name="macron" unicode="&#xaf;" horiz-adv-x="327" 
d="M73 669q-16 0 -16 15v34q0 15 16 15h181q16 0 16 -15v-34q0 -15 -16 -15h-181z" />
    <glyph glyph-name="degree" unicode="&#xb0;" horiz-adv-x="399" 
d="M200 423q-59 0 -101 41.5t-42 100.5t42 101t101 42t100.5 -42t41.5 -101t-41.5 -100.5t-100.5 -41.5zM200 481q35 0 57.5 24t22.5 60t-22.5 60.5t-57.5 24.5t-58 -24.5t-23 -60.5t22.5 -60t58.5 -24z" />
    <glyph glyph-name="plusminus" unicode="&#xb1;" horiz-adv-x="518" 
d="M445 376q16 0 16 -15v-38q0 -15 -16 -15h-147v-148q0 -16 -15 -16h-48q-15 0 -15 16v148h-147q-16 0 -16 15v38q0 15 16 15h147v149q0 16 15 16h48q15 0 15 -16v-149h147zM445 63q16 0 16 -15v-34q0 -15 -16 -15h-372q-16 0 -16 15v34q0 15 16 15h372z" />
    <glyph glyph-name="uni00B2" unicode="&#xb2;" horiz-adv-x="377" 
d="M327 419q10 0 10 -9v-43q0 -9 -10 -9h-277q-9 0 -9 9v36q0 7 6 12l166 185q41 46 41 79q0 32 -17.5 49t-48.5 17q-68 0 -79 -55q-3 -8 -9 -8h-51q-4 0 -7 3t-2 7q7 48 42 81t106 33h1q68 0 102 -35.5t34 -90.5q0 -25 -9 -47.5t-18 -32.5l-9 -10l-154 -171h192z" />
    <glyph glyph-name="uni00B3" unicode="&#xb3;" horiz-adv-x="379" 
d="M339 481q0 -54 -35 -92.5t-114 -38.5h-1q-72 0 -110.5 34t-38.5 79q0 11 11 11h51q9 0 9 -8q0 -23 22 -38t56 -15q41 0 61 19t20 49q0 72 -98 72h-16q-9 0 -9 9v44q0 9 9 9h16q43 0 65.5 19t22.5 53q0 27 -19.5 43t-51.5 16q-35 0 -57 -15.5t-22 -40.5q0 -7 -9 -7h-50
q-11 0 -11 10q0 47 38 80t111 33h1q75 0 106.5 -34.5t31.5 -83.5q0 -73 -55 -102q66 -22 66 -105z" />
    <glyph glyph-name="acute" unicode="&#xb4;" horiz-adv-x="294" 
d="M94 642q-12 -9 -22 3l-12 17q-7 9 5 21l122 116q12 10 23 -3l23 -35q9 -10 -3 -22z" />
    <glyph glyph-name="paragraph" unicode="&#xb6;" horiz-adv-x="541" 
d="M470 700q14 0 14 -15v-786q0 -15 -14 -15h-48q-6 0 -10.5 4.5t-4.5 10.5v733h-82v-733q0 -15 -14 -15h-48q-6 0 -10.5 4.5t-4.5 10.5v386q-71 0 -131 62t-60 146q0 83 60 145t131 62h1h62h121h38z" />
    <glyph glyph-name="periodcentered" unicode="&#xb7;" horiz-adv-x="206" 
d="M73 327q-16 0 -16 15v61q0 15 16 15h60q16 0 16 -15v-61q0 -15 -16 -15h-60z" />
    <glyph glyph-name="cedilla" unicode="&#xb8;" horiz-adv-x="275" 
d="M137 -38q32 2 57 -19t25 -57q0 -43 -24 -66t-68 -23q-24 0 -44 12.5t-25 25.5q-3 7 3 10l30 18q5 3 10 -3q10 -12 26 -12q12 0 22 10.5t10 28.5q0 20 -13.5 26.5t-28.5 0.5q-5 -2 -9.5 -2.5t-7.5 0.5h-2l-30 6q-7 2 -5 10l33 80h60z" />
    <glyph glyph-name="uni00B9" unicode="&#xb9;" horiz-adv-x="332" 
d="M283 417q9 0 9 -10v-42q0 -9 -9 -9h-143h-90q-10 0 -10 9v42q0 10 10 10h81v300l-66 -50q-5 -4 -10 -1t-5 8v44q0 6 9 13l77 62q6 3 10 3h46q9 0 9 -10v-369h82z" />
    <glyph glyph-name="ordmasculine" unicode="&#xba;" horiz-adv-x="412" 
d="M206 325q-72 0 -119 49t-47 139q0 89 47 138t119 49t119 -49t47 -138q0 -90 -47 -139t-119 -49zM206 386q46 0 69 35t23 92q0 56 -23 91t-69 35t-69 -35t-23 -91q0 -57 23 -92t69 -35zM134 89q-6 0 -10.5 4.5t-4.5 10.5v44q0 6 4.5 10.5t10.5 4.5h146q6 0 10.5 -4.5
t4.5 -10.5v-44q0 -6 -4.5 -10.5t-10.5 -4.5h-146z" />
    <glyph glyph-name="guillemotright" unicode="&#xbb;" horiz-adv-x="487" 
d="M254 208q0 -7 -14 -25l-132 -181q-7 -10 -24 -10h-24q-9 0 -12 5.5t2 13.5l121 201l-121 200q-5 8 -2 13.5t12 5.5h24q17 0 24 -10l132 -181q14 -18 14 -25v-5v-2zM411 240q14 -18 14 -25v-5v-2q0 -7 -14 -25l-132 -181q-7 -10 -24 -10h-24q-9 0 -12 5.5t2 13.5l121 201
l-121 200q-5 8 -2 13.5t12 5.5h24q17 0 24 -10z" />
    <glyph glyph-name="onequarter" unicode="&#xbc;" horiz-adv-x="874" 
d="M292 269q0 -9 -9 -9h-143h-90q-10 0 -10 9v42q0 10 10 10h81v299l-66 -49q-5 -4 -10 -1t-5 8v44q0 6 9 13l77 62q6 3 10 3h46q9 0 9 -10v-369h82q9 0 9 -10v-42zM648 700q8 0 11.5 -5t-0.5 -13l-341 -667q-8 -15 -21 -15h-33q-10 0 -14.5 7t-0.5 15l339 663q8 15 20 15
h40zM823 174q10 0 10 -9v-40q0 -9 -10 -9h-46v-80q0 -10 -9 -10h-52q-9 0 -9 10v80h-197q-9 0 -9 9v36q0 4 2 6l195 294q3 5 9 5h61q9 0 9 -9v-283h46zM572 174h135v198z" />
    <glyph glyph-name="onehalf" unicode="&#xbd;" horiz-adv-x="876" 
d="M292 269q0 -9 -9 -9h-143h-90q-10 0 -10 9v42q0 10 10 10h81v299l-66 -49q-5 -4 -10 -1t-5 8v44q0 6 9 13l77 62q6 3 10 3h46q9 0 9 -10v-369h82q9 0 9 -10v-42zM609 700q8 0 11.5 -5t-0.5 -13l-341 -667q-7 -15 -21 -15h-33q-10 0 -14.5 7t-0.5 15l339 663q7 15 20 15
h40zM826 85q10 0 10 -9v-43q0 -9 -10 -9h-277q-9 0 -9 9v36q0 7 6 12l166 185q41 46 41 79q0 32 -17.5 49t-48.5 17q-68 0 -79 -55q-3 -8 -9 -8h-51q-4 0 -7 3t-2 7q7 48 42 81t106 33h1q68 0 102 -35.5t34 -90.5q0 -25 -9 -47.5t-18 -32.5l-9 -10l-154 -171h192z" />
    <glyph glyph-name="threequarters" unicode="&#xbe;" horiz-adv-x="884" 
d="M190 252h-1q-72 0 -110.5 34t-38.5 79q0 11 11 11h51q9 0 9 -8q0 -23 21.5 -38t56.5 -15q41 0 61 19t20 49q0 72 -98 72h-16q-9 0 -9 9v44q0 9 9 9h16q43 0 65.5 19t22.5 53q0 27 -19 42.5t-52 16.5q-35 -1 -57 -16t-22 -40q0 -7 -9 -7h-50q-11 0 -11 10q0 47 38 80
t111 33h1q75 0 106.5 -34.5t31.5 -83.5q0 -73 -55 -102q66 -22 66 -105q0 -54 -35 -92.5t-114 -38.5zM654 700q8 0 11.5 -5t-0.5 -13l-340 -667q-7 -15 -21 -15h-34q-10 0 -14.5 7t-0.5 15l339 663q8 15 20 15h40zM833 174q10 0 10 -9v-40q0 -9 -10 -9h-46v-80q0 -10 -9 -10
h-52q-9 0 -9 10v80h-197q-9 0 -9 9v36q0 4 2 6l195 294q3 5 9 5h61q9 0 9 -9v-283h46zM582 174h135v198z" />
    <glyph glyph-name="questiondown" unicode="&#xbf;" horiz-adv-x="522" 
d="M279 336q-16 0 -16 15v65q0 15 16 15h58q16 0 16 -15v-65q0 -15 -16 -15h-58zM463 -129q10 -1 7 -15q-15 -58 -62 -99.5t-137 -41.5h-1q-100 0 -148 57.5t-48 138.5q0 70 27 113t77 82q55 42 72 74.5t17 70.5q0 14 13 14h56q14 0 14 -14q0 -56 -16.5 -94.5t-69.5 -80.5
q-65 -49 -84.5 -84.5t-19.5 -74.5q0 -129 111 -129q53 0 82 28t38 62q3 11 13 7z" />
    <glyph glyph-name="Agrave" unicode="&#xc0;" horiz-adv-x="707" 
d="M264 793q-14 6 -9 20l13 40q6 17 21 9l149 -77q15 -8 10 -19l-6 -20q-7 -13 -20 -9zM663 20q3 -7 -1.5 -13.5t-12.5 -6.5h-57q-10 0 -13 10l-57 137h-338l-57 -138q-4 -9 -13 -9h-57q-7 0 -11.5 6.5t-1.5 14.5l282 678q4 9 13 9h18h8q9 0 12 -9zM214 221h277l-139 334z
" />
    <glyph glyph-name="Aacute" unicode="&#xc1;" horiz-adv-x="707" 
d="M262 745l-6 20q-5 11 10 19l149 77q15 8 21 -9l13 -40q5 -14 -9 -20l-158 -56q-13 -4 -20 9zM663 20q3 -7 -1.5 -13.5t-12.5 -6.5h-57q-10 0 -13 10l-57 137h-338l-57 -138q-4 -9 -13 -9h-57q-7 0 -11.5 6.5t-1.5 14.5l282 678q4 9 13 9h18h8q9 0 12 -9zM214 221h277
l-139 334z" />
    <glyph glyph-name="Acircumflex" unicode="&#xc2;" horiz-adv-x="707" 
d="M253 750q-19 -13 -19 7v15q0 10 10 20l79 81q12 12 25 12h4q13 0 25 -12l81 -81q10 -10 10 -20v-15q0 -20 -19 -7l-99 66zM663 20q3 -7 -1.5 -13.5t-12.5 -6.5h-57q-10 0 -13 10l-57 137h-338l-57 -138q-4 -9 -13 -9h-57q-7 0 -11.5 6.5t-1.5 14.5l282 678q4 9 13 9h18h8
q9 0 12 -9zM214 221h277l-139 334z" />
    <glyph glyph-name="Atilde" unicode="&#xc3;" horiz-adv-x="707" 
d="M213 768q-7 4 -4 12q24 65 83 65h1q42 0 73.5 -16.5t48.5 -16.5q31 0 55 25q7 7 14 2l10 -5q7 -4 4 -12q-24 -64 -82 -65h-1q-37 0 -67.5 16.5t-54.5 16.5q-33 0 -56 -25q-7 -7 -14 -2zM663 20q3 -7 -1.5 -13.5t-12.5 -6.5h-57q-10 0 -13 10l-57 137h-338l-57 -138
q-4 -9 -13 -9h-57q-7 0 -11.5 6.5t-1.5 14.5l282 678q4 9 13 9h18h8q9 0 12 -9zM214 221h277l-139 334z" />
    <glyph glyph-name="Adieresis" unicode="&#xc4;" horiz-adv-x="707" 
d="M290 765q-17 0 -28.5 11.5t-11.5 27.5q0 17 11.5 28.5t28.5 11.5t28.5 -11.5t11.5 -28.5q0 -16 -11.5 -27.5t-28.5 -11.5zM415 765q-17 0 -28 11.5t-11 27.5q0 17 11 28.5t28 11.5t28.5 -11.5t11.5 -28.5t-11.5 -28t-28.5 -11zM663 20q3 -7 -1.5 -13.5t-12.5 -6.5h-57
q-10 0 -13 10l-57 137h-338l-57 -138q-4 -9 -13 -9h-57q-7 0 -11.5 6.5t-1.5 14.5l282 678q4 9 13 9h18h8q9 0 12 -9zM214 221h277l-139 334z" />
    <glyph glyph-name="Aring" unicode="&#xc5;" horiz-adv-x="707" 
d="M353 734q-43 0 -72 28t-29 75t29 75t72 28t73 -28t30 -75t-30 -75t-73 -28zM353 888q-21 0 -32 -15.5t-11 -35.5q0 -21 11 -36.5t32 -15.5q22 0 33 15.5t11 36.5q0 20 -11 35.5t-33 15.5zM663 20q3 -7 -1.5 -13.5t-12.5 -6.5h-57q-10 0 -13 10l-57 137h-338l-57 -138
q-4 -9 -13 -9h-57q-7 0 -11.5 6.5t-1.5 14.5l282 678q4 9 13 9h18h8q9 0 12 -9zM214 221h277l-139 334z" />
    <glyph glyph-name="AE" unicode="&#xc6;" horiz-adv-x="979" 
d="M928 74q6 0 10.5 -4.5t4.5 -10.5v-44q0 -6 -4.5 -10.5t-10.5 -4.5h-356h-37q-6 0 -10.5 4.5t-4.5 10.5v132h-303l-96 -138q-7 -9 -13 -9h-58q-8 0 -13 6t0 15l464 670q6 9 14 9h52h27h333q14 0 14 -15v-44q0 -15 -14 -15h-319v-239h220q15 0 15 -14v-46q0 -14 -15 -14
h-220v-239h320zM269 221h251v361z" />
    <glyph glyph-name="Ccedilla" unicode="&#xc7;" horiz-adv-x="716" 
d="M668 146q11 -9 2 -20q-97 -125 -250 -133l-10 -27q33 4 59 -17.5t26 -58.5q0 -43 -24 -66t-68 -23q-24 0 -44 12.5t-25 25.5q-3 7 3 10l27 16q4 2 9 -4q12 -12 30 -12q17 0 27 11.5t10 30.5q0 20 -17.5 27.5t-29.5 -1.5q-4 -3 -8 -4t-6 -1l-2 1l-28 9q-7 2 -5 10l25 61
q-137 13 -231.5 116t-94.5 241q0 147 104.5 252.5t253.5 105.5q78 0 147.5 -32t115.5 -91q9 -12 -1 -19l-36 -36q-4 -5 -10.5 -4.5t-10.5 5.5q-30 42 -86 72.5t-119 30.5q-111 0 -190.5 -84t-79.5 -200q0 -113 80.5 -198.5t189.5 -85.5q65 0 121.5 31.5t89.5 79.5q9 13 22 2
z" />
    <glyph glyph-name="Egrave" unicode="&#xc8;" horiz-adv-x="531" 
d="M195 793q-14 6 -9 20l13 40q6 17 21 9l149 -77q15 -8 10 -19l-6 -20q-7 -13 -20 -9zM480 74q6 0 10.5 -4.5t4.5 -10.5v-44q0 -6 -4.5 -10.5t-10.5 -4.5h-356h-36q-6 0 -10.5 4.5t-4.5 10.5v670q0 6 4.5 10.5t10.5 4.5h59h332q14 0 14 -15v-44q0 -15 -14 -15h-318v-239
h219q15 0 15 -14v-46q0 -14 -15 -14h-219v-239h319z" />
    <glyph glyph-name="Eacute" unicode="&#xc9;" horiz-adv-x="531" 
d="M193 745l-6 20q-5 11 10 19l149 77q15 8 21 -9l13 -40q5 -14 -9 -20l-158 -56q-13 -4 -20 9zM480 74q6 0 10.5 -4.5t4.5 -10.5v-44q0 -6 -4.5 -10.5t-10.5 -4.5h-356h-36q-6 0 -10.5 4.5t-4.5 10.5v670q0 6 4.5 10.5t10.5 4.5h59h332q14 0 14 -15v-44q0 -15 -14 -15h-318
v-239h219q15 0 15 -14v-46q0 -14 -15 -14h-219v-239h319z" />
    <glyph glyph-name="Ecircumflex" unicode="&#xca;" horiz-adv-x="531" 
d="M184 750q-19 -13 -19 7v15q0 10 10 20l79 81q12 12 25 12h4q13 0 25 -12l81 -81q10 -10 10 -20v-15q0 -20 -19 -7l-99 66zM480 74q6 0 10.5 -4.5t4.5 -10.5v-44q0 -6 -4.5 -10.5t-10.5 -4.5h-356h-36q-6 0 -10.5 4.5t-4.5 10.5v670q0 6 4.5 10.5t10.5 4.5h59h332
q14 0 14 -15v-44q0 -15 -14 -15h-318v-239h219q15 0 15 -14v-46q0 -14 -15 -14h-219v-239h319z" />
    <glyph glyph-name="Edieresis" unicode="&#xcb;" horiz-adv-x="531" 
d="M222 765q-17 0 -28.5 11.5t-11.5 27.5q0 17 11.5 28.5t28.5 11.5t28.5 -11.5t11.5 -28.5q0 -16 -11.5 -27.5t-28.5 -11.5zM347 765q-17 0 -28 11.5t-11 27.5q0 17 11 28.5t28 11.5t28.5 -11.5t11.5 -28.5t-11.5 -28t-28.5 -11zM480 74q6 0 10.5 -4.5t4.5 -10.5v-44
q0 -6 -4.5 -10.5t-10.5 -4.5h-356h-36q-6 0 -10.5 4.5t-4.5 10.5v670q0 6 4.5 10.5t10.5 4.5h59h332q14 0 14 -15v-44q0 -15 -14 -15h-318v-239h219q15 0 15 -14v-46q0 -14 -15 -14h-219v-239h319z" />
    <glyph glyph-name="Igrave" unicode="&#xcc;" horiz-adv-x="245" 
d="M188 737l-158 56q-14 6 -9 20l13 40q6 17 21 9l149 -77q15 -8 10 -19l-6 -20q-7 -13 -20 -9zM89 0q-6 0 -10.5 4.5t-4.5 10.5v670q0 6 4.5 10.5t10.5 4.5h59q14 0 14 -15v-670q0 -15 -14 -15h-59z" />
    <glyph glyph-name="Iacute" unicode="&#xcd;" horiz-adv-x="245" 
d="M47 736q-13 -4 -20 9l-6 20q-5 11 10 19l149 77q15 8 21 -9l13 -40q5 -14 -9 -20zM89 0q-6 0 -10.5 4.5t-4.5 10.5v670q0 6 4.5 10.5t10.5 4.5h59q14 0 14 -15v-670q0 -15 -14 -15h-59z" />
    <glyph glyph-name="Icircumflex" unicode="&#xce;" horiz-adv-x="245" 
d="M223 792q10 -10 10 -20v-15q0 -20 -19 -7l-99 66l-97 -66q-19 -13 -19 7v15q0 10 10 20l79 81q12 12 25 12h4q13 0 25 -12zM148 700q14 0 14 -15v-670q0 -15 -14 -15h-59q-6 0 -10.5 4.5t-4.5 10.5v670q0 6 4.5 10.5t10.5 4.5h59z" />
    <glyph glyph-name="Idieresis" unicode="&#xcf;" horiz-adv-x="245" 
d="M56 765q-17 0 -28.5 11.5t-11.5 27.5q0 17 11.5 28.5t28.5 11.5t28.5 -11.5t11.5 -28.5q0 -16 -11.5 -27.5t-28.5 -11.5zM181 765q-17 0 -28 11.5t-11 27.5q0 17 11 28.5t28 11.5t28.5 -11.5t11.5 -28.5t-11.5 -28t-28.5 -11zM89 0q-6 0 -10.5 4.5t-4.5 10.5v670
q0 6 4.5 10.5t10.5 4.5h59q14 0 14 -15v-670q0 -15 -14 -15h-59z" />
    <glyph glyph-name="Eth" unicode="&#xd0;" horiz-adv-x="726" 
d="M657 349q0 -156 -87.5 -251.5t-218.5 -97.5h-201h-27q-6 0 -10.5 4.5t-4.5 10.5v299h-59q-16 0 -16 15v40q0 15 16 15h59v301q0 6 4.5 10.5t10.5 4.5h59h173q130 -4 216 -98.5t86 -252.5zM346 74q93 0 158 74t65 201q0 128 -65 202.5t-158 74.5h-150v-242h155
q16 0 16 -15v-40q0 -15 -16 -15h-155v-240h150z" />
    <glyph glyph-name="Ntilde" unicode="&#xd1;" horiz-adv-x="677" 
d="M198 768q-7 4 -4 12q24 65 83 65h1q42 0 73.5 -16.5t48.5 -16.5q31 0 55 25q7 7 14 2l10 -5q7 -4 4 -12q-24 -64 -82 -65h-1q-37 0 -67.5 16.5t-54.5 16.5q-33 0 -56 -25q-7 -7 -14 -2zM589 700q6 0 10.5 -4.5t4.5 -10.5v-671q0 -14 -15 -14h-35h-9q-16 0 -25 14
l-359 523v-523q0 -14 -14 -14h-59q-15 0 -15 14v671q0 6 4.5 10.5t10.5 4.5h35h10q16 0 24 -15l359 -526v526q0 15 14 15h59z" />
    <glyph glyph-name="Ograve" unicode="&#xd2;" horiz-adv-x="800" 
d="M470 737l-158 56q-14 6 -9 20l13 40q6 17 21 9l149 -77q15 -8 10 -19l-6 -20q-7 -13 -20 -9zM401 -8q-148 0 -253 104.5t-105 252.5q0 149 105 254t253 105t252.5 -105t104.5 -254q0 -148 -104.5 -252.5t-252.5 -104.5zM401 66q109 0 189 83t80 200t-80 201t-189 84
q-111 0 -190.5 -83.5t-79.5 -201.5q0 -117 79.5 -200t190.5 -83z" />
    <glyph glyph-name="Oacute" unicode="&#xd3;" horiz-adv-x="800" 
d="M330 736q-13 -4 -20 9l-6 20q-5 11 10 19l149 77q15 8 21 -9l13 -40q5 -14 -9 -20zM401 -8q-148 0 -253 104.5t-105 252.5q0 149 105 254t253 105t252.5 -105t104.5 -254q0 -148 -104.5 -252.5t-252.5 -104.5zM401 66q109 0 189 83t80 200t-80 201t-189 84
q-111 0 -190.5 -83.5t-79.5 -201.5q0 -117 79.5 -200t190.5 -83z" />
    <glyph glyph-name="Ocircumflex" unicode="&#xd4;" horiz-adv-x="800" 
d="M301 750q-19 -13 -19 7v15q0 10 10 20l79 81q12 12 25 12h4q13 0 25 -12l81 -81q10 -10 10 -20v-15q0 -20 -19 -7l-99 66zM401 708q148 0 252.5 -105t104.5 -254q0 -148 -104.5 -252.5t-252.5 -104.5t-253 104.5t-105 252.5q0 149 105 254t253 105zM401 66q109 0 189 83
t80 200t-80 201t-189 84q-111 0 -190.5 -83.5t-79.5 -201.5q0 -117 79.5 -200t190.5 -83z" />
    <glyph glyph-name="Otilde" unicode="&#xd5;" horiz-adv-x="800" 
d="M261 768q-7 4 -4 12q24 65 83 65h1q42 0 73.5 -16.5t48.5 -16.5q31 0 55 25q6 7 14 2l10 -5q7 -4 4 -12q-24 -64 -82 -65h-1q-37 0 -67.5 16.5t-54.5 16.5q-33 0 -56 -25q-7 -7 -14 -2zM401 708q148 0 252.5 -105t104.5 -254q0 -148 -104.5 -252.5t-252.5 -104.5
t-253 104.5t-105 252.5q0 149 105 254t253 105zM401 66q109 0 189 83t80 200t-80 201t-189 84q-111 0 -190.5 -83.5t-79.5 -201.5q0 -117 79.5 -200t190.5 -83z" />
    <glyph glyph-name="Odieresis" unicode="&#xd6;" horiz-adv-x="800" 
d="M338 765q-17 0 -28.5 11.5t-11.5 27.5q0 17 11.5 28.5t28.5 11.5t28.5 -11.5t11.5 -28.5q0 -16 -11.5 -27.5t-28.5 -11.5zM463 765q-17 0 -28 11.5t-11 27.5q0 17 11 28.5t28 11.5t28.5 -11.5t11.5 -28.5t-11.5 -28t-28.5 -11zM401 -8q-148 0 -253 104.5t-105 252.5
q0 149 105 254t253 105t252.5 -105t104.5 -254q0 -148 -104.5 -252.5t-252.5 -104.5zM401 66q109 0 189 83t80 200t-80 201t-189 84q-111 0 -190.5 -83.5t-79.5 -201.5q0 -117 79.5 -200t190.5 -83z" />
    <glyph glyph-name="multiply" unicode="&#xd7;" horiz-adv-x="440" 
d="M377 211q11 -11 1 -22l-29 -29q-11 -12 -22 -1l-107 107l-107 -106q-11 -12 -22 -1l-29 30q-10 10 1 22l106 106l-106 106q-11 11 -1 22l29 29q11 12 22 1l107 -107l107 106q11 12 22 1l29 -30q10 -10 -1 -22l-106 -106z" />
    <glyph glyph-name="Oslash" unicode="&#xd8;" horiz-adv-x="817" 
d="M593 651q76 -49 120.5 -128.5t44.5 -173.5q0 -148 -104.5 -252.5t-252.5 -104.5q-69 0 -133 25l-5 -10q-7 -15 -21 -15h-35q-10 0 -14.5 7t-0.5 15l17 33q-76 48 -121 128t-45 174q0 149 105 254t253 105q70 0 134 -26l5 11q8 15 20 15h42q8 0 11.5 -5t-0.5 -13zM131 349
q0 -71 31 -131.5t84 -99.5l254 495q-50 21 -99 21q-111 0 -190.5 -83.5t-79.5 -201.5zM401 66q109 0 189 83t80 200q0 70 -31 130.5t-83 100.5l-253 -495q47 -19 98 -19z" />
    <glyph glyph-name="Ugrave" unicode="&#xd9;" horiz-adv-x="661" 
d="M241 793q-14 6 -9 20l13 40q6 17 21 9l149 -77q15 -8 10 -19l-6 -20q-7 -13 -20 -9zM575 700q14 0 14 -16v-395q-1 -143 -60 -220t-199 -77q-139 0 -199 77.5t-60 219.5v395q0 7 4.5 11.5t10.5 4.5h59q14 0 14 -16v-376q0 -127 40 -184.5t131 -57.5t131 57.5t40 184.5
v376q0 7 4.5 11.5t10.5 4.5h59z" />
    <glyph glyph-name="Uacute" unicode="&#xda;" horiz-adv-x="661" 
d="M239 745l-6 20q-5 11 10 19l149 77q15 8 21 -9l13 -40q5 -14 -9 -20l-158 -56q-13 -4 -20 9zM575 700q14 0 14 -16v-395q-1 -143 -60 -220t-199 -77q-139 0 -199 77.5t-60 219.5v395q0 7 4.5 11.5t10.5 4.5h59q14 0 14 -16v-376q0 -127 40 -184.5t131 -57.5t131 57.5
t40 184.5v376q0 7 4.5 11.5t10.5 4.5h59z" />
    <glyph glyph-name="Ucircumflex" unicode="&#xdb;" horiz-adv-x="661" 
d="M230 750q-19 -13 -19 7v15q0 10 10 20l79 81q12 12 25 12h4q13 0 25 -12l81 -81q10 -10 10 -20v-15q0 -20 -19 -7l-99 66zM575 700q14 0 14 -16v-395q-1 -143 -60 -220t-199 -77q-139 0 -199 77.5t-60 219.5v395q0 7 4.5 11.5t10.5 4.5h59q14 0 14 -16v-376
q0 -127 40 -184.5t131 -57.5t131 57.5t40 184.5v376q0 7 4.5 11.5t10.5 4.5h59z" />
    <glyph glyph-name="Udieresis" unicode="&#xdc;" horiz-adv-x="661" 
d="M267 765q-17 0 -28.5 11.5t-11.5 27.5q0 17 11.5 28.5t28.5 11.5t28.5 -11.5t11.5 -28.5q0 -16 -11.5 -27.5t-28.5 -11.5zM392 765q-16 0 -27.5 11.5t-11.5 27.5q0 17 11 28.5t28 11.5t28.5 -11.5t11.5 -28.5t-11.5 -28t-28.5 -11zM575 700q14 0 14 -16v-395
q-1 -143 -60 -220t-199 -77q-139 0 -199 77.5t-60 219.5v395q0 7 4.5 11.5t10.5 4.5h59q14 0 14 -16v-376q0 -127 40 -184.5t131 -57.5t131 57.5t40 184.5v376q0 7 4.5 11.5t10.5 4.5h59z" />
    <glyph glyph-name="Yacute" unicode="&#xdd;" horiz-adv-x="639" 
d="M229 745l-6 20q-5 11 10 19l149 77q15 8 21 -9l13 -40q5 -14 -9 -20l-158 -56q-13 -4 -20 9zM590 700q8 0 13 -7.5t0 -15.5l-239 -378v-285q0 -14 -15 -14h-58q-15 0 -15 14v284l-239 380q-6 8 -0.5 15t13.5 7h53q14 0 25 -15l192 -309l192 309q11 15 24 15h54z" />
    <glyph glyph-name="Thorn" unicode="&#xde;" horiz-adv-x="643" 
d="M571 360q0 -96 -58.5 -155.5t-137.5 -60.5h-216v-129q0 -14 -14 -14l-59 -1q-15 0 -15 14v671q0 15 15 15l59 1q14 0 14 -15v-108h222q78 -1 134 -61t56 -157zM369 218q54 0 84 43t30 99q0 60 -26.5 102t-89.5 42h-208v-286h210z" />
    <glyph glyph-name="germandbls" unicode="&#xdf;" horiz-adv-x="467" 
d="M304 367q0 -22 12.5 -41t31 -35t36.5 -35.5t30.5 -51.5t12.5 -74q0 -138 -144 -138q-51 0 -93 26q-14 8 -7 20l17 34q7 12 19 5q28 -18 62 -18q63 0 63 71q0 34 -13 61t-31.5 45t-37 35.5t-31 42.5t-12.5 56q0 33 18.5 62t41 47t41 40t18.5 43q0 46 -20 62t-81 16
q-50 0 -73 -28t-23 -89v-508q0 -15 -15 -15h-54q-15 0 -15 15v512v1q1 61 17 100t46 55t55 20.5t62 4.5q108 0 146.5 -35.5t38.5 -104.5q0 -34 -18.5 -63.5t-41 -48t-40.5 -42.5t-18 -47z" />
    <glyph glyph-name="agrave" unicode="&#xe0;" horiz-adv-x="497" 
d="M293 460l-136 97q-12 12 -3 22l23 35q11 13 23 3l122 -116q12 -12 5 -21l-12 -17q-10 -12 -22 -3zM426 423q14 0 14 -16v-392q0 -6 -4.5 -10.5t-9.5 -4.5h-26q-19 0 -28 19l-14 29q-48 -56 -124 -56q-92 0 -144.5 61.5t-52.5 157.5t52 158t145 62q69 0 116 -50l20 26
q12 16 24 16h32zM237 59q69 0 95.5 37.5t26.5 113.5q0 75 -25.5 114t-95.5 39q-57 0 -88.5 -40.5t-31.5 -111.5q0 -67 33 -109.5t86 -42.5z" />
    <glyph glyph-name="aacute" unicode="&#xe1;" horiz-adv-x="497" 
d="M165 463l-12 17q-7 9 5 21l122 116q12 10 23 -3l23 -35q9 -10 -3 -22l-136 -97q-12 -9 -22 3zM426 423q14 0 14 -16v-392q0 -6 -4.5 -10.5t-9.5 -4.5h-26q-19 0 -28 19l-14 29q-48 -56 -124 -56q-92 0 -144.5 61.5t-52.5 157.5t52 158t145 62q69 0 116 -50l20 26
q12 16 24 16h32zM237 59q69 0 95.5 37.5t26.5 113.5q0 75 -25.5 114t-95.5 39q-57 0 -88.5 -40.5t-31.5 -111.5q0 -67 33 -109.5t86 -42.5z" />
    <glyph glyph-name="acircumflex" unicode="&#xe2;" horiz-adv-x="497" 
d="M140 473q-19 -13 -19 7v15q0 10 10 20l79 81q12 12 25 12h4q13 0 25 -12l81 -81q10 -10 10 -20v-15q0 -20 -19 -7l-99 66zM426 423q14 0 14 -16v-392q0 -6 -4.5 -10.5t-9.5 -4.5h-26q-19 0 -28 19l-14 29q-48 -56 -124 -56q-92 0 -144.5 61.5t-52.5 157.5t52 158t145 62
q69 0 116 -50l20 26q12 16 24 16h32zM237 59q69 0 95.5 37.5t26.5 113.5q0 75 -25.5 114t-95.5 39q-57 0 -88.5 -40.5t-31.5 -111.5q0 -67 33 -109.5t86 -42.5z" />
    <glyph glyph-name="atilde" unicode="&#xe3;" horiz-adv-x="497" 
d="M101 491q-7 4 -4 12q24 65 83 65h1q42 0 73.5 -16.5t48.5 -16.5q31 0 55 25q6 6 14 2l10 -5q7 -4 4 -12q-24 -64 -82 -65h-1q-37 0 -67.5 16.5t-54.5 16.5q-33 0 -56 -25q-6 -7 -14 -2zM426 423q14 0 14 -16v-392q0 -6 -4.5 -10.5t-9.5 -4.5h-26q-19 0 -28 19l-14 29
q-48 -56 -124 -56q-92 0 -144.5 61.5t-52.5 157.5t52 158t145 62q69 0 116 -50l20 26q12 16 24 16h32zM237 59q69 0 95.5 37.5t26.5 113.5q0 75 -25.5 114t-95.5 39q-57 0 -88.5 -40.5t-31.5 -111.5q0 -67 33 -109.5t86 -42.5z" />
    <glyph glyph-name="adieresis" unicode="&#xe4;" horiz-adv-x="497" 
d="M178 488q-17 0 -28.5 11.5t-11.5 27.5q0 17 11.5 28.5t28.5 11.5t28.5 -11.5t11.5 -28.5q0 -16 -11.5 -27.5t-28.5 -11.5zM303 488q-17 0 -28 11t-11 28t11 28.5t28 11.5t28.5 -11.5t11.5 -28.5t-11.5 -28t-28.5 -11zM426 423q14 0 14 -16v-392q0 -6 -4.5 -10.5
t-9.5 -4.5h-26q-19 0 -28 19l-14 29q-48 -56 -124 -56q-92 0 -144.5 61.5t-52.5 157.5t52 158t145 62q69 0 116 -50l20 26q12 16 24 16h32zM237 59q69 0 95.5 37.5t26.5 113.5q0 75 -25.5 114t-95.5 39q-57 0 -88.5 -40.5t-31.5 -111.5q0 -67 33 -109.5t86 -42.5z" />
    <glyph glyph-name="aring" unicode="&#xe5;" horiz-adv-x="497" 
d="M240 457q-43 0 -72 28t-29 75t29 75t72 28t73 -28t30 -75t-30 -75t-73 -28zM240 611q-21 0 -32 -15.5t-11 -35.5q0 -21 11 -36.5t32 -15.5q22 0 33 15.5t11 36.5q0 20 -11 35.5t-33 15.5zM426 423q14 0 14 -16v-392q0 -6 -4.5 -10.5t-9.5 -4.5h-26q-19 0 -28 19l-14 29
q-48 -56 -124 -56q-92 0 -144.5 61.5t-52.5 157.5t52 158t145 62q69 0 116 -50l20 26q12 16 24 16h32zM237 59q69 0 95.5 37.5t26.5 113.5q0 75 -25.5 114t-95.5 39q-57 0 -88.5 -40.5t-31.5 -111.5q0 -67 33 -109.5t86 -42.5z" />
    <glyph glyph-name="ae" unicode="&#xe6;" horiz-adv-x="736" 
d="M400 187q7 -59 40.5 -94t80.5 -35q68 0 106 52q8 11 21 0l29 -26q11 -9 1 -19q-60 -73 -158 -73q-100 0 -158 77q-24 -37 -67 -57t-92 -20q-76 0 -120.5 44.5t-44.5 106.5q0 57 46.5 99t120.5 42q58 0 102 -26v11q0 96 -100 96q-13 0 -26.5 -2t-26 -6t-21 -7t-19.5 -7.5
t-14 -5.5q-12 -5 -16 6l-13 41q-3 8 5 13q58 34 137 34q115 0 154 -66q55 66 145 66q85 0 134.5 -57t49.5 -172q0 -6 -4.5 -10.5t-10.5 -4.5h-281zM511 365q-99 0 -111 -117h212q-8 117 -101 117zM211 55q52 0 74 27t22 61q0 42 -20.5 61.5t-75.5 19.5q-36 0 -63.5 -22
t-27.5 -59q0 -44 27 -66t64 -22z" />
    <glyph glyph-name="ccedilla" unicode="&#xe7;" horiz-adv-x="476" 
d="M433 93q9 -9 2 -19q-53 -73 -153 -81l-10 -27q33 4 59 -17.5t26 -58.5q0 -43 -24 -66t-68 -23q-24 0 -44 12.5t-25 25.5q-3 7 3 10l27 16q4 2 9 -4q12 -12 30 -12q17 0 27 11.5t10 30.5q0 20 -17.5 27.5t-29.5 -1.5q-4 -3 -8 -4t-6 -1l-2 1l-28 9q-7 2 -5 10l26 62
q-81 11 -137.5 73t-56.5 143q0 91 66.5 156t157.5 65q108 0 170 -75q7 -10 -1 -19l-31 -32q-11 -11 -20 1q-43 57 -116 57q-60 0 -102 -44t-42 -109q0 -62 42.5 -106.5t101.5 -44.5q44 0 74.5 19.5t45.5 40.5q8 13 21 2z" />
    <glyph glyph-name="egrave" unicode="&#xe8;" horiz-adv-x="492" 
d="M303 460l-136 97q-12 12 -3 22l23 35q11 13 23 3l122 -116q12 -12 5 -21l-12 -17q-10 -12 -22 -3zM251 431q99 0 150 -62t51 -167q0 -6 -4.5 -10.5t-10.5 -4.5h-66h-250q9 -59 49 -94t87 -35q65 0 121 47q11 11 21 -3l22 -27q8 -12 0 -21q-21 -23 -69 -42.5t-102 -19.5
q-89 0 -151 62.5t-62 157.5t63.5 157t150.5 62zM247 365q-46 0 -82 -31.5t-44 -85.5h247q-6 52 -38 84.5t-83 32.5z" />
    <glyph glyph-name="eacute" unicode="&#xe9;" horiz-adv-x="492" 
d="M175 463l-12 17q-7 9 5 21l122 116q12 10 23 -3l23 -35q9 -10 -3 -22l-136 -97q-12 -9 -22 3zM251 431q99 0 150 -62t51 -167q0 -6 -4.5 -10.5t-10.5 -4.5h-66h-250q9 -59 49 -94t87 -35q65 0 121 47q11 11 21 -3l22 -27q8 -12 0 -21q-21 -23 -69 -42.5t-102 -19.5
q-89 0 -151 62.5t-62 157.5t63.5 157t150.5 62zM247 365q-46 0 -82 -31.5t-44 -85.5h247q-6 52 -38 84.5t-83 32.5z" />
    <glyph glyph-name="ecircumflex" unicode="&#xea;" horiz-adv-x="492" 
d="M149 473q-19 -13 -19 7v15q0 10 10 20l79 81q12 12 25 12h4q13 0 25 -12l81 -81q10 -10 10 -20v-15q0 -20 -19 -7l-99 66zM251 431q99 0 150 -62t51 -167q0 -6 -4.5 -10.5t-10.5 -4.5h-66h-250q9 -59 49 -94t87 -35q65 0 121 47q11 11 21 -3l22 -27q8 -12 0 -21
q-21 -23 -69 -42.5t-102 -19.5q-89 0 -151 62.5t-62 157.5t63.5 157t150.5 62zM247 365q-46 0 -82 -31.5t-44 -85.5h247q-6 52 -38 84.5t-83 32.5z" />
    <glyph glyph-name="edieresis" unicode="&#xeb;" horiz-adv-x="492" 
d="M187 488q-17 0 -28.5 11.5t-11.5 27.5q0 17 11.5 28.5t28.5 11.5t28.5 -11.5t11.5 -28.5q0 -16 -11.5 -27.5t-28.5 -11.5zM312 488q-16 0 -27.5 11t-11.5 28t11 28.5t28 11.5t28.5 -11.5t11.5 -28.5t-11.5 -28t-28.5 -11zM251 431q99 0 150 -62t51 -167q0 -6 -4.5 -10.5
t-10.5 -4.5h-66h-250q9 -59 49 -94t87 -35q65 0 121 47q11 11 21 -3l22 -27q8 -12 0 -21q-21 -23 -69 -42.5t-102 -19.5q-89 0 -151 62.5t-62 157.5t63.5 157t150.5 62zM247 365q-46 0 -82 -31.5t-44 -85.5h247q-6 52 -38 84.5t-83 32.5z" />
    <glyph glyph-name="igrave" unicode="&#xec;" horiz-adv-x="215" 
d="M160 570l-136 97q-12 12 -3 22l23 35q11 13 23 3l122 -116q12 -12 5 -21l-12 -17q-10 -12 -22 -3zM80 0q-15 0 -15 14v392q0 17 15 17h54q15 0 15 -17v-392q0 -14 -15 -14h-54z" />
    <glyph glyph-name="iacute" unicode="&#xed;" horiz-adv-x="215" 
d="M54 570q-12 -9 -22 3l-12 17q-7 9 5 21l122 116q12 10 23 -3l23 -35q9 -10 -3 -22zM80 0q-15 0 -15 14v392q0 17 15 17h54q15 0 15 -17v-392q0 -14 -15 -14h-54z" />
    <glyph glyph-name="icircumflex" unicode="&#xee;" horiz-adv-x="215" 
d="M212 625q10 -10 10 -20v-15q0 -20 -19 -7l-99 66l-97 -66q-19 -13 -19 7v15q0 10 10 20l79 81q12 12 25 12h4q13 0 25 -12zM134 423q15 0 15 -17v-392q0 -14 -15 -14h-54q-15 0 -15 14v392q0 17 15 17h54z" />
    <glyph glyph-name="idieresis" unicode="&#xef;" horiz-adv-x="215" 
d="M45 598q-17 0 -28.5 11.5t-11.5 27.5q0 17 11.5 28.5t28.5 11.5t28.5 -11.5t11.5 -28.5q0 -16 -11.5 -27.5t-28.5 -11.5zM170 598q-16 0 -27.5 11t-11.5 28t11 28.5t28 11.5t28.5 -11.5t11.5 -28.5t-11.5 -28t-28.5 -11zM80 0q-15 0 -15 14v392q0 17 15 17h54
q15 0 15 -17v-392q0 -14 -15 -14h-54z" />
    <glyph glyph-name="eth" unicode="&#xf0;" horiz-adv-x="530" 
d="M469 371q20 -110 8 -190q-11 -81 -71.5 -135t-146.5 -54q-94 0 -157.5 63.5t-63.5 154.5q0 92 63.5 156.5t157.5 64.5q67 0 121 -35q-19 87 -108 167l-40 -49q-9 -11 -21 -2l-23 19q-11 10 0 21l38 47q-33 24 -75 46q-14 8 -8 19l17 34q8 16 27 5q43 -21 85 -48l36 45
q9 12 22 2l22 -18q12 -9 2 -21l-35 -42q122 -98 150 -250zM259 59q58 0 98 43.5t40 107.5q0 65 -39.5 109t-98.5 44t-99 -44t-39 -109q-1 -64 39 -107.5t99 -43.5z" />
    <glyph glyph-name="ntilde" unicode="&#xf1;" horiz-adv-x="516" 
d="M118 491q-7 4 -4 12q24 65 83 65h1q42 0 73.5 -16.5t48.5 -16.5q31 0 55 25q6 6 14 2l10 -5q7 -4 4 -12q-24 -64 -82 -65h-1q-37 0 -67.5 16.5t-54.5 16.5q-33 0 -56 -25q-7 -7 -14 -2zM281 431q178 0 178 -188v-228q0 -7 -5.5 -11t-10.5 -4h-53q-15 0 -15 15v222
q0 65 -25 95.5t-89 30.5q-58 0 -89 -27t-31 -64v-257q0 -15 -15 -15h-55q-14 0 -14 15v391q0 17 14 17h43q12 0 17 -17l10 -32q51 57 140 57z" />
    <glyph glyph-name="ograve" unicode="&#xf2;" horiz-adv-x="517" 
d="M312 460l-136 97q-12 12 -3 22l23 35q11 13 23 3l122 -116q12 -12 5 -21l-12 -17q-10 -12 -22 -3zM259 -8q-94 0 -157.5 63.5t-63.5 154.5q0 92 63.5 156.5t157.5 64.5t157 -64.5t63 -156.5q0 -91 -63 -154.5t-157 -63.5zM259 59q58 0 98 43.5t40 107.5q0 65 -39.5 109
t-98.5 44t-99 -44t-39 -109q-1 -64 39 -107.5t99 -43.5z" />
    <glyph glyph-name="oacute" unicode="&#xf3;" horiz-adv-x="517" 
d="M206 460q-12 -9 -22 3l-12 17q-7 9 5 21l122 116q12 10 23 -3l23 -35q9 -10 -3 -22zM259 -8q-94 0 -157.5 63.5t-63.5 154.5q0 92 63.5 156.5t157.5 64.5t157 -64.5t63 -156.5q0 -91 -63 -154.5t-157 -63.5zM259 59q58 0 98 43.5t40 107.5q0 65 -39.5 109t-98.5 44
t-99 -44t-39 -109q-1 -64 39 -107.5t99 -43.5z" />
    <glyph glyph-name="ocircumflex" unicode="&#xf4;" horiz-adv-x="517" 
d="M159 473q-19 -13 -19 7v15q0 10 10 20l79 81q12 12 25 12h4q13 0 25 -12l81 -81q10 -10 10 -20v-15q0 -20 -19 -7l-99 66zM259 431q94 0 157 -64.5t63 -156.5q0 -91 -63 -154.5t-157 -63.5t-157.5 63.5t-63.5 154.5q0 92 63.5 156.5t157.5 64.5zM259 59q58 0 98 43.5
t40 107.5q0 65 -39.5 109t-98.5 44t-99 -44t-39 -109q-1 -64 39 -107.5t99 -43.5z" />
    <glyph glyph-name="otilde" unicode="&#xf5;" horiz-adv-x="517" 
d="M119 491q-7 4 -4 12q24 65 83 65h1q42 0 73.5 -16.5t48.5 -16.5q31 0 55 25q6 6 14 2l10 -5q7 -4 4 -12q-24 -64 -82 -65h-1q-37 0 -67.5 16.5t-54.5 16.5q-33 0 -56 -25q-7 -7 -14 -2zM259 431q94 0 157 -64.5t63 -156.5q0 -91 -63 -154.5t-157 -63.5t-157.5 63.5
t-63.5 154.5q0 92 63.5 156.5t157.5 64.5zM259 59q58 0 98 43.5t40 107.5q0 65 -39.5 109t-98.5 44t-99 -44t-39 -109q-1 -64 39 -107.5t99 -43.5z" />
    <glyph glyph-name="odieresis" unicode="&#xf6;" horiz-adv-x="517" 
d="M196 488q-17 0 -28.5 11.5t-11.5 27.5q0 17 11.5 28.5t28.5 11.5t28.5 -11.5t11.5 -28.5q0 -16 -11.5 -27.5t-28.5 -11.5zM321 488q-17 0 -28 11t-11 28t11 28.5t28 11.5t28.5 -11.5t11.5 -28.5t-11.5 -28t-28.5 -11zM259 -8q-94 0 -157.5 63.5t-63.5 154.5
q0 92 63.5 156.5t157.5 64.5t157 -64.5t63 -156.5q0 -91 -63 -154.5t-157 -63.5zM259 59q58 0 98 43.5t40 107.5q0 65 -39.5 109t-98.5 44t-99 -44t-39 -109q-1 -64 39 -107.5t99 -43.5z" />
    <glyph glyph-name="divide" unicode="&#xf7;" horiz-adv-x="512" 
d="M270 435q-23 0 -39 16.5t-16 39.5t16 39t39 16t39.5 -16t16.5 -39t-16.5 -39.5t-39.5 -16.5zM73 315q-16 0 -16 15v37q0 15 16 15h366q16 0 16 -15v-37q0 -15 -16 -15h-366zM270 132q-23 0 -39 16t-16 39t16 39.5t39 16.5t39.5 -16.5t16.5 -39.5t-16.5 -39t-39.5 -16z
" />
    <glyph glyph-name="oslash" unicode="&#xf8;" horiz-adv-x="517" 
d="M383 394q45 -30 70.5 -78.5t25.5 -105.5q0 -91 -63 -154.5t-157 -63.5q-43 0 -76 13q-7 -13 -20 -13h-20q-10 0 -14.5 7t-0.5 15l7 14q-45 30 -71 78t-26 104q0 92 63.5 156.5t157.5 64.5q37 0 76 -13q6 13 19 13h27q8 0 11.5 -5.5t-0.5 -12.5zM121 210q-2 -71 48 -116
l134 262q-20 7 -44 7q-59 0 -99 -44t-39 -109zM259 59q58 0 98 43.5t40 107.5q0 73 -48 118l-134 -262q24 -7 44 -7z" />
    <glyph glyph-name="ugrave" unicode="&#xf9;" horiz-adv-x="513" 
d="M310 460l-136 97q-12 12 -3 22l23 35q11 13 23 3l122 -116q12 -12 5 -21l-12 -17q-10 -12 -22 -3zM442 423q15 0 15 -17v-392q0 -14 -15 -14h-25q-14 0 -22 14l-23 36q-46 -58 -137 -58q-85 0 -131.5 50t-46.5 127v237q0 17 14 17h55q15 0 15 -17v-230q0 -51 30 -84
t88 -33q56 0 84.5 28.5t29.5 62.5v256q0 17 15 17h54z" />
    <glyph glyph-name="uacute" unicode="&#xfa;" horiz-adv-x="513" 
d="M182 463l-12 17q-7 9 5 21l122 116q12 10 23 -3l23 -35q9 -10 -3 -22l-136 -97q-12 -9 -22 3zM442 423q15 0 15 -17v-392q0 -14 -15 -14h-25q-14 0 -22 14l-23 36q-46 -58 -137 -58q-85 0 -131.5 50t-46.5 127v237q0 17 14 17h55q15 0 15 -17v-230q0 -51 30 -84t88 -33
q56 0 84.5 28.5t29.5 62.5v256q0 17 15 17h54z" />
    <glyph glyph-name="ucircumflex" unicode="&#xfb;" horiz-adv-x="513" 
d="M157 473q-19 -13 -19 7v15q0 10 10 20l79 81q12 12 25 12h4q13 0 25 -12l81 -81q10 -10 10 -20v-15q0 -20 -19 -7l-99 66zM442 423q15 0 15 -17v-392q0 -14 -15 -14h-25q-14 0 -22 14l-23 36q-46 -58 -137 -58q-85 0 -131.5 50t-46.5 127v237q0 17 14 17h55q15 0 15 -17
v-230q0 -51 30 -84t88 -33q56 0 84.5 28.5t29.5 62.5v256q0 17 15 17h54z" />
    <glyph glyph-name="udieresis" unicode="&#xfc;" horiz-adv-x="513" 
d="M195 488q-17 0 -28.5 11.5t-11.5 27.5q0 17 11.5 28.5t28.5 11.5t28.5 -11.5t11.5 -28.5q0 -16 -11.5 -27.5t-28.5 -11.5zM320 488q-16 0 -27.5 11t-11.5 28t11 28.5t28 11.5t28.5 -11.5t11.5 -28.5t-11.5 -28t-28.5 -11zM442 423q15 0 15 -17v-392q0 -14 -15 -14h-25
q-14 0 -22 14l-23 36q-46 -58 -137 -58q-85 0 -131.5 50t-46.5 127v237q0 17 14 17h55q15 0 15 -17v-230q0 -51 30 -84t88 -33q56 0 84.5 28.5t29.5 62.5v256q0 17 15 17h54z" />
    <glyph glyph-name="yacute" unicode="&#xfd;" horiz-adv-x="505" 
d="M176 463l-12 17q-7 9 5 21l122 116q12 10 23 -3l23 -35q9 -10 -3 -22l-136 -97q-12 -9 -22 3zM463 423q7 0 12.5 -6.5t1.5 -14.5l-341 -674q-4 -8 -13 -8h-50q-8 0 -12.5 6.5t-0.5 14.5l143 283l-175 378q-3 6 0.5 13.5t12.5 7.5h54q11 0 17 -15l133 -300l155 306
q4 9 14 9h49z" />
    <glyph glyph-name="thorn" unicode="&#xfe;" horiz-adv-x="493" 
d="M268 431q91 0 142.5 -63.5t51.5 -158.5t-51.5 -156t-142.5 -61q-74 0 -127 56v-209q0 -6 -4.5 -10.5t-10.5 -4.5h-55q-14 0 -14 15v743q0 17 14 17h56q14 0 14 -17v-205q51 54 127 54zM260 59q120 0 120 150q0 72 -30.5 113t-90.5 41q-67 0 -93 -38t-26 -114
q0 -75 26 -113.5t94 -38.5z" />
    <glyph glyph-name="ydieresis" unicode="&#xff;" horiz-adv-x="505" 
d="M188 488q-17 0 -28.5 11.5t-11.5 27.5q0 17 11.5 28.5t28.5 11.5t28.5 -11.5t11.5 -28.5q0 -16 -11.5 -27.5t-28.5 -11.5zM313 488q-17 0 -28 11t-11 28t11 28.5t28 11.5t28.5 -11.5t11.5 -28.5t-11.5 -28t-28.5 -11zM463 423q7 0 12.5 -6.5t1.5 -14.5l-341 -674
q-4 -8 -13 -8h-50q-8 0 -12.5 6.5t-0.5 14.5l143 283l-175 378q-3 6 0.5 13.5t12.5 7.5h54q11 0 17 -15l133 -300l155 306q4 9 14 9h49z" />
    <glyph glyph-name="Amacron" unicode="&#x100;" horiz-adv-x="707" 
d="M263 764q-16 0 -16 15v34q0 15 16 15h181q16 0 16 -15v-34q0 -15 -16 -15h-181zM663 20q3 -7 -1.5 -13.5t-12.5 -6.5h-57q-10 0 -13 10l-57 137h-338l-57 -138q-4 -9 -13 -9h-57q-7 0 -11.5 6.5t-1.5 14.5l282 678q4 9 13 9h18h8q9 0 12 -9zM214 221h277l-139 334z" />
    <glyph glyph-name="amacron" unicode="&#x101;" horiz-adv-x="497" 
d="M150 487q-16 0 -16 15v34q0 15 16 15h181q16 0 16 -15v-34q0 -15 -16 -15h-181zM426 423q14 0 14 -16v-392q0 -6 -4.5 -10.5t-9.5 -4.5h-26q-19 0 -28 19l-14 29q-48 -56 -124 -56q-92 0 -144.5 61.5t-52.5 157.5t52 158t145 62q69 0 116 -50l20 26q12 16 24 16h32z
M237 59q69 0 95.5 37.5t26.5 113.5q0 75 -25.5 114t-95.5 39q-57 0 -88.5 -40.5t-31.5 -111.5q0 -67 33 -109.5t86 -42.5z" />
    <glyph glyph-name="Abreve" unicode="&#x102;" horiz-adv-x="707" 
d="M352 747q-104 0 -143 98q-3 7 5 10l39 19q8 3 11 -4q13 -22 19.5 -31t25.5 -20.5t44 -11.5t44 11.5t25.5 20.5t19.5 31q4 7 11 4l39 -19q8 -3 5 -10q-39 -98 -145 -98zM663 20q3 -7 -1.5 -13.5t-12.5 -6.5h-57q-10 0 -13 10l-57 137h-338l-57 -138q-4 -9 -13 -9h-57
q-7 0 -11.5 6.5t-1.5 14.5l282 678q4 9 13 9h18h8q9 0 12 -9zM214 221h277l-139 334z" />
    <glyph glyph-name="abreve" unicode="&#x103;" horiz-adv-x="497" 
d="M239 470q-104 0 -143 98q-3 7 5 10l39 19q8 3 11 -4q13 -22 19.5 -31t25.5 -20.5t44 -11.5t44 11.5t25.5 20.5t19.5 31q3 7 11 4l39 -19q8 -3 5 -10q-39 -98 -145 -98zM426 423q14 0 14 -16v-392q0 -6 -4.5 -10.5t-9.5 -4.5h-26q-19 0 -28 19l-14 29q-48 -56 -124 -56
q-92 0 -144.5 61.5t-52.5 157.5t52 158t145 62q69 0 116 -50l20 26q12 16 24 16h32zM237 59q69 0 95.5 37.5t26.5 113.5q0 75 -25.5 114t-95.5 39q-57 0 -88.5 -40.5t-31.5 -111.5q0 -67 33 -109.5t86 -42.5z" />
    <glyph glyph-name="Aogonek" unicode="&#x104;" horiz-adv-x="707" 
d="M687 -129q7 -4 4 -12q-24 -62 -83 -62h-1q-42 0 -67.5 23.5t-25.5 65.5q0 68 73 115q-4 1 -8 9l-57 137h-338l-57 -138q-4 -9 -13 -9h-57q-7 0 -11.5 6.5t-1.5 14.5l282 678q4 9 13 9h18h8q9 0 12 -9l286 -679q3 -7 -1.5 -13.5t-12.5 -6.5h-22q-53 -45 -53 -105
q0 -47 41 -47q34 0 52 26q4 7 14 1zM214 221h277l-139 334z" />
    <glyph glyph-name="aogonek" unicode="&#x105;" horiz-adv-x="497" 
d="M483 -129q7 -4 4 -12q-24 -62 -83 -62h-1q-42 0 -67.5 23.5t-25.5 65.5q0 69 77 117q-11 6 -15 16l-14 29q-48 -56 -124 -56q-92 0 -144.5 61.5t-52.5 157.5t52 158t145 62q69 0 116 -50l20 26q12 16 24 16h32q14 0 14 -16v-392q0 -6 -4.5 -10.5t-9.5 -4.5h-3
q-53 -45 -53 -105q0 -47 41 -47q34 0 52 26q4 7 14 1zM237 59q69 0 95.5 37.5t26.5 113.5q0 75 -25.5 114t-95.5 39q-57 0 -88.5 -40.5t-31.5 -111.5q0 -67 33 -109.5t86 -42.5z" />
    <glyph glyph-name="Cacute" unicode="&#x106;" horiz-adv-x="716" 
d="M326 736q-13 -4 -20 9l-6 20q-5 11 10 19l149 77q15 8 21 -9l13 -40q5 -14 -9 -20zM401 -8q-148 0 -253 105.5t-105 252.5t104.5 252.5t253.5 105.5q78 0 147.5 -32t115.5 -91q9 -12 -1 -19l-36 -36q-4 -5 -10.5 -4.5t-10.5 5.5q-30 42 -86 72.5t-119 30.5
q-111 0 -190.5 -84t-79.5 -200q0 -113 80.5 -198.5t189.5 -85.5q65 0 121.5 31.5t89.5 79.5q9 13 22 2l34 -33q11 -9 2 -20q-49 -64 -119 -99t-150 -35z" />
    <glyph glyph-name="cacute" unicode="&#x107;" horiz-adv-x="476" 
d="M209 460q-12 -9 -22 3l-12 17q-7 9 5 21l122 116q12 10 23 -3l23 -35q9 -10 -3 -22zM262 -8q-91 0 -157.5 64t-66.5 154q0 91 66.5 156t157.5 65q108 0 170 -75q7 -10 -1 -19l-31 -32q-11 -11 -20 1q-43 57 -116 57q-60 0 -102 -44t-42 -109q0 -62 42.5 -106.5
t101.5 -44.5q44 0 74.5 19.5t45.5 40.5q8 13 21 2l28 -28q9 -9 2 -19q-60 -82 -173 -82z" />
    <glyph glyph-name="Cdotaccent" unicode="&#x10a;" horiz-adv-x="716" 
d="M397 759q-19 0 -32 12.5t-13 31.5t13 32t32 13t32 -13t13 -32t-13 -31.5t-32 -12.5zM401 -8q-148 0 -253 105.5t-105 252.5t104.5 252.5t253.5 105.5q78 0 147.5 -32t115.5 -91q9 -12 -1 -19l-36 -36q-4 -5 -10.5 -4.5t-10.5 5.5q-30 42 -86 72.5t-119 30.5
q-111 0 -190.5 -84t-79.5 -200q0 -113 80.5 -198.5t189.5 -85.5q65 0 121.5 31.5t89.5 79.5q9 13 22 2l34 -33q11 -9 2 -20q-49 -64 -119 -99t-150 -35z" />
    <glyph glyph-name="cdotaccent" unicode="&#x10b;" horiz-adv-x="476" 
d="M262 482q-19 0 -32 12.5t-13 31.5t13 32t32 13t32 -13t13 -32t-13 -31.5t-32 -12.5zM262 -8q-91 0 -157.5 64t-66.5 154q0 91 66.5 156t157.5 65q108 0 170 -75q7 -10 -1 -19l-31 -32q-11 -11 -20 1q-43 57 -116 57q-60 0 -102 -44t-42 -109q0 -62 42.5 -106.5
t101.5 -44.5q44 0 74.5 19.5t45.5 40.5q8 13 21 2l28 -28q9 -9 2 -19q-60 -82 -173 -82z" />
    <glyph glyph-name="Ccaron" unicode="&#x10c;" horiz-adv-x="716" 
d="M291 839q-10 10 -10 20v15q0 20 19 7l97 -66l99 66q19 13 19 -7v-15q0 -10 -10 -20l-81 -81q-12 -12 -25 -12h-4q-13 0 -25 12zM668 146q11 -9 2 -20q-49 -64 -119 -99t-150 -35q-148 0 -253 105.5t-105 252.5t104.5 252.5t253.5 105.5q78 0 147.5 -32t115.5 -91
q9 -12 -1 -19l-36 -36q-4 -5 -10.5 -4.5t-10.5 5.5q-30 42 -86 72.5t-119 30.5q-111 0 -190.5 -84t-79.5 -200q0 -113 80.5 -198.5t189.5 -85.5q65 0 121.5 31.5t89.5 79.5q9 13 22 2z" />
    <glyph glyph-name="ccaron" unicode="&#x10d;" horiz-adv-x="476" 
d="M156 562q-10 10 -10 20v15q0 20 19 7l97 -66l99 66q19 13 19 -7v-15q0 -10 -10 -20l-81 -81q-12 -12 -25 -12h-4q-13 0 -25 12zM433 93q9 -9 2 -19q-60 -82 -173 -82q-91 0 -157.5 64t-66.5 154q0 91 66.5 156t157.5 65q108 0 170 -75q7 -10 -1 -19l-31 -32
q-11 -11 -20 1q-43 57 -116 57q-60 0 -102 -44t-42 -109q0 -62 42.5 -106.5t101.5 -44.5q44 0 74.5 19.5t45.5 40.5q8 13 21 2z" />
    <glyph glyph-name="Dcaron" unicode="&#x10e;" horiz-adv-x="674" 
d="M220 839q-10 10 -10 20v15q0 20 19 7l97 -66l99 66q19 13 19 -7v-15q0 -10 -10 -20l-81 -81q-12 -12 -25 -12h-4q-13 0 -25 12zM621 349q0 -155 -87.5 -251t-218.5 -98h-201h-26q-6 0 -10.5 4.5t-4.5 10.5v670q0 6 4.5 10.5t10.5 4.5h59h172q130 -4 216 -98.5t86 -252.5z
M310 74q94 0 158.5 74t64.5 201q0 128 -64.5 202.5t-158.5 74.5h-149v-552h149z" />
    <glyph glyph-name="dcaron" unicode="&#x10f;" horiz-adv-x="499" 
d="M153 839q-10 10 -10 20v15q0 20 19 7l98 -66l98 66q19 13 19 -7v-15q0 -10 -10 -20l-80 -81q-12 -12 -25 -12h-4q-13 0 -25 12zM427 708q14 0 14 -16v-677q0 -15 -14 -15h-27q-17 0 -24 19l-15 32q-52 -59 -132 -59q-87 0 -139 62t-52 156q0 95 51.5 158t140.5 63
q79 0 129 -52v313q0 7 4.5 11.5t10.5 4.5h53zM249 59q66 0 89 42t23 118q0 144 -115 144q-126 0 -126 -149q0 -73 33.5 -114t95.5 -41z" />
    <glyph glyph-name="Dcroat" unicode="&#x110;" horiz-adv-x="727" 
d="M657 349q0 -156 -87.5 -251.5t-218.5 -97.5h-201h-26q-6 0 -10.5 4.5t-4.5 10.5v299h-60q-16 0 -16 15v40q0 15 16 15h60v301q0 6 4.5 10.5t10.5 4.5h59h172q130 -4 216 -98.5t86 -252.5zM346 74q94 0 158.5 74t64.5 201q0 128 -64.5 202.5t-158.5 74.5h-149v-242h154
q16 0 16 -15v-40q0 -15 -16 -15h-154v-240h149z" />
    <glyph glyph-name="dcroat" unicode="&#x111;" horiz-adv-x="515" 
d="M499 605q16 0 16 -15v-35q0 -15 -16 -15h-58v-525q0 -15 -14 -15h-27q-17 0 -24 19l-15 32q-52 -59 -132 -59q-87 0 -139 62t-52 156q0 95 51.5 158t140.5 63q79 0 129 -52v161h-59q-16 0 -16 15v35q0 15 16 15h59v87q0 7 4.5 11.5t10.5 4.5h53q14 0 14 -16v-87h58z
M249 59q66 0 89 42t23 118q0 144 -115 144q-126 0 -126 -149q0 -73 33.5 -114t95.5 -41z" />
    <glyph glyph-name="Emacron" unicode="&#x112;" horiz-adv-x="531" 
d="M194 764q-16 0 -16 15v34q0 15 16 15h181q16 0 16 -15v-34q0 -15 -16 -15h-181zM480 74q6 0 10.5 -4.5t4.5 -10.5v-44q0 -6 -4.5 -10.5t-10.5 -4.5h-356h-36q-6 0 -10.5 4.5t-4.5 10.5v670q0 6 4.5 10.5t10.5 4.5h59h332q14 0 14 -15v-44q0 -15 -14 -15h-318v-239h219
q15 0 15 -14v-46q0 -14 -15 -14h-219v-239h319z" />
    <glyph glyph-name="emacron" unicode="&#x113;" horiz-adv-x="492" 
d="M159 487q-16 0 -16 15v34q0 15 16 15h181q16 0 16 -15v-34q0 -15 -16 -15h-181zM251 431q99 0 150 -62t51 -167q0 -6 -4.5 -10.5t-10.5 -4.5h-66h-250q9 -59 49 -94t87 -35q65 0 121 47q11 11 21 -3l22 -27q8 -12 0 -21q-21 -23 -69 -42.5t-102 -19.5q-89 0 -151 62.5
t-62 157.5t63.5 157t150.5 62zM247 365q-46 0 -82 -31.5t-44 -85.5h247q-6 52 -38 84.5t-83 32.5z" />
    <glyph glyph-name="Edotaccent" unicode="&#x116;" horiz-adv-x="531" 
d="M284 759q-19 0 -32 12.5t-13 31.5t13 32t32 13t32 -13t13 -32t-13 -31.5t-32 -12.5zM480 74q6 0 10.5 -4.5t4.5 -10.5v-44q0 -6 -4.5 -10.5t-10.5 -4.5h-356h-36q-6 0 -10.5 4.5t-4.5 10.5v670q0 6 4.5 10.5t10.5 4.5h59h332q14 0 14 -15v-44q0 -15 -14 -15h-318v-239
h219q15 0 15 -14v-46q0 -14 -15 -14h-219v-239h319z" />
    <glyph glyph-name="edotaccent" unicode="&#x117;" horiz-adv-x="492" 
d="M250 482q-19 0 -32 12.5t-13 31.5t13 32t32 13t32 -13t13 -32t-13 -31.5t-32 -12.5zM251 431q99 0 150 -62t51 -167q0 -6 -4.5 -10.5t-10.5 -4.5h-66h-250q9 -59 49 -94t87 -35q65 0 121 47q11 11 21 -3l22 -27q8 -12 0 -21q-21 -23 -69 -42.5t-102 -19.5
q-89 0 -151 62.5t-62 157.5t63.5 157t150.5 62zM247 365q-46 0 -82 -31.5t-44 -85.5h247q-6 52 -38 84.5t-83 32.5z" />
    <glyph glyph-name="Eogonek" unicode="&#x118;" horiz-adv-x="531" 
d="M535 -129q7 -4 4 -12q-24 -62 -83 -62h-1q-42 0 -67.5 23.5t-25.5 65.5q0 68 72 114h-310h-36q-6 0 -10.5 4.5t-4.5 10.5v670q0 6 4.5 10.5t10.5 4.5h59h332q14 0 14 -15v-44q0 -15 -14 -15h-318v-239h219q15 0 15 -14v-46q0 -14 -15 -14h-219v-239h319q6 0 10.5 -4.5
t4.5 -10.5v-44q0 -6 -4.5 -10.5t-10.5 -4.5h-5q-53 -45 -53 -105q0 -47 41 -47q34 0 52 26q4 7 14 1z" />
    <glyph glyph-name="eogonek" unicode="&#x119;" horiz-adv-x="492" 
d="M251 431q99 0 150 -62t51 -167q0 -6 -4.5 -10.5t-10.5 -4.5h-66h-250q9 -59 49 -94t87 -35q65 0 121 47q11 11 21 -3l22 -27q8 -12 0 -21q-25 -29 -86 -49q-24 -19 -42 -48.5t-18 -61.5q0 -47 41 -47q34 0 52 26q5 6 14 1l6 -4q7 -4 4 -12q-21 -62 -83 -62h-1
q-41 0 -66.5 23.5t-25.5 65.5q0 62 62 107q-4 0 -13.5 -0.5t-14.5 -0.5q-89 0 -151 62.5t-62 157.5t63.5 157t150.5 62zM247 365q-46 0 -82 -31.5t-44 -85.5h247q-6 52 -38 84.5t-83 32.5z" />
    <glyph glyph-name="Ecaron" unicode="&#x11a;" horiz-adv-x="531" 
d="M178 839q-10 10 -10 20v15q0 20 19 7l97 -66l99 66q19 13 19 -7v-15q0 -10 -10 -20l-81 -81q-12 -12 -25 -12h-4q-13 0 -25 12zM480 74q6 0 10.5 -4.5t4.5 -10.5v-44q0 -6 -4.5 -10.5t-10.5 -4.5h-356h-36q-6 0 -10.5 4.5t-4.5 10.5v670q0 6 4.5 10.5t10.5 4.5h59h332
q14 0 14 -15v-44q0 -15 -14 -15h-318v-239h219q15 0 15 -14v-46q0 -14 -15 -14h-219v-239h319z" />
    <glyph glyph-name="ecaron" unicode="&#x11b;" horiz-adv-x="492" 
d="M143 562q-10 10 -10 20v15q0 20 19 7l97 -66l99 66q19 13 19 -7v-15q0 -10 -10 -20l-81 -81q-12 -12 -25 -12h-4q-13 0 -25 12zM251 431q99 0 150 -62t51 -167q0 -6 -4.5 -10.5t-10.5 -4.5h-66h-250q9 -59 49 -94t87 -35q65 0 121 47q11 11 21 -3l22 -27q8 -12 0 -21
q-21 -23 -69 -42.5t-102 -19.5q-89 0 -151 62.5t-62 157.5t63.5 157t150.5 62zM247 365q-46 0 -82 -31.5t-44 -85.5h247q-6 52 -38 84.5t-83 32.5z" />
    <glyph glyph-name="Gbreve" unicode="&#x11e;" horiz-adv-x="743" 
d="M397 747q-104 0 -143 98q-3 7 5 10l39 19q8 3 11 -4q13 -22 19.5 -31t25.5 -20.5t44 -11.5t44 11.5t25.5 20.5t19.5 31q4 7 11 4l39 -19q8 -3 5 -10q-39 -98 -145 -98zM657 338q14 0 14 -14v-40v-193q0 -6 -4 -10q-38 -37 -117.5 -63t-157.5 -26q-84 0 -163 43
t-132.5 127t-53.5 188t53 187.5t133.5 127t168.5 43.5q79 0 152.5 -30.5t116.5 -81.5q8 -10 -2 -20l-37 -37q-9 -9 -18 1q-15 16 -38.5 34.5t-73 39t-100.5 20.5q-106 0 -186 -82.5t-81 -201.5q-1 -111 79.5 -197.5t181.5 -86.5q115 0 190 58v146h-135q-15 0 -15 14v40
q0 14 15 14h210z" />
    <glyph glyph-name="gbreve" unicode="&#x11f;" horiz-adv-x="496" 
d="M236 471q-104 0 -143 98q-3 7 5 10l39 19q7 3 11 -4q13 -22 19.5 -31t25.5 -20.5t44 -11.5t44 11.5t25.5 20.5t19.5 31q4 7 11 4l39 -19q8 -3 5 -10q-39 -98 -145 -98zM425 423q14 0 14 -16v-392v-87q0 -85 -52 -138t-144 -53q-65 0 -114.5 29.5t-71.5 72.5q-4 7 3 14
l32 31q11 9 19 -2q43 -76 132 -76q19 0 36.5 5t37.5 17.5t32 40t12 66.5l-1 110q-45 -53 -126 -53q-93 0 -145 64.5t-52 157.5q0 94 52 155.5t144 61.5q68 0 114 -46l17 22q12 16 24 16h37zM238 59q72 0 96.5 38t24.5 115q0 74 -23.5 112.5t-98.5 38.5q-57 0 -88 -40.5
t-31 -107.5q0 -70 33 -113t87 -43z" />
    <glyph glyph-name="Gdotaccent" unicode="&#x120;" horiz-adv-x="743" 
d="M398 759q-19 0 -32 12.5t-13 31.5t13 32t32 13t32 -13t13 -32t-13 -31.5t-32 -12.5zM657 338q14 0 14 -14v-40v-193q0 -6 -4 -10q-38 -37 -117.5 -63t-157.5 -26q-84 0 -163 43t-132.5 127t-53.5 188t53 187.5t133.5 127t168.5 43.5q79 0 152.5 -30.5t116.5 -81.5
q8 -10 -2 -20l-37 -37q-9 -9 -18 1q-15 16 -38.5 34.5t-73 39t-100.5 20.5q-106 0 -186 -82.5t-81 -201.5q-1 -111 79.5 -197.5t181.5 -86.5q115 0 190 58v146h-135q-15 0 -15 14v40q0 14 15 14h210z" />
    <glyph glyph-name="gdotaccent" unicode="&#x121;" horiz-adv-x="496" 
d="M237 483q-19 0 -32 12.5t-13 31.5t13 32t32 13t32 -13t13 -32t-13 -31.5t-32 -12.5zM425 423q14 0 14 -16v-392v-87q0 -85 -52 -138t-144 -53q-65 0 -114.5 29.5t-71.5 72.5q-4 7 3 14l32 31q11 9 19 -2q43 -76 132 -76q19 0 36.5 5t37.5 17.5t32 40t12 66.5l-1 110
q-45 -53 -126 -53q-93 0 -145 64.5t-52 157.5q0 94 52 155.5t144 61.5q68 0 114 -46l17 22q12 16 24 16h37zM238 59q72 0 96.5 38t24.5 115q0 74 -23.5 112.5t-98.5 38.5q-57 0 -88 -40.5t-31 -107.5q0 -70 33 -113t87 -43z" />
    <glyph glyph-name="Gcommaaccent" unicode="&#x122;" horiz-adv-x="743" 
d="M657 338q14 0 14 -14v-40v-193q0 -6 -4 -10q-38 -37 -117.5 -63t-157.5 -26q-84 0 -163 43t-132.5 127t-53.5 188t53 187.5t133.5 127t168.5 43.5q79 0 152.5 -30.5t116.5 -81.5q8 -10 -2 -20l-37 -37q-9 -9 -18 1q-15 16 -38.5 34.5t-73 39t-100.5 20.5
q-106 0 -186 -82.5t-81 -201.5q-1 -111 79.5 -197.5t181.5 -86.5q115 0 190 58v146h-135q-15 0 -15 14v40q0 14 15 14h210zM431 -54q16 0 16 -15v-56q0 -4 -1 -6l-26 -93h-24q-4 0 -7.5 4t-2.5 12l7 68h-31q-16 0 -16 15v56q0 15 16 15h69z" />
    <glyph glyph-name="gcommaaccent" unicode="&#x123;" horiz-adv-x="496" 
d="M203 476q-16 0 -16 15v55q0 4 1 6l26 93h24q4 0 7.5 -4t2.5 -12l-7 -68h31q16 0 16 -15v-55q0 -15 -16 -15h-69zM425 423q14 0 14 -16v-392v-87q0 -85 -52 -138t-144 -53q-65 0 -114.5 29.5t-71.5 72.5q-4 7 3 14l32 31q11 9 19 -2q43 -76 132 -76q19 0 36.5 5t37.5 17.5
t32 40t12 66.5l-1 110q-45 -53 -126 -53q-93 0 -145 64.5t-52 157.5q0 94 52 155.5t144 61.5q68 0 114 -46l17 22q12 16 24 16h37zM238 59q72 0 96.5 38t24.5 115q0 74 -23.5 112.5t-98.5 38.5q-57 0 -88 -40.5t-31 -107.5q0 -70 33 -113t87 -43z" />
    <glyph glyph-name="Hbar" unicode="&#x126;" horiz-adv-x="755" 
d="M688 569q14 0 14 -14v-43q0 -14 -14 -14h-35v-483q0 -15 -14 -15h-59q-15 0 -15 15v298h-373v-298q0 -15 -14 -15h-59q-6 0 -10.5 4.5t-4.5 10.5v483h-36q-15 0 -15 14v43q0 14 15 14h36v116q0 15 15 15h59q14 0 14 -15v-116h373v116q0 15 15 15h59q14 0 14 -15v-116h35z
M565 387v111h-373v-111h373z" />
    <glyph glyph-name="hbar" unicode="&#x127;" horiz-adv-x="510" 
d="M288 431q72 0 119 -48.5t47 -146.5v-221q0 -15 -14 -15h-55q-15 0 -15 15v219q0 62 -27 95.5t-76 33.5q-53 0 -81 -29t-28 -62v-257q0 -15 -14 -15h-55q-15 0 -15 15v525h-58q-16 0 -16 15v35q0 15 16 15h58v87q0 16 15 16h55q14 0 14 -16v-87h56q16 0 16 -15v-35
q0 -15 -16 -15h-56v-160q47 51 130 51z" />
    <glyph glyph-name="Imacron" unicode="&#x12a;" horiz-adv-x="245" 
d="M28 764q-16 0 -16 15v34q0 15 16 15h181q16 0 16 -15v-34q0 -15 -16 -15h-181zM89 0q-6 0 -10.5 4.5t-4.5 10.5v670q0 6 4.5 10.5t10.5 4.5h59q14 0 14 -15v-670q0 -15 -14 -15h-59z" />
    <glyph glyph-name="imacron" unicode="&#x12b;" horiz-adv-x="215" 
d="M17 597q-16 0 -16 15v34q0 15 16 15h181q16 0 16 -15v-34q0 -15 -16 -15h-181zM80 0q-15 0 -15 14v392q0 17 15 17h54q15 0 15 -17v-392q0 -14 -15 -14h-54z" />
    <glyph glyph-name="Iogonek" unicode="&#x12e;" horiz-adv-x="245" 
d="M205 -129q7 -4 4 -12q-24 -62 -83 -62h-1q-42 0 -67.5 23.5t-25.5 65.5q0 68 72 114h-15q-6 0 -10.5 4.5t-4.5 10.5v670q0 6 4.5 10.5t10.5 4.5h59q14 0 14 -15v-670q0 -15 -14 -15h-3q-53 -45 -53 -105q0 -47 41 -47q34 0 52 26q4 7 14 1z" />
    <glyph glyph-name="iogonek" unicode="&#x12f;" horiz-adv-x="215" 
d="M107 592q-19 0 -32 12.5t-13 31.5t13 32t32 13t32 -13t13 -32t-13 -31.5t-32 -12.5zM192 -129q7 -4 4 -12q-24 -62 -83 -62h-1q-42 0 -67.5 23.5t-25.5 65.5q0 68 72 114h-11q-15 0 -15 14v392q0 17 15 17h54q15 0 15 -17v-392q0 -14 -15 -14h-2q-53 -45 -53 -105
q0 -47 41 -47q34 0 52 26q4 7 14 1z" />
    <glyph glyph-name="Idotaccent" unicode="&#x130;" horiz-adv-x="245" 
d="M118 759q-19 0 -32 12.5t-13 31.5t13 32t32 13t32 -13t13 -32t-13 -31.5t-32 -12.5zM89 0q-6 0 -10.5 4.5t-4.5 10.5v670q0 6 4.5 10.5t10.5 4.5h59q14 0 14 -15v-670q0 -15 -14 -15h-59z" />
    <glyph glyph-name="dotlessi" unicode="&#x131;" horiz-adv-x="215" 
d="M80 0q-15 0 -15 14v392q0 17 15 17h54q15 0 15 -17v-392q0 -14 -15 -14h-54z" />
    <glyph glyph-name="Kcommaaccent" unicode="&#x136;" horiz-adv-x="614" 
d="M242 350l334 -326q6 -6 3 -15t-14 -9h-60q-14 0 -29 15l-315 309v-309q0 -15 -14 -15h-59q-6 0 -10.5 4.5t-4.5 10.5v670q0 6 4.5 10.5t10.5 4.5h59q14 0 14 -15v-309l315 309q16 15 29 15h60q10 0 14 -9.5t-2 -14.5zM365 -54q16 0 16 -15v-56q0 -4 -1 -6l-26 -93h-24
q-4 0 -7.5 4t-2.5 12l7 68h-31q-16 0 -16 15v56q0 15 16 15h69z" />
    <glyph glyph-name="kcommaaccent" unicode="&#x137;" horiz-adv-x="462" 
d="M439 23q6 -6 1.5 -14.5t-13.5 -8.5h-49q-16 0 -30 14l-206 210v-209q0 -15 -15 -15h-55q-14 0 -14 15v677q0 16 14 16h55q6 0 10.5 -4.5t4.5 -11.5v-435l169 151q18 15 31 15h52q9 0 13 -9t-4 -17l-176 -158zM289 -54q16 0 16 -15v-56q0 -4 -1 -6l-26 -93h-24
q-4 0 -7.5 4t-2.5 12l7 68h-31q-16 0 -16 15v56q0 15 16 15h69z" />
    <glyph glyph-name="Lacute" unicode="&#x139;" horiz-adv-x="527" 
d="M206 740l-12 17q-7 9 5 21l122 116q12 10 23 -3l23 -35q9 -10 -3 -22l-136 -97q-12 -9 -22 3zM477 74q14 0 14 -15v-44q0 -15 -14 -15h-344h-47q-6 0 -10.5 4.5t-4.5 10.5v669q0 7 4.5 11.5t10.5 4.5h59q14 0 14 -16v-610h318z" />
    <glyph glyph-name="lacute" unicode="&#x13a;" horiz-adv-x="216" 
d="M37 736q-13 -4 -20 9l-6 20q-5 11 10 19l149 77q15 8 21 -9l13 -40q5 -14 -9 -20zM80 0q-14 0 -14 15v677q0 16 14 16h55q6 0 10.5 -4.5t4.5 -11.5v-677q0 -15 -15 -15h-55z" />
    <glyph glyph-name="Lcommaaccent" unicode="&#x13b;" horiz-adv-x="527" 
d="M477 74q14 0 14 -15v-44q0 -15 -14 -15h-344h-47q-6 0 -10.5 4.5t-4.5 10.5v669q0 7 4.5 11.5t10.5 4.5h59q14 0 14 -16v-610h318zM321 -54q16 0 16 -15v-56q0 -4 -1 -6l-26 -93h-24q-4 0 -7.5 4t-2.5 12l7 68h-31q-16 0 -16 15v56q0 15 16 15h69z" />
    <glyph glyph-name="lcommaaccent" unicode="&#x13c;" horiz-adv-x="216" 
d="M80 0q-14 0 -14 15v677q0 16 14 16h55q6 0 10.5 -4.5t4.5 -11.5v-677q0 -15 -15 -15h-55zM164 -69v-56q0 -4 -1 -6l-26 -93h-24q-4 0 -7.5 4t-2.5 12l7 68h-31q-16 0 -16 15v56q0 15 16 15h69q16 0 16 -15z" />
    <glyph glyph-name="Lcaron" unicode="&#x13d;" horiz-adv-x="527" 
d="M175 839q-10 10 -10 20v15q0 20 19 7l97 -66l99 66q19 13 19 -7v-15q0 -10 -10 -20l-81 -81q-12 -12 -25 -12h-4q-13 0 -25 12zM477 74q14 0 14 -15v-44q0 -15 -14 -15h-344h-47q-6 0 -10.5 4.5t-4.5 10.5v669q0 7 4.5 11.5t10.5 4.5h59q14 0 14 -16v-610h318z" />
    <glyph glyph-name="lcaron" unicode="&#x13e;" horiz-adv-x="216" 
d="M207 881q19 13 19 -7v-15q0 -10 -10 -20l-81 -81q-12 -12 -25 -12h-4q-13 0 -25 12l-79 81q-10 10 -10 20v15q0 20 19 7l97 -66zM135 708q6 0 10.5 -4.5t4.5 -11.5v-677q0 -15 -15 -15h-55q-14 0 -14 15v677q0 16 14 16h55z" />
    <glyph glyph-name="Ldot" unicode="&#x13f;" horiz-adv-x="528" 
d="M477 74q14 0 14 -15v-44q0 -15 -14 -15h-344h-47q-6 0 -10.5 4.5t-4.5 10.5v669q0 7 4.5 11.5t10.5 4.5h59q14 0 14 -16v-610h318zM374 327q-16 0 -16 15v61q0 15 16 15h60q16 0 16 -15v-61q0 -15 -16 -15h-60z" />
    <glyph glyph-name="ldot" unicode="&#x140;" horiz-adv-x="326" 
d="M80 0q-14 0 -14 15v677q0 16 14 16h55q6 0 10.5 -4.5t4.5 -11.5v-677q0 -15 -15 -15h-55zM240 327q-16 0 -16 15v61q0 15 16 15h60q16 0 16 -15v-61q0 -15 -16 -15h-60z" />
    <glyph glyph-name="Lslash" unicode="&#x141;" horiz-adv-x="610" 
d="M559 74q14 0 14 -15v-44q0 -15 -14 -15h-344h-47q-6 0 -10.5 4.5t-4.5 10.5v275l-67 -56q-12 -10 -21 1l-23 27q-4 4 -3 10.5t5 10.5l109 91v310q0 7 4.5 11.5t10.5 4.5h59q14 0 14 -16v-237l64 54q12 8 21 -3l22 -26q11 -11 -2 -21l-105 -87v-290h318z" />
    <glyph glyph-name="lslash" unicode="&#x142;" horiz-adv-x="311" 
d="M307 467q11 -11 -2 -21l-106 -89v-342q0 -15 -15 -15h-55q-14 0 -14 15v272l-70 -58q-12 -10 -21 1l-21 24q-10 11 2 21l110 92v325q0 16 14 16h55q6 0 10.5 -4.5t4.5 -11.5v-255l67 56q10 9 21 -2z" />
    <glyph glyph-name="Nacute" unicode="&#x143;" horiz-adv-x="677" 
d="M248 745l-6 20q-5 11 10 19l149 77q15 8 21 -9l13 -40q5 -14 -9 -20l-158 -56q-13 -4 -20 9zM589 700q6 0 10.5 -4.5t4.5 -10.5v-671q0 -14 -15 -14h-35h-9q-16 0 -25 14l-359 523v-523q0 -14 -14 -14h-59q-15 0 -15 14v671q0 6 4.5 10.5t10.5 4.5h35h10q16 0 24 -15
l359 -526v526q0 15 14 15h59z" />
    <glyph glyph-name="nacute" unicode="&#x144;" horiz-adv-x="516" 
d="M183 463l-12 17q-7 9 5 21l122 116q12 10 23 -3l23 -35q9 -10 -3 -22l-136 -97q-12 -9 -22 3zM281 431q178 0 178 -188v-228q0 -7 -5.5 -11t-10.5 -4h-53q-15 0 -15 15v222q0 65 -25 95.5t-89 30.5q-58 0 -89 -27t-31 -64v-257q0 -15 -15 -15h-55q-14 0 -14 15v391
q0 17 14 17h43q12 0 17 -17l10 -32q51 57 140 57z" />
    <glyph glyph-name="Ncommaaccent" unicode="&#x145;" horiz-adv-x="677" 
d="M589 700q6 0 10.5 -4.5t4.5 -10.5v-671q0 -14 -15 -14h-35h-9q-16 0 -25 14l-359 523v-523q0 -14 -14 -14h-59q-15 0 -15 14v671q0 6 4.5 10.5t10.5 4.5h35h10q16 0 24 -15l359 -526v526q0 15 14 15h59zM378 -54q16 0 16 -15v-56q0 -4 -1 -6l-26 -93h-24q-4 0 -7.5 4
t-2.5 12l7 68h-31q-16 0 -16 15v56q0 15 16 15h69z" />
    <glyph glyph-name="ncommaaccent" unicode="&#x146;" horiz-adv-x="516" 
d="M281 431q178 0 178 -188v-228q0 -7 -5.5 -11t-10.5 -4h-53q-15 0 -15 15v222q0 65 -25 95.5t-89 30.5q-58 0 -89 -27t-31 -64v-257q0 -15 -15 -15h-55q-14 0 -14 15v391q0 17 14 17h43q12 0 17 -17l10 -32q51 57 140 57zM298 -54q16 0 16 -15v-56q0 -4 -1 -6l-26 -93h-24
q-4 0 -7.5 4t-2.5 12l7 68h-31q-16 0 -16 15v56q0 15 16 15h69z" />
    <glyph glyph-name="Ncaron" unicode="&#x147;" horiz-adv-x="677" 
d="M232 839q-10 10 -10 20v15q0 20 19 7l97 -66l99 66q19 13 19 -7v-15q0 -10 -10 -20l-81 -81q-12 -12 -25 -12h-4q-13 0 -25 12zM589 700q6 0 10.5 -4.5t4.5 -10.5v-671q0 -14 -15 -14h-35h-9q-16 0 -25 14l-359 523v-523q0 -14 -14 -14h-59q-15 0 -15 14v671
q0 6 4.5 10.5t10.5 4.5h35h10q16 0 24 -15l359 -526v526q0 15 14 15h59z" />
    <glyph glyph-name="ncaron" unicode="&#x148;" horiz-adv-x="516" 
d="M152 562q-10 10 -10 20v15q0 20 19 7l97 -66l99 66q19 13 19 -7v-15q0 -10 -10 -20l-81 -81q-12 -12 -25 -12h-4q-13 0 -25 12zM281 431q178 0 178 -188v-228q0 -7 -5.5 -11t-10.5 -4h-53q-15 0 -15 15v222q0 65 -25 95.5t-89 30.5q-58 0 -89 -27t-31 -64v-257
q0 -15 -15 -15h-55q-14 0 -14 15v391q0 17 14 17h43q12 0 17 -17l10 -32q51 57 140 57z" />
    <glyph glyph-name="Eng" unicode="&#x14a;" horiz-adv-x="674" 
d="M589 700q6 0 10.5 -4.5t4.5 -10.5v-671v-63q0 -46 -82 -117q-9 -8 -17 0l-29 30q-7 10 0 19q3 4 15 17.5t18 21t12 20t6 22.5q0 31 -18 66l-348 507v-523q0 -14 -14 -14h-59q-15 0 -15 14v671q0 6 4.5 10.5t10.5 4.5h35h10q16 0 24 -15l359 -526v526q0 15 14 15h59z" />
    <glyph glyph-name="eng" unicode="&#x14b;" horiz-adv-x="516" 
d="M459 25q0 -67 -6 -90q-12 -46 -76 -101q-9 -8 -17 0l-29 30q-7 10 0 19q1 1 10 12t12.5 16t10 15t9 19.5t2.5 18.5v51v222q0 65 -25 95.5t-89 30.5q-58 0 -89 -27t-31 -64v-257q0 -15 -15 -15h-55q-14 0 -14 15v391q0 17 14 17h43q12 0 17 -17l10 -32q51 57 140 57
q178 0 178 -188v-218z" />
    <glyph glyph-name="Omacron" unicode="&#x14c;" horiz-adv-x="800" 
d="M310 764q-16 0 -16 15v34q0 15 16 15h181q16 0 16 -15v-34q0 -15 -16 -15h-181zM401 -8q-148 0 -253 104.5t-105 252.5q0 149 105 254t253 105t252.5 -105t104.5 -254q0 -148 -104.5 -252.5t-252.5 -104.5zM401 66q109 0 189 83t80 200t-80 201t-189 84
q-111 0 -190.5 -83.5t-79.5 -201.5q0 -117 79.5 -200t190.5 -83z" />
    <glyph glyph-name="omacron" unicode="&#x14d;" horiz-adv-x="517" 
d="M169 487q-16 0 -16 15v34q0 15 16 15h181q16 0 16 -15v-34q0 -15 -16 -15h-181zM259 -8q-94 0 -157.5 63.5t-63.5 154.5q0 92 63.5 156.5t157.5 64.5t157 -64.5t63 -156.5q0 -91 -63 -154.5t-157 -63.5zM259 59q58 0 98 43.5t40 107.5q0 65 -39.5 109t-98.5 44t-99 -44
t-39 -109q-1 -64 39 -107.5t99 -43.5z" />
    <glyph glyph-name="Ohungarumlaut" unicode="&#x150;" horiz-adv-x="800" 
d="M272 741q-13 -6 -21 6l-6 8q-7 7 6 20l102 84q14 11 22 -3l22 -36q9 -12 -6 -21zM430 741q-14 -5 -21 6l-6 8q-6 7 7 20l102 84q12 9 20 -3l22 -35q10 -13 -5 -21zM401 -8q-148 0 -253 104.5t-105 252.5q0 149 105 254t253 105t252.5 -105t104.5 -254
q0 -148 -104.5 -252.5t-252.5 -104.5zM401 66q109 0 189 83t80 200t-80 201t-189 84q-111 0 -190.5 -83.5t-79.5 -201.5q0 -117 79.5 -200t190.5 -83z" />
    <glyph glyph-name="ohungarumlaut" unicode="&#x151;" horiz-adv-x="517" 
d="M142 473l-8 5q-9 6 1 21l75 109q9 15 21 3l31 -27q13 -11 0 -22l-98 -89q-11 -10 -22 0zM265 473l-7 5q-9 6 1 21l74 109q9 12 22 3l30 -27q14 -11 1 -22l-99 -89q-11 -10 -22 0zM259 -8q-94 0 -157.5 63.5t-63.5 154.5q0 92 63.5 156.5t157.5 64.5t157 -64.5t63 -156.5
q0 -91 -63 -154.5t-157 -63.5zM259 59q58 0 98 43.5t40 107.5q0 65 -39.5 109t-98.5 44t-99 -44t-39 -109q-1 -64 39 -107.5t99 -43.5z" />
    <glyph glyph-name="OE" unicode="&#x152;" horiz-adv-x="950" 
d="M900 74q6 0 10.5 -4.5t4.5 -10.5v-44q0 -6 -4.5 -10.5t-10.5 -4.5h-356h-37q-5 0 -9 3q-46 -11 -88 -11h-1q-63 0 -125.5 24t-115 67.5t-85 113.5t-32.5 153t32.5 153t85 113.5t115 67.5t124.5 24q44 0 90 -11q3 3 9 3h59h333q14 0 14 -15v-44q0 -15 -14 -15h-319v-239
h220q15 0 15 -14v-46q0 -14 -15 -14h-220v-239h320zM409 66q44 0 83 13v542q-41 13 -84 13q-113 -1 -191 -80t-78 -203q0 -127 78 -206t192 -79z" />
    <glyph glyph-name="oe" unicode="&#x153;" horiz-adv-x="777" 
d="M441 187q7 -59 40.5 -94t80.5 -35q68 0 106 52q9 11 20 0l29 -26q11 -10 2 -19q-60 -73 -158 -73q-102 0 -162 81q-55 -81 -160 -81q-93 0 -147 62t-54 156q0 96 54 158.5t147 62.5q103 0 159 -80q54 80 155 80q85 0 134.5 -57t49.5 -172q0 -6 -4.5 -10.5t-10.5 -4.5
h-281zM552 365q-99 0 -111 -117h212q-8 117 -101 117zM239 59q57 0 87.5 39t30.5 113q0 73 -31 112.5t-87 39.5q-58 0 -88.5 -39t-30.5 -113t31 -113t88 -39z" />
    <glyph glyph-name="Racute" unicode="&#x154;" horiz-adv-x="646" 
d="M235 745l-6 20q-5 11 10 19l149 77q15 8 21 -9l13 -40q5 -14 -9 -20l-158 -56q-13 -4 -20 9zM581 21q4 -9 -1 -15t-12 -6h-58q-14 0 -21 15l-135 264h-195v-265q0 -14 -14 -14h-59q-15 0 -15 14v671q0 15 15 15h59h242q73 -1 128.5 -56t55.5 -152q0 -73 -35.5 -126.5
t-91.5 -74.5zM159 353h200q68 0 96 41t28 98q0 134 -125 134h-199v-273z" />
    <glyph glyph-name="racute" unicode="&#x155;" horiz-adv-x="374" 
d="M131 463l-12 17q-7 9 5 21l122 116q12 10 23 -3l23 -35q9 -10 -3 -22l-136 -97q-12 -9 -22 3zM348 401q13 -8 5 -18l-25 -41q-7 -10 -18 -4q-31 26 -74 26q-38 0 -66.5 -24t-28.5 -67v-258q0 -15 -15 -15h-54q-15 0 -15 15v391q0 17 15 17h33q12 0 20 -17l6 -16
q41 41 111 41q60 0 106 -30z" />
    <glyph glyph-name="Rcommaaccent" unicode="&#x156;" horiz-adv-x="646" 
d="M581 21q4 -9 -1 -15t-12 -6h-58q-14 0 -21 15l-135 264h-195v-265q0 -14 -14 -14h-59q-15 0 -15 14v671q0 15 15 15h59h242q73 -1 128.5 -56t55.5 -152q0 -73 -35.5 -126.5t-91.5 -74.5zM159 353h200q68 0 96 41t28 98q0 134 -125 134h-199v-273zM365 -54q16 0 16 -15
v-56q0 -4 -1 -6l-26 -93h-24q-4 0 -7.5 4t-2.5 12l7 68h-31q-16 0 -16 15v56q0 15 16 15h69z" />
    <glyph glyph-name="rcommaaccent" unicode="&#x157;" horiz-adv-x="374" 
d="M348 401q13 -8 5 -18l-25 -41q-7 -10 -18 -4q-31 26 -74 26q-38 0 -66.5 -24t-28.5 -67v-258q0 -15 -15 -15h-54q-15 0 -15 15v391q0 17 15 17h33q12 0 20 -17l6 -16q41 41 111 41q60 0 106 -30zM246 -54q16 0 16 -15v-56q0 -4 -1 -6l-26 -93h-24q-4 0 -7.5 4t-2.5 12
l7 68h-31q-16 0 -16 15v56q0 15 16 15h69z" />
    <glyph glyph-name="Rcaron" unicode="&#x158;" horiz-adv-x="646" 
d="M219 839q-10 10 -10 20v15q0 20 19 7l97 -66l99 66q19 13 19 -7v-15q0 -10 -10 -20l-81 -81q-12 -12 -25 -12h-4q-13 0 -25 12zM581 21q4 -9 -1 -15t-12 -6h-58q-14 0 -21 15l-135 264h-195v-265q0 -14 -14 -14h-59q-15 0 -15 14v671q0 15 15 15h59h242q73 -1 128.5 -56
t55.5 -152q0 -73 -35.5 -126.5t-91.5 -74.5zM159 353h200q68 0 96 41t28 98q0 134 -125 134h-199v-273z" />
    <glyph glyph-name="rcaron" unicode="&#x159;" horiz-adv-x="374" 
d="M100 562q-10 10 -10 20v15q0 20 19 7l97 -66l99 66q19 13 19 -7v-15q0 -10 -10 -20l-81 -81q-12 -12 -25 -12h-4q-13 0 -25 12zM348 401q13 -8 5 -18l-25 -41q-7 -10 -18 -4q-31 26 -74 26q-38 0 -66.5 -24t-28.5 -67v-258q0 -15 -15 -15h-54q-15 0 -15 15v391
q0 17 15 17h33q12 0 20 -17l6 -16q41 41 111 41q60 0 106 -30z" />
    <glyph glyph-name="Sacute" unicode="&#x15a;" horiz-adv-x="617" 
d="M238 736q-13 -4 -20 9l-6 20q-5 11 10 19l149 77q15 8 21 -9l13 -40q5 -14 -9 -20zM306 -8q-155 0 -250 95q-8 8 0 20l30 36q10 12 22 4q1 0 10 -8.5t19 -16t28.5 -18t37.5 -18.5t46.5 -13.5t56.5 -5.5q22 0 48 5.5t55 18.5t48 39.5t19 61.5q0 37 -27 62t-54 34.5
t-85 24.5q-3 1 -5 1.5t-5 1t-5 1.5q-118 30 -176.5 75.5t-58.5 123.5q0 33 13 65t40 61.5t76.5 47.5t115.5 18q140 0 229 -71q10 -8 1 -22l-29 -39q-6 -12 -19 -2q-82 59 -180 59q-70 0 -114.5 -31.5t-44.5 -80.5q0 -48 43.5 -76.5t131.5 -50.5q28 -7 42.5 -10.5t44 -13
t47 -18.5t40.5 -25t35.5 -34t22 -44.5t9.5 -56.5q0 -34 -14 -67t-42.5 -64t-81 -50t-120.5 -19z" />
    <glyph glyph-name="sacute" unicode="&#x15b;" horiz-adv-x="401" 
d="M148 460q-12 -9 -22 3l-12 17q-7 9 5 21l122 116q12 10 23 -3l23 -35q9 -10 -3 -22zM198 -8q-47 0 -91.5 14.5t-71.5 39.5q-8 8 -2 19l18 32q6 14 20 6q63 -44 127 -44q90 0 90 64q0 24 -22 37t-69 24q-77 17 -116 45t-39 78q0 51 43 87.5t109 36.5q82 0 142 -34
q12 -7 6 -19l-17 -32q-9 -11 -20 -6q-49 24 -101 24q-81 0 -81 -57q0 -15 20 -30t62 -25q88 -21 117 -40q46 -32 47 -89q0 -47 -41 -89t-130 -42z" />
    <glyph glyph-name="Scedilla" unicode="&#x15e;" horiz-adv-x="617" 
d="M564 192q0 -32 -13 -64.5t-39 -62t-74 -49.5t-110 -23l-10 -27q33 4 59 -17.5t26 -58.5q0 -43 -24 -66t-68 -23q-24 0 -44 12.5t-25 25.5q-3 7 3 10l27 16q4 2 9 -4q12 -12 30 -12q17 0 27 11.5t10 30.5q0 20 -17.5 27.5t-29.5 -1.5q-4 -3 -8 -4t-6 -1l-2 1l-28 9
q-7 2 -5 10l25 61q-133 8 -221 94q-8 8 0 20l30 36q10 12 22 4q1 0 10 -8.5t19 -16t28.5 -18t37.5 -18.5t46.5 -13.5t56.5 -5.5q22 0 48 5.5t55 18.5t48 39.5t19 61.5q0 37 -27 62t-54 34.5t-85 24.5q-3 1 -5 1.5t-5 1t-5 1.5q-118 30 -176.5 75.5t-58.5 123.5q0 33 13 65
t40 61.5t76.5 47.5t115.5 18q140 0 229 -71q10 -8 1 -22l-29 -39q-6 -12 -19 -2q-82 59 -180 59q-70 0 -114.5 -31.5t-44.5 -80.5q0 -48 43.5 -76.5t131.5 -50.5q28 -7 42.5 -10.5t44 -13t47 -18.5t40.5 -25t35.5 -34t22 -44.5t9.5 -56.5z" />
    <glyph glyph-name="scedilla" unicode="&#x15f;" horiz-adv-x="401" 
d="M369 123q0 -43 -36.5 -84t-114.5 -46l-10 -27q33 4 59 -17.5t26 -58.5q0 -43 -24 -66t-68 -23q-24 0 -44 12.5t-25 25.5q-3 7 3 10l27 16q4 2 9 -4q12 -12 30 -12q17 0 27 11.5t10 30.5q0 20 -17.5 27.5t-29.5 -1.5q-4 -3 -8 -4t-6 -1l-2 1l-28 9q-7 2 -5 10l25 62
q-83 8 -132 52q-8 8 -2 19l18 32q6 14 20 6q63 -44 127 -44q90 0 90 64q0 24 -22 37t-69 24q-77 17 -116 45t-39 78q0 51 43 87.5t109 36.5q82 0 142 -34q12 -7 6 -19l-17 -32q-9 -11 -20 -6q-49 24 -101 24q-81 0 -81 -57q0 -15 20 -30t62 -25q88 -21 117 -40
q46 -32 47 -89z" />
    <glyph glyph-name="Scaron" unicode="&#x160;" horiz-adv-x="617" 
d="M202 839q-10 10 -10 20v15q0 20 19 7l97 -66l99 66q19 13 19 -7v-15q0 -10 -10 -20l-81 -81q-12 -12 -25 -12h-4q-13 0 -25 12zM323 394q28 -7 42.5 -10.5t44 -13t47 -18.5t40.5 -25t35.5 -34t22 -44.5t9.5 -56.5q0 -34 -14 -67t-42.5 -64t-81 -50t-120.5 -19
q-155 0 -250 95q-8 8 0 20l30 36q10 12 22 4q1 0 10 -8.5t19 -16t28.5 -18t37.5 -18.5t46.5 -13.5t56.5 -5.5q22 0 48 5.5t55 18.5t48 39.5t19 61.5q0 37 -27 62t-54 34.5t-85 24.5q-3 1 -5 1.5t-5 1t-5 1.5q-118 30 -176.5 75.5t-58.5 123.5q0 33 13 65t40 61.5t76.5 47.5
t115.5 18q140 0 229 -71q10 -8 1 -22l-29 -39q-6 -12 -19 -2q-82 59 -180 59q-70 0 -114.5 -31.5t-44.5 -80.5q0 -48 43.5 -76.5t131.5 -50.5z" />
    <glyph glyph-name="scaron" unicode="&#x161;" horiz-adv-x="401" 
d="M94 562q-10 10 -10 20v15q0 20 19 7l97 -66l99 66q19 13 19 -7v-15q0 -10 -10 -20l-81 -81q-12 -12 -25 -12h-4q-13 0 -25 12zM205 252q88 -21 117 -40q46 -32 47 -89q0 -47 -41 -89t-130 -42q-47 0 -91.5 14.5t-71.5 39.5q-8 8 -2 19l18 32q6 14 20 6q63 -44 127 -44
q90 0 90 64q0 24 -22 37t-69 24q-77 17 -116 45t-39 78q0 51 43 87.5t109 36.5q82 0 142 -34q12 -7 6 -19l-17 -32q-9 -11 -20 -6q-49 24 -101 24q-81 0 -81 -57q0 -15 20 -30t62 -25z" />
    <glyph glyph-name="uni0162" unicode="&#x162;" horiz-adv-x="586" 
d="M546 700q6 0 10 -5t4 -11v-43q0 -15 -14 -15h-200v-611q0 -6 -4.5 -10.5t-10.5 -4.5h-12l-8 -21q33 4 59 -17.5t26 -58.5q0 -43 -24 -66t-68 -23q-24 0 -44 12.5t-25 25.5q-3 7 3 10l27 16q4 2 9 -4q12 -12 30 -12q17 0 27 11.5t10 30.5q0 20 -17.5 27.5t-29.5 -1.5
q-4 -3 -8 -4t-6 0h-2l-28 9q-7 2 -5 10l23 56q-10 2 -10 14v611h-200q-6 0 -10.5 4.5t-4.5 10.5v43q0 6 4.5 11t10.5 5h227h46h215z" />
    <glyph glyph-name="uni0163" unicode="&#x163;" horiz-adv-x="363" 
d="M343 54q5 -10 -3 -18q-37 -37 -108 -43l-10 -27q33 4 59 -17.5t26 -58.5q0 -43 -24 -66t-68 -23q-24 0 -44 12.5t-25 25.5q-3 7 3 10l27 16q4 2 9 -4q12 -12 30 -12q17 0 27 11.5t10 30.5q0 20 -17.5 27.5t-29.5 -1.5q-4 -3 -8 -4t-6 -1l-2 1l-28 9q-7 2 -5 10
q17 42 26 63q-82 15 -84 118v242h-46q-14 0 -14 16v35q0 17 14 17h46v105q0 15 15 15h54q15 0 15 -15v-105h112q15 0 15 -17v-35q0 -16 -15 -16h-112v-225q0 -21 2.5 -34t14 -24.5t33.5 -11.5q38 0 69 31q12 12 22 -2z" />
    <glyph glyph-name="Tcaron" unicode="&#x164;" horiz-adv-x="586" 
d="M195 839q-10 10 -10 20v15q0 20 19 7l97 -66l99 66q19 13 19 -7v-15q0 -10 -10 -20l-81 -81q-12 -12 -25 -12h-4q-13 0 -25 12zM546 700q6 0 10 -5t4 -11v-43q0 -15 -14 -15h-200v-611q0 -6 -4.5 -10.5t-10.5 -4.5h-59q-14 0 -14 15v611h-200q-6 0 -10.5 4.5t-4.5 10.5
v43q0 6 4.5 11t10.5 5h227h46h215z" />
    <glyph glyph-name="tcaron" unicode="&#x165;" horiz-adv-x="363" 
d="M68 686q-10 10 -10 20v15q0 20 19 7l97 -66l99 66q19 13 19 -7v-15q0 -10 -10 -20l-81 -81q-12 -12 -25 -12h-4q-13 0 -25 12zM343 54q5 -10 -3 -18q-19 -18 -53.5 -31t-71.5 -13q-115 0 -117 121v242h-46q-14 0 -14 16v35q0 17 14 17h46v105q0 15 15 15h54q15 0 15 -15
v-105h112q15 0 15 -17v-35q0 -16 -15 -16h-112v-225q0 -21 2.5 -34t14 -24.5t33.5 -11.5q38 0 69 31q12 12 22 -2z" />
    <glyph glyph-name="Tbar" unicode="&#x166;" horiz-adv-x="586" 
d="M546 700q6 0 10 -5t4 -11v-43q0 -15 -14 -15h-200v-242h106q16 0 16 -15v-40q0 -15 -16 -15h-106v-299q0 -6 -4.5 -10.5t-10.5 -4.5h-59q-14 0 -14 15v299h-108q-16 0 -16 15v40q0 15 16 15h108v242h-200q-6 0 -10.5 4.5t-4.5 10.5v43q0 6 4.5 11t10.5 5h227h46h215z" />
    <glyph glyph-name="tbar" unicode="&#x167;" horiz-adv-x="420" 
d="M361 54q5 -10 -3 -18q-18 -18 -52 -31t-72 -13q-115 0 -118 121v242h-45q-14 0 -14 16v35q0 17 14 17h45v60h-45q-14 0 -14 16v35q0 17 14 17h45v85q0 15 15 15h54q15 0 15 -15v-85h113q15 0 15 -17v-35q0 -16 -15 -16h-113v-60h113q15 0 15 -17v-35q0 -16 -15 -16h-113
v-225q0 -21 2.5 -34t14 -24.5t33.5 -11.5q38 0 69 31q4 4 11.5 4t11.5 -6z" />
    <glyph glyph-name="Umacron" unicode="&#x16a;" horiz-adv-x="661" 
d="M240 764q-16 0 -16 15v34q0 15 16 15h181q16 0 16 -15v-34q0 -15 -16 -15h-181zM575 700q14 0 14 -16v-395q-1 -143 -60 -220t-199 -77q-139 0 -199 77.5t-60 219.5v395q0 7 4.5 11.5t10.5 4.5h59q14 0 14 -16v-376q0 -127 40 -184.5t131 -57.5t131 57.5t40 184.5v376
q0 7 4.5 11.5t10.5 4.5h59z" />
    <glyph glyph-name="umacron" unicode="&#x16b;" horiz-adv-x="513" 
d="M167 487q-16 0 -16 15v34q0 15 16 15h181q16 0 16 -15v-34q0 -15 -16 -15h-181zM442 423q15 0 15 -17v-392q0 -14 -15 -14h-25q-14 0 -22 14l-23 36q-46 -58 -137 -58q-85 0 -131.5 50t-46.5 127v237q0 17 14 17h55q15 0 15 -17v-230q0 -51 30 -84t88 -33q56 0 84.5 28.5
t29.5 62.5v256q0 17 15 17h54z" />
    <glyph glyph-name="ubreve" unicode="&#x16d;" horiz-adv-x="513" 
d="M256 470q-104 0 -143 98q-3 7 5 10l39 19q7 3 11 -4q13 -22 19.5 -31t25.5 -20.5t44 -11.5t44 11.5t25.5 20.5t19.5 31q4 7 11 4l39 -19q8 -3 5 -10q-39 -98 -145 -98zM442 423q15 0 15 -17v-392q0 -14 -15 -14h-25q-14 0 -22 14l-23 36q-46 -58 -137 -58
q-85 0 -131.5 50t-46.5 127v237q0 17 14 17h55q15 0 15 -17v-230q0 -51 30 -84t88 -33q56 0 84.5 28.5t29.5 62.5v256q0 17 15 17h54z" />
    <glyph glyph-name="Uring" unicode="&#x16e;" horiz-adv-x="661" 
d="M330 734q-43 0 -72 28t-29 75t29 75t72 28t73 -28t30 -75t-30 -75t-73 -28zM330 888q-21 0 -32 -15.5t-11 -35.5q0 -21 11 -36.5t32 -15.5q22 0 33 15.5t11 36.5q0 20 -11 35.5t-33 15.5zM575 700q14 0 14 -16v-395q-1 -143 -60 -220t-199 -77q-139 0 -199 77.5
t-60 219.5v395q0 7 4.5 11.5t10.5 4.5h59q14 0 14 -16v-376q0 -127 40 -184.5t131 -57.5t131 57.5t40 184.5v376q0 7 4.5 11.5t10.5 4.5h59z" />
    <glyph glyph-name="uring" unicode="&#x16f;" horiz-adv-x="513" 
d="M257 457q-43 0 -72 28t-29 75t29 75t72 28t73 -28t30 -75t-30 -75t-73 -28zM257 611q-21 0 -32 -15.5t-11 -35.5q0 -21 11 -36.5t32 -15.5q22 0 33 15.5t11 36.5q0 20 -11 35.5t-33 15.5zM442 423q15 0 15 -17v-392q0 -14 -15 -14h-25q-14 0 -22 14l-23 36
q-46 -58 -137 -58q-85 0 -131.5 50t-46.5 127v237q0 17 14 17h55q15 0 15 -17v-230q0 -51 30 -84t88 -33q56 0 84.5 28.5t29.5 62.5v256q0 17 15 17h54z" />
    <glyph glyph-name="Uhungarumlaut" unicode="&#x170;" horiz-adv-x="661" 
d="M181 747l-6 8q-7 7 6 20l102 84q14 11 22 -3l22 -36q9 -12 -6 -21l-119 -58q-13 -6 -21 6zM339 747l-6 8q-6 7 7 20l102 84q12 9 20 -3l22 -35q10 -13 -5 -21l-119 -59q-14 -5 -21 6zM575 700q14 0 14 -16v-395q-1 -143 -60 -220t-199 -77q-139 0 -199 77.5t-60 219.5
v395q0 7 4.5 11.5t10.5 4.5h59q14 0 14 -16v-376q0 -127 40 -184.5t131 -57.5t131 57.5t40 184.5v376q0 7 4.5 11.5t10.5 4.5h59z" />
    <glyph glyph-name="uhungarumlaut" unicode="&#x171;" horiz-adv-x="513" 
d="M132 478q-9 6 1 21l75 109q9 15 21 3l31 -27q13 -11 0 -22l-98 -89q-11 -10 -22 0zM256 478q-9 6 1 21l74 109q9 12 22 3l30 -27q14 -11 1 -22l-99 -89q-11 -10 -22 0zM442 423q15 0 15 -17v-392q0 -14 -15 -14h-25q-14 0 -22 14l-23 36q-46 -58 -137 -58
q-85 0 -131.5 50t-46.5 127v237q0 17 14 17h55q15 0 15 -17v-230q0 -51 30 -84t88 -33q56 0 84.5 28.5t29.5 62.5v256q0 17 15 17h54z" />
    <glyph glyph-name="Uogonek" unicode="&#x172;" horiz-adv-x="661" 
d="M575 700q14 0 14 -16v-395q-1 -116 -38.5 -188.5t-125.5 -96.5q-57 -47 -57 -109q0 -47 41 -47q34 0 52 26q4 7 14 1l6 -4q7 -4 4 -12q-24 -62 -83 -62h-1q-42 0 -67.5 23.5t-25.5 65.5q0 62 63 108q-26 -2 -41 -2q-139 0 -199 77.5t-60 219.5v395q0 7 4.5 11.5t10.5 4.5
h59q14 0 14 -16v-376q0 -127 40 -184.5t131 -57.5t131 57.5t40 184.5v376q0 7 4.5 11.5t10.5 4.5h59z" />
    <glyph glyph-name="uogonek" unicode="&#x173;" horiz-adv-x="513" 
d="M493 -129q7 -4 4 -12q-24 -62 -83 -62h-1q-42 0 -67.5 23.5t-25.5 65.5q0 71 81 120q-2 2 -6 8l-23 36q-46 -58 -137 -58q-85 0 -131.5 50t-46.5 127v237q0 17 14 17h55q15 0 15 -17v-230q0 -51 30 -84t88 -33q56 0 84.5 28.5t29.5 62.5v256q0 17 15 17h54q15 0 15 -17
v-392q0 -14 -15 -14h-9q-53 -45 -53 -105q0 -47 41 -47q34 0 52 26q4 7 14 1z" />
    <glyph glyph-name="Wcircumflex" unicode="&#x174;" horiz-adv-x="954" 
d="M377 750q-19 -13 -19 7v15q0 10 10 20l79 81q12 12 25 12h4q13 0 25 -12l81 -81q10 -10 10 -20v-15q0 -20 -19 -7l-99 66zM906 700q6 0 10.5 -6t2.5 -14l-236 -670q-3 -10 -13 -10h-25q-9 0 -13 9l-155 510l-151 -509q-3 -10 -14 -10h-23q-10 0 -14 10l-240 670
q-2 8 2.5 14t11.5 6h58q9 0 13 -10l177 -505l146 505q3 10 14 10h36h3q10 0 14 -10l150 -505l174 505q4 10 14 10h58z" />
    <glyph glyph-name="wcircumflex" unicode="&#x175;" horiz-adv-x="629" 
d="M215 473q-19 -13 -19 7v15q0 10 10 20l79 81q12 12 25 12h4q13 0 25 -12l81 -81q10 -10 10 -20v-15q0 -20 -19 -7l-99 66zM587 423q8 0 11.5 -7t1.5 -14l-129 -392q-4 -10 -14 -10h-22h-10q-9 0 -14 10l-96 284l-96 -285q-3 -9 -13 -9h-24h-9q-9 0 -14 9l-129 393
q-3 7 0.5 14t12.5 7h52q12 0 15 -10l80 -278l104 278q4 10 12 10h14h5q10 0 13 -10l103 -275l79 274q3 11 15 11h52z" />
    <glyph glyph-name="Ycircumflex" unicode="&#x176;" horiz-adv-x="639" 
d="M220 750q-19 -13 -19 7v15q0 10 10 20l79 81q12 12 25 12h4q13 0 25 -12l81 -81q10 -10 10 -20v-15q0 -20 -19 -7l-99 66zM590 700q8 0 13 -7.5t0 -15.5l-239 -378v-285q0 -14 -15 -14h-58q-15 0 -15 14v284l-239 380q-6 8 -0.5 15t13.5 7h53q14 0 25 -15l192 -309
l192 309q11 15 24 15h54z" />
    <glyph glyph-name="ycircumflex" unicode="&#x177;" horiz-adv-x="505" 
d="M151 473q-19 -13 -19 7v15q0 10 10 20l79 81q12 12 25 12h4q13 0 25 -12l81 -81q10 -10 10 -20v-15q0 -20 -19 -7l-99 66zM463 423q7 0 12.5 -6.5t1.5 -14.5l-341 -674q-4 -8 -13 -8h-50q-8 0 -12.5 6.5t-0.5 14.5l143 283l-175 378q-3 6 0.5 13.5t12.5 7.5h54
q11 0 17 -15l133 -300l155 306q4 9 14 9h49z" />
    <glyph glyph-name="Ydieresis" unicode="&#x178;" horiz-adv-x="639" 
d="M257 765q-17 0 -28.5 11.5t-11.5 27.5q0 17 11.5 28.5t28.5 11.5t28.5 -11.5t11.5 -28.5q0 -16 -11.5 -27.5t-28.5 -11.5zM382 765q-16 0 -27.5 11.5t-11.5 27.5q0 17 11 28.5t28 11.5t28.5 -11.5t11.5 -28.5t-11.5 -28t-28.5 -11zM590 700q8 0 13 -7.5t0 -15.5
l-239 -378v-285q0 -14 -15 -14h-58q-15 0 -15 14v284l-239 380q-6 8 -0.5 15t13.5 7h53q14 0 25 -15l192 -309l192 309q11 15 24 15h54z" />
    <glyph glyph-name="Zacute" unicode="&#x179;" horiz-adv-x="620" 
d="M228 745l-6 20q-5 11 10 19l149 77q15 8 21 -9l13 -40q5 -14 -9 -20l-158 -56q-13 -4 -20 9zM567 74q14 0 14 -15v-44q0 -15 -14 -15h-493h-5q-8 0 -12.5 7t-0.5 14l395 605h-357q-14 0 -14 14v44q0 16 14 16h456h18q8 0 12.5 -7.5t0.5 -14.5l-395 -604h381z" />
    <glyph glyph-name="zacute" unicode="&#x17a;" horiz-adv-x="421" 
d="M136 463l-12 17q-7 9 5 21l122 116q12 10 23 -3l23 -35q9 -10 -3 -22l-136 -97q-12 -9 -22 3zM367 423q9 0 13 -7.5t-2 -16.5l-216 -331h196q6 0 10.5 -4.5t4.5 -10.5v-39q0 -14 -15 -14h-272h-32q-8 0 -12.5 7.5t2.5 16.5l219 331h-191q-15 0 -15 14v39q0 6 4.5 10.5
t10.5 4.5h265h30z" />
    <glyph glyph-name="Zdotaccent" unicode="&#x17b;" horiz-adv-x="620" 
d="M319 759q-19 0 -32 12.5t-13 31.5t13 32t32 13t32 -13t13 -32t-13 -31.5t-32 -12.5zM567 74q14 0 14 -15v-44q0 -15 -14 -15h-493h-5q-8 0 -12.5 7t-0.5 14l395 605h-357q-14 0 -14 14v44q0 16 14 16h456h18q8 0 12.5 -7.5t0.5 -14.5l-395 -604h381z" />
    <glyph glyph-name="zdotaccent" unicode="&#x17c;" horiz-adv-x="421" 
d="M211 482q-19 0 -32 12.5t-13 31.5t13 32t32 13t32 -13t13 -32t-13 -31.5t-32 -12.5zM367 423q9 0 13 -7.5t-2 -16.5l-216 -331h196q6 0 10.5 -4.5t4.5 -10.5v-39q0 -14 -15 -14h-272h-32q-8 0 -12.5 7.5t2.5 16.5l219 331h-191q-15 0 -15 14v39q0 6 4.5 10.5t10.5 4.5
h265h30z" />
    <glyph glyph-name="Zcaron" unicode="&#x17d;" horiz-adv-x="620" 
d="M212 839q-10 10 -10 20v15q0 20 19 7l97 -66l99 66q19 13 19 -7v-15q0 -10 -10 -20l-81 -81q-12 -12 -25 -12h-4q-13 0 -25 12zM567 74q14 0 14 -15v-44q0 -15 -14 -15h-493h-5q-8 0 -12.5 7t-0.5 14l395 605h-357q-14 0 -14 14v44q0 16 14 16h456h18q8 0 12.5 -7.5
t0.5 -14.5l-395 -604h381z" />
    <glyph glyph-name="zcaron" unicode="&#x17e;" horiz-adv-x="421" 
d="M104 562q-10 10 -10 20v15q0 20 19 7l97 -66l99 66q19 13 19 -7v-15q0 -10 -10 -20l-81 -81q-12 -12 -25 -12h-4q-13 0 -25 12zM367 423q9 0 13 -7.5t-2 -16.5l-216 -331h196q6 0 10.5 -4.5t4.5 -10.5v-39q0 -14 -15 -14h-272h-32q-8 0 -12.5 7.5t2.5 16.5l219 331h-191
q-15 0 -15 14v39q0 6 4.5 10.5t10.5 4.5h265h30z" />
    <glyph glyph-name="florin" unicode="&#x192;" horiz-adv-x="457" 
d="M391 682q12 -8 7 -21l-23 -33q-8 -12 -19 -5q-29 17 -61 17q-50 0 -70.5 -26.5t-20.5 -90.5v-136h121q6 0 10.5 -4.5t4.5 -10.5v-42q0 -6 -4.5 -10.5t-10.5 -4.5h-121v-300v-64q0 -44 -83 -116q-11 -7 -18 0l-30 29q-7 10 0 19q2 2 9.5 11t11 13.5t9.5 13t9 14.5t5.5 14
t2.5 15v51v300h-49q-14 0 -14 15v42q0 15 14 15h49v140v1q1 59 16 97.5t43 55t53 22t60 5.5q56 0 99 -26z" />
    <glyph glyph-name="Scommaaccent" unicode="&#x218;" horiz-adv-x="617" 
d="M323 394q28 -7 42.5 -10.5t44 -13t47 -18.5t40.5 -25t35.5 -34t22 -44.5t9.5 -56.5q0 -34 -14 -67t-42.5 -64t-81 -50t-120.5 -19q-155 0 -250 95q-8 8 0 20l30 36q10 12 22 4q1 0 10 -8.5t19 -16t28.5 -18t37.5 -18.5t46.5 -13.5t56.5 -5.5q22 0 48 5.5t55 18.5t48 39.5
t19 61.5q0 37 -27 62t-54 34.5t-85 24.5q-3 1 -5 1.5t-5 1t-5 1.5q-118 30 -176.5 75.5t-58.5 123.5q0 33 13 65t40 61.5t76.5 47.5t115.5 18q140 0 229 -71q10 -8 1 -22l-29 -39q-6 -12 -19 -2q-82 59 -180 59q-70 0 -114.5 -31.5t-44.5 -80.5q0 -48 43.5 -76.5
t131.5 -50.5zM348 -54q16 0 16 -15v-56q0 -4 -1 -6l-26 -93h-24q-4 0 -7.5 4t-2.5 12l7 68h-31q-16 0 -16 15v56q0 15 16 15h69z" />
    <glyph glyph-name="scommaaccent" unicode="&#x219;" horiz-adv-x="401" 
d="M205 252q88 -21 117 -40q46 -32 47 -89q0 -47 -41 -89t-130 -42q-47 0 -91.5 14.5t-71.5 39.5q-8 8 -2 19l18 32q6 14 20 6q63 -44 127 -44q90 0 90 64q0 24 -22 37t-69 24q-77 17 -116 45t-39 78q0 51 43 87.5t109 36.5q82 0 142 -34q12 -7 6 -19l-17 -32q-9 -11 -20 -6
q-49 24 -101 24q-81 0 -81 -57q0 -15 20 -30t62 -25zM238 -54q16 0 16 -15v-56q0 -4 -1 -6l-26 -93h-24q-4 0 -7.5 4t-2.5 12l7 68h-31q-16 0 -16 15v56q0 15 16 15h69z" />
    <glyph glyph-name="uni021A" unicode="&#x21a;" horiz-adv-x="586" 
d="M546 700q6 0 10 -5t4 -11v-43q0 -15 -14 -15h-200v-611q0 -6 -4.5 -10.5t-10.5 -4.5h-59q-14 0 -14 15v611h-200q-6 0 -10.5 4.5t-4.5 10.5v43q0 6 4.5 11t10.5 5h227h46h215zM341 -41q16 0 16 -15v-56q0 -4 -1 -6l-26 -93h-24q-4 0 -7.5 4t-2.5 12l7 68h-31
q-16 0 -16 15v56q0 15 16 15h69z" />
    <glyph glyph-name="uni021B" unicode="&#x21b;" horiz-adv-x="363" 
d="M343 54q5 -10 -3 -18q-19 -18 -53.5 -31t-71.5 -13q-115 0 -117 121v242h-46q-14 0 -14 16v35q0 17 14 17h46v105q0 15 15 15h54q15 0 15 -15v-105h112q15 0 15 -17v-35q0 -16 -15 -16h-112v-225q0 -21 2.5 -34t14 -24.5t33.5 -11.5q38 0 69 31q12 12 22 -2zM252 -54
q16 0 16 -15v-56q0 -4 -1 -6l-26 -93h-24q-4 0 -7.5 4t-2.5 12l7 68h-31q-16 0 -16 15v56q0 15 16 15h69z" />
    <glyph glyph-name="circumflex" unicode="&#x2c6;" horiz-adv-x="348" 
d="M281 697q10 -10 10 -20v-15q0 -20 -19 -7l-99 66l-97 -66q-19 -13 -19 7v15q0 10 10 20l79 81q12 12 25 12h4q13 0 25 -12z" />
    <glyph glyph-name="caron" unicode="&#x2c7;" horiz-adv-x="348" 
d="M272 786q19 13 19 -7v-15q0 -10 -10 -20l-81 -81q-12 -12 -25 -12h-4q-13 0 -25 12l-79 81q-10 10 -10 20v15q0 20 19 7l97 -66z" />
    <glyph glyph-name="breve" unicode="&#x2d8;" horiz-adv-x="404" 
d="M341 760q8 -3 5 -10q-39 -98 -145 -98q-104 0 -143 98q-3 7 5 10l39 19q7 3 11 -4q13 -22 19.5 -31t25.5 -20.5t44 -11.5t44 11.5t25.5 20.5t19.5 31q3 7 11 4z" />
    <glyph glyph-name="dotaccent" unicode="&#x2d9;" horiz-adv-x="204" 
d="M102 664q-19 0 -32 12.5t-13 31.5t13 32t32 13t32 -13t13 -32t-13 -31.5t-32 -12.5z" />
    <glyph glyph-name="ring" unicode="&#x2da;" horiz-adv-x="318" 
d="M158 639q-43 0 -72 28t-29 75t29 75t72 28t73 -28t30 -75t-30 -75t-73 -28zM158 690q22 0 33 15.5t11 36.5q0 20 -11 35.5t-33 15.5q-21 0 -32 -15.5t-11 -35.5q0 -21 11 -36.5t32 -15.5z" />
    <glyph glyph-name="ogonek" unicode="&#x2db;" horiz-adv-x="294" 
d="M232 -141q7 -4 4 -12q-25 -62 -83 -62h-1q-42 0 -68.5 23.5t-26.5 65.5q0 75 89 126h42q-63 -69 -63 -117q0 -40 35 -40t50 19q6 8 14 2z" />
    <glyph glyph-name="tilde" unicode="&#x2dc;" horiz-adv-x="405" 
d="M343 739q7 -4 4 -12q-24 -65 -82 -65h-1q-37 0 -68 16.5t-54 16.5q-33 0 -56 -25q-6 -6 -14 -2l-10 5q-7 4 -4 12q24 65 83 65h1q42 0 74 -16.5t49 -16.5q30 0 54 25q6 6 14 2z" />
    <glyph glyph-name="hungarumlaut" unicode="&#x2dd;" horiz-adv-x="376" 
d="M70 655l-8 5q-9 6 1 21l75 109q9 15 21 3l31 -27q13 -11 0 -22l-98 -89q-11 -10 -22 0zM193 655l-8 5q-9 6 1 21l75 109q8 14 21 3l30 -27q14 -11 1 -22l-98 -89q-11 -10 -22 0z" />
    <glyph glyph-name="gravecomb" unicode="&#x300;" 
d="M-94 642l-136 97q-12 12 -3 22l23 35q11 13 23 3l122 -116q12 -12 5 -21l-12 -17q-10 -12 -22 -3z" />
    <glyph glyph-name="acutecomb" unicode="&#x301;" 
d="M-200 642q-12 -9 -22 3l-12 17q-7 9 5 21l122 116q12 10 23 -3l23 -35q9 -10 -3 -22z" />
    <glyph glyph-name="uni0302" unicode="&#x302;" 
d="M-67 697q10 -10 10 -20v-15q0 -20 -19 -7l-99 66l-97 -66q-19 -13 -19 7v15q0 10 10 20l79 81q12 12 25 12h4q13 0 25 -12z" />
    <glyph glyph-name="tildecomb" unicode="&#x303;" 
d="M-62 739q7 -4 4 -12q-24 -65 -82 -65h-1q-37 0 -68 16.5t-54 16.5q-33 0 -56 -25q-6 -6 -14 -2l-10 5q-7 4 -4 12q24 65 83 65h1q42 0 74 -16.5t49 -16.5q30 0 54 25q6 6 14 2z" />
    <glyph glyph-name="uni0304" unicode="&#x304;" 
d="M-254 669q-16 0 -16 15v34q0 15 16 15h181q16 0 16 -15v-34q0 -15 -16 -15h-181z" />
    <glyph glyph-name="uni0306" unicode="&#x306;" 
d="M-63 760q8 -3 5 -10q-39 -98 -145 -98q-104 0 -143 98q-3 7 5 10l39 19q8 3 11 -4q13 -22 19.5 -31t25.5 -20.5t44 -11.5t44 11.5t25.5 20.5t19.5 31q4 7 11 4z" />
    <glyph glyph-name="uni0307" unicode="&#x307;" 
d="M-102 664q-19 0 -32 12.5t-13 31.5t13 32t32 13t32 -13t13 -32t-13 -31.5t-32 -12.5z" />
    <glyph glyph-name="uni0308" unicode="&#x308;" 
d="M-222 670q-17 0 -28.5 11.5t-11.5 27.5q0 17 11.5 28.5t28.5 11.5t28.5 -11.5t11.5 -28.5q0 -16 -11.5 -27.5t-28.5 -11.5zM-97 670q-17 0 -28 11t-11 28t11 28.5t28 11.5t28.5 -11.5t11.5 -28.5t-11.5 -28t-28.5 -11z" />
    <glyph glyph-name="uni030A" unicode="&#x30a;" 
d="M-160 639q-43 0 -72 28t-29 75t29 75t72 28t73 -28t30 -75t-30 -75t-73 -28zM-160 690q22 0 33 15.5t11 36.5q0 20 -11 35.5t-33 15.5q-21 0 -32 -15.5t-11 -35.5q0 -21 11 -36.5t32 -15.5z" />
    <glyph glyph-name="uni030B" unicode="&#x30b;" 
d="M-306 655l-8 5q-9 6 1 21l75 109q9 15 21 3l31 -27q13 -11 0 -22l-98 -89q-11 -10 -22 0zM-183 655l-7 5q-9 6 1 21l74 109q9 12 22 3l30 -27q14 -11 1 -22l-99 -89q-11 -10 -22 0z" />
    <glyph glyph-name="uni030C" unicode="&#x30c;" 
d="M-76 786q19 13 19 -7v-15q0 -10 -10 -20l-81 -81q-12 -12 -25 -12h-4q-13 0 -25 12l-79 81q-10 10 -10 20v15q0 20 19 7l97 -66z" />
    <glyph glyph-name="uni0312" unicode="&#x312;" 
d="M-68 741q16 0 16 -15v-55q0 -15 -16 -15h-69q-16 0 -16 15v55q0 4 1 5l26 94h24q4 0 7.5 -4t2.5 -12l-7 -68h31z" />
    <glyph glyph-name="uni0326" unicode="&#x326;" 
d="M-39 -72v-56q0 -4 -1 -5l-26 -94h-24q-4 0 -7.5 4t-2.5 12l7 68h-31q-16 0 -16 15v56q0 15 16 15h69q16 0 16 -15z" />
    <glyph glyph-name="uni0327" unicode="&#x327;" 
d="M-141 -39q33 4 59 -17t26 -58q0 -43 -24 -66t-68 -23q-24 0 -44 12.5t-25 25.5q-3 7 3 10l27 16q4 2 9 -4q12 -12 30 -12q17 0 27 11.5t10 30.5q0 20 -17.5 27.5t-29.5 -1.5q-4 -3 -8 -4t-6 -1l-2 1l-28 9q-7 2 -5 10l33 80h51z" />
    <glyph glyph-name="uni0328" unicode="&#x328;" 
d="M-62 -141q7 -4 4 -12q-25 -62 -83 -62h-1q-42 0 -67.5 23.5t-25.5 65.5t28 75t65 51h36q-27 -17 -48 -49t-21 -68q0 -45 41 -47q36 2 52 26q4 7 14 1z" />
    <glyph glyph-name="uni0335" unicode="&#x335;" 
d="M-375 174q-16 0 -16 15v40q0 15 16 15h302q16 0 16 -15v-40q0 -15 -16 -15h-302z" />
    <glyph glyph-name="uni0336" unicode="&#x336;" 
d="M-679 174q-16 0 -16 15v40q0 15 16 15h606q16 0 16 -15v-40q0 -15 -16 -15h-606z" />
    <glyph glyph-name="uni0394" unicode="&#x394;" horiz-adv-x="698" 
d="M645 20q3 -7 -1.5 -13.5t-12.5 -6.5h-37h-491h-37q-7 0 -11.5 6.5t-1.5 14.5l259 670q4 9 13 9h25h22q11 0 14 -9zM349 561l-188 -487h376z" />
    <glyph glyph-name="Pi" unicode="&#x3a0;" horiz-adv-x="626" 
d="M537 700q16 0 16 -15v-42v-627q0 -16 -15 -16h-56q-15 0 -15 16v612h-308v-612q0 -16 -15 -16h-56q-15 0 -15 16v646v23q0 15 16 15h448z" />
    <glyph glyph-name="uni03A9" unicode="&#x3a9;" horiz-adv-x="814" 
d="M730 74q15 0 15 -14v-46q0 -14 -15 -14h-244h-12q-5 0 -7.5 5t1.5 10q1 1 29 29.5t41.5 44t40 52.5t40.5 69.5t25.5 80t11.5 97.5q0 64 -22.5 113t-59.5 77t-79.5 42t-87.5 14t-88 -14t-80 -42t-59.5 -77t-22.5 -113q0 -50 12 -97.5t28 -81t42 -68.5t43 -53.5t42 -43
t30 -29.5q4 -5 1.5 -10t-7.5 -5h-31h-233q-15 0 -15 14v46q0 14 15 14h104q-119 160 -119 314q0 144 94 232t244 88t243.5 -86.5t93.5 -233.5q0 -157 -119 -314h105z" />
    <glyph glyph-name="uni03BC" unicode="&#x3bc;" horiz-adv-x="511" 
d="M479 18q3 -6 0 -12t-10 -6h-52q-14 0 -22 14l-23 36q-46 -58 -131 -58q-58 0 -100 22v-284q0 -15 -15 -15h-55q-14 0 -14 15v676v1q0 16 14 16h55q6 0 10.5 -4.5t4.5 -11.5v-223q0 -20 4 -38.5t15.5 -40t36.5 -34t62 -12.5q56 0 84.5 28.5t29.5 62.5v256q0 17 15 17h54
q15 0 15 -17v-313q0 -31 22 -75z" />
    <glyph glyph-name="pi" unicode="&#x3c0;" horiz-adv-x="596" 
d="M556 423q17 0 17 -15v-38q0 -18 -17 -18h-47v-243q0 -12 2 -23.5t4 -18.5t6.5 -16t6.5 -12.5t7.5 -11.5t6.5 -9q4 -6 1 -12t-11 -6h-53q-13 0 -22 14q-1 2 -3 5q-26 42 -29 83v13v237h-211v-337q0 -15 -15 -15h-55q-14 0 -14 15v337q-42 -3 -81 -32q-6 -4 -12 -0.5
t-6 10.5v39q0 13 14 22q2 1 5 3q42 26 83 29h13h410z" />
    <glyph glyph-name="Wgrave" unicode="&#x1e80;" horiz-adv-x="954" 
d="M389 793q-14 6 -9 20l13 40q6 17 21 9l149 -77q15 -8 10 -19l-6 -20q-7 -13 -20 -9zM906 700q6 0 10.5 -6t2.5 -14l-236 -670q-3 -10 -13 -10h-25q-9 0 -13 9l-155 510l-151 -509q-3 -10 -14 -10h-23q-10 0 -14 10l-240 670q-2 8 2.5 14t11.5 6h58q9 0 13 -10l177 -505
l146 505q3 10 14 10h36h3q10 0 14 -10l150 -505l174 505q4 10 14 10h58z" />
    <glyph glyph-name="wgrave" unicode="&#x1e81;" horiz-adv-x="629" 
d="M368 460l-136 97q-12 12 -3 22l23 35q11 13 23 3l122 -116q12 -12 5 -21l-12 -17q-10 -12 -22 -3zM587 423q8 0 11.5 -7t1.5 -14l-129 -392q-4 -10 -14 -10h-22h-10q-9 0 -14 10l-96 284l-96 -285q-3 -9 -13 -9h-24h-9q-9 0 -14 9l-129 393q-3 7 0.5 14t12.5 7h52
q12 0 15 -10l80 -278l104 278q4 10 12 10h14h5q10 0 13 -10l103 -275l79 274q3 11 15 11h52z" />
    <glyph glyph-name="Wacute" unicode="&#x1e82;" horiz-adv-x="954" 
d="M387 745l-6 20q-5 11 10 19l149 77q15 8 21 -9l13 -40q5 -14 -9 -20l-158 -56q-13 -4 -20 9zM906 700q6 0 10.5 -6t2.5 -14l-236 -670q-3 -10 -13 -10h-25q-9 0 -13 9l-155 510l-151 -509q-3 -10 -14 -10h-23q-10 0 -14 10l-240 670q-2 8 2.5 14t11.5 6h58q9 0 13 -10
l177 -505l146 505q3 10 14 10h36h3q10 0 14 -10l150 -505l174 505q4 10 14 10h58z" />
    <glyph glyph-name="wacute" unicode="&#x1e83;" horiz-adv-x="629" 
d="M240 463l-12 17q-7 9 5 21l122 116q12 10 23 -3l23 -35q9 -10 -3 -22l-136 -97q-12 -9 -22 3zM587 423q8 0 11.5 -7t1.5 -14l-129 -392q-4 -10 -14 -10h-22h-10q-9 0 -14 10l-96 284l-96 -285q-3 -9 -13 -9h-24h-9q-9 0 -14 9l-129 393q-3 7 0.5 14t12.5 7h52
q12 0 15 -10l80 -278l104 278q4 10 12 10h14h5q10 0 13 -10l103 -275l79 274q3 11 15 11h52z" />
    <glyph glyph-name="Wdieresis" unicode="&#x1e84;" horiz-adv-x="954" 
d="M415 765q-17 0 -28.5 11.5t-11.5 27.5q0 17 11.5 28.5t28.5 11.5t28.5 -11.5t11.5 -28.5q0 -16 -11.5 -27.5t-28.5 -11.5zM540 765q-16 0 -27.5 11.5t-11.5 27.5q0 17 11 28.5t28 11.5t28.5 -11.5t11.5 -28.5t-11.5 -28t-28.5 -11zM906 700q6 0 10.5 -6t2.5 -14
l-236 -670q-3 -10 -13 -10h-25q-9 0 -13 9l-155 510l-151 -509q-3 -10 -14 -10h-23q-10 0 -14 10l-240 670q-2 8 2.5 14t11.5 6h58q9 0 13 -10l177 -505l146 505q3 10 14 10h36h3q10 0 14 -10l150 -505l174 505q4 10 14 10h58z" />
    <glyph glyph-name="wdieresis" unicode="&#x1e85;" horiz-adv-x="629" 
d="M252 488q-17 0 -28.5 11.5t-11.5 27.5q0 17 11.5 28.5t28.5 11.5t28.5 -11.5t11.5 -28.5q0 -16 -11.5 -27.5t-28.5 -11.5zM377 488q-17 0 -28 11t-11 28t11 28.5t28 11.5t28.5 -11.5t11.5 -28.5t-11.5 -28t-28.5 -11zM587 423q8 0 11.5 -7t1.5 -14l-129 -392
q-4 -10 -14 -10h-22h-10q-9 0 -14 10l-96 284l-96 -285q-3 -9 -13 -9h-24h-9q-9 0 -14 9l-129 393q-3 7 0.5 14t12.5 7h52q12 0 15 -10l80 -278l104 278q4 10 12 10h14h5q10 0 13 -10l103 -275l79 274q3 11 15 11h52z" />
    <glyph glyph-name="Ygrave" unicode="&#x1ef2;" horiz-adv-x="639" 
d="M231 793q-14 6 -9 20l13 40q6 17 21 9l149 -77q15 -8 10 -19l-6 -20q-7 -13 -20 -9zM590 700q8 0 13 -7.5t0 -15.5l-239 -378v-285q0 -14 -15 -14h-58q-15 0 -15 14v284l-239 380q-6 8 -0.5 15t13.5 7h53q14 0 25 -15l192 -309l192 309q11 15 24 15h54z" />
    <glyph glyph-name="ygrave" unicode="&#x1ef3;" horiz-adv-x="505" 
d="M304 460l-136 97q-12 12 -3 22l23 35q11 13 23 3l122 -116q12 -12 5 -21l-12 -17q-10 -12 -22 -3zM463 423q7 0 12.5 -6.5t1.5 -14.5l-341 -674q-4 -8 -13 -8h-50q-8 0 -12.5 6.5t-0.5 14.5l143 283l-175 378q-3 6 0.5 13.5t12.5 7.5h54q11 0 17 -15l133 -300l155 306
q4 9 14 9h49z" />
    <glyph glyph-name="endash" unicode="&#x2013;" horiz-adv-x="512" 
d="M73 241q-16 0 -16 15v38q0 15 16 15h366q16 0 16 -15v-38q0 -15 -16 -15h-366z" />
    <glyph glyph-name="emdash" unicode="&#x2014;" horiz-adv-x="779" 
d="M73 241q-16 0 -16 15v38q0 15 16 15h633q16 0 16 -15v-38q0 -15 -16 -15h-633z" />
    <glyph glyph-name="quoteleft" unicode="&#x2018;" horiz-adv-x="195" 
d="M115 604q25 -8 25 -28v-80q0 -16 -16 -16h-69q-17 0 -17 16v95q0 3 2 7l45 132h23q5 0 8.5 -4.5t1.5 -11.5l-26 -103z" />
    <glyph glyph-name="quoteright" unicode="&#x2019;" horiz-adv-x="195" 
d="M157 715v-95q0 -2 -1 -4v-2l-45 -134h-24q-5 0 -8.5 4.5t-1.5 12.5l26 102l-22 7q-26 10 -26 28v81q0 15 17 15h69q16 0 16 -15z" />
    <glyph glyph-name="quotesinglbase" unicode="&#x201a;" horiz-adv-x="187" 
d="M157 106v-95q0 -4 -1 -6l-45 -133h-24q-14 0 -10 16l26 102l-22 7q-26 10 -26 29v80q0 15 17 15h69q16 0 16 -15z" />
    <glyph glyph-name="quotedblleft" unicode="&#x201c;" horiz-adv-x="347" 
d="M114 605q26 -10 26 -28v-81q0 -15 -17 -15h-69q-16 0 -16 15v95q0 4 1 6l45 134h24q5 0 8.5 -4.5t1.5 -12.5l-26 -102zM266 605q26 -10 26 -28v-81q0 -15 -17 -15h-69q-16 0 -16 15v95q0 4 1 6l45 134h24q5 0 8.5 -4.5t1.5 -12.5l-26 -102z" />
    <glyph glyph-name="quotedblright" unicode="&#x201d;" horiz-adv-x="347" 
d="M141 730q16 0 16 -15v-95q0 -2 -1 -4v-2l-45 -134h-24q-5 0 -8.5 4.5t-1.5 12.5l26 102l-22 7q-26 10 -26 28v81q0 15 17 15h69zM308 715v-95q0 -4 -1 -6l-45 -134h-23q-5 0 -8.5 4.5t-1.5 12.5l26 102l-23 7q-25 10 -25 28v81q0 15 16 15h69q16 0 16 -15z" />
    <glyph glyph-name="quotedblbase" unicode="&#x201e;" horiz-adv-x="330" 
d="M141 121q16 0 16 -15v-95q0 -4 -1 -6l-45 -134h-24q-5 0 -8.5 4.5t-1.5 12.5l26 102l-22 7q-26 10 -26 28v81q0 15 17 15h69zM309 106v-95q0 -4 -1 -6l-45 -134h-24q-5 0 -8.5 4.5t-1.5 12.5l26 102l-22 7q-26 10 -26 28v81q0 15 17 15h69q16 0 16 -15z" />
    <glyph glyph-name="dagger" unicode="&#x2020;" horiz-adv-x="443" 
d="M370 511q16 0 16 -15v-38q0 -15 -16 -15h-108v-428q0 -15 -14 -15h-52q-6 0 -10.5 4.5t-4.5 10.5v428h-108q-16 0 -16 15v38q0 15 16 15h108v174q0 6 4.5 10.5t10.5 4.5h52q14 0 14 -15v-174h108z" />
    <glyph glyph-name="daggerdbl" unicode="&#x2021;" horiz-adv-x="443" 
d="M370 443h-108v-186h108q16 0 16 -15v-38q0 -15 -16 -15h-108v-174q0 -15 -14 -15h-52q-6 0 -10.5 4.5t-4.5 10.5v174h-108q-16 0 -16 15v38q0 15 16 15h108v186h-108q-16 0 -16 15v38q0 15 16 15h108v174q0 6 4.5 10.5t10.5 4.5h52q14 0 14 -15v-174h108q16 0 16 -15v-38
q0 -15 -16 -15z" />
    <glyph glyph-name="bullet" unicode="&#x2022;" horiz-adv-x="225" 
d="M112 316q-23 0 -39 16.5t-16 39.5t16 39t39 16t39.5 -16t16.5 -39t-16.5 -39.5t-39.5 -16.5z" />
    <glyph glyph-name="ellipsis" unicode="&#x2026;" horiz-adv-x="698" 
d="M307 0q-16 0 -16 15v66q0 15 16 15h65q16 0 16 -15v-66q0 -15 -16 -15h-65zM560 0q-16 0 -16 15v66q0 15 16 15h65q16 0 16 -15v-66q0 -15 -16 -15h-65zM54 0q-16 0 -16 15v66q0 15 16 15h66q16 0 16 -15v-66q0 -15 -16 -15h-66z" />
    <glyph glyph-name="perthousand" unicode="&#x2030;" horiz-adv-x="1295" 
d="M192 252q-152 0 -152 228t152 228q151 0 151 -228t-151 -228zM274 0q-10 0 -14.5 7t-0.5 15l339 663q8 15 20 15h41q8 0 11.5 -5t-0.5 -13l-341 -667q-7 -15 -21 -15h-34zM192 317q80 0 80 164q0 162 -80 162q-81 0 -81 -162q0 -164 81 -164zM740 15q-152 0 -152 228
t152 228q151 0 151 -228t-151 -228zM1104 15q-152 0 -152 228t152 228q151 0 151 -228t-151 -228zM740 80q80 0 80 164q0 162 -80 162q-81 0 -81 -162q0 -164 81 -164zM1104 80q80 0 80 164q0 162 -80 162q-81 0 -81 -162q0 -164 81 -164z" />
    <glyph glyph-name="guilsinglleft" unicode="&#x2039;" horiz-adv-x="320" 
d="M140 212l120 -201q5 -8 2.5 -13.5t-11.5 -5.5h-25q-17 0 -24 10l-131 181q-14 18 -14 25v5v2q0 7 14 25l131 181q7 10 24 10h25q9 0 11.5 -5.5t-2.5 -13.5z" />
    <glyph glyph-name="guilsinglright" unicode="&#x203a;" horiz-adv-x="320" 
d="M249 240q14 -16 14 -25v-5v-2q0 -9 -14 -25l-131 -181q-7 -10 -24 -10h-24q-9 0 -12 5.5t2 13.5l121 201l-121 200q-5 8 -2 13.5t12 5.5h24q17 0 24 -10z" />
    <glyph glyph-name="fraction" unicode="&#x2044;" horiz-adv-x="167" 
d="M-107 0q-10 0 -14.5 7t-0.5 15l339 663q7 15 20 15h40q8 0 11.5 -5t-0.5 -13l-341 -667q-7 -15 -21 -15h-33z" />
    <glyph glyph-name="uni2070" unicode="&#x2070;" horiz-adv-x="383" 
d="M192 350q-152 0 -152 228t152 228q151 0 151 -228t-151 -228zM192 415q80 0 80 164q0 162 -80 162q-81 0 -81 -162q0 -164 81 -164z" />
    <glyph glyph-name="uni2074" unicode="&#x2074;" horiz-adv-x="402" 
d="M352 504q10 0 10 -9v-40q0 -9 -10 -9h-46v-80q0 -10 -9 -10h-52q-9 0 -9 10v80h-197q-9 0 -9 9v36q0 4 2 6l195 294q3 5 9 5h61q9 0 9 -9v-283h46zM101 504h135v198z" />
    <glyph glyph-name="uni2075" unicode="&#x2075;" horiz-adv-x="375" 
d="M335 502q0 -62 -36.5 -107t-115.5 -45h-1q-61 0 -101.5 36.5t-40.5 77.5q0 10 9 10h49q7 0 8 -7q6 -23 26 -39.5t50 -16.5q43 1 63 27.5t20 63.5t-28 58t-63 17.5t-57 -27.5q-1 -2 -4 -2.5t-5 0.5h-3l-55 8q-8 2 -7 9l36 224q2 9 10 9h211q10 0 10 -9v-44q0 -9 -10 -9
h-166l-18 -115q34 17 72 18.5t71 -11.5t54.5 -46t21.5 -80z" />
    <glyph glyph-name="uni2076" unicode="&#x2076;" horiz-adv-x="378" 
d="M197 648q59 0 100 -42t41 -103q0 -73 -41 -113t-106 -40q-84 0 -122 77q-29 56 -29 134q0 112 41.5 178.5t110.5 66.5q61 0 96.5 -34.5t40.5 -76.5q0 -11 -7 -11h-54q-8 0 -10 8q-7 23 -24.5 38.5t-44.5 15.5q-34 0 -54.5 -37t-23.5 -105q33 44 86 44zM195 415
q73 0 73 84q0 39 -21.5 62.5t-50.5 23.5q-32 0 -54.5 -22.5t-22.5 -58.5q0 -37 19 -63t57 -26z" />
    <glyph glyph-name="uni2077" unicode="&#x2077;" horiz-adv-x="342" 
d="M323 796q5 0 8 -4.5t0 -9.5l-192 -418q-4 -8 -14 -8h-48q-6 0 -8.5 3.5t-0.5 8.5l167 366h-196q-9 0 -9 9v43q0 10 9 10h283h1z" />
    <glyph glyph-name="uni2078" unicode="&#x2078;" horiz-adv-x="378" 
d="M275 585q63 -44 63 -112q0 -50 -41 -86.5t-108 -36.5q-66 0 -107.5 36.5t-41.5 87.5q0 33 18 62.5t47 48.5q-55 41 -55 107q0 49 37.5 81.5t100.5 32.5q65 0 101 -32t36 -83q0 -67 -50 -106zM189 744q-69 0 -69 -55q0 -59 68 -73q67 14 67 74q0 54 -66 54zM189 412
q38 0 58.5 17.5t20.5 43.5q0 68 -78 88q-80 -20 -80 -87q0 -28 21 -45t58 -17z" />
    <glyph glyph-name="uni2079" unicode="&#x2079;" horiz-adv-x="377" 
d="M314 734q23 -38 23 -159q0 -115 -41 -170t-112 -55q-60 0 -97.5 37.5t-37.5 76.5q0 11 7 11h52q8 0 10 -7q4 -19 22 -37t42 -18q38 0 58 29.5t25 94.5q-33 -28 -80 -28q-66 0 -105.5 42.5t-39.5 102.5q0 69 42.5 110.5t103.5 41.5q94 0 128 -72zM186 574q33 0 55.5 20
t22.5 61t-21.5 64.5t-56.5 23.5q-31 0 -53 -21t-22 -67q0 -37 22.5 -59t52.5 -22z" />
    <glyph glyph-name="Euro" unicode="&#x20ac;" horiz-adv-x="623" 
d="M563 59q8 -11 -4 -21q-25 -20 -69.5 -33t-89.5 -13q-117 0 -192 65t-97 189h-39q-6 0 -10.5 4.5t-4.5 10.5v32q0 6 4.5 10.5t10.5 4.5h31q-1 14 -1 43q0 28 1 41h-31q-6 0 -10.5 4.5t-4.5 10.5v32q0 6 4.5 10.5t10.5 4.5h38q22 124 97 189t193 65q86 0 141 -33
q12 -8 4 -21l-28 -40q-9 -13 -21 -5q-42 25 -96 25q-83 0 -133 -48t-68 -132h176q6 0 10.5 -4.5t4.5 -10.5v-32q0 -6 -4.5 -10.5t-10.5 -4.5h-184q-2 -26 -2 -41t2 -43h184q6 0 10.5 -4.5t4.5 -10.5v-32q0 -6 -4.5 -10.5t-10.5 -4.5h-175q17 -84 67 -132t133 -48
q69 0 117 36q12 9 20 -3z" />
    <glyph glyph-name="trademark" unicode="&#x2122;" horiz-adv-x="635" 
d="M262 700q5 0 5 -6v-33q0 -6 -5 -6h-73v-218q0 -6 -6 -6h-43q-6 0 -6 6v218h-71q-6 0 -6 6v33q0 6 6 6h91h29h79zM573 700q6 0 6 -6v-257q0 -6 -6 -6h-43q-7 0 -7 6v166l-78 -171q-3 -6 -9 -6h-6h-2q-5 0 -8 6l-72 166v-161q0 -6 -7 -6h-42q-6 0 -6 6v257q0 6 5 6h37h14
q6 0 9 -6l75 -178l80 178q3 6 9 6h32h19z" />
    <glyph glyph-name="estimated" unicode="&#x212e;" horiz-adv-x="885" 
d="M211 316q-5 0 -5 -4v-183q0 -10 9 -21q93 -99 229 -99q145 0 240 111h55q-52 -61 -130 -96t-166 -35q-155 0 -264.5 98.5t-109.5 237.5t109.5 237.5t264.5 98.5t264 -98.5t109 -237.5v-9h-605zM680 524q0 12 -10 22q-95 95 -226 95q-133 0 -228 -98q-10 -10 -10 -23v-180
q0 -5 5 -5h464q5 0 5 5v184z" />
    <glyph glyph-name="uni2153" unicode="&#x2153;" horiz-adv-x="878" 
d="M292 269q0 -9 -9 -9h-143h-90q-10 0 -10 9v42q0 10 10 10h81v299l-66 -49q-5 -4 -10 -1t-5 8v44q0 6 9 13l77 62q6 3 10 3h46q9 0 9 -10v-369h82q9 0 9 -10v-42zM609 700q8 0 11.5 -5t-0.5 -13l-341 -667q-7 -15 -21 -15h-33q-10 0 -14.5 7t-0.5 15l339 663q7 15 20 15
h40zM838 146q0 -54 -35 -92.5t-114 -38.5h-1q-72 0 -110.5 34t-38.5 79q0 11 11 11h51q9 0 9 -8q0 -23 22 -38t56 -15q41 0 61 19t20 49q0 72 -98 72h-16q-9 0 -9 9v44q0 9 9 9h16q43 0 65.5 19t22.5 53q0 27 -19.5 43t-51.5 16q-35 0 -57 -15.5t-22 -40.5q0 -7 -9 -7h-50
q-11 0 -11 10q0 47 38 80t111 33h1q75 0 106.5 -34.5t31.5 -83.5q0 -73 -55 -102q66 -22 66 -105z" />
    <glyph glyph-name="uni2154" unicode="&#x2154;" horiz-adv-x="923" 
d="M337 269q0 -9 -10 -9h-277q-9 0 -9 9v36q0 7 5 10l167 187q41 46 41 79q0 32 -17.5 49t-48.5 17q-68 0 -79 -55q-3 -8 -9 -8h-51q-4 0 -7 3t-2 7q7 48 42 81t106 33h1q68 0 102 -35.5t34 -90.5q0 -25 -9 -47.5t-18 -32.5l-9 -10l-154 -171h192q10 0 10 -9v-43zM654 700
q8 0 11.5 -5t-0.5 -13l-341 -667q-8 -15 -21 -15h-33q-10 0 -14.5 7t-0.5 15l339 663q8 15 20 15h40zM883 146q0 -54 -35 -92.5t-114 -38.5h-1q-72 0 -110.5 34t-38.5 79q0 11 11 11h51q9 0 9 -8q0 -23 22 -38t56 -15q41 0 61 19t20 49q0 72 -98 72h-16q-9 0 -9 9v44
q0 9 9 9h16q43 0 65.5 19t22.5 53q0 27 -19.5 43t-51.5 16q-35 0 -57 -15.5t-22 -40.5q0 -7 -9 -7h-50q-11 0 -11 10q0 47 38 80t111 33h1q75 0 106.5 -34.5t31.5 -83.5q0 -73 -55 -102q66 -22 66 -105z" />
    <glyph glyph-name="oneeighth" unicode="&#x215b;" horiz-adv-x="877" 
d="M292 269q0 -9 -9 -9h-143h-90q-10 0 -10 9v42q0 10 10 10h81v299l-66 -49q-5 -4 -10 -1t-5 8v44q0 6 9 13l77 62q6 3 10 3h46q9 0 9 -10v-369h82q9 0 9 -10v-42zM609 700q8 0 11.5 -5t-0.5 -13l-341 -667q-7 -15 -21 -15h-33q-10 0 -14.5 7t-0.5 15l339 663q7 15 20 15
h40zM774 250q63 -44 63 -112q0 -50 -41 -86.5t-108 -36.5q-66 0 -107.5 36.5t-41.5 87.5q0 33 18 62.5t47 48.5q-55 41 -55 107q0 49 37.5 81.5t100.5 32.5q65 0 101 -32t36 -83q0 -67 -50 -106zM688 409q-69 0 -69 -55q0 -59 68 -73q67 14 67 74q0 54 -66 54zM688 77
q38 0 58.5 17.5t20.5 43.5q0 68 -78 88q-80 -20 -80 -87q0 -28 21 -45t58 -17z" />
    <glyph glyph-name="threeeighths" unicode="&#x215c;" horiz-adv-x="924" 
d="M190 252h-1q-72 0 -110.5 34t-38.5 79q0 11 11 11h51q9 0 9 -8q0 -23 21.5 -38t56.5 -15q41 0 61 19t20 49q0 72 -98 72h-16q-9 0 -9 9v44q0 9 9 9h16q43 0 65.5 19t22.5 53q0 27 -19 42.5t-52 16.5q-35 -1 -57 -16t-22 -40q0 -7 -9 -7h-50q-11 0 -11 10q0 47 38 80
t111 33h1q75 0 106.5 -34.5t31.5 -83.5q0 -73 -55 -102q66 -22 66 -105q0 -54 -35 -92.5t-114 -38.5zM656 700q8 0 11.5 -5t-0.5 -13l-341 -667q-8 -15 -21 -15h-33q-10 0 -14.5 7t-0.5 15l339 663q8 15 20 15h40zM821 250q63 -44 63 -112q0 -50 -41 -86.5t-108 -36.5
q-66 0 -107.5 36.5t-41.5 87.5q0 33 18 62.5t47 48.5q-55 41 -55 107q0 49 37.5 81.5t100.5 32.5q65 0 101 -32t36 -83q0 -67 -50 -106zM735 409q-69 0 -69 -55q0 -59 68 -73q67 14 67 74q0 54 -66 54zM735 77q38 0 58.5 17.5t20.5 43.5q0 68 -78 88q-80 -20 -80 -87
q0 -28 21 -45t58 -17z" />
    <glyph glyph-name="fiveeighths" unicode="&#x215d;" horiz-adv-x="920" 
d="M183 252h-1q-61 0 -101.5 36.5t-40.5 77.5q0 10 9 10h49q7 0 8 -7q6 -23 26 -39t50 -17q43 1 63 27.5t20 63.5t-28 58t-63 17.5t-57 -27.5q-1 -2 -4 -2.5t-5 0.5h-3l-55 8q-8 2 -7 9l36 224q2 9 10 9h211q10 0 10 -9v-44q0 -9 -10 -9h-166l-18 -115q34 17 72 18.5
t71 -11.5t54.5 -46t21.5 -80q0 -62 -36.5 -107t-115.5 -45zM652 700q8 0 11.5 -5t-0.5 -13l-341 -667q-8 -15 -21 -15h-33q-10 0 -14.5 7t-0.5 15l339 663q8 15 20 15h40zM817 250q63 -44 63 -112q0 -50 -41 -86.5t-108 -36.5q-66 0 -107.5 36.5t-41.5 87.5q0 33 18 62.5
t47 48.5q-55 41 -55 107q0 49 37.5 81.5t100.5 32.5q65 0 101 -32t36 -83q0 -67 -50 -106zM731 409q-69 0 -69 -55q0 -59 68 -73q67 14 67 74q0 54 -66 54zM731 77q38 0 58.5 17.5t20.5 43.5q0 68 -78 88q-80 -20 -80 -87q0 -28 21 -45t58 -17z" />
    <glyph glyph-name="seveneighths" unicode="&#x215e;" horiz-adv-x="815" 
d="M148 268q-4 -8 -15 -8h-47q-6 0 -8.5 3.5t-0.5 8.5l167 366h-197q-9 0 -9 9v43q0 10 9 10h283h1q5 0 8 -4.5t0 -9.5zM545 700q8 0 11.5 -5t-0.5 -13l-341 -667q-7 -15 -21 -15h-34q-10 0 -14.5 7t-0.5 15l339 663q8 15 20 15h41zM712 250q63 -44 63 -112q0 -50 -41 -86.5
t-108 -36.5q-66 0 -107.5 36.5t-41.5 87.5q0 33 18 62.5t47 48.5q-55 41 -55 107q0 49 37.5 81.5t100.5 32.5q65 0 101 -32t36 -83q0 -67 -50 -106zM626 409q-69 0 -69 -55q0 -59 68 -73q67 14 67 74q0 54 -66 54zM626 77q38 0 58.5 17.5t20.5 43.5q0 68 -78 88
q-80 -20 -80 -87q0 -28 21 -45t58 -17z" />
    <glyph glyph-name="arrowleft" unicode="&#x2190;" horiz-adv-x="814" 
d="M743 387q14 0 14 -15v-56q0 -15 -14 -15h-526l146 -165q11 -12 1 -22l-23 -22q-11 -10 -22 1l-258 239l-2 3q-2 4 -2 9q0 4 2 8l2 3l258 240q11 11 22 1l23 -23q10 -10 -1 -22l-146 -164h526z" />
    <glyph glyph-name="arrowup" unicode="&#x2191;" horiz-adv-x="628" 
d="M565 438q11 -12 1 -22l-22 -23q-11 -10 -22 1l-165 146v-526q0 -14 -15 -14h-56q-15 0 -15 14v526l-164 -146q-12 -11 -22 -1l-23 23q-10 10 1 22l240 258l3 2q4 2 9 2q4 0 8 -2l3 -2z" />
    <glyph glyph-name="arrowright" unicode="&#x2192;" horiz-adv-x="814" 
d="M757 344q0 -5 -2 -9l-2 -3l-258 -239q-11 -11 -22 -1l-23 22q-10 10 1 22l146 165h-526q-14 0 -14 15v56q0 15 14 15h526l-146 164q-11 12 -1 22l23 23q11 10 22 -1l258 -240l2 -3q2 -4 2 -8z" />
    <glyph glyph-name="arrowdown" unicode="&#x2193;" horiz-adv-x="628" 
d="M566 284q10 -10 -1 -22l-240 -258l-3 -2q-4 -2 -8 -2q-5 0 -9 2l-3 2l-239 258q-11 12 -1 22l22 23q11 10 22 -1l165 -146v526q0 14 15 14h56q15 0 15 -14v-526l164 146q12 11 22 1z" />
    <glyph glyph-name="arrowboth" unicode="&#x2194;" horiz-adv-x="1046" 
d="M989 347q0 -5 -2 -9l-2 -3l-258 -239q-11 -12 -22 -1l-23 22q-10 11 1 22l146 165h-526h-86l146 -165q11 -11 1 -22l-23 -22q-11 -11 -22 1l-258 239l-2 3q-2 4 -2 9q0 4 2 8l2 3l258 240q11 12 22 1l23 -23q10 -10 -1 -22l-146 -164h526h86l-146 164q-11 12 -1 22l23 23
q11 11 22 -1l258 -240l2 -3q2 -4 2 -8z" />
    <glyph glyph-name="arrowupdn" unicode="&#x2195;" horiz-adv-x="628" 
d="M544 191l22 -23q10 -10 -1 -22l-239 -258l-3 -2q-4 -2 -8 -2q-5 0 -9 2l-3 2l-240 258q-11 12 -1 22l23 23q10 10 22 -1l164 -146v526v86l-164 -146q-12 -11 -22 -1l-23 23q-10 10 1 22l240 258l3 2q4 2 9 2q4 0 8 -2l3 -2l239 -258q11 -12 1 -22l-22 -23q-11 -10 -22 1
l-165 146v-526v-86l165 146q11 11 22 1z" />
    <glyph glyph-name="uni2196" unicode="&#x2196;" horiz-adv-x="639" 
d="M578 164q10 -9 -1 -20l-40 -40q-10 -10 -20 -1l-372 372l-14 -219q0 -17 -14 -17l-32 1q-15 0 -15 16l-13 351v3q1 4 6 9q1 2 5 4q2 1 5 1l352 -13q16 0 16 -14v-33q0 -14 -16 -15l-219 -13z" />
    <glyph glyph-name="uni2197" unicode="&#x2197;" horiz-adv-x="639" 
d="M582 610v-3l-13 -351q0 -16 -15 -16l-32 -1q-14 0 -14 17l-14 219l-372 -372q-10 -9 -20 1l-40 40q-11 11 -1 20l372 372l-219 13q-16 1 -16 15v33q0 14 16 14l352 13q3 0 5 -1q4 -2 5 -4q4 -5 6 -9z" />
    <glyph glyph-name="uni2198" unicode="&#x2198;" horiz-adv-x="638" 
d="M581 83q1 -5 -6 -12q-4 -2 -5 -3q-2 -1 -5 -1l-351 13q-17 0 -17 15v32q0 15 16 15l220 14l-372 371q-11 11 0 21l40 40q10 10 21 1l371 -371l14 218q0 16 15 16h32q15 0 15 -16l12 -352v-1z" />
    <glyph glyph-name="uni2199" unicode="&#x2199;" horiz-adv-x="638" 
d="M577 548q11 -10 0 -21l-372 -371l220 -14q16 0 16 -15v-32q0 -15 -17 -15l-351 -13q-3 0 -5 1q-1 1 -5 3q-7 7 -6 12v1l12 352q0 16 15 16h32q15 0 15 -16l14 -218l371 371q11 9 21 -1z" />
    <glyph glyph-name="partialdiff" unicode="&#x2202;" horiz-adv-x="530" 
d="M469 371q20 -110 8 -190q-11 -81 -71.5 -135t-146.5 -54q-94 0 -157.5 63.5t-63.5 154.5q0 92 63.5 156.5t157.5 64.5q67 0 121 -35q-17 79 -84.5 144t-144.5 105q-14 8 -8 19l17 34q8 16 27 5q116 -58 188 -134.5t94 -197.5zM259 59q58 0 98 43.5t40 107.5
q0 65 -39.5 109t-98.5 44t-99 -44t-39 -109q-1 -64 39 -107.5t99 -43.5z" />
    <glyph glyph-name="emptyset" unicode="&#x2205;" horiz-adv-x="820" 
d="M689 575q79 -100 79 -226q0 -148 -104.5 -252.5t-252.5 -104.5q-127 0 -225 80l-68 -68q-10 -10 -21 0l-35 35q-10 9 1 20l67 68q-77 98 -77 222q0 149 105 254t253 105q125 0 222 -78l66 66q11 12 24 -1l32 -33q11 -10 -1 -22zM141 349q0 -89 49 -162l386 386
q-74 61 -165 61q-111 0 -190.5 -83.5t-79.5 -201.5zM411 66q109 0 189 83t80 200q0 91 -51 166l-387 -387q75 -62 169 -62z" />
    <glyph glyph-name="product" unicode="&#x220f;" horiz-adv-x="590" 
d="M517 700q16 0 16 -15v-42q0 -15 -16 -15h-34v-612q0 -16 -15 -16h-57q-15 0 -15 16v612h-203v-612q0 -16 -15 -16h-56q-15 0 -15 16v612h-34q-16 0 -16 15v42q0 15 16 15h444z" />
    <glyph glyph-name="summation" unicode="&#x2211;" horiz-adv-x="579" 
d="M522 647q0 -15 -16 -15h-347l173 -253q6 -8 6 -16v-26q0 -8 -6 -16l-173 -253h347q16 0 16 -15v-38q0 -15 -16 -15h-433q-16 0 -16 15v38q0 7 4 10q0 1 1 3l193 284l-193 282l-3 7q-2 4 -2 8v38q0 15 16 15h433q16 0 16 -15v-38z" />
    <glyph glyph-name="minus" unicode="&#x2212;" horiz-adv-x="512" 
d="M73 315q-16 0 -16 15v37q0 15 16 15h366q16 0 16 -15v-37q0 -15 -16 -15h-366z" />
    <glyph glyph-name="radical" unicode="&#x221a;" horiz-adv-x="607" 
d="M565 700q8 0 12 -6.5t1 -15.5l-250 -664q-6 -14 -16 -14h-20h-10q-11 0 -17 14l-150 296l-46 -22q-15 -7 -21 6l-17 33q-7 14 8 21l69 35l1 1h1l21 10q17 9 25 -7l134 -263l209 561q6 15 22 15h44z" />
    <glyph glyph-name="infinity" unicode="&#x221e;" horiz-adv-x="857" 
d="M621 520q79 0 129 -45t50 -127q0 -80 -51 -129.5t-127 -49.5q-59 0 -113 29.5t-81 71.5q-26 -42 -80 -71.5t-114 -29.5q-76 0 -126.5 49.5t-50.5 129.5q0 82 49.5 127t128.5 45q60 0 114 -26t79 -67q26 41 80 67t113 26zM237 238q53 0 93 29t58 78q-18 47 -58 76.5
t-93 29.5q-48 0 -74.5 -27.5t-26.5 -75.5t26 -79t75 -31zM620 238q49 0 75 31t26 79t-26.5 75.5t-74.5 27.5q-54 0 -93.5 -29t-57.5 -77q18 -49 58 -78t93 -29z" />
    <glyph glyph-name="integral" unicode="&#x222b;" horiz-adv-x="460" 
d="M301 815q102 0 102 -74v-28q0 -16 -15 -16h-51q-15 0 -15 16v6q0 28 -21 28h-9q-2 0 -6 -1t-10 -8t-6 -19v-430v-369q0 -45 -26.5 -68t-74.5 -23h-10q-102 0 -102 73v29q0 16 15 16h51q15 0 15 -16v-7q0 -28 21 -28h9q2 0 6 1t10 8t6 19v431v369q0 45 26.5 68t74.5 23h10
z" />
    <glyph glyph-name="approxequal" unicode="&#x2248;" horiz-adv-x="525" 
d="M463 455q7 -3 4 -12q-6 -23 -36.5 -48t-74.5 -26h-1q-47 0 -92 16.5t-72 16.5q-61 0 -89 -26q-8 -6 -14 -1l-9 9q-7 3 -4 12q5 23 37.5 48.5t78.5 25.5h1q43 0 89 -17t75 -17q53 0 84 26q6 6 14 2zM457 313q7 -4 4 -12q-6 -23 -36.5 -48t-74.5 -26h-1q-47 0 -92 16.5
t-72 16.5q-61 0 -89 -26q-8 -6 -14 -1l-9 9q-7 3 -4 12q5 23 37.5 48.5t78.5 25.5h1q43 0 89 -17t75 -17q53 0 84 26q6 6 14 2z" />
    <glyph glyph-name="notequal" unicode="&#x2260;" horiz-adv-x="512" 
d="M439 399h-113l-57 -102h170q16 0 16 -15v-37q0 -15 -16 -15h-207l-44 -79q-7 -15 -20 -7l-33 18q-13 7 -6 22l26 46h-82q-16 0 -16 15v37q0 15 16 15h119l57 102h-176q-16 0 -16 15v38q0 15 16 15h215l47 85q7 15 20 7l32 -18q13 -7 6 -22l-29 -52h75q16 0 16 -15v-38
q0 -15 -16 -15z" />
    <glyph glyph-name="lessequal" unicode="&#x2264;" horiz-adv-x="570" 
d="M465 153l-396 164q-12 5 -12 14v38q0 9 12 14l396 165q15 6 21 -8l14 -35q4 -14 -9 -20l-323 -134l323 -135q14 -6 9 -20l-14 -35q-6 -14 -21 -8zM497 66q16 0 16 -15v-37q0 -15 -16 -15h-412q-16 0 -16 15v37q0 15 16 15h412z" />
    <glyph glyph-name="greaterequal" unicode="&#x2265;" horiz-adv-x="570" 
d="M513 369v-38q0 -9 -12 -14l-396 -164q-15 -6 -21 8l-14 35q-5 14 9 20l323 135l-323 134q-13 6 -9 20l14 35q6 14 21 8l396 -165q12 -5 12 -14zM484 66q16 0 16 -15v-37q0 -15 -16 -15h-411q-16 0 -16 15v37q0 15 16 15h411z" />
    <glyph glyph-name="lozenge" unicode="&#x25ca;" horiz-adv-x="554" 
d="M488 378q9 -15 9 -25v-5v-2q0 -8 -9 -25l-173 -306q-9 -15 -27 -15h-18h-4q-18 0 -27 15l-173 306q-9 17 -9 25v5v2q0 10 9 25l173 306q9 16 27 16h18h4q18 0 27 -16zM277 77l140 273l-140 272l-140 -272z" />
    <glyph glyph-name="B.ss01" horiz-adv-x="656" 
d="M602 199q0 -82 -54.5 -140t-128.5 -59h-287h-44q-6 0 -10.5 4.5t-4.5 10.5v670q0 6 4.5 10.5t10.5 4.5h59h252q78 -1 128 -52t50 -138q0 -92 -73 -146q43 -22 70.5 -65t27.5 -100zM379 626h-218v-239h220q45 0 76.5 31t31.5 90q0 55 -32 86.5t-78 31.5zM399 74
q46 0 80.5 36t34.5 92q0 35 -12 59t-31 34.5t-33.5 14t-28.5 4.5h-58h-190v-240h238z" />
    <glyph glyph-name="C.ss01" horiz-adv-x="664" 
d="M350 -8q-130 0 -214 94.5t-84 263.5t84 263.5t214 94.5q96 0 165 -51t95 -132q5 -14 -8 -17l-55 -10q-13 -3 -17 11q-14 51 -63 88t-117 37q-93 0 -151.5 -78t-58.5 -206q0 -129 58.5 -206.5t150.5 -77.5q67 0 117 40t64 87q5 14 17 11l56 -11q14 -2 8 -17
q-27 -80 -96.5 -132t-164.5 -52z" />
    <glyph glyph-name="Cacute.ss01" horiz-adv-x="664" 
d="M278 736q-13 -4 -20 9l-6 20q-5 11 10 19l149 77q15 8 21 -9l13 -40q5 -14 -9 -20zM350 -8q-130 0 -214 94.5t-84 263.5t84 263.5t214 94.5q96 0 165 -51t95 -132q5 -14 -8 -17l-55 -10q-13 -3 -17 11q-14 51 -63 88t-117 37q-93 0 -151.5 -78t-58.5 -206
q0 -129 58.5 -206.5t150.5 -77.5q67 0 117 40t64 87q5 14 17 11l56 -11q14 -2 8 -17q-27 -80 -96.5 -132t-164.5 -52z" />
    <glyph glyph-name="Ccaron.ss01" horiz-adv-x="664" 
d="M242 839q-10 10 -10 20v15q0 20 19 7l97 -66l99 66q19 13 19 -7v-15q0 -10 -10 -20l-81 -81q-12 -12 -25 -12h-4q-13 0 -25 12zM603 193q14 -2 8 -17q-27 -80 -96.5 -132t-164.5 -52q-130 0 -214 94.5t-84 263.5t84 263.5t214 94.5q96 0 165 -51t95 -132q5 -14 -8 -17
l-55 -10q-13 -3 -17 11q-14 51 -63 88t-117 37q-93 0 -151.5 -78t-58.5 -206q0 -129 58.5 -206.5t150.5 -77.5q67 0 117 40t64 87q5 14 17 11z" />
    <glyph glyph-name="Ccedilla.ss01" horiz-adv-x="664" 
d="M603 193q14 -2 8 -17q-26 -76 -90.5 -127t-152.5 -56l-10 -27q33 4 59 -17.5t26 -58.5q0 -43 -24 -66t-68 -23q-24 0 -44 12.5t-25 25.5q-3 7 3 10l27 16q4 2 9 -4q12 -12 30 -12q17 0 27 11.5t10 30.5q0 20 -17.5 27.5t-29.5 -1.5q-4 -3 -8 -4t-6 -1l-2 1l-28 9
q-7 2 -5 10l25 62q-117 12 -191 105t-74 251q0 169 84 263.5t214 94.5q96 0 165 -51t95 -132q5 -14 -8 -17l-55 -10q-13 -3 -17 11q-14 51 -63 88t-117 37q-93 0 -151.5 -78t-58.5 -206q0 -129 58.5 -206.5t150.5 -77.5q67 0 117 40t64 87q5 14 17 11z" />
    <glyph glyph-name="Cdotaccent.ss01" horiz-adv-x="664" 
d="M349 759q-19 0 -32 12.5t-13 31.5t13 32t32 13t32 -13t13 -32t-13 -31.5t-32 -12.5zM350 -8q-130 0 -214 94.5t-84 263.5t84 263.5t214 94.5q96 0 165 -51t95 -132q5 -14 -8 -17l-55 -10q-13 -3 -17 11q-14 51 -63 88t-117 37q-93 0 -151.5 -78t-58.5 -206
q0 -129 58.5 -206.5t150.5 -77.5q67 0 117 40t64 87q5 14 17 11l56 -11q14 -2 8 -17q-27 -80 -96.5 -132t-164.5 -52z" />
    <glyph glyph-name="D.ss01" horiz-adv-x="685" 
d="M403 700q98 0 158 -54.5t60 -166.5v-141v-117q0 -111 -61 -166t-157 -55h-256h-59q-6 0 -10.5 4.5t-4.5 10.5v670q0 6 4.5 10.5t10.5 4.5h59h256zM533 338v24v132q0 50 -36 91t-97 41h-239v-552h239q67 0 100 43t33 96v125z" />
    <glyph glyph-name="Eth.ss01" horiz-adv-x="725" 
d="M437 700q98 0 158 -54.5t60 -166.5v-141v-117q0 -111 -61 -166t-157 -55h-256h-59q-6 0 -10.5 4.5t-4.5 10.5v299h-58q-16 0 -16 15v40q0 15 16 15h58v301q0 6 4.5 10.5t10.5 4.5h59h256zM567 338v24v132q0 50 -35.5 91t-97.5 41h-239v-242h156q16 0 16 -15v-40
q0 -15 -16 -15h-156v-240h239q67 0 100 43t33 96v125z" />
    <glyph glyph-name="Dcaron.ss01" horiz-adv-x="685" 
d="M240 839q-10 10 -10 20v15q0 20 19 7l97 -66l99 66q19 13 19 -7v-15q0 -10 -10 -20l-81 -81q-12 -12 -25 -12h-4q-13 0 -25 12zM403 700q98 0 158 -54.5t60 -166.5v-141v-117q0 -111 -61 -166t-157 -55h-256h-59q-6 0 -10.5 4.5t-4.5 10.5v670q0 6 4.5 10.5t10.5 4.5h59
h256zM533 338v24v132q0 50 -36 91t-97 41h-239v-552h239q67 0 100 43t33 96v125z" />
    <glyph glyph-name="Dcroat.ss01" horiz-adv-x="725" 
d="M437 700q98 0 158.5 -54.5t60.5 -166.5v-141v-117q0 -111 -61.5 -166t-157.5 -55h-256h-59q-6 0 -10.5 4.5t-4.5 10.5v299h-58q-16 0 -16 15v40q0 15 16 15h58v301q0 6 4.5 10.5t10.5 4.5h59h256zM568 338v24v132q0 50 -36 91t-98 41h-239v-242h156q16 0 16 -15v-40
q0 -15 -16 -15h-156v-240h239q67 0 100.5 43t33.5 96v125z" />
    <glyph glyph-name="E.ss01" horiz-adv-x="609" 
d="M559 74q6 0 10.5 -4.5t4.5 -10.5v-44q0 -6 -4.5 -10.5t-10.5 -4.5h-443h-28q-6 0 -10.5 4.5t-4.5 10.5v670q0 6 4.5 10.5t10.5 4.5h59h411q14 0 14 -15v-44q0 -15 -14 -15h-397v-239h219q15 0 15 -14v-46q0 -14 -15 -14h-219v-239h398z" />
    <glyph glyph-name="Eacute.ss01" horiz-adv-x="609" 
d="M232 745l-6 20q-5 11 10 19l149 77q15 8 21 -9l13 -40q5 -14 -9 -20l-158 -56q-13 -4 -20 9zM559 74q6 0 10.5 -4.5t4.5 -10.5v-44q0 -6 -4.5 -10.5t-10.5 -4.5h-443h-28q-6 0 -10.5 4.5t-4.5 10.5v670q0 6 4.5 10.5t10.5 4.5h59h411q14 0 14 -15v-44q0 -15 -14 -15h-397
v-239h219q15 0 15 -14v-46q0 -14 -15 -14h-219v-239h398z" />
    <glyph glyph-name="Ecaron.ss01" horiz-adv-x="609" 
d="M217 839q-10 10 -10 20v15q0 20 19 7l97 -66l99 66q19 13 19 -7v-15q0 -10 -10 -20l-81 -81q-12 -12 -25 -12h-4q-13 0 -25 12zM559 74q6 0 10.5 -4.5t4.5 -10.5v-44q0 -6 -4.5 -10.5t-10.5 -4.5h-443h-28q-6 0 -10.5 4.5t-4.5 10.5v670q0 6 4.5 10.5t10.5 4.5h59h411
q14 0 14 -15v-44q0 -15 -14 -15h-397v-239h219q15 0 15 -14v-46q0 -14 -15 -14h-219v-239h398z" />
    <glyph glyph-name="Ecircumflex.ss01" horiz-adv-x="609" 
d="M223 750q-19 -13 -19 7v15q0 10 10 20l79 81q12 12 25 12h4q13 0 25 -12l81 -81q10 -10 10 -20v-15q0 -20 -19 -7l-99 66zM559 74q6 0 10.5 -4.5t4.5 -10.5v-44q0 -6 -4.5 -10.5t-10.5 -4.5h-443h-28q-6 0 -10.5 4.5t-4.5 10.5v670q0 6 4.5 10.5t10.5 4.5h59h411
q14 0 14 -15v-44q0 -15 -14 -15h-397v-239h219q15 0 15 -14v-46q0 -14 -15 -14h-219v-239h398z" />
    <glyph glyph-name="Edieresis.ss01" horiz-adv-x="609" 
d="M261 765q-17 0 -28.5 11.5t-11.5 27.5q0 17 11.5 28.5t28.5 11.5t28.5 -11.5t11.5 -28.5q0 -16 -11.5 -27.5t-28.5 -11.5zM386 765q-16 0 -27.5 11.5t-11.5 27.5q0 17 11 28.5t28 11.5t28.5 -11.5t11.5 -28.5t-11.5 -28t-28.5 -11zM559 74q6 0 10.5 -4.5t4.5 -10.5v-44
q0 -6 -4.5 -10.5t-10.5 -4.5h-443h-28q-6 0 -10.5 4.5t-4.5 10.5v670q0 6 4.5 10.5t10.5 4.5h59h411q14 0 14 -15v-44q0 -15 -14 -15h-397v-239h219q15 0 15 -14v-46q0 -14 -15 -14h-219v-239h398z" />
    <glyph glyph-name="Edotaccent.ss01" horiz-adv-x="609" 
d="M323 759q-19 0 -32 12.5t-13 31.5t13 32t32 13t32 -13t13 -32t-13 -31.5t-32 -12.5zM559 74q6 0 10.5 -4.5t4.5 -10.5v-44q0 -6 -4.5 -10.5t-10.5 -4.5h-443h-28q-6 0 -10.5 4.5t-4.5 10.5v670q0 6 4.5 10.5t10.5 4.5h59h411q14 0 14 -15v-44q0 -15 -14 -15h-397v-239
h219q15 0 15 -14v-46q0 -14 -15 -14h-219v-239h398z" />
    <glyph glyph-name="Egrave.ss01" horiz-adv-x="609" 
d="M235 793q-14 6 -9 20l13 40q6 17 21 9l149 -77q15 -8 10 -19l-6 -20q-7 -13 -20 -9zM559 74q6 0 10.5 -4.5t4.5 -10.5v-44q0 -6 -4.5 -10.5t-10.5 -4.5h-443h-28q-6 0 -10.5 4.5t-4.5 10.5v670q0 6 4.5 10.5t10.5 4.5h59h411q14 0 14 -15v-44q0 -15 -14 -15h-397v-239
h219q15 0 15 -14v-46q0 -14 -15 -14h-219v-239h398z" />
    <glyph glyph-name="Emacron.ss01" horiz-adv-x="609" 
d="M233 764q-16 0 -16 15v34q0 15 16 15h181q16 0 16 -15v-34q0 -15 -16 -15h-181zM559 74q6 0 10.5 -4.5t4.5 -10.5v-44q0 -6 -4.5 -10.5t-10.5 -4.5h-443h-28q-6 0 -10.5 4.5t-4.5 10.5v670q0 6 4.5 10.5t10.5 4.5h59h411q14 0 14 -15v-44q0 -15 -14 -15h-397v-239h219
q15 0 15 -14v-46q0 -14 -15 -14h-219v-239h398z" />
    <glyph glyph-name="Eogonek.ss01" horiz-adv-x="609" 
d="M613 -129q7 -4 4 -12q-24 -62 -83 -62h-1q-42 0 -67.5 23.5t-25.5 65.5q0 68 72 114h-396h-28q-6 0 -10.5 4.5t-4.5 10.5v670q0 6 4.5 10.5t10.5 4.5h59h411q14 0 14 -15v-44q0 -15 -14 -15h-397v-239h219q15 0 15 -14v-46q0 -14 -15 -14h-219v-239h398q6 0 10.5 -4.5
t4.5 -10.5v-44q0 -6 -4.5 -10.5t-10.5 -4.5h-6q-53 -45 -53 -105q0 -47 41 -47q34 0 52 26q4 7 14 1z" />
    <glyph glyph-name="F.ss01" horiz-adv-x="608" 
d="M559 700q6 0 10.5 -4.5t4.5 -10.5v-44q0 -6 -4.5 -10.5t-10.5 -4.5h-398v-261h218q15 0 15 -14v-45q0 -14 -15 -14h-218v-277q0 -15 -14 -15h-59q-6 0 -10.5 4.5t-4.5 10.5v670q0 6 4.5 10.5t10.5 4.5h59h412z" />
    <glyph glyph-name="G.ss01" horiz-adv-x="665" 
d="M588 335q14 0 14 -14v-40v-267q0 -14 -14 -14h-34q-12 0 -14 14l-8 65q-73 -87 -192 -87q-127 0 -208 94t-81 264t81 264t208 94q110 0 174.5 -58.5t73.5 -144.5q0 -6 -4.5 -10.5t-10.5 -4.5h-60q-11 0 -14 12q-6 54 -44.5 93t-114.5 39q-54 0 -95 -25t-63.5 -67.5
t-33 -90.5t-10.5 -101q0 -50 10.5 -97.5t33 -90.5t63.5 -69.5t95 -26.5q73 0 128 49t65 152h-153q-15 0 -15 14v40q0 14 15 14h208z" />
    <glyph glyph-name="Gbreve.ss01" horiz-adv-x="665" 
d="M344 747q-104 0 -143 98q-3 7 5 10l39 19q7 3 11 -4q13 -22 19.5 -31t25.5 -20.5t44 -11.5t44 11.5t25.5 20.5t19.5 31q4 7 11 4l39 -19q8 -3 5 -10q-39 -98 -145 -98zM588 335q14 0 14 -14v-40v-267q0 -14 -14 -14h-34q-12 0 -14 14l-8 65q-73 -87 -192 -87
q-127 0 -208 94t-81 264t81 264t208 94q110 0 174.5 -58.5t73.5 -144.5q0 -6 -4.5 -10.5t-10.5 -4.5h-60q-11 0 -14 12q-6 54 -44.5 93t-114.5 39q-54 0 -95 -25t-63.5 -67.5t-33 -90.5t-10.5 -101q0 -50 10.5 -97.5t33 -90.5t63.5 -69.5t95 -26.5q73 0 128 49t65 152h-153
q-15 0 -15 14v40q0 14 15 14h208z" />
    <glyph glyph-name="Gcommaaccent.ss01" horiz-adv-x="665" 
d="M588 335q14 0 14 -14v-40v-267q0 -14 -14 -14h-34q-12 0 -14 14l-8 65q-73 -87 -192 -87q-127 0 -208 94t-81 264t81 264t208 94q110 0 174.5 -58.5t73.5 -144.5q0 -6 -4.5 -10.5t-10.5 -4.5h-60q-11 0 -14 12q-6 54 -44.5 93t-114.5 39q-54 0 -95 -25t-63.5 -67.5
t-33 -90.5t-10.5 -101q0 -50 10.5 -97.5t33 -90.5t63.5 -69.5t95 -26.5q73 0 128 49t65 152h-153q-15 0 -15 14v40q0 14 15 14h208zM385 -54q16 0 16 -15v-56q0 -4 -1 -6l-26 -93h-24q-4 0 -7.5 4t-2.5 12l7 68h-31q-16 0 -16 15v56q0 15 16 15h69z" />
    <glyph glyph-name="Gdotaccent.ss01" horiz-adv-x="665" 
d="M345 759q-19 0 -32 12.5t-13 31.5t13 32t32 13t32 -13t13 -32t-13 -31.5t-32 -12.5zM588 335q14 0 14 -14v-40v-267q0 -14 -14 -14h-34q-12 0 -14 14l-8 65q-73 -87 -192 -87q-127 0 -208 94t-81 264t81 264t208 94q110 0 174.5 -58.5t73.5 -144.5q0 -6 -4.5 -10.5
t-10.5 -4.5h-60q-11 0 -14 12q-6 54 -44.5 93t-114.5 39q-54 0 -95 -25t-63.5 -67.5t-33 -90.5t-10.5 -101q0 -50 10.5 -97.5t33 -90.5t63.5 -69.5t95 -26.5q73 0 128 49t65 152h-153q-15 0 -15 14v40q0 14 15 14h208z" />
    <glyph glyph-name="O.ss01" horiz-adv-x="678" 
d="M340 -8q-128 0 -212.5 95t-84.5 263t84.5 263t212.5 95t212 -95t84 -263t-84 -263t-212 -95zM340 66q104 0 156 81t52 204q0 122 -52 202.5t-156 80.5t-156.5 -80.5t-52.5 -202.5q0 -123 52.5 -204t156.5 -81z" />
    <glyph glyph-name="Oacute.ss01" horiz-adv-x="678" 
d="M269 736q-13 -4 -20 9l-6 20q-5 11 10 19l149 77q15 8 21 -9l13 -40q5 -14 -9 -20zM340 -8q-128 0 -212.5 95t-84.5 263t84.5 263t212.5 95t212 -95t84 -263t-84 -263t-212 -95zM340 66q104 0 156 81t52 204q0 122 -52 202.5t-156 80.5t-156.5 -80.5t-52.5 -202.5
q0 -123 52.5 -204t156.5 -81z" />
    <glyph glyph-name="Ocircumflex.ss01" horiz-adv-x="678" 
d="M240 750q-19 -13 -19 7v15q0 10 10 20l79 81q12 12 25 12h4q13 0 25 -12l81 -81q10 -10 10 -20v-15q0 -20 -19 -7l-99 66zM340 708q128 0 212 -95t84 -263t-84 -263t-212 -95t-212.5 95t-84.5 263t84.5 263t212.5 95zM340 66q104 0 156 81t52 204q0 122 -52 202.5
t-156 80.5t-156.5 -80.5t-52.5 -202.5q0 -123 52.5 -204t156.5 -81z" />
    <glyph glyph-name="Odieresis.ss01" horiz-adv-x="678" 
d="M277 765q-17 0 -28.5 11.5t-11.5 27.5q0 17 11.5 28.5t28.5 11.5t28.5 -11.5t11.5 -28.5q0 -16 -11.5 -27.5t-28.5 -11.5zM402 765q-16 0 -27.5 11.5t-11.5 27.5q0 17 11 28.5t28 11.5t28.5 -11.5t11.5 -28.5t-11.5 -28t-28.5 -11zM340 -8q-128 0 -212.5 95t-84.5 263
t84.5 263t212.5 95t212 -95t84 -263t-84 -263t-212 -95zM340 66q104 0 156 81t52 204q0 122 -52 202.5t-156 80.5t-156.5 -80.5t-52.5 -202.5q0 -123 52.5 -204t156.5 -81z" />
    <glyph glyph-name="Ograve.ss01" horiz-adv-x="678" 
d="M409 737l-158 56q-14 6 -9 20l13 40q6 17 21 9l149 -77q15 -8 10 -19l-6 -20q-7 -13 -20 -9zM340 -8q-128 0 -212.5 95t-84.5 263t84.5 263t212.5 95t212 -95t84 -263t-84 -263t-212 -95zM340 66q104 0 156 81t52 204q0 122 -52 202.5t-156 80.5t-156.5 -80.5
t-52.5 -202.5q0 -123 52.5 -204t156.5 -81z" />
    <glyph glyph-name="Ohungarumlaut.ss01" horiz-adv-x="678" 
d="M211 741q-13 -6 -21 6l-6 8q-7 7 6 20l102 84q14 11 22 -3l22 -36q9 -12 -6 -21zM369 741q-14 -5 -21 6l-6 8q-6 7 7 20l102 84q12 9 20 -3l22 -35q10 -13 -5 -21zM340 -8q-128 0 -212.5 95t-84.5 263t84.5 263t212.5 95t212 -95t84 -263t-84 -263t-212 -95zM340 66
q104 0 156 81t52 204q0 122 -52 202.5t-156 80.5t-156.5 -80.5t-52.5 -202.5q0 -123 52.5 -204t156.5 -81z" />
    <glyph glyph-name="Omacron.ss01" horiz-adv-x="678" 
d="M249 764q-16 0 -16 15v34q0 15 16 15h181q16 0 16 -15v-34q0 -15 -16 -15h-181zM340 -8q-128 0 -212.5 95t-84.5 263t84.5 263t212.5 95t212 -95t84 -263t-84 -263t-212 -95zM340 66q104 0 156 81t52 204q0 122 -52 202.5t-156 80.5t-156.5 -80.5t-52.5 -202.5
q0 -123 52.5 -204t156.5 -81z" />
    <glyph glyph-name="Oslash.ss01" horiz-adv-x="678" 
d="M528 638q108 -98 108 -288q0 -168 -84 -263t-212 -95q-68 0 -128 29l-7 -14q-7 -15 -21 -15h-35q-10 0 -14.5 7t-0.5 15l23 44q-114 96 -114 292q0 168 84.5 263t212.5 95q72 0 134 -32l8 17q8 15 20 15h42q8 0 11.5 -5t-0.5 -13zM131 351q0 -142 64 -219l244 476
q-41 26 -99 26q-104 0 -156.5 -80.5t-52.5 -202.5zM340 66q104 0 156 81t52 204q0 136 -59 212l-243 -475q42 -22 94 -22z" />
    <glyph glyph-name="Otilde.ss01" horiz-adv-x="678" 
d="M200 768q-7 4 -4 12q24 65 83 65h1q42 0 73.5 -16.5t48.5 -16.5q31 0 55 25q6 7 14 2l10 -5q7 -4 4 -12q-24 -64 -82 -65h-1q-37 0 -67.5 16.5t-54.5 16.5q-33 0 -56 -25q-6 -7 -14 -2zM340 708q128 0 212 -95t84 -263t-84 -263t-212 -95t-212.5 95t-84.5 263t84.5 263
t212.5 95zM340 66q104 0 156 81t52 204q0 122 -52 202.5t-156 80.5t-156.5 -80.5t-52.5 -202.5q0 -123 52.5 -204t156.5 -81z" />
    <glyph glyph-name="P.ss01" horiz-adv-x="614" 
d="M571 481q0 -96 -59 -155t-139 -60h-214v-252q0 -14 -14 -14h-59q-15 0 -15 14v671q0 15 15 15h59h236q79 -1 134.5 -61t55.5 -158zM354 340q54 0 91.5 38t37.5 103q0 71 -35 108t-96 37h-193v-286h195z" />
    <glyph glyph-name="Q.ss01" horiz-adv-x="706" 
d="M659 41q11 -11 0 -21l-38 -37q-11 -11 -21 0l-72 72q-75 -63 -180 -63q-128 0 -212.5 95t-84.5 263t84.5 263t212.5 95t212.5 -95t84.5 -263q0 -141 -62 -233zM348 66q104 0 156.5 81t52.5 204q0 122 -52.5 202.5t-156.5 80.5q-103 0 -155.5 -80.5t-52.5 -202.5
q0 -123 52.5 -204t155.5 -81z" />
    <glyph glyph-name="R.ss01" horiz-adv-x="648" 
d="M577 490q0 -133 -101 -186q45 -58 70.5 -136t25.5 -154q0 -14 -15 -14h-58q-15 0 -15 14q0 162 -104 269h-221v-269q0 -14 -14 -14h-59q-15 0 -15 14v671q0 15 15 15h59h249q79 0 131 -56.5t52 -153.5zM159 357h208q55 0 88.5 34t33.5 99q0 136 -124 136h-206v-269z" />
    <glyph glyph-name="Racute.ss01" horiz-adv-x="648" 
d="M233 745l-6 20q-5 11 10 19l149 77q15 8 21 -9l13 -40q5 -14 -9 -20l-158 -56q-13 -4 -20 9zM577 490q0 -133 -101 -186q45 -58 70.5 -136t25.5 -154q0 -14 -15 -14h-58q-15 0 -15 14q0 162 -104 269h-221v-269q0 -14 -14 -14h-59q-15 0 -15 14v671q0 15 15 15h59h249
q79 0 131 -56.5t52 -153.5zM159 357h208q55 0 88.5 34t33.5 99q0 136 -124 136h-206v-269z" />
    <glyph glyph-name="Rcaron.ss01" horiz-adv-x="648" 
d="M218 839q-10 10 -10 20v15q0 20 19 7l97 -66l99 66q19 13 19 -7v-15q0 -10 -10 -20l-81 -81q-12 -12 -25 -12h-4q-13 0 -25 12zM577 490q0 -133 -101 -186q45 -58 70.5 -136t25.5 -154q0 -14 -15 -14h-58q-15 0 -15 14q0 162 -104 269h-221v-269q0 -14 -14 -14h-59
q-15 0 -15 14v671q0 15 15 15h59h249q79 0 131 -56.5t52 -153.5zM159 357h208q55 0 88.5 34t33.5 99q0 136 -124 136h-206v-269z" />
    <glyph glyph-name="Rcommaaccent.ss01" horiz-adv-x="648" 
d="M577 490q0 -133 -101 -186q45 -58 70.5 -136t25.5 -154q0 -14 -15 -14h-58q-15 0 -15 14q0 162 -104 269h-221v-269q0 -14 -14 -14h-59q-15 0 -15 14v671q0 15 15 15h59h249q79 0 131 -56.5t52 -153.5zM159 357h208q55 0 88.5 34t33.5 99q0 136 -124 136h-206v-269z
M364 -54q16 0 16 -15v-56q0 -4 -1 -6l-26 -93h-24q-4 0 -7.5 4t-2.5 12l7 68h-31q-16 0 -16 15v56q0 15 16 15h69z" />
    <glyph glyph-name="U.ss01" horiz-adv-x="663" 
d="M576 700q14 0 14 -16v-429q0 -122 -52.5 -188.5t-178.5 -66.5h-50h-5q-125 0 -178 66.5t-53 188.5v429q0 7 4.5 11.5t10.5 4.5h58q6 0 10.5 -4.5t4.5 -11.5v-442q0 -81 36.5 -124.5t93.5 -43.5h66h15q57 0 93.5 43.5t36.5 124.5v442q0 7 4.5 11.5t10.5 4.5h59z" />
    <glyph glyph-name="Uacute.ss01" horiz-adv-x="663" 
d="M241 745l-6 20q-5 11 10 19l149 77q15 8 21 -9l13 -40q5 -14 -9 -20l-158 -56q-13 -4 -20 9zM576 700q14 0 14 -16v-429q0 -122 -52.5 -188.5t-178.5 -66.5h-50h-5q-125 0 -178 66.5t-53 188.5v429q0 7 4.5 11.5t10.5 4.5h58q6 0 10.5 -4.5t4.5 -11.5v-442
q0 -81 36.5 -124.5t93.5 -43.5h66h15q57 0 93.5 43.5t36.5 124.5v442q0 7 4.5 11.5t10.5 4.5h59z" />
    <glyph glyph-name="Ucircumflex.ss01" horiz-adv-x="663" 
d="M231 750q-19 -13 -19 7v15q0 10 10 20l79 81q12 12 25 12h4q13 0 25 -12l81 -81q10 -10 10 -20v-15q0 -20 -19 -7l-99 66zM576 700q14 0 14 -16v-429q0 -122 -52.5 -188.5t-178.5 -66.5h-50h-5q-125 0 -178 66.5t-53 188.5v429q0 7 4.5 11.5t10.5 4.5h58q6 0 10.5 -4.5
t4.5 -11.5v-442q0 -81 36.5 -124.5t93.5 -43.5h66h15q57 0 93.5 43.5t36.5 124.5v442q0 7 4.5 11.5t10.5 4.5h59z" />
    <glyph glyph-name="Udieresis.ss01" horiz-adv-x="663" 
d="M269 765q-17 0 -28.5 11.5t-11.5 27.5q0 17 11.5 28.5t28.5 11.5t28.5 -11.5t11.5 -28.5q0 -16 -11.5 -27.5t-28.5 -11.5zM394 765q-16 0 -27.5 11.5t-11.5 27.5q0 17 11 28.5t28 11.5t28.5 -11.5t11.5 -28.5t-11.5 -28t-28.5 -11zM576 700q14 0 14 -16v-429
q0 -122 -52.5 -188.5t-178.5 -66.5h-50h-5q-125 0 -178 66.5t-53 188.5v429q0 7 4.5 11.5t10.5 4.5h58q6 0 10.5 -4.5t4.5 -11.5v-442q0 -81 36.5 -124.5t93.5 -43.5h66h15q57 0 93.5 43.5t36.5 124.5v442q0 7 4.5 11.5t10.5 4.5h59z" />
    <glyph glyph-name="Ugrave.ss01" horiz-adv-x="663" 
d="M243 793q-14 6 -9 20l13 40q6 17 21 9l149 -77q15 -8 10 -19l-6 -20q-7 -13 -20 -9zM576 700q14 0 14 -16v-429q0 -122 -52.5 -188.5t-178.5 -66.5h-50h-5q-125 0 -178 66.5t-53 188.5v429q0 7 4.5 11.5t10.5 4.5h58q6 0 10.5 -4.5t4.5 -11.5v-442q0 -81 36.5 -124.5
t93.5 -43.5h66h15q57 0 93.5 43.5t36.5 124.5v442q0 7 4.5 11.5t10.5 4.5h59z" />
    <glyph glyph-name="Uhungarumlaut.ss01" horiz-adv-x="663" 
d="M182 747l-6 8q-7 7 6 20l102 84q14 11 22 -3l22 -36q9 -12 -6 -21l-119 -58q-13 -6 -21 6zM340 747l-6 8q-6 7 7 20l102 84q12 9 20 -3l22 -35q10 -13 -5 -21l-119 -59q-14 -5 -21 6zM576 700q14 0 14 -16v-429q0 -122 -52.5 -188.5t-178.5 -66.5h-50h-5
q-125 0 -178 66.5t-53 188.5v429q0 7 4.5 11.5t10.5 4.5h58q6 0 10.5 -4.5t4.5 -11.5v-442q0 -81 36.5 -124.5t93.5 -43.5h66h15q57 0 93.5 43.5t36.5 124.5v442q0 7 4.5 11.5t10.5 4.5h59z" />
    <glyph glyph-name="Umacron.ss01" horiz-adv-x="663" 
d="M241 764q-16 0 -16 15v34q0 15 16 15h181q16 0 16 -15v-34q0 -15 -16 -15h-181zM576 700q14 0 14 -16v-429q0 -122 -52.5 -188.5t-178.5 -66.5h-50h-5q-125 0 -178 66.5t-53 188.5v429q0 7 4.5 11.5t10.5 4.5h58q6 0 10.5 -4.5t4.5 -11.5v-442q0 -81 36.5 -124.5
t93.5 -43.5h66h15q57 0 93.5 43.5t36.5 124.5v442q0 7 4.5 11.5t10.5 4.5h59z" />
    <glyph glyph-name="Uogonek.ss01" horiz-adv-x="663" 
d="M576 700q14 0 14 -16v-429q0 -214 -157 -248q-25 -18 -43.5 -48.5t-18.5 -63.5q0 -47 41 -47q34 0 52 26q4 7 14 1l6 -4q7 -4 4 -12q-24 -62 -83 -62h-1q-42 0 -67.5 23.5t-25.5 65.5q0 66 73 115q-8 -1 -25 -1h-50h-5q-125 0 -178 66.5t-53 188.5v429q0 7 4.5 11.5
t10.5 4.5h58q6 0 10.5 -4.5t4.5 -11.5v-442q0 -81 36.5 -124.5t93.5 -43.5h66h15q57 0 93.5 43.5t36.5 124.5v442q0 7 4.5 11.5t10.5 4.5h59z" />
    <glyph glyph-name="Uring.ss01" horiz-adv-x="663" 
d="M331 734q-43 0 -72 28t-29 75t29 75t72 28t73 -28t30 -75t-30 -75t-73 -28zM331 888q-21 0 -32 -15.5t-11 -35.5q0 -21 11 -36.5t32 -15.5q22 0 33 15.5t11 36.5q0 20 -11 35.5t-33 15.5zM576 700q14 0 14 -16v-429q0 -122 -52.5 -188.5t-178.5 -66.5h-50h-5
q-125 0 -178 66.5t-53 188.5v429q0 7 4.5 11.5t10.5 4.5h58q6 0 10.5 -4.5t4.5 -11.5v-442q0 -81 36.5 -124.5t93.5 -43.5h66h15q57 0 93.5 43.5t36.5 124.5v442q0 7 4.5 11.5t10.5 4.5h59z" />
    <glyph glyph-name="a.ss01" horiz-adv-x="450" 
d="M391 248v-233q0 -6 -4.5 -10.5t-10.5 -4.5h-29q-8 0 -15.5 5.5t-8.5 13.5l-4 27q-47 -54 -116 -54q-76 0 -120.5 41.5t-44.5 103.5q0 58 45 102.5t122 44.5q61 0 102 -34v19q0 49 -29.5 72.5t-70.5 23.5q-13 0 -26.5 -2t-26 -6t-21 -7t-19.5 -7.5t-14 -5.5q-12 -5 -16 6
l-13 41q-3 8 5 13q58 34 137 34q96 0 136.5 -48t41.5 -135zM211 55q43 0 69.5 21.5t26.5 66.5q0 81 -96 81q-38 0 -64.5 -24.5t-26.5 -62.5q0 -43 26.5 -62.5t64.5 -19.5z" />
    <glyph glyph-name="aacute.ss01" horiz-adv-x="450" 
d="M142 463l-12 17q-7 9 5 21l122 116q12 10 23 -3l23 -35q9 -10 -3 -22l-136 -97q-12 -9 -22 3zM391 248v-233q0 -6 -4.5 -10.5t-10.5 -4.5h-29q-8 0 -15.5 5.5t-8.5 13.5l-4 27q-47 -54 -116 -54q-76 0 -120.5 41.5t-44.5 103.5q0 58 45 102.5t122 44.5q61 0 102 -34v19
q0 49 -29.5 72.5t-70.5 23.5q-13 0 -26.5 -2t-26 -6t-21 -7t-19.5 -7.5t-14 -5.5q-12 -5 -16 6l-13 41q-3 8 5 13q58 34 137 34q96 0 136.5 -48t41.5 -135zM211 55q43 0 69.5 21.5t26.5 66.5q0 81 -96 81q-38 0 -64.5 -24.5t-26.5 -62.5q0 -43 26.5 -62.5t64.5 -19.5z" />
    <glyph glyph-name="abreve.ss01" horiz-adv-x="450" 
d="M215 470q-104 0 -143 98q-3 7 5 10l39 19q8 3 11 -4q13 -22 19.5 -31t25.5 -20.5t44 -11.5t44 11.5t25.5 20.5t19.5 31q3 7 11 4l39 -19q8 -3 5 -10q-39 -98 -145 -98zM391 248v-233q0 -6 -4.5 -10.5t-10.5 -4.5h-29q-8 0 -15.5 5.5t-8.5 13.5l-4 27q-47 -54 -116 -54
q-76 0 -120.5 41.5t-44.5 103.5q0 58 45 102.5t122 44.5q61 0 102 -34v19q0 49 -29.5 72.5t-70.5 23.5q-13 0 -26.5 -2t-26 -6t-21 -7t-19.5 -7.5t-14 -5.5q-12 -5 -16 6l-13 41q-3 8 5 13q58 34 137 34q96 0 136.5 -48t41.5 -135zM211 55q43 0 69.5 21.5t26.5 66.5
q0 81 -96 81q-38 0 -64.5 -24.5t-26.5 -62.5q0 -43 26.5 -62.5t64.5 -19.5z" />
    <glyph glyph-name="acircumflex.ss01" horiz-adv-x="450" 
d="M116 473q-19 -13 -19 7v15q0 10 10 20l79 81q12 12 25 12h4q13 0 25 -12l81 -81q10 -10 10 -20v-15q0 -20 -19 -7l-99 66zM391 248v-233q0 -6 -4.5 -10.5t-10.5 -4.5h-29q-8 0 -15.5 5.5t-8.5 13.5l-4 27q-47 -54 -116 -54q-76 0 -120.5 41.5t-44.5 103.5q0 58 45 102.5
t122 44.5q61 0 102 -34v19q0 49 -29.5 72.5t-70.5 23.5q-13 0 -26.5 -2t-26 -6t-21 -7t-19.5 -7.5t-14 -5.5q-12 -5 -16 6l-13 41q-3 8 5 13q58 34 137 34q96 0 136.5 -48t41.5 -135zM211 55q43 0 69.5 21.5t26.5 66.5q0 81 -96 81q-38 0 -64.5 -24.5t-26.5 -62.5
q0 -43 26.5 -62.5t64.5 -19.5z" />
    <glyph glyph-name="adieresis.ss01" horiz-adv-x="450" 
d="M154 488q-17 0 -28.5 11.5t-11.5 27.5q0 17 11.5 28.5t28.5 11.5t28.5 -11.5t11.5 -28.5q0 -16 -11.5 -27.5t-28.5 -11.5zM279 488q-17 0 -28 11t-11 28t11 28.5t28 11.5t28.5 -11.5t11.5 -28.5t-11.5 -28t-28.5 -11zM391 248v-233q0 -6 -4.5 -10.5t-10.5 -4.5h-29
q-8 0 -15.5 5.5t-8.5 13.5l-4 27q-47 -54 -116 -54q-76 0 -120.5 41.5t-44.5 103.5q0 58 45 102.5t122 44.5q61 0 102 -34v19q0 49 -29.5 72.5t-70.5 23.5q-13 0 -26.5 -2t-26 -6t-21 -7t-19.5 -7.5t-14 -5.5q-12 -5 -16 6l-13 41q-3 8 5 13q58 34 137 34q96 0 136.5 -48
t41.5 -135zM211 55q43 0 69.5 21.5t26.5 66.5q0 81 -96 81q-38 0 -64.5 -24.5t-26.5 -62.5q0 -43 26.5 -62.5t64.5 -19.5z" />
    <glyph glyph-name="agrave.ss01" horiz-adv-x="450" 
d="M270 460l-136 97q-12 12 -3 22l23 35q11 13 23 3l122 -116q12 -12 5 -21l-12 -17q-10 -12 -22 -3zM391 248v-233q0 -6 -4.5 -10.5t-10.5 -4.5h-29q-8 0 -15.5 5.5t-8.5 13.5l-4 27q-47 -54 -116 -54q-76 0 -120.5 41.5t-44.5 103.5q0 58 45 102.5t122 44.5q61 0 102 -34
v19q0 49 -29.5 72.5t-70.5 23.5q-13 0 -26.5 -2t-26 -6t-21 -7t-19.5 -7.5t-14 -5.5q-12 -5 -16 6l-13 41q-3 8 5 13q58 34 137 34q96 0 136.5 -48t41.5 -135zM211 55q43 0 69.5 21.5t26.5 66.5q0 81 -96 81q-38 0 -64.5 -24.5t-26.5 -62.5q0 -43 26.5 -62.5t64.5 -19.5z
" />
    <glyph glyph-name="amacron.ss01" horiz-adv-x="450" 
d="M126 487q-16 0 -16 15v34q0 15 16 15h181q16 0 16 -15v-34q0 -15 -16 -15h-181zM391 248v-233q0 -6 -4.5 -10.5t-10.5 -4.5h-29q-8 0 -15.5 5.5t-8.5 13.5l-4 27q-47 -54 -116 -54q-76 0 -120.5 41.5t-44.5 103.5q0 58 45 102.5t122 44.5q61 0 102 -34v19
q0 49 -29.5 72.5t-70.5 23.5q-13 0 -26.5 -2t-26 -6t-21 -7t-19.5 -7.5t-14 -5.5q-12 -5 -16 6l-13 41q-3 8 5 13q58 34 137 34q96 0 136.5 -48t41.5 -135zM211 55q43 0 69.5 21.5t26.5 66.5q0 81 -96 81q-38 0 -64.5 -24.5t-26.5 -62.5q0 -43 26.5 -62.5t64.5 -19.5z" />
    <glyph glyph-name="aogonek.ss01" horiz-adv-x="450" 
d="M431 -129q7 -4 4 -12q-24 -62 -83 -62h-1q-42 0 -67.5 23.5t-25.5 65.5q0 69 77 117q-10 5 -12 16l-4 27q-47 -54 -116 -54q-76 0 -120.5 41.5t-44.5 103.5q0 58 45 102.5t122 44.5q61 0 102 -34v19q0 49 -29.5 72.5t-70.5 23.5q-13 0 -26.5 -2t-26 -6t-21 -7t-19.5 -7.5
t-14 -5.5q-12 -5 -16 6l-13 41q-3 8 5 13q58 34 137 34q96 0 136.5 -48t41.5 -135v-233q0 -6 -4.5 -10.5t-10.5 -4.5h-5q-53 -45 -53 -105q0 -47 41 -47q34 0 52 26q4 7 14 1zM211 55q43 0 69.5 21.5t26.5 66.5q0 81 -96 81q-38 0 -64.5 -24.5t-26.5 -62.5q0 -43 26.5 -62.5
t64.5 -19.5z" />
    <glyph glyph-name="aring.ss01" horiz-adv-x="450" 
d="M216 457q-43 0 -72 28t-29 75t29 75t72 28t73 -28t30 -75t-30 -75t-73 -28zM216 611q-21 0 -32 -15.5t-11 -35.5q0 -21 11 -36.5t32 -15.5q22 0 33 15.5t11 36.5q0 20 -11 35.5t-33 15.5zM391 248v-233q0 -6 -4.5 -10.5t-10.5 -4.5h-29q-8 0 -15.5 5.5t-8.5 13.5l-4 27
q-47 -54 -116 -54q-76 0 -120.5 41.5t-44.5 103.5q0 58 45 102.5t122 44.5q61 0 102 -34v19q0 49 -29.5 72.5t-70.5 23.5q-13 0 -26.5 -2t-26 -6t-21 -7t-19.5 -7.5t-14 -5.5q-12 -5 -16 6l-13 41q-3 8 5 13q58 34 137 34q96 0 136.5 -48t41.5 -135zM211 55q43 0 69.5 21.5
t26.5 66.5q0 81 -96 81q-38 0 -64.5 -24.5t-26.5 -62.5q0 -43 26.5 -62.5t64.5 -19.5z" />
    <glyph glyph-name="atilde.ss01" horiz-adv-x="450" 
d="M77 491q-7 4 -4 12q24 65 83 65h1q42 0 73.5 -16.5t48.5 -16.5q31 0 55 25q6 6 14 2l10 -5q7 -4 4 -12q-24 -64 -82 -65h-1q-37 0 -67.5 16.5t-54.5 16.5q-33 0 -56 -25q-6 -7 -14 -2zM391 248v-233q0 -6 -4.5 -10.5t-10.5 -4.5h-29q-8 0 -15.5 5.5t-8.5 13.5l-4 27
q-47 -54 -116 -54q-76 0 -120.5 41.5t-44.5 103.5q0 58 45 102.5t122 44.5q61 0 102 -34v19q0 49 -29.5 72.5t-70.5 23.5q-13 0 -26.5 -2t-26 -6t-21 -7t-19.5 -7.5t-14 -5.5q-12 -5 -16 6l-13 41q-3 8 5 13q58 34 137 34q96 0 136.5 -48t41.5 -135zM211 55q43 0 69.5 21.5
t26.5 66.5q0 81 -96 81q-38 0 -64.5 -24.5t-26.5 -62.5q0 -43 26.5 -62.5t64.5 -19.5z" />
    <glyph glyph-name="c.ss01" horiz-adv-x="447" 
d="M237 -8q-92 0 -146 60.5t-54 157.5q0 100 53.5 160.5t146.5 60.5q70 0 114 -33.5t56 -90.5q4 -15 -7 -17l-51 -8q-16 -3 -18 9q-19 72 -94 72q-60 0 -89.5 -44.5t-29.5 -108.5t32.5 -107.5t86.5 -43.5q38 0 62.5 19.5t32.5 52.5q4 12 16 11l51 -9q12 -3 9 -17
q-11 -56 -58.5 -90t-112.5 -34z" />
    <glyph glyph-name="cacute.ss01" horiz-adv-x="447" 
d="M170 460q-12 -9 -22 3l-12 17q-7 9 5 21l122 116q12 10 23 -3l23 -35q9 -10 -3 -22zM237 -8q-92 0 -146 60.5t-54 157.5q0 100 53.5 160.5t146.5 60.5q70 0 114 -33.5t56 -90.5q4 -15 -7 -17l-51 -8q-16 -3 -18 9q-19 72 -94 72q-60 0 -89.5 -44.5t-29.5 -108.5
t32.5 -107.5t86.5 -43.5q38 0 62.5 19.5t32.5 52.5q4 12 16 11l51 -9q12 -3 9 -17q-11 -56 -58.5 -90t-112.5 -34z" />
    <glyph glyph-name="ccaron.ss01" horiz-adv-x="447" 
d="M117 562q-10 10 -10 20v15q0 20 19 7l97 -66l99 66q19 13 19 -7v-15q0 -10 -10 -20l-81 -81q-12 -12 -25 -12h-4q-13 0 -25 12zM399 133q12 -3 9 -17q-11 -56 -58.5 -90t-112.5 -34q-92 0 -146 60.5t-54 157.5q0 100 53.5 160.5t146.5 60.5q70 0 114 -33.5t56 -90.5
q4 -15 -7 -17l-51 -8q-16 -3 -18 9q-19 72 -94 72q-60 0 -89.5 -44.5t-29.5 -108.5t32.5 -107.5t86.5 -43.5q38 0 62.5 19.5t32.5 52.5q4 12 16 11z" />
    <glyph glyph-name="ccedilla.ss01" horiz-adv-x="447" 
d="M399 133q12 -3 9 -17q-11 -55 -57 -88.5t-108 -35.5l-10 -26q33 4 59 -17.5t26 -58.5q0 -43 -24 -66t-68 -23q-24 0 -44 12.5t-25 25.5q-3 7 3 10l27 16q4 2 9 -4q12 -12 30 -12q17 0 27 11.5t10 30.5q0 20 -17.5 27.5t-29.5 -1.5q-4 -3 -8 -4t-6 -1l-2 1l-28 9
q-7 2 -5 10l26 64q-73 14 -114.5 72t-41.5 142q0 100 53.5 160.5t146.5 60.5q70 0 114 -33.5t56 -90.5q4 -15 -7 -17l-51 -8q-16 -3 -18 9q-19 72 -94 72q-60 0 -89.5 -44.5t-29.5 -108.5t32.5 -107.5t86.5 -43.5q38 0 62.5 19.5t32.5 52.5q4 12 16 11z" />
    <glyph glyph-name="cdotaccent.ss01" horiz-adv-x="447" 
d="M223 482q-19 0 -32 12.5t-13 31.5t13 32t32 13t32 -13t13 -32t-13 -31.5t-32 -12.5zM237 -8q-92 0 -146 60.5t-54 157.5q0 100 53.5 160.5t146.5 60.5q70 0 114 -33.5t56 -90.5q4 -15 -7 -17l-51 -8q-16 -3 -18 9q-19 72 -94 72q-60 0 -89.5 -44.5t-29.5 -108.5
t32.5 -107.5t86.5 -43.5q38 0 62.5 19.5t32.5 52.5q4 12 16 11l51 -9q12 -3 9 -17q-11 -56 -58.5 -90t-112.5 -34z" />
    <glyph glyph-name="e.ss01" horiz-adv-x="458" 
d="M122 187q7 -59 40.5 -94t80.5 -35q66 0 106 52q9 11 20 0l29 -26q11 -10 2 -19q-60 -73 -158 -73q-88 0 -146 61.5t-58 156.5q0 98 55 159.5t140 61.5t135 -57t50 -172q0 -6 -4.5 -10.5t-10.5 -4.5h-281zM233 365q-48 0 -76.5 -30t-34.5 -87h212q-4 61 -31.5 89t-69.5 28
z" />
    <glyph glyph-name="eacute.ss01" horiz-adv-x="458" 
d="M158 463l-12 17q-7 9 5 21l122 116q12 10 23 -3l23 -35q9 -10 -3 -22l-136 -97q-12 -9 -22 3zM122 187q7 -59 40.5 -94t80.5 -35q66 0 106 52q9 11 20 0l29 -26q11 -10 2 -19q-60 -73 -158 -73q-88 0 -146 61.5t-58 156.5q0 98 55 159.5t140 61.5t135 -57t50 -172
q0 -6 -4.5 -10.5t-10.5 -4.5h-281zM233 365q-48 0 -76.5 -30t-34.5 -87h212q-4 61 -31.5 89t-69.5 28z" />
    <glyph glyph-name="ecaron.ss01" horiz-adv-x="458" 
d="M127 562q-10 10 -10 20v15q0 20 19 7l97 -66l99 66q19 13 19 -7v-15q0 -10 -10 -20l-81 -81q-12 -12 -25 -12h-4q-13 0 -25 12zM122 187q7 -59 40.5 -94t80.5 -35q66 0 106 52q9 11 20 0l29 -26q11 -10 2 -19q-60 -73 -158 -73q-88 0 -146 61.5t-58 156.5q0 98 55 159.5
t140 61.5t135 -57t50 -172q0 -6 -4.5 -10.5t-10.5 -4.5h-281zM233 365q-48 0 -76.5 -30t-34.5 -87h212q-4 61 -31.5 89t-69.5 28z" />
    <glyph glyph-name="ecircumflex.ss01" horiz-adv-x="458" 
d="M133 473q-19 -13 -19 7v15q0 10 10 20l79 81q12 12 25 12h4q13 0 25 -12l81 -81q10 -10 10 -20v-15q0 -20 -19 -7l-99 66zM122 187q7 -59 40.5 -94t80.5 -35q66 0 106 52q9 11 20 0l29 -26q11 -10 2 -19q-60 -73 -158 -73q-88 0 -146 61.5t-58 156.5q0 98 55 159.5
t140 61.5t135 -57t50 -172q0 -6 -4.5 -10.5t-10.5 -4.5h-281zM233 365q-48 0 -76.5 -30t-34.5 -87h212q-4 61 -31.5 89t-69.5 28z" />
    <glyph glyph-name="edieresis.ss01" horiz-adv-x="458" 
d="M171 488q-17 0 -28.5 11.5t-11.5 27.5q0 17 11.5 28.5t28.5 11.5t28.5 -11.5t11.5 -28.5q0 -16 -11.5 -27.5t-28.5 -11.5zM296 488q-16 0 -27.5 11t-11.5 28t11 28.5t28 11.5t28.5 -11.5t11.5 -28.5t-11.5 -28t-28.5 -11zM122 187q7 -59 40.5 -94t80.5 -35q66 0 106 52
q9 11 20 0l29 -26q11 -10 2 -19q-60 -73 -158 -73q-88 0 -146 61.5t-58 156.5q0 98 55 159.5t140 61.5t135 -57t50 -172q0 -6 -4.5 -10.5t-10.5 -4.5h-281zM233 365q-48 0 -76.5 -30t-34.5 -87h212q-4 61 -31.5 89t-69.5 28z" />
    <glyph glyph-name="edotaccent.ss01" horiz-adv-x="458" 
d="M233 482q-19 0 -32 12.5t-13 31.5t13 32t32 13t32 -13t13 -32t-13 -31.5t-32 -12.5zM122 187q7 -59 40.5 -94t80.5 -35q66 0 106 52q9 11 20 0l29 -26q11 -10 2 -19q-60 -73 -158 -73q-88 0 -146 61.5t-58 156.5q0 98 55 159.5t140 61.5t135 -57t50 -172q0 -6 -4.5 -10.5
t-10.5 -4.5h-281zM233 365q-48 0 -76.5 -30t-34.5 -87h212q-4 61 -31.5 89t-69.5 28z" />
    <glyph glyph-name="egrave.ss01" horiz-adv-x="458" 
d="M286 460l-136 97q-12 12 -3 22l23 35q11 13 23 3l122 -116q12 -12 5 -21l-12 -17q-10 -12 -22 -3zM122 187q7 -59 40.5 -94t80.5 -35q66 0 106 52q9 11 20 0l29 -26q11 -10 2 -19q-60 -73 -158 -73q-88 0 -146 61.5t-58 156.5q0 98 55 159.5t140 61.5t135 -57t50 -172
q0 -6 -4.5 -10.5t-10.5 -4.5h-281zM233 365q-48 0 -76.5 -30t-34.5 -87h212q-4 61 -31.5 89t-69.5 28z" />
    <glyph glyph-name="emacron.ss01" horiz-adv-x="458" 
d="M143 487q-16 0 -16 15v34q0 15 16 15h181q16 0 16 -15v-34q0 -15 -16 -15h-181zM122 187q7 -59 40.5 -94t80.5 -35q66 0 106 52q9 11 20 0l29 -26q11 -10 2 -19q-60 -73 -158 -73q-88 0 -146 61.5t-58 156.5q0 98 55 159.5t140 61.5t135 -57t50 -172q0 -6 -4.5 -10.5
t-10.5 -4.5h-281zM233 365q-48 0 -76.5 -30t-34.5 -87h212q-4 61 -31.5 89t-69.5 28z" />
    <glyph glyph-name="eogonek.ss01" horiz-adv-x="458" 
d="M122 187q7 -59 40.5 -94t80.5 -35q66 0 106 52q9 11 20 0l29 -26q11 -10 2 -19q-36 -44 -90 -62q-56 -46 -56 -108q0 -47 41 -47q34 0 52 26q5 6 14 1l6 -4q7 -4 4 -12q-24 -62 -83 -62h-1q-41 0 -66.5 23.5t-25.5 65.5q0 60 61 106h-14q-88 0 -146 61.5t-58 156.5
q0 98 55 159.5t140 61.5t135 -57t50 -172q0 -6 -4.5 -10.5t-10.5 -4.5h-281zM233 365q-48 0 -76.5 -30t-34.5 -87h212q-4 61 -31.5 89t-69.5 28z" />
    <glyph glyph-name="g.ss01" horiz-adv-x="492" 
d="M311 5q74 0 107.5 -39t33.5 -98q0 -77 -49 -120t-138 -43h-34q-80 0 -125.5 45t-45.5 108q0 15 15 15h49q7 0 11.5 -4.5t4.5 -9.5q0 -8 4 -20.5t14 -28.5t32 -27t52 -11h19q60 0 84.5 23.5t24.5 72.5q0 33 -16.5 51.5t-47.5 18.5h-144q-46 0 -84 28.5t-38 90.5
q0 75 60 113q-28 44 -28 91q0 70 51 120t123 50q33 0 63 -11h114q15 0 15 -15v-19q0 -8 -14 -14l-35 -13q30 -43 30 -98q0 -71 -48.5 -120t-124.5 -49q-50 0 -91 25q-33 -16 -33 -60q0 -24 11 -38t29 -14h149zM246 363q-44 0 -68 -29t-25 -73q1 -43 25 -72t68 -29
q38 0 65 30t27 71q0 42 -27 72t-65 30z" />
    <glyph glyph-name="gbreve.ss01" horiz-adv-x="492" 
d="M244 470q-104 0 -143 98q-3 7 5 10l39 19q7 3 11 -4q13 -22 19.5 -31t25.5 -20.5t44 -11.5t44 11.5t25.5 20.5t19.5 31q4 7 11 4l39 -19q8 -3 5 -10q-39 -98 -145 -98zM311 5q74 0 107.5 -39t33.5 -98q0 -77 -49 -120t-138 -43h-34q-80 0 -125.5 45t-45.5 108q0 15 15 15
h49q7 0 11.5 -4.5t4.5 -9.5q0 -8 4 -20.5t14 -28.5t32 -27t52 -11h19q60 0 84.5 23.5t24.5 72.5q0 33 -16.5 51.5t-47.5 18.5h-144q-46 0 -84 28.5t-38 90.5q0 75 60 113q-28 44 -28 91q0 70 51 120t123 50q33 0 63 -11h114q15 0 15 -15v-19q0 -8 -14 -14l-35 -13
q30 -43 30 -98q0 -71 -48.5 -120t-124.5 -49q-50 0 -91 25q-33 -16 -33 -60q0 -24 11 -38t29 -14h149zM246 363q-44 0 -68 -29t-25 -73q1 -43 25 -72t68 -29q38 0 65 30t27 71q0 42 -27 72t-65 30z" />
    <glyph glyph-name="gcommaaccent.ss01" horiz-adv-x="492" 
d="M211 475q-16 0 -16 15v55q0 4 1 6l26 93h24q4 0 7.5 -4t2.5 -12l-7 -68h31q16 0 16 -15v-55q0 -15 -16 -15h-69zM311 5q74 0 107.5 -39t33.5 -98q0 -77 -49 -120t-138 -43h-34q-80 0 -125.5 45t-45.5 108q0 15 15 15h49q7 0 11.5 -4.5t4.5 -9.5q0 -8 4 -20.5t14 -28.5
t32 -27t52 -11h19q60 0 84.5 23.5t24.5 72.5q0 33 -16.5 51.5t-47.5 18.5h-144q-46 0 -84 28.5t-38 90.5q0 75 60 113q-28 44 -28 91q0 70 51 120t123 50q33 0 63 -11h114q15 0 15 -15v-19q0 -8 -14 -14l-35 -13q30 -43 30 -98q0 -71 -48.5 -120t-124.5 -49q-50 0 -91 25
q-33 -16 -33 -60q0 -24 11 -38t29 -14h149zM246 363q-44 0 -68 -29t-25 -73q1 -43 25 -72t68 -29q38 0 65 30t27 71q0 42 -27 72t-65 30z" />
    <glyph glyph-name="gdotaccent.ss01" horiz-adv-x="492" 
d="M245 482q-19 0 -32 12.5t-13 31.5t13 32t32 13t32 -13t13 -32t-13 -31.5t-32 -12.5zM311 5q74 0 107.5 -39t33.5 -98q0 -77 -49 -120t-138 -43h-34q-80 0 -125.5 45t-45.5 108q0 15 15 15h49q7 0 11.5 -4.5t4.5 -9.5q0 -8 4 -20.5t14 -28.5t32 -27t52 -11h19
q60 0 84.5 23.5t24.5 72.5q0 33 -16.5 51.5t-47.5 18.5h-144q-46 0 -84 28.5t-38 90.5q0 75 60 113q-28 44 -28 91q0 70 51 120t123 50q33 0 63 -11h114q15 0 15 -15v-19q0 -8 -14 -14l-35 -13q30 -43 30 -98q0 -71 -48.5 -120t-124.5 -49q-50 0 -91 25q-33 -16 -33 -60
q0 -24 11 -38t29 -14h149zM246 363q-44 0 -68 -29t-25 -73q1 -43 25 -72t68 -29q38 0 65 30t27 71q0 42 -27 72t-65 30z" />
    <glyph glyph-name="i.loclTRK" horiz-adv-x="215" 
d="M107 593q-19 0 -32.5 13.5t-13.5 32.5t13.5 32.5t32.5 13.5q20 0 33.5 -13.5t13.5 -32.5t-13.5 -32.5t-33.5 -13.5zM80 0q-15 0 -15 14v392q0 17 15 17h54q15 0 15 -17v-392q0 -14 -15 -14h-54z" />
    <glyph glyph-name="o.ss01" horiz-adv-x="477" 
d="M239 -8q-93 0 -147 62t-54 156q0 96 54 158.5t147 62.5q92 0 145.5 -63t53.5 -158q0 -94 -53.5 -156t-145.5 -62zM239 59q57 0 87.5 39t30.5 113q0 73 -31 112.5t-87 39.5q-58 0 -88.5 -39t-30.5 -113t31 -113t88 -39z" />
    <glyph glyph-name="oacute.ss01" horiz-adv-x="477" 
d="M186 460q-12 -9 -22 3l-12 17q-7 9 5 21l122 116q12 10 23 -3l23 -35q9 -10 -3 -22zM239 -8q-93 0 -147 62t-54 156q0 96 54 158.5t147 62.5q92 0 145.5 -63t53.5 -158q0 -94 -53.5 -156t-145.5 -62zM239 59q57 0 87.5 39t30.5 113q0 73 -31 112.5t-87 39.5
q-58 0 -88.5 -39t-30.5 -113t31 -113t88 -39z" />
    <glyph glyph-name="ocircumflex.ss01" horiz-adv-x="477" 
d="M138 473q-19 -13 -19 7v15q0 10 10 20l79 81q12 12 25 12h4q13 0 25 -12l81 -81q10 -10 10 -20v-15q0 -20 -19 -7l-99 66zM239 431q92 0 145.5 -63t53.5 -158q0 -94 -53.5 -156t-145.5 -62q-93 0 -147 62t-54 156q0 96 54 158.5t147 62.5zM239 59q57 0 87.5 39t30.5 113
q0 73 -31 112.5t-87 39.5q-58 0 -88.5 -39t-30.5 -113t31 -113t88 -39z" />
    <glyph glyph-name="odieresis.ss01" horiz-adv-x="477" 
d="M176 488q-17 0 -28.5 11.5t-11.5 27.5q0 17 11.5 28.5t28.5 11.5t28.5 -11.5t11.5 -28.5q0 -16 -11.5 -27.5t-28.5 -11.5zM301 488q-17 0 -28 11t-11 28t11 28.5t28 11.5t28.5 -11.5t11.5 -28.5t-11.5 -28t-28.5 -11zM239 -8q-93 0 -147 62t-54 156q0 96 54 158.5
t147 62.5q92 0 145.5 -63t53.5 -158q0 -94 -53.5 -156t-145.5 -62zM239 59q57 0 87.5 39t30.5 113q0 73 -31 112.5t-87 39.5q-58 0 -88.5 -39t-30.5 -113t31 -113t88 -39z" />
    <glyph glyph-name="ograve.ss01" horiz-adv-x="477" 
d="M292 460l-136 97q-12 12 -3 22l23 35q11 13 23 3l122 -116q12 -12 5 -21l-12 -17q-10 -12 -22 -3zM239 -8q-93 0 -147 62t-54 156q0 96 54 158.5t147 62.5q92 0 145.5 -63t53.5 -158q0 -94 -53.5 -156t-145.5 -62zM239 59q57 0 87.5 39t30.5 113q0 73 -31 112.5t-87 39.5
q-58 0 -88.5 -39t-30.5 -113t31 -113t88 -39z" />
    <glyph glyph-name="ohungarumlaut.ss01" horiz-adv-x="477" 
d="M121 473l-8 5q-9 6 1 21l75 109q9 15 21 3l31 -27q13 -11 0 -22l-98 -89q-11 -10 -22 0zM244 473l-7 5q-9 6 1 21l74 109q9 12 22 3l30 -27q14 -11 1 -22l-99 -89q-11 -10 -22 0zM239 -8q-93 0 -147 62t-54 156q0 96 54 158.5t147 62.5q92 0 145.5 -63t53.5 -158
q0 -94 -53.5 -156t-145.5 -62zM239 59q57 0 87.5 39t30.5 113q0 73 -31 112.5t-87 39.5q-58 0 -88.5 -39t-30.5 -113t31 -113t88 -39z" />
    <glyph glyph-name="omacron.ss01" horiz-adv-x="477" 
d="M148 487q-16 0 -16 15v34q0 15 16 15h181q16 0 16 -15v-34q0 -15 -16 -15h-181zM239 -8q-93 0 -147 62t-54 156q0 96 54 158.5t147 62.5q92 0 145.5 -63t53.5 -158q0 -94 -53.5 -156t-145.5 -62zM239 59q57 0 87.5 39t30.5 113q0 73 -31 112.5t-87 39.5q-58 0 -88.5 -39
t-30.5 -113t31 -113t88 -39z" />
    <glyph glyph-name="oslash.ss01" horiz-adv-x="477" 
d="M361 390q77 -62 77 -180q0 -94 -53.5 -156t-145.5 -62q-39 0 -75 13q-7 -13 -20 -13h-21q-10 0 -14.5 7t-0.5 15l9 17q-79 60 -79 179q0 96 54 158.5t147 62.5q40 0 76 -14q6 14 19 14h28q8 0 11.5 -5.5t-0.5 -12.5zM120 211q0 -73 31 -113l132 258q-18 7 -44 7
q-58 0 -88.5 -39t-30.5 -113zM239 59q57 0 87.5 39t30.5 113q0 71 -30 112l-132 -257q23 -7 44 -7z" />
    <glyph glyph-name="otilde.ss01" horiz-adv-x="477" 
d="M99 491q-7 4 -4 12q24 65 83 65h1q42 0 73.5 -16.5t48.5 -16.5q31 0 55 25q6 6 14 2l10 -5q7 -4 4 -12q-24 -64 -82 -65h-1q-37 0 -67.5 16.5t-54.5 16.5q-33 0 -56 -25q-7 -7 -14 -2zM239 431q92 0 145.5 -63t53.5 -158q0 -94 -53.5 -156t-145.5 -62q-93 0 -147 62
t-54 156q0 96 54 158.5t147 62.5zM239 59q57 0 87.5 39t30.5 113q0 73 -31 112.5t-87 39.5q-58 0 -88.5 -39t-30.5 -113t31 -113t88 -39z" />
    <glyph glyph-name="zero.osf" horiz-adv-x="611" 
d="M306 -8q-117 0 -183 70t-66 193q0 119 66.5 190.5t182.5 71.5t182 -71.5t66 -190.5q0 -123 -65.5 -193t-182.5 -70zM306 65q43 0 74 13.5t47.5 32.5t26 47.5t11.5 50t2 47.5q0 27 -2 48t-11.5 48.5t-26 46t-47.5 31.5t-74 13q-161 0 -161 -187q0 -191 161 -191z" />
    <glyph glyph-name="one.osf" horiz-adv-x="494" 
d="M439 72q6 0 10.5 -4.5t4.5 -10.5v-43q0 -14 -15 -14h-213h-154q-15 0 -15 14v43q0 6 4.5 10.5t10.5 4.5h139v340l-114 -82q-9 -6 -16.5 -2.5t-7.5 10.5v47q0 11 15 22l131 98q4 4 17 4h49q14 0 14 -15v-422h140z" />
    <glyph glyph-name="two.osf" horiz-adv-x="531" 
d="M459 74q6 0 10.5 -4.5t4.5 -10.5v-45q0 -14 -15 -14h-387q-15 0 -15 14v22q0 6 3 11.5t6 8.5l3 2l159 131q74 62 103 96.5t29 69.5q0 37 -26 62.5t-70 25.5q-100 0 -114 -82q-3 -12 -14 -12h-59q-17 0 -15 16q4 58 54.5 105t148.5 47h1q93 0 138 -49t45 -113
q0 -38 -21 -76t-42 -57l-21 -18l-157 -130h251z" />
    <glyph glyph-name="three.osf" horiz-adv-x="582" 
d="M525 5q0 -39 -11.5 -73t-37 -65t-73 -49t-112.5 -18h-1q-114 0 -173.5 52.5t-59.5 123.5q0 17 15 17h57q14 0 14 -12q0 -51 39.5 -79t107.5 -28q70 0 109 34t39 97q0 73 -45 99t-130 26h-41q-15 0 -15 14v46q0 14 15 14h41q77 0 118 27t41 97q0 114 -132 114
q-67 0 -107 -29.5t-40 -77.5q0 -12 -14 -12h-57q-15 0 -15 17q0 72 59.5 124t173.5 52h1q63 0 107.5 -16.5t67.5 -45t33 -59t10 -65.5q0 -116 -85 -160q39 -15 70 -53.5t31 -111.5z" />
    <glyph glyph-name="four.osf" horiz-adv-x="620" 
d="M548 30q15 0 15 -14v-46q0 -14 -15 -14h-61v-133q0 -15 -14 -15h-59q-6 0 -10.5 4.5t-4.5 10.5v133h-327q-15 0 -15 14v42q0 2 2 8l312 479q4 9 15 9h87q14 0 14 -15v-463h61zM154 30h245v380z" />
    <glyph glyph-name="five.osf" horiz-adv-x="582" 
d="M525 35q0 -45 -12.5 -85t-38.5 -74.5t-75 -55t-115 -20.5h-1q-100 0 -163 56.5t-63 119.5q0 17 15 17h49q12 0 14 -12q5 -34 46 -71.5t102 -37.5q72 0 113.5 43t41.5 118q0 81 -46.5 121.5t-111.5 33.5t-123 -54q-4 -2 -8.5 -3t-7.5 -1l-3 1l-63 13q-12 3 -11 15l53 335
q2 14 15 14h336q15 0 15 -14v-46q0 -14 -15 -14h-281l-35 -221q52 35 117 42t122 -12t95.5 -73.5t38.5 -134.5z" />
    <glyph glyph-name="six.osf" horiz-adv-x="582" 
d="M305 460q91 0 155.5 -66t64.5 -163q0 -102 -65 -170.5t-162 -68.5q-142 0 -198 116q-43 90 -43 217q0 194 66 288.5t174 94.5q49 0 90 -16.5t66 -43t39 -56t17 -57.5q2 -16 -11 -16h-60q-13 0 -16 12q-33 103 -128 103q-65 0 -108 -71t-47 -195q58 92 166 92zM305 66
q59 0 96.5 45.5t37.5 114.5q0 74 -41 118.5t-95 44.5q-63 0 -105 -42.5t-42 -111.5q0 -72 34.5 -120.5t114.5 -48.5z" />
    <glyph glyph-name="seven.osf" horiz-adv-x="562" 
d="M514 507q6 -2 9 -8t0 -13l-304 -664q-9 -14 -24 -14h-53q-8 0 -12.5 7t-0.5 14l277 605h-335q-14 0 -14 14v44q0 16 14 16h439q3 0 4 -1z" />
    <glyph glyph-name="eight.osf" horiz-adv-x="582" 
d="M405 361q53 -25 86.5 -72t33.5 -104q0 -80 -64.5 -136.5t-169.5 -56.5q-103 0 -168.5 57t-65.5 137q0 57 34.5 104t88.5 71q-47 24 -76.5 68.5t-29.5 99.5q0 77 58 128t158 51q102 0 159 -50.5t57 -129.5q0 -54 -27 -99t-74 -68zM292 634q-60 0 -95.5 -29.5t-35.5 -80.5
t36 -82.5t94 -43.5q57 12 93 43.5t36 83.5q0 49 -33.5 79t-94.5 30zM292 66q64 0 104.5 32t40.5 88q0 57 -41 94t-103 53q-64 -15 -106.5 -52t-42.5 -94q0 -58 42.5 -89.5t105.5 -31.5z" />
    <glyph glyph-name="nine.osf" horiz-adv-x="582" 
d="M490 399q35 -70 35 -244q0 -180 -65 -266.5t-176 -86.5q-96 0 -154.5 58t-58.5 119q0 17 11 17h59q13 0 16 -12q5 -34 39.5 -71t83.5 -37q80 0 117 58t43 179q-46 -61 -155 -61q-105 0 -166.5 66.5t-61.5 161.5q0 109 66.5 173.5t163.5 64.5q149 0 203 -119zM286 124
q61 0 103.5 39t42.5 117q0 77 -40 121t-107 44q-59 0 -100.5 -39t-40.5 -126q0 -69 42.5 -112.5t99.5 -43.5z" />
    <glyph glyph-name="zero.dnom" horiz-adv-x="383" 
d="M192 15q-152 0 -152 228t152 228q151 0 151 -228t-151 -228zM192 80q80 0 80 164q0 162 -80 162q-81 0 -81 -162q0 -164 81 -164z" />
    <glyph glyph-name="one.dnom" horiz-adv-x="332" 
d="M283 86q9 0 9 -10v-42q0 -9 -9 -9h-143h-90q-10 0 -10 9v42q0 10 10 10h81v300l-66 -50q-5 -4 -10 -1t-5 8v44q0 6 9 13l77 62q6 3 10 3h46q9 0 9 -10v-369h82z" />
    <glyph glyph-name="two.dnom" horiz-adv-x="377" 
d="M326 85q10 0 10 -9v-43q0 -9 -10 -9h-277q-9 0 -9 9v36q0 7 6 12l166 185q41 46 41 79q0 32 -17.5 49t-48.5 17q-68 0 -79 -55q-3 -8 -9 -8h-51q-4 0 -7 3t-2 7q7 48 42 81t106 33h1q68 0 102 -35.5t34 -90.5q0 -25 -9 -47.5t-18 -32.5l-9 -10l-154 -171h192z" />
    <glyph glyph-name="three.dnom" horiz-adv-x="379" 
d="M339 146q0 -54 -35 -92.5t-114 -38.5h-1q-72 0 -110.5 34t-38.5 79q0 11 11 11h51q9 0 9 -8q0 -23 22 -38t56 -15q41 0 61 19t20 49q0 72 -98 72h-16q-9 0 -9 9v44q0 9 9 9h16q43 0 65.5 19t22.5 53q0 27 -19.5 43t-51.5 16q-35 0 -57 -15.5t-22 -40.5q0 -7 -9 -7h-50
q-11 0 -11 10q0 47 38 80t111 33h1q75 0 106.5 -34.5t31.5 -83.5q0 -73 -55 -102q66 -22 66 -105z" />
    <glyph glyph-name="four.dnom" horiz-adv-x="402" 
d="M352 174q10 0 10 -9v-40q0 -9 -10 -9h-46v-80q0 -10 -9 -10h-52q-9 0 -9 10v80h-197q-9 0 -9 9v36q0 4 2 6l195 294q3 5 9 5h61q9 0 9 -9v-283h46zM101 174h135v198z" />
    <glyph glyph-name="five.dnom" horiz-adv-x="375" 
d="M335 167q0 -62 -36.5 -107t-115.5 -45h-1q-61 0 -101.5 36.5t-40.5 77.5q0 10 9 10h49q7 0 8 -7q6 -23 26 -39.5t50 -16.5q43 1 63 27.5t20 63.5t-28 58t-63 17.5t-57 -27.5q-1 -2 -4 -2.5t-5 -0.5l-3 1l-55 8q-8 2 -7 9l36 224q2 9 10 9h211q10 0 10 -9v-44q0 -9 -10 -9
h-166l-18 -115q34 17 72 18.5t71 -11.5t54.5 -46t21.5 -80z" />
    <glyph glyph-name="six.dnom" horiz-adv-x="378" 
d="M197 313q59 0 100 -42t41 -103q0 -73 -41 -113t-106 -40q-84 0 -122 77q-29 56 -29 134q0 112 41.5 178.5t110.5 66.5q61 0 96.5 -34.5t40.5 -76.5q0 -11 -7 -11h-54q-8 0 -10 8q-7 23 -24.5 38.5t-44.5 15.5q-34 0 -54.5 -37t-23.5 -105q33 44 86 44zM195 80q73 0 73 84
q0 39 -21.5 62.5t-50.5 23.5q-32 0 -54.5 -22t-22.5 -59t19 -63t57 -26z" />
    <glyph glyph-name="seven.dnom" horiz-adv-x="342" 
d="M323 465q5 0 8 -4.5t0 -9.5l-192 -418q-4 -8 -14 -8h-48q-6 0 -8.5 3.5t-0.5 8.5l167 366h-196q-9 0 -9 9v43q0 10 9 10h283h1z" />
    <glyph glyph-name="eight.dnom" horiz-adv-x="378" 
d="M275 250q63 -44 63 -112q0 -50 -41 -86.5t-108 -36.5q-66 0 -107.5 36.5t-41.5 87.5q0 33 18 62.5t47 48.5q-55 41 -55 107q0 49 37.5 81.5t100.5 32.5q65 0 101 -32t36 -83q0 -67 -50 -106zM189 409q-69 0 -69 -55q0 -59 68 -73q67 14 67 74q0 54 -66 54zM189 77
q38 0 58.5 17.5t20.5 43.5q0 68 -78 88q-80 -20 -80 -87q0 -28 21 -45t58 -17z" />
    <glyph glyph-name="nine.dnom" horiz-adv-x="377" 
d="M314 399q23 -38 23 -159q0 -115 -41 -170t-112 -55q-60 0 -97.5 37.5t-37.5 76.5q0 11 7 11h52q8 0 10 -7q4 -19 22 -37t42 -18q38 0 58 29.5t25 94.5q-33 -28 -80 -28q-66 0 -105.5 42.5t-39.5 102.5q0 69 42.5 110.5t103.5 41.5q94 0 128 -72zM186 239q33 0 55.5 20
t22.5 61t-21.5 64.5t-56.5 23.5q-31 0 -53 -21t-22 -67q0 -37 22.5 -59t52.5 -22z" />
    <glyph glyph-name="zero.numr" horiz-adv-x="383" 
d="M192 252q-152 0 -152 228t152 228q151 0 151 -228t-151 -228zM192 317q80 0 80 164q0 162 -80 162q-81 0 -81 -162q0 -164 81 -164z" />
    <glyph glyph-name="one.numr" horiz-adv-x="332" 
d="M283 321q9 0 9 -10v-42q0 -9 -9 -9h-143h-90q-10 0 -10 9v42q0 10 10 10h81v299l-66 -49q-5 -4 -10 -1t-5 8v44q0 6 9 13l77 62q6 3 10 3h46q9 0 9 -10v-369h82z" />
    <glyph glyph-name="two.numr" horiz-adv-x="377" 
d="M327 321q10 0 10 -9v-43q0 -9 -10 -9h-277q-9 0 -9 9v36q0 7 5 10l167 187q41 46 41 79q0 32 -17.5 49t-48.5 17q-68 0 -79 -55q-3 -8 -9 -8h-51q-4 0 -7 3t-2 7q7 48 42 81t106 33h1q68 0 102 -35.5t34 -90.5q0 -25 -9 -47.5t-18 -32.5l-9 -10l-154 -171h192z" />
    <glyph glyph-name="three.numr" horiz-adv-x="379" 
d="M339 383q0 -54 -35 -92.5t-114 -38.5h-1q-72 0 -110.5 34t-38.5 79q0 11 11 11h51q9 0 9 -8q0 -23 21.5 -38t56.5 -15q41 0 61 19t20 49q0 72 -98 72h-16q-9 0 -9 9v44q0 9 9 9h16q43 0 65.5 19t22.5 53q0 27 -19 42.5t-52 16.5q-35 -1 -57 -16t-22 -40q0 -7 -9 -7h-50
q-11 0 -11 10q0 47 38 80t111 33h1q75 0 106.5 -34.5t31.5 -83.5q0 -73 -55 -102q66 -22 66 -105z" />
    <glyph glyph-name="four.numr" horiz-adv-x="402" 
d="M352 408q10 0 10 -9v-40q0 -9 -10 -9h-46v-80q0 -10 -9 -10h-52q-9 0 -9 10v80h-197q-9 0 -9 9v36q0 3 1 4l196 295q0 6 9 6h61q9 0 9 -9v-283h46zM100 408h136v197z" />
    <glyph glyph-name="five.numr" horiz-adv-x="375" 
d="M335 404q0 -62 -36.5 -107t-115.5 -45h-1q-61 0 -101.5 36.5t-40.5 77.5q0 10 9 10h49q7 0 8 -7q6 -23 26 -39t50 -17q43 1 63 27.5t20 63.5t-28 58t-63 17.5t-57 -27.5q-1 -2 -4 -2.5t-5 0.5h-3l-55 8q-8 2 -7 9l36 224q2 9 10 9h211q10 0 10 -9v-44q0 -9 -10 -9h-166
l-18 -115q34 17 72 18.5t71 -11.5t54.5 -46t21.5 -80z" />
    <glyph glyph-name="six.numr" horiz-adv-x="378" 
d="M197 550q59 0 100 -42t41 -103q0 -73 -41 -113t-106 -40q-82 0 -121 74q-30 58 -30 137q0 112 41.5 178.5t110.5 66.5q61 0 96.5 -34.5t40.5 -76.5q0 -11 -7 -11h-54q-8 0 -10 8q-7 23 -24.5 38.5t-44.5 15.5q-34 0 -54.5 -37t-23.5 -105q35 44 86 44zM195 317
q73 0 73 84q0 39 -21.5 62.5t-50.5 23.5q-32 0 -54.5 -22.5t-22.5 -58.5q0 -37 19 -63t57 -26z" />
    <glyph glyph-name="seven.numr" horiz-adv-x="342" 
d="M323 700q13 -2 8 -14l-192 -418q-4 -8 -14 -8h-48q-6 0 -8.5 3.5t-0.5 8.5l167 366h-196q-9 0 -9 9v43q0 10 9 10h283h1z" />
    <glyph glyph-name="eight.numr" horiz-adv-x="378" 
d="M274 487q29 -19 46.5 -49t17.5 -63q0 -50 -41 -86.5t-108 -36.5q-66 0 -107.5 36.5t-41.5 87.5q0 33 18 62.5t47 48.5q-55 41 -55 107q0 49 37.5 81.5t100.5 32.5q65 0 101 -32t36 -83q0 -68 -51 -106zM189 646q-69 0 -69 -55q0 -59 68 -73q67 14 67 74q0 54 -66 54z
M189 314q38 0 58.5 17.5t20.5 43.5q0 68 -78 87q-80 -18 -80 -86q0 -28 21 -45t58 -17z" />
    <glyph glyph-name="nine.numr" horiz-adv-x="377" 
d="M325 603q12 -48 12 -126q0 -115 -41 -170t-112 -55q-60 0 -97.5 37.5t-37.5 76.5q0 11 7 11h52q8 0 10 -7q4 -19 22 -37t42 -18q38 0 58 29.5t25 94.5q-33 -28 -80 -28q-66 0 -105.5 42.5t-39.5 102.5q0 69 42.5 110.5t103.5 41.5q58 0 93 -28t46 -77zM186 476
q33 0 55.5 20t22.5 61t-21.5 64.5t-56.5 23.5q-31 0 -53 -21t-22 -67q0 -37 22.5 -59t52.5 -22z" />
    <glyph glyph-name="acutecomb.cap" 
d="M-226 641q-13 -4 -20 9l-6 20q-5 11 10 19l149 77q15 8 21 -9l13 -40q5 -14 -9 -20z" />
    <glyph glyph-name="gravecomb.cap" 
d="M-85 642l-158 56q-14 6 -9 20l13 40q6 17 21 9l149 -77q15 -8 10 -19l-6 -20q-7 -13 -20 -9z" />
    <glyph glyph-name="uni030B.cap" 
d="M-185 646q-14 -5 -21 6l-6 8q-6 7 7 20l102 84q12 9 20 -3l22 -35q10 -13 -5 -21zM-343 646q-13 -6 -21 6l-6 8q-7 7 6 20l102 84q14 11 22 -3l22 -36q9 -12 -6 -21z" />
    <glyph glyph-name="hungarumlaut.cap." horiz-adv-x="430" 
d="M245 646q-14 -5 -21 6l-6 8q-6 7 7 20l101 84q13 9 21 -3l22 -35q10 -13 -5 -21zM87 646q-13 -6 -21 6l-6 8q-7 7 6 20l102 84q14 11 22 -3l22 -36q9 -12 -6 -21z" />
    <glyph glyph-name="acute.cap" horiz-adv-x="311" 
d="M85 641q-13 -4 -20 9l-6 20q-5 11 10 19l149 77q15 8 21 -9l13 -40q5 -14 -9 -20z" />
    <glyph glyph-name="grave.cap" horiz-adv-x="311" 
d="M226 642l-158 56q-14 6 -9 20l13 40q6 17 21 9l149 -77q15 -8 10 -19l-6 -20q-7 -13 -20 -9z" />
    </font>
</defs>
</svg>
