<?xml version="1.0" standalone="no"?>
<!DOCTYPE svg PUBLIC "-//W3C//DTD SVG 1.1//EN" "http://www.w3.org/Graphics/SVG/1.1/DTD/svg11.dtd" >
<svg xmlns="http://www.w3.org/2000/svg" xmlns:xlink="http://www.w3.org/1999/xlink" version="1.1">
<metadata>
Created by FontForge 20170731 at Tue Oct  6 20:11:59 2015
 By Aleksey,,,
Copyright 2015 by Paulo Goode. All rights reserved.
</metadata>
<defs>
<font id="WoodfordBourne-Bold" horiz-adv-x="0" >
  <font-face 
    font-family="Woodford Bourne Bold"
    font-weight="700"
    font-stretch="normal"
    units-per-em="1000"
    panose-1="0 0 8 0 0 0 0 0 0 0"
    ascent="800"
    descent="-200"
    x-height="423"
    cap-height="700"
    bbox="-654 -290 1364 946"
    underline-thickness="50"
    underline-position="-200"
    unicode-range="U+0020-FB02"
  />
<missing-glyph horiz-adv-x="945" 
d="M281 -34q16 0 16 -15v-106q0 -15 -16 -15h-116h-106q-6 0 -10.5 4.5t-4.5 10.5v955q0 6 4.5 10.5t10.5 4.5h122h100q16 0 16 -15v-106q0 -15 -16 -15h-86v-713h86zM886 815q6 0 10.5 -4.5t4.5 -10.5v-955q0 -6 -4.5 -10.5t-10.5 -4.5h-122h-100q-16 0 -16 15v106
q0 15 16 15h86v713h-86q-16 0 -16 15v106q0 15 16 15h116h106zM657 192q11 -12 1 -22l-53 -52q-10 -12 -22 0l-113 113l-113 -113q-12 -12 -22 0l-52 52q-11 10 1 22l113 113l-113 112q-12 11 -1 22l52 52q10 12 22 0l113 -113l113 113q12 12 22 0l53 -52q10 -10 -1 -22
l-113 -112z" />
    <glyph glyph-name="fi" unicode="fi" horiz-adv-x="576" 
d="M514 423q6 0 10.5 -4.5t4.5 -10.5v-85v-309q0 -14 -15 -14h-120q-15 0 -15 14v294h-138v-293q0 -15 -15 -15h-120q-15 0 -15 15v293h-39q-14 0 -14 15v85q0 15 14 15h39v71q1 214 205 214q108 0 182 -49q14 -9 5 -21l-50 -69q-9 -10 -19 -5q-46 30 -91 30q-82 0 -82 -104
v-67h273z" />
    <glyph glyph-name="fl" unicode="fl" horiz-adv-x="592" 
d="M527 708q6 0 10.5 -4.5t4.5 -11.5v-677q0 -15 -15 -15h-121q-14 0 -14 15v523q-10 34 -48 50v1q-16 5 -34 5q-37 0 -53 -25.5t-16 -78.5v-67h63q6 0 10.5 -4.5t4.5 -10.5v-85q0 -6 -4.5 -10.5t-10.5 -4.5h-63v-293q0 -15 -15 -15h-120q-15 0 -15 15v293h-39q-14 0 -14 15
v85q0 15 14 15h39v71q1 214 204 214q41 0 79 -10q13 -2 19 1q4 9 13 9h121z" />
    <glyph glyph-name="f_f" unicode="ff" horiz-adv-x="728" 
d="M711 680q5 -3 6.5 -8t0.5 -8.5t-2 -4.5l-51 -69q-3 -4 -7 -6t-6.5 -1.5t-3.5 1.5q-24 10 -45 10q-37 0 -53.5 -25.5t-16.5 -78.5v-67h93q6 0 10.5 -4.5t4.5 -10.5v-85q0 -6 -4.5 -10.5t-10.5 -4.5h-93v-293q0 -15 -15 -15h-120q-15 0 -15 15v293h-39h-3h-100v-293
q0 -15 -15 -15h-120q-15 0 -15 15v293h-39q-14 0 -14 15v85q0 15 14 15h39v58q1 214 204 214q82 0 133 -27l14 -7q50 47 145 47q73 0 124 -28zM383 423v57q-1 48 -6.5 65.5t-19.5 25.5h-1q-20 10 -46 10q-37 0 -53 -25.5t-16 -78.5v-54h142z" />
    <glyph glyph-name="f_f_i" unicode="ffi" horiz-adv-x="868" 
d="M806 423q6 0 10.5 -4.5t4.5 -10.5v-85v-309q0 -14 -15 -14h-120q-15 0 -15 14v294h-138v-293q0 -15 -15 -15h-120q-15 0 -15 15v293h-39h-3h-100v-293q0 -15 -15 -15h-120q-15 0 -15 15v293h-39q-14 0 -14 15v85q0 15 14 15h39v58q1 214 204 214q83 0 135 -27q4 -3 12 -7
q51 47 146 47q108 0 182 -49q14 -9 5 -21l-50 -69q-9 -10 -19 -5q-44 30 -91 30q-82 0 -82 -104v-67h273zM383 423v58q-3 78 -30 92q-17 8 -43 8q-37 0 -53 -25.5t-16 -78.5v-54h142z" />
    <glyph glyph-name="f_f_l" unicode="ffl" horiz-adv-x="889" 
d="M823 708q6 0 10.5 -4.5t4.5 -11.5v-677q0 -15 -15 -15h-121q-14 0 -14 15v526q-11 32 -47 47v1q-16 5 -34 5q-37 0 -53 -25.5t-16 -78.5v-67h62q6 0 10.5 -4.5t4.5 -10.5v-85q0 -6 -4.5 -10.5t-10.5 -4.5h-62v-293q0 -15 -15 -15h-120q-15 0 -15 15v293h-39h-3h-105v-293
q0 -15 -15 -15h-120q-15 0 -15 15v293h-39q-14 0 -14 15v85q0 15 14 15h39v58q1 214 204 214q79 0 133 -26q13 -7 17 -9q51 48 147 48q41 0 79 -10q11 -2 18 1q4 9 13 9h121zM388 423v46q-2 87 -31 102l-2 1q-21 9 -45 9q-37 0 -53 -25.5t-16 -78.5v-54h147z" />
    <glyph glyph-name=".notdef" horiz-adv-x="945" 
d="M281 -34q16 0 16 -15v-106q0 -15 -16 -15h-116h-106q-6 0 -10.5 4.5t-4.5 10.5v955q0 6 4.5 10.5t10.5 4.5h122h100q16 0 16 -15v-106q0 -15 -16 -15h-86v-713h86zM886 815q6 0 10.5 -4.5t4.5 -10.5v-955q0 -6 -4.5 -10.5t-10.5 -4.5h-122h-100q-16 0 -16 15v106
q0 15 16 15h86v713h-86q-16 0 -16 15v106q0 15 16 15h116h106zM657 192q11 -12 1 -22l-53 -52q-10 -12 -22 0l-113 113l-113 -113q-12 -12 -22 0l-52 52q-11 10 1 22l113 113l-113 112q-12 11 -1 22l52 52q10 12 22 0l113 -113l113 113q12 12 22 0l53 -52q10 -10 -1 -22
l-113 -112z" />
    <glyph glyph-name=".null" 
 />
    <glyph glyph-name="nonmarkingreturn" horiz-adv-x="333" 
 />
    <glyph glyph-name="space" unicode=" " horiz-adv-x="214" 
 />
    <glyph glyph-name="exclam" unicode="!" horiz-adv-x="253" 
d="M90 195q-14 0 -16 15l-30 483q-2 15 14 15h136q15 0 15 -15l-31 -483q0 -15 -16 -15h-72zM68 -8q-16 0 -16 15v92q0 15 16 15h117q16 0 16 -15v-92q0 -15 -16 -15h-117z" />
    <glyph glyph-name="quotedbl" unicode="&#x22;" horiz-adv-x="356" 
d="M75 453q-15 0 -16 15l-29 247q-2 15 13 15h104q13 0 12 -15l-28 -247q-1 -15 -16 -15h-40zM241 453q-15 0 -16 15l-28 247q-3 15 13 15h104q14 0 12 -15l-29 -247q-1 -15 -16 -15h-40z" />
    <glyph glyph-name="numbersign" unicode="#" horiz-adv-x="664" 
d="M603 557q5 0 10.5 -4t5.5 -11v-85q0 -7 -5.5 -11t-10.5 -4h-65l-32 -147h40q5 0 10.5 -4t5.5 -11v-85q0 -7 -5.5 -11t-10.5 -4h-66l-36 -165q-3 -15 -21 -15h-94q-19 0 -15 22l34 158h-116l-36 -165q-3 -15 -21 -15h-94q-19 0 -15 22l34 158h-40q-16 0 -16 15v85
q0 15 16 15h66l32 147h-41q-16 0 -16 15v85q0 15 16 15h66l30 136q3 15 20 15h101q15 0 11 -18l-29 -133h115l30 136q3 15 20 15h101q15 0 11 -18l-29 -133h39zM374 295l32 147h-116l-32 -147h116z" />
    <glyph glyph-name="dollar" unicode="$" horiz-adv-x="636" 
d="M595 206q0 -67 -50.5 -128.5t-149.5 -78.5v-61q0 -14 -15 -14h-123q-15 0 -15 14v59q-113 15 -188 90q-10 9 0 19l79 81q8 8 19 1q65 -53 169 -53q44 0 82 19t38 52q0 29 -27.5 43.5t-104.5 30.5q-141 28 -200.5 81t-59.5 132q0 67 50 128t143 80v58q0 17 15 17h123
q15 0 15 -17v-57q102 -17 185 -81q5 -4 5 -10.5t-4 -11.5l-79 -82q-10 -8 -19 -2q-67 50 -161 50q-56 0 -87.5 -16.5t-31.5 -44.5q0 -30 32 -48.5t103 -32.5q145 -27 201 -78.5t56 -138.5z" />
    <glyph glyph-name="percent" unicode="%" horiz-adv-x="1007" 
d="M210 252q-85 0 -127.5 53.5t-42.5 174.5t42.5 175t127.5 54t127 -54t42 -175t-42 -174.5t-127 -53.5zM292 0q-10 0 -14.5 7t-0.5 15l335 663q7 15 20 15h82q8 0 11.5 -5t-0.5 -13l-335 -667q-8 -15 -21 -15h-77zM210 366q35 0 48 28.5t13 85.5q0 58 -13 86.5t-48 28.5
t-48.5 -29t-13.5 -86t13.5 -85.5t48.5 -28.5zM799 15q-85 0 -127.5 53.5t-42.5 174.5t42.5 175t127.5 54t127 -54t42 -175t-42 -174.5t-127 -53.5zM799 129q35 0 48 28.5t13 85.5q0 58 -13 86.5t-48 28.5t-48.5 -29t-13.5 -86t13.5 -85.5t48.5 -28.5z" />
    <glyph glyph-name="ampersand" unicode="&#x26;" horiz-adv-x="653" 
d="M627 98q11 -10 1 -20l-69 -72q-12 -12 -22 -2q-71 63 -101 91q-86 -103 -191 -103q-95 0 -154 57.5t-59 142.5q0 100 129 196q-63 90 -63 147q0 81 49 127t120 46q74 0 120 -43.5t46 -117.5q0 -93 -104 -171q34 -40 92 -94q48 48 99 82q11 8 21 -2l60 -73q8 -11 -2 -20
q-38 -26 -83 -75q52 -48 111 -96zM225 547q-1 -30 36 -87q47 44 47 87q0 22 -11.5 37t-29.5 15q-19 0 -30.5 -15.5t-11.5 -36.5zM246 118q27 0 49 16.5t47 49.5q-64 63 -115 121q-57 -53 -57 -113q0 -33 19.5 -53.5t56.5 -20.5z" />
    <glyph glyph-name="quotesingle" unicode="'" horiz-adv-x="189" 
d="M75 453q-15 0 -16 15l-29 247q-2 15 13 15h104q13 0 12 -15l-28 -247q-1 -15 -16 -15h-40z" />
    <glyph glyph-name="parenleft" unicode="(" horiz-adv-x="345" 
d="M216 -104q-11 -6 -20 3q-63 73 -107.5 198.5t-44.5 249.5t42 243t105 193q10 12 24 5l75 -40q16 -7 8 -21q-47 -70 -74.5 -175t-25.5 -206q-2 -216 102 -384q6 -12 -7 -18z" />
    <glyph glyph-name="parenright" unicode=")" horiz-adv-x="345" 
d="M129 -104l-77 48q-13 6 -7 18q104 168 102 384q2 101 -25.5 206t-74.5 175q-8 14 8 21l75 40q14 7 24 -5q63 -74 105 -193t42 -243q0 -125 -44.5 -250.5t-107.5 -197.5q-9 -9 -20 -3z" />
    <glyph glyph-name="asterisk" unicode="*" horiz-adv-x="366" 
d="M305 589q4 -14 -8 -17l-89 -13l63 -65q7 -12 -4 -19l-42 -29q-12 -8 -19 4l-38 77l-37 -78q-7 -12 -19 -4l-42 30q-11 7 -4 19l63 65l-90 13q-12 3 -8 17l16 49q4 13 17 9l79 -40l-15 87q0 14 14 14h52q14 0 14 -13l-15 -88l79 40q13 3 18 -9z" />
    <glyph glyph-name="plus" unicode="+" horiz-adv-x="518" 
d="M458 393q16 0 16 -15v-73q0 -15 -16 -15h-141v-147q0 -16 -15 -16h-86q-15 0 -15 16v147h-141q-16 0 -16 15v73q0 15 16 15h141v148q0 16 15 16h86q15 0 15 -16v-148h141z" />
    <glyph glyph-name="comma" unicode="," horiz-adv-x="212" 
d="M168 104v-89q0 -1 -0.5 -3t-0.5 -3l-49 -117h-45q-5 0 -8.5 4.5t-0.5 11.5l37 92h-45q-16 0 -16 15v89q0 15 16 15h96q16 0 16 -15z" />
    <glyph glyph-name="hyphen" unicode="-" horiz-adv-x="376" 
d="M60 222q-16 0 -16 15v73q0 15 16 15h256q16 0 16 -15v-73q0 -15 -16 -15h-256z" />
    <glyph glyph-name="period" unicode="." horiz-adv-x="204" 
d="M48 0q-16 0 -16 15v89q0 15 16 15h96q16 0 16 -15v-89q0 -15 -16 -15h-96z" />
    <glyph glyph-name="slash" unicode="/" horiz-adv-x="485" 
d="M136 0h-91q-10 0 -14.5 7t-0.5 15l288 663q6 15 20 15h97q8 0 11 -5.5t0 -12.5l-289 -667q-7 -15 -21 -15z" />
    <glyph glyph-name="zero" unicode="0" horiz-adv-x="619" 
d="M310 -8q-134 0 -200 84t-66 274t66 274t200 84t199.5 -84t65.5 -274t-65.5 -274t-199.5 -84zM310 127q71 0 94 51t23 172q0 120 -23 171.5t-94 51.5q-70 0 -93.5 -51.5t-23.5 -171.5t23.5 -171.5t93.5 -51.5z" />
    <glyph glyph-name="one" unicode="1" horiz-adv-x="525" 
d="M470 126q6 0 10.5 -4.5t4.5 -10.5v-97q0 -14 -15 -14h-267h-144q-15 0 -15 14v97q0 6 4.5 10.5t10.5 4.5h129v413l-111 -38q-7 -2 -12.5 2.5t-5.5 10.5v96q0 8 15 16l122 70q8 4 17 4h115q14 0 14 -15v-559h128z" />
    <glyph glyph-name="two" unicode="2" horiz-adv-x="588" 
d="M529 136q6 0 10.5 -4.5t4.5 -10.5v-107q0 -14 -15 -14h-462q-15 0 -15 14v87q0 5 5 10h-1l205 225q112 114 112 163q0 38 -19 55.5t-60 18.5q-52 -1 -76.5 -23t-26.5 -56q0 -12 -14 -12h-118q-15 0 -15 16q1 38 13 71.5t38.5 66.5t78 52.5t121.5 19.5h1q121 0 177.5 -59
t56.5 -149q0 -44 -18 -85t-36 -60l-18 -19l-183 -200h254z" />
    <glyph glyph-name="three" unicode="3" horiz-adv-x="588" 
d="M544 199q0 -40 -12 -74.5t-39 -65.5t-77.5 -49t-120.5 -18h-1q-66 0 -116.5 18t-78.5 47.5t-41.5 62t-13.5 67.5q0 17 15 17h118q14 0 14 -12q2 -63 103 -65q102 2 102 79q0 48 -25 62.5t-103 14.5h-27q-15 0 -15 14v107q0 14 15 14h27q73 0 94.5 16t21.5 64q0 73 -90 75
q-48 -1 -75 -18t-28 -47q0 -12 -14 -12h-118q-15 0 -15 17q0 35 13.5 67.5t41.5 62t78.5 47.5t116.5 18h1q66 0 114.5 -17.5t74 -48t37 -64t11.5 -72.5q0 -114 -83 -151q95 -37 95 -156z" />
    <glyph glyph-name="four" unicode="4" horiz-adv-x="620" 
d="M561 272q15 0 15 -14v-108q0 -14 -15 -14h-52v-121q0 -15 -14 -15h-125q-6 0 -10.5 4.5t-4.5 10.5v121h-296q-15 0 -15 14v89q0 2 0.5 3.5t0.5 2.5h1v1l281 445q4 9 16 9h152q14 0 14 -15v-413h52zM197 272h158v254z" />
    <glyph glyph-name="five" unicode="5" horiz-adv-x="588" 
d="M544 230q0 -46 -12.5 -85.5t-39.5 -75t-78 -56.5t-121 -21h-1q-64 0 -114 18.5t-78 48t-42 62.5t-14 66q0 17 15 17h116q14 0 14 -12q2 -26 29.5 -45.5t73.5 -19.5q48 0 76 28t28 78q0 82 -64.5 103.5t-143.5 -33.5q-4 -2 -8.5 -3t-7.5 0h-3l-111 22q-12 3 -11 15l55 349
q2 14 15 14h372q15 0 15 -14v-107q0 -14 -15 -14l-271 -1l-19 -125q62 28 123.5 24.5t111 -28t80 -78.5t30.5 -127z" />
    <glyph glyph-name="six" unicode="6" horiz-adv-x="588" 
d="M319 468q100 0 162.5 -67t62.5 -164q0 -106 -71 -175.5t-169 -69.5q-66 0 -118.5 30.5t-85.5 82.5q-56 79 -56 227q0 172 71.5 274t193.5 102q96 0 153 -56.5t58 -120.5q0 -16 -11 -16h-120q-10 0 -16 12q-18 46 -72 46q-51 0 -80 -38.5t-31 -114.5q46 48 129 48z
M306 127q39 0 66.5 31.5t28.5 77.5q-1 47 -29.5 78.5t-66.5 31.5q-40 0 -69 -31t-29 -77t27 -78.5t72 -32.5z" />
    <glyph glyph-name="seven" unicode="7" horiz-adv-x="566" 
d="M533 699q6 -2 9 -8t0 -13l-316 -664q-9 -14 -24 -14h-125q-8 0 -12.5 7t-0.5 14l257 543h-263q-14 0 -14 14v106q0 16 14 16h471q3 0 4 -1z" />
    <glyph glyph-name="eight" unicode="8" horiz-adv-x="588" 
d="M447 352q97 -52 97 -160q0 -87 -65.5 -143.5t-184.5 -56.5q-118 0 -184 56.5t-66 143.5q0 107 97 159q-38 29 -59 71.5t-21 88.5q0 82 61 139.5t171 57.5q111 0 171.5 -57.5t60.5 -139.5q0 -99 -78 -159zM294 573q-38 0 -61.5 -20.5t-23.5 -50.5q0 -29 23 -52.5t63 -36.5
q82 24 82 85q0 33 -22 54t-61 21zM294 127q43 0 72.5 18.5t29.5 55.5q0 35 -27.5 62t-72.5 40q-47 -13 -75.5 -40t-28.5 -62q0 -37 29.5 -55.5t72.5 -18.5z" />
    <glyph glyph-name="nine" unicode="9" horiz-adv-x="588" 
d="M494 600q50 -82 50 -255q0 -180 -70.5 -266.5t-191.5 -86.5q-105 0 -164.5 57.5t-59.5 119.5q0 17 11 17h120q10 0 16 -12q6 -18 26.5 -32.5t50.5 -14.5q52 0 80 31.5t32 100.5q-33 -27 -102 -27q-116 0 -182 67.5t-66 169.5q0 111 71.5 175t179.5 64q141 0 199 -108z
M293 361q41 0 68.5 30t27.5 78q0 49 -27 79.5t-71 30.5q-40 0 -70.5 -28t-29.5 -82q1 -51 33 -79.5t69 -28.5z" />
    <glyph glyph-name="colon" unicode=":" horiz-adv-x="231" 
d="M76 311q-16 0 -16 15v88q0 15 16 15h95q16 0 16 -15v-88q0 -15 -16 -15h-95zM76 0q-16 0 -16 15v88q0 15 16 15h95q16 0 16 -15v-88q0 -15 -16 -15h-95z" />
    <glyph glyph-name="semicolon" unicode=";" horiz-adv-x="240" 
d="M172 315h-96q-16 0 -16 15v90q0 15 16 15h96q16 0 16 -15v-90q0 -15 -16 -15zM196 104v-89q0 -3 -2 -7l-48 -116h-45q-5 0 -8.5 4.5t-0.5 11.5l37 92h-45q-16 0 -16 15v89q0 15 16 15h96q16 0 16 -15z" />
    <glyph glyph-name="less" unicode="&#x3c;" horiz-adv-x="554" 
d="M499 236q13 -6 9 -20l-27 -67q-6 -14 -21 -8l-405 165q-11 4 -11 13v61q0 9 11 13l405 165q16 6 21 -8l27 -67q4 -14 -9 -20l-278 -113z" />
    <glyph glyph-name="equal" unicode="=" horiz-adv-x="542" 
d="M60 392q-16 0 -16 15v73q0 15 16 15h422q16 0 16 -15v-73q0 -15 -16 -15h-422zM60 190q-16 0 -16 15v73q0 15 16 15h422q16 0 16 -15v-73q0 -15 -16 -15h-422z" />
    <glyph glyph-name="greater" unicode="&#x3e;" horiz-adv-x="554" 
d="M509 377v-55q3 -12 -10 -16l-405 -165q-15 -6 -21 8l-28 67q-4 14 9 20l279 114l-278 113q-14 6 -9 20l27 67q5 14 21 8l405 -165q13 -4 10 -16z" />
    <glyph glyph-name="question" unicode="?" horiz-adv-x="512" 
d="M262 708q62 0 106 -18t67.5 -49.5t33.5 -65t10 -72.5q0 -59 -22 -98t-65 -76q-60 -51 -82 -82.5t-22 -63.5q0 -14 -13 -14h-112q-14 0 -14 14q0 64 15.5 102.5t67.5 86.5q42 37 58.5 53t29 36t12.5 40q0 71 -70 72q-38 -1 -58.5 -26.5t-22.5 -63.5q0 -5 -5 -8t-9 -2
l-119 3q-13 1 -13 17q3 98 59 156.5t167 58.5h1zM279 114q16 0 16 -15v-92q0 -15 -16 -15h-117q-16 0 -16 15v92q0 15 16 15h117z" />
    <glyph glyph-name="at" unicode="@" horiz-adv-x="1003" 
d="M712 616q116 0 172 -46.5t56 -146.5v-283q0 -73 -47.5 -113.5t-144.5 -40.5t-143 71q-49 -65 -137 -65q-101 0 -151 62.5t-50 157.5q0 97 52 158t149 61q67 0 113 -38l10 14q12 16 24 16h80q14 0 14 -16v-262q0 -24 11 -36t28 -12q47 0 47 70v256q0 38 -21.5 60t-61.5 22
h-254q-112 0 -186 -77t-74 -218q0 -106 52 -189q5 -6 1.5 -13.5t-12.5 -7.5h-116q-20 0 -33 21q-37 83 -37 189q-1 178 114.5 292t290.5 114h254zM488 101q45 0 63 28t18 81q0 110 -81 110q-39 0 -61 -29.5t-22 -79.5q0 -49 22 -79.5t61 -30.5z" />
    <glyph glyph-name="A" unicode="A" horiz-adv-x="740" 
d="M706 20q3 -7 -1.5 -13.5t-12.5 -6.5h-123q-10 0 -13 10l-35 81h-303l-35 -82q-4 -9 -13 -9h-123q-7 0 -11.5 6.5t-1.5 14.5l293 678q5 9 13 9h40h18q11 0 14 -9zM277 226h185l-93 215z" />
    <glyph glyph-name="B" unicode="B" horiz-adv-x="625" 
d="M573 199q0 -82 -53.5 -140t-128.5 -59h-1h-202h-110q-6 0 -10.5 4.5t-4.5 10.5v670q0 6 4.5 10.5t10.5 4.5h125h167h1q76 -1 128.5 -57.5t52.5 -139.5q0 -88 -65 -144q39 -26 62.5 -68.5t23.5 -91.5zM327 564h-110v-150h112q11 0 25 4t29.5 22.5t15.5 48.5q0 23 -17 49
t-55 26zM347 136q38 0 55 27t17 50q0 24 -9 40.5t-23 22.5t-22.5 8t-15.5 2h-46h-86v-150h130z" />
    <glyph glyph-name="C" unicode="C" horiz-adv-x="704" 
d="M391 -8q-148 0 -253 105t-105 253t105 253t253 105q80 0 150.5 -32t117.5 -91q9 -9 1 -21l-82 -81q-11 -13 -21 1q-27 39 -71 64t-95 25q-87 0 -145.5 -65t-58.5 -158t58.5 -158t145.5 -65q108 0 177 92q9 13 22 1l76 -75q10 -11 0 -21q-50 -62 -121.5 -97t-153.5 -35z
" />
    <glyph glyph-name="D" unicode="D" horiz-adv-x="689" 
d="M646 349q0 -164 -86.5 -255.5t-219.5 -93.5h-179h-83q-6 0 -10.5 4.5t-4.5 10.5v670q0 6 4.5 10.5t10.5 4.5h125h141q133 -3 217.5 -92.5t84.5 -258.5zM335 136q73 0 115 55.5t42 157.5q0 105 -41.5 160t-115.5 55h-118v-428h118z" />
    <glyph glyph-name="E" unicode="E" horiz-adv-x="561" 
d="M507 136q6 0 10.5 -4.5t4.5 -10.5v-106q0 -6 -4.5 -10.5t-10.5 -4.5h-356h-73q-6 0 -10.5 4.5t-4.5 10.5v670q0 6 4.5 10.5t10.5 4.5h125h303q14 0 14 -15v-106q0 -15 -14 -15h-289v-150h190q15 0 15 -14v-108q0 -14 -15 -14h-190v-142h290z" />
    <glyph glyph-name="F" unicode="F" horiz-adv-x="550" 
d="M504 700q6 0 10.5 -4.5t4.5 -10.5v-106q0 -6 -4.5 -10.5t-10.5 -4.5h-287v-155h197q15 0 15 -14v-108q0 -14 -15 -14h-197v-258q0 -15 -14 -15h-125q-6 0 -10.5 4.5t-4.5 10.5v670q0 6 4.5 10.5t10.5 4.5h125h301z" />
    <glyph glyph-name="G" unicode="G" horiz-adv-x="720" 
d="M648 350q14 0 14 -14v-79v-180q0 -6 -5 -11q-43 -37 -124 -55.5t-146 -18.5q-87 0 -167 42.5t-133.5 126.5t-53.5 189q0 106 55 190t135.5 126t165.5 42q81 0 152 -31t120 -90q9 -11 -1 -21l-81 -81q-4 -4 -10.5 -4.5t-10.5 5.5q-26 37 -71.5 62t-97.5 25q-84 0 -143 -66
t-59 -157q0 -89 59 -156t141 -67q64 0 115 27v89h-74q-15 0 -15 14v79q0 14 15 14h220z" />
    <glyph glyph-name="H" unicode="H" horiz-adv-x="714" 
d="M636 700q14 0 14 -15v-670q0 -15 -14 -15h-125q-15 0 -15 15v263h-279v-263q0 -15 -14 -15h-125q-6 0 -10.5 4.5t-4.5 10.5v670q0 6 4.5 10.5t10.5 4.5h125q14 0 14 -15v-271h279v271q0 15 15 15h125z" />
    <glyph glyph-name="I" unicode="I" horiz-adv-x="298" 
d="M86 0q-6 0 -10.5 4.5t-4.5 10.5v670q0 6 4.5 10.5t10.5 4.5h125q14 0 14 -15v-670q0 -15 -14 -15h-125z" />
    <glyph glyph-name="J" unicode="J" horiz-adv-x="517" 
d="M439 700q6 0 10.5 -4.5t4.5 -11.5v-460v-1q-2 -106 -69.5 -168.5t-152.5 -62.5q-68 0 -125.5 36t-84.5 100q-5 13 7 18l90 49q15 6 20 -8q27 -52 79 -53q9 0 20 3t26.5 12t25.5 29t10 49v457q0 16 14 16h125z" />
    <glyph glyph-name="K" unicode="K" horiz-adv-x="673" 
d="M359 350l278 -326q6 -6 3 -15t-14 -9h-129q-17 0 -29 15l-251 293v-293q0 -15 -14 -15h-125q-6 0 -10.5 4.5t-4.5 10.5v670q0 6 4.5 10.5t10.5 4.5h125q14 0 14 -15v-293l251 293q11 15 29 15h129q10 0 14 -8.5t-2 -15.5z" />
    <glyph glyph-name="L" unicode="L" horiz-adv-x="555" 
d="M503 136q14 0 14 -15v-106q0 -15 -14 -15h-336h-97q-6 0 -10.5 4.5t-4.5 10.5v669q0 7 4.5 11.5t10.5 4.5h125q14 0 14 -16v-548h294z" />
    <glyph glyph-name="M" unicode="M" horiz-adv-x="845" 
d="M767 700q14 0 14 -15v-671q0 -14 -14 -14h-125q-15 0 -15 14v336l-175 -343q-9 -15 -22 -15h-12h-3q-12 0 -21 15l-177 345v-338q0 -14 -15 -14h-125q-14 0 -14 14v671q0 15 14 15h92h31q14 0 22 -15l201 -422l200 422q7 15 22 15h74h48z" />
    <glyph glyph-name="N" unicode="N" horiz-adv-x="705" 
d="M627 700q6 0 10.5 -4.5t4.5 -10.5v-671q0 -14 -15 -14h-89h-16q-14 0 -25 14l-280 411v-411q0 -14 -14 -14h-125q-15 0 -15 14v671q0 6 4.5 10.5t10.5 4.5h90h21q13 0 24 -15l275 -403v403q0 15 14 15h125z" />
    <glyph glyph-name="O" unicode="O" horiz-adv-x="781" 
d="M391 -8q-148 0 -253 104.5t-105 252.5q0 149 105 254t253 105t252.5 -105t104.5 -254q0 -148 -104.5 -252.5t-252.5 -104.5zM391 128q86 0 144.5 64.5t58.5 156.5t-58.5 157t-144.5 65t-145 -65t-59 -157t59 -156.5t145 -64.5z" />
    <glyph glyph-name="P" unicode="P" horiz-adv-x="583" 
d="M550 473q0 -110 -54.5 -167.5t-135.5 -58.5h-151v-233q0 -14 -14 -14h-125q-15 0 -15 14v671q0 15 15 15h125h172q77 -1 130 -64.5t53 -162.5zM321 383q75 0 75 90q0 91 -77 91h-110v-181h112z" />
    <glyph glyph-name="Q" unicode="Q" horiz-adv-x="800" 
d="M747 59q9 -9 0 -20l-78 -78q-10 -10 -20 0l-80 80q-84 -49 -180 -49q-148 0 -253 104.5t-105 252.5q0 149 105 254t253 105t252.5 -105t104.5 -254q0 -121 -73 -216zM185 349q0 -92 59 -156.5t145 -64.5t144.5 64.5t58.5 156.5t-58.5 157t-144.5 65t-145 -65t-59 -157z
" />
    <glyph glyph-name="R" unicode="R" horiz-adv-x="658" 
d="M603 21q5 -9 -0.5 -15t-12.5 -6h-123q-13 0 -21 15l-122 236h-115v-237q0 -14 -14 -14h-125q-15 0 -15 14v671q0 15 15 15h125h220q76 -1 129.5 -62t53.5 -160q0 -84 -34.5 -139t-90.5 -76zM209 564v-176h162q26 0 49.5 20t23.5 70q0 10 -1.5 19.5t-7.5 27t-23 28.5
t-43 11h-160z" />
    <glyph glyph-name="S" unicode="S" horiz-adv-x="633" 
d="M316 -8q-171 0 -266 95q-10 10 0 20l78 80q9 9 20 1q67 -53 169 -53q41 0 80 17.5t39 53.5q0 29 -27.5 44t-103.5 30q-142 28 -201 81.5t-59 131.5q0 35 15 70.5t44.5 69t83.5 54.5t123 21q154 0 264 -87q12 -11 1 -22l-78 -82q-10 -8 -19 -2q-66 50 -162 50
q-55 0 -86.5 -16t-31.5 -45q0 -30 30.5 -48t103.5 -33q136 -25 196.5 -76.5t60.5 -140.5q0 -36 -14.5 -71t-45 -68.5t-86 -54t-128.5 -20.5z" />
    <glyph glyph-name="T" unicode="T" horiz-adv-x="611" 
d="M568 700q6 0 10 -5t4 -11v-105q0 -15 -14 -15h-183v-549q0 -6 -4.5 -10.5t-10.5 -4.5h-125q-14 0 -14 15v549h-183q-6 0 -10.5 4.5t-4.5 10.5v105q0 6 4.5 11t10.5 5h227h95h198z" />
    <glyph glyph-name="U" unicode="U" horiz-adv-x="667" 
d="M590 700q14 0 14 -16v-372q0 -58 -5 -100.5t-22 -86.5t-46 -71t-80 -44.5t-121 -17.5q-83 0 -139.5 24.5t-85 71.5t-39.5 100t-11 124v372q0 7 4.5 11.5t10.5 4.5h125q14 0 14 -16v-366q0 -47 4 -77t15.5 -58t36.5 -41.5t65 -13.5q39 0 64 13.5t36.5 41.5t15.5 58t4 77
v366q0 7 4.5 11.5t10.5 4.5h125z" />
    <glyph glyph-name="V" unicode="V" horiz-adv-x="720" 
d="M683 700q7 0 11.5 -6.5t1.5 -14.5l-292 -669q-5 -10 -14 -10h-40h-19q-10 0 -14 11l-292 668q-4 9 1 15t12 6h120q15 0 21 -15l182 -423l180 423q7 15 21 15h121z" />
    <glyph glyph-name="W" unicode="W" horiz-adv-x="992" 
d="M954 700q7 0 11.5 -6t1.5 -14l-252 -670q-3 -10 -13 -10h-55q-9 0 -13 9l-138 383l-136 -382q-4 -10 -14 -10h-55q-10 0 -14 10l-252 670q-2 8 2.5 14t11.5 6h120q9 0 13 -10l150 -394l123 393q3 10 14 10h70h3q10 0 14 -10l124 -393l150 394q4 10 14 10h120z" />
    <glyph glyph-name="X" unicode="X" horiz-adv-x="673" 
d="M648 22q4 -6 0.5 -14t-13.5 -8h-129q-14 0 -24 14l-145 220l-145 -220q-10 -14 -25 -14h-129q-8 0 -12.5 7t0.5 16l225 341l-206 313q-5 9 -0.5 16t12.5 7h129q15 0 24 -15l127 -192l127 192q9 15 24 15h129q8 0 12.5 -7.5t-0.5 -15.5l-206 -314z" />
    <glyph glyph-name="Y" unicode="Y" horiz-adv-x="665" 
d="M618 700q8 0 13 -7.5t0 -15.5l-223 -380v-283q0 -14 -15 -14h-124q-15 0 -15 14v283l-222 381q-4 8 1 15t12 7h126q14 0 25 -15l135 -239l137 239q11 15 24 15h126z" />
    <glyph glyph-name="Z" unicode="Z" horiz-adv-x="644" 
d="M582 700q8 0 12.5 -7t0.5 -15l-309 -542h288q5 0 9.5 -4.5t4.5 -10.5v-106q0 -15 -14 -15h-503h-5q-8 0 -12.5 7t-0.5 14l310 543h-272q-14 0 -14 14v106q0 16 14 16h487h4z" />
    <glyph glyph-name="bracketleft" unicode="[" horiz-adv-x="341" 
d="M281 679h-86v-713h86q16 0 16 -15v-106q0 -15 -16 -15h-116h-106q-6 0 -10.5 4.5t-4.5 10.5v955q0 6 4.5 10.5t10.5 4.5h122h100q16 0 16 -15v-106q0 -15 -16 -15z" />
    <glyph glyph-name="backslash" unicode="\" horiz-adv-x="494" 
d="M349 0q-13 0 -21 15l-289 667q-3 7 0 12.5t11 5.5h97q14 0 20 -15l288 -663q4 -8 -0.5 -15t-14.5 -7h-91z" />
    <glyph glyph-name="bracketright" unicode="]" horiz-adv-x="341" 
d="M282 815q6 0 10.5 -4.5t4.5 -10.5v-955q0 -6 -4.5 -10.5t-10.5 -4.5h-122h-100q-16 0 -16 15v106q0 15 16 15h86v713h-86q-16 0 -16 15v106q0 15 16 15h116h106z" />
    <glyph glyph-name="asciicircum" unicode="^" horiz-adv-x="403" 
d="M357 581q5 -8 0 -15t-15 -7h-44q-10 0 -21 15l-75 111l-76 -111q-10 -15 -21 -15h-44q-10 0 -15 7t0 15l110 204q8 15 20 15h51q12 0 20 -15z" />
    <glyph glyph-name="underscore" unicode="_" horiz-adv-x="588" 
d="M60 -130q-16 0 -16 15v41q0 15 16 15h468q16 0 16 -15v-41q0 -15 -16 -15h-468z" />
    <glyph glyph-name="grave" unicode="`" horiz-adv-x="294" 
d="M210 635l-159 107q-12 9 -3 22l38 58q12 13 23 2l134 -143q11 -11 4 -21l-15 -22q-9 -11 -22 -3z" />
    <glyph glyph-name="a" unicode="a" horiz-adv-x="520" 
d="M462 423q14 0 14 -16v-392q0 -6 -4.5 -10.5t-9.5 -4.5h-88q-19 0 -28 19l-9 20q-47 -47 -112 -47q-100 0 -150.5 62t-50.5 157q0 97 52 158.5t149 61.5q66 0 111 -40l12 16q12 16 24 16h90zM244 101q83 0 83 108q0 111 -82 111q-39 0 -61 -30.5t-22 -79.5q0 -47 22.5 -78
t59.5 -31z" />
    <glyph glyph-name="b" unicode="b" horiz-adv-x="526" 
d="M291 431q98 0 150.5 -62.5t52.5 -158.5q0 -94 -52 -156t-151 -62q-71 0 -118 45l-9 -18q-9 -19 -27 -19h-74q-6 0 -10.5 4.5t-4.5 10.5v677q0 7 4.5 11.5t10.5 4.5h120q15 0 15 -16v-287q41 26 93 26zM271 101q41 0 63 31t22 80q0 48 -21 78t-64 30q-80 0 -80 -110
q0 -109 80 -109z" />
    <glyph glyph-name="c" unicode="c" horiz-adv-x="470" 
d="M256 -8q-91 0 -157.5 64t-66.5 154q0 91 66.5 156t157.5 65q110 0 171 -73q7 -10 -1 -19l-55 -58q-11 -9 -20 1q-33 38 -85 38q-44 0 -70 -31t-26 -79q0 -47 26 -78.5t70 -31.5q30 0 54 13.5t37 32.5q8 13 21 2l56 -54q8 -10 2 -19q-28 -39 -76.5 -61t-103.5 -22z" />
    <glyph glyph-name="d" unicode="d" horiz-adv-x="526" 
d="M464 708q14 0 14 -16v-677q0 -15 -14 -15h-75q-18 0 -27 19l-10 19q-48 -46 -121 -46q-99 0 -149 62t-50 157q0 97 52 158.5t148 61.5q55 0 96 -27v288q0 7 4.5 11.5t10.5 4.5h121zM255 101q80 0 80 111q0 108 -81 108q-40 0 -62 -30.5t-22 -78.5q0 -49 22.5 -79.5
t62.5 -30.5z" />
    <glyph glyph-name="e" unicode="e" horiz-adv-x="501" 
d="M245 431q108 0 162 -63t54 -179q0 -6 -4.5 -10.5t-10.5 -4.5h-122h-158q9 -35 33.5 -56.5t55.5 -21.5q67 0 112 35q12 10 21 -3l44 -53q9 -12 0 -21q-31 -29 -81.5 -45.5t-103.5 -16.5q-92 0 -157.5 62t-65.5 156q0 95 67.5 158t153.5 63zM245 330q-64 0 -79 -77h155
q-7 33 -26.5 55t-49.5 22z" />
    <glyph glyph-name="f" unicode="f" horiz-adv-x="436" 
d="M418 680q5 -3 7 -8t1 -8.5t-2 -4.5l-51 -69q-3 -4 -7 -6t-6.5 -1.5t-3.5 1.5q-24 10 -46 10q-37 0 -53 -25.5t-16 -78.5v-67h93q6 0 10.5 -4.5t4.5 -10.5v-85q0 -6 -4.5 -10.5t-10.5 -4.5h-93v-293q0 -15 -15 -15h-120q-15 0 -15 15v293h-39q-14 0 -14 15v85q0 15 14 15
h39v71q1 214 204 214q74 0 123 -28z" />
    <glyph glyph-name="g" unicode="g" horiz-adv-x="518" 
d="M460 423q14 0 14 -16v-392v-61q0 -98 -67.5 -157.5t-173.5 -59.5q-58 0 -108 23.5t-78 64.5q-7 9 2 18l57 55q12 10 19 -2q37 -50 108 -50q40 0 71.5 26.5t31.5 78.5v79q-46 -38 -116 -38q-96 0 -146 63t-50 157q0 96 51.5 157.5t143.5 61.5q72 0 117 -39l11 15
q12 16 24 16h89zM245 101q82 0 82 109q0 110 -83 110q-39 0 -60.5 -30.5t-21.5 -78.5t22 -79t61 -31z" />
    <glyph glyph-name="h" unicode="h" horiz-adv-x="539" 
d="M309 431q83 0 134.5 -53.5t51.5 -156.5v-206q0 -15 -14 -15h-121q-15 0 -15 15v220q0 38 -18.5 61.5t-53.5 23.5q-34 0 -54.5 -22t-20.5 -52v-231q0 -15 -14 -15h-121q-15 0 -15 15v677q0 16 15 16h121q14 0 14 -16v-298q50 37 111 37z" />
    <glyph glyph-name="i" unicode="i" horiz-adv-x="263" 
d="M132 542q-34 0 -58 23.5t-24 56.5q0 34 24 58t58 24q33 0 57 -24t24 -58q0 -33 -24 -56.5t-57 -23.5zM72 0q-15 0 -15 14v392q0 17 15 17h120q15 0 15 -17v-392q0 -14 -15 -14h-120z" />
    <glyph glyph-name="j" unicode="j" horiz-adv-x="276" 
d="M150 540q-34 0 -57.5 23.5t-23.5 57.5t23.5 58t57.5 24t57.5 -24t23.5 -58t-23.5 -57.5t-57.5 -23.5zM20 -280q-143 0 -181 114q-5 12 6 17l90 37q14 8 20 -5q25 -54 66 -54q54 0 54 90v489q0 15 14 15h121q6 0 10.5 -4.5t4.5 -10.5v-473q1 -102 -54.5 -158.5
t-150.5 -56.5z" />
    <glyph glyph-name="k" unicode="k" horiz-adv-x="535" 
d="M512 23q5 -6 1 -14.5t-13 -8.5h-120q-15 0 -27 14l-155 186v-185q0 -15 -15 -15h-121q-14 0 -14 15v677q0 16 14 16h121q6 0 10.5 -4.5t4.5 -11.5v-445l139 161q13 15 24 15h120q8 0 13 -8t-2 -16l-152 -173z" />
    <glyph glyph-name="l" unicode="l" horiz-adv-x="251" 
d="M64 0q-14 0 -14 15v677q0 16 14 16h121q6 0 10.5 -4.5t4.5 -11.5v-677q0 -15 -15 -15h-121z" />
    <glyph glyph-name="m" unicode="m" horiz-adv-x="821" 
d="M585 431q99 0 145.5 -49.5t46.5 -157.5v-209q0 -6 -4.5 -10.5t-10.5 -4.5h-121q-14 0 -14 15v223q0 37 -18.5 59.5t-51.5 22.5q-32 0 -51.5 -21.5t-20.5 -53.5v-230q0 -15 -15 -15h-121q-14 0 -14 15v220q0 85 -67 85q-33 0 -53.5 -21t-21.5 -52l1 -232q0 -15 -14 -15
h-121q-15 0 -15 15v391q0 7 4.5 12t10.5 5h105q13 0 18 -17l10 -30q52 55 124 55q89 0 134 -59q65 59 135 59z" />
    <glyph glyph-name="n" unicode="n" horiz-adv-x="552" 
d="M316 431q100 0 146 -50t46 -138v-228q0 -7 -5.5 -11t-10.5 -4h-119q-15 0 -15 15v222q0 37 -20.5 60t-58.5 23q-37 0 -61 -22t-24 -52v-231q0 -15 -15 -15h-121q-14 0 -14 15v391q0 17 14 17h111q10 0 15 -17l10 -30v-1q56 56 122 56z" />
    <glyph glyph-name="o" unicode="o" horiz-adv-x="517" 
d="M259 -8q-95 0 -161 64t-66 154q0 92 66 156.5t161 64.5q94 0 160 -64.5t66 -156.5q0 -90 -66 -154t-160 -64zM259 101q37 0 63 28.5t26 80.5t-25.5 81t-63.5 29t-63.5 -29t-25.5 -81t25.5 -80.5t63.5 -28.5z" />
    <glyph glyph-name="p" unicode="p" horiz-adv-x="520" 
d="M290 431q95 0 147.5 -64t52.5 -157q0 -95 -53 -156.5t-147 -61.5q-55 0 -96 27v-284q0 -6 -4.5 -10.5t-10.5 -4.5h-121q-14 0 -14 15v671q0 17 14 17h74q10 0 27 -20l13 -17q48 45 118 45zM267 101q38 0 61.5 30.5t23.5 78.5t-23 79t-61 31q-81 0 -81 -110
q0 -109 80 -109z" />
    <glyph glyph-name="q" unicode="q" horiz-adv-x="514" 
d="M456 423q14 0 14 -17v-671q0 -15 -14 -15h-121q-6 0 -10.5 4.5t-4.5 10.5v284q-40 -27 -94 -27q-99 0 -150.5 62t-51.5 158q0 95 50.5 157t151.5 62q68 0 115 -42l14 14q20 20 28 20h73zM246 101q81 0 81 109q0 110 -81 110q-40 0 -62 -30t-22 -78q0 -47 22.5 -79
t61.5 -32z" />
    <glyph glyph-name="r" unicode="r" horiz-adv-x="384" 
d="M365 414q11 -8 6 -17l-45 -85q-7 -11 -19 -5q-26 17 -50 17q-28 0 -45.5 -20t-17.5 -54v-235q0 -15 -15 -15h-120q-15 0 -15 15v391q0 17 15 17h76q11 0 26 -19l12 -14q43 41 112 41q50 0 80 -17z" />
    <glyph glyph-name="s" unicode="s" horiz-adv-x="433" 
d="M203 -8q-116 0 -169 51q-8 8 -2 19l33 59q6 13 20 6q56 -28 118 -28q55 0 55 30q0 20 -61 32q-85 19 -120.5 48.5t-35.5 84.5q0 58 47 97.5t128 39.5q88 0 155 -38q12 -7 6 -19l-36 -65q-9 -11 -20 -6q-50 21 -90 21q-52 0 -52 -28q0 -18 58 -32q45 -11 67 -19t47 -23
t34.5 -37.5t9.5 -55.5q0 -23 -8.5 -44.5t-28.5 -43.5t-60 -35.5t-95 -13.5z" />
    <glyph glyph-name="t" unicode="t" horiz-adv-x="387" 
d="M374 44v-3q1 -3 1 -5.5t-1.5 -6t-5.5 -5.5q-55 -32 -143 -32q-135 0 -140 148h-1v169h-38q-14 0 -14 16v81q0 17 14 17h38v105q0 15 15 15h120q15 0 15 -15v-105h91q15 0 15 -17v-81q0 -16 -15 -16h-91v-152q0 -52 41 -52q28 0 50 17q1 1 4 2t8 -1t8 -7z" />
    <glyph glyph-name="u" unicode="u" horiz-adv-x="540" 
d="M481 423q15 0 15 -17v-392q0 -14 -15 -14h-91q-14 0 -22 14l-23 35q-53 -57 -119 -57q-89 0 -135.5 49t-46.5 134v231q0 17 14 17h121q15 0 15 -17v-224q0 -35 20 -58.5t55 -23.5t55.5 22t21.5 52v232q0 17 15 17h120z" />
    <glyph glyph-name="v" unicode="v" horiz-adv-x="492" 
d="M464 423q8 0 13 -7t1 -15l-192 -387q-6 -14 -16 -14h-25h-23q-9 0 -17 14l-192 388q-3 6 1 13.5t13 7.5h120q9 0 15 -15l84 -198l84 198q6 15 15 15h119z" />
    <glyph glyph-name="w" unicode="w" horiz-adv-x="672" 
d="M636 423q9 0 12.5 -7.5t0.5 -13.5l-147 -392q-4 -10 -14 -10h-25h-33q-9 0 -14 10l-80 232l-80 -233q-4 -9 -13 -9h-39h-21q-9 0 -14 9l-145 393q-3 6 0.5 13.5t12.5 7.5h119q12 0 15 -10l49 -211l80 211q4 10 13 10h44h3q10 0 13 -10l80 -210l49 209q3 11 15 11h119z
" />
    <glyph glyph-name="x" unicode="x" horiz-adv-x="489" 
d="M432 423q8 0 12.5 -7.5t-0.5 -15.5l-125 -192l123 -186q4 -6 0.5 -14t-13.5 -8h-106q-15 0 -24 14l-54 81l-53 -81q-10 -14 -25 -14h-106q-8 0 -12.5 7t0.5 16l122 185l-126 192q-5 9 -0.5 16t12.5 7h106q15 0 24 -15l58 -88l58 88q9 15 24 15h105z" />
    <glyph glyph-name="y" unicode="y" horiz-adv-x="533" 
d="M504 423q7 0 12.5 -6.5t1.5 -14.5l-341 -674q-4 -8 -13 -8h-114q-8 0 -12.5 6.5t-0.5 14.5l154 306l-175 355q-3 6 0.5 13.5t12.5 7.5h114q11 0 17 -15l105 -215l112 221q4 9 14 9h113z" />
    <glyph glyph-name="z" unicode="z" horiz-adv-x="442" 
d="M356 321q0 -4 -4 -8l-108 -199h133q6 0 10.5 -4.5t4.5 -10.5v-85q0 -14 -15 -14h-275h-47q-7 0 -12 7t-1 15l157 287h-133q-15 0 -15 14v85q0 6 4.5 10.5t10.5 4.5h276h45q8 0 12.5 -6.5t0.5 -15.5z" />
    <glyph glyph-name="braceleft" unicode="{" horiz-adv-x="417" 
d="M289 421q0 -42 -20.5 -66.5t-77.5 -32.5q57 -7 77.5 -32t20.5 -66v-213q0 -20 12.5 -31t20 -12.5t13.5 -1.5h22q16 0 16 -15v-106q0 -15 -16 -15h-41h-25q-153 0 -153 181v206q0 16 -11 25.5t-23 10.5l-11 1h-33q-16 0 -16 15v106q0 15 16 15h33q5 0 12.5 1t20 11
t12.5 26v205q0 98 39.5 140t113.5 42h47h19q16 0 16 -15v-106q0 -15 -16 -15h-22q-2 0 -5.5 -0.5t-11 -3t-13.5 -6.5t-11 -13.5t-5 -22.5v-212z" />
    <glyph glyph-name="bar" unicode="|" horiz-adv-x="242" 
d="M78 -116q-15 0 -15 14v900q0 17 15 17h86q15 0 15 -17v-900q0 -14 -15 -14h-86z" />
    <glyph glyph-name="braceright" unicode="}" horiz-adv-x="417" 
d="M357 390q16 0 16 -15v-106q0 -15 -16 -15h-33q-5 0 -12.5 -1t-20 -10.5t-12.5 -25.5v-206q0 -181 -153 -181h-47h-19q-16 0 -16 15v106q0 15 16 15h22q5 0 12.5 1t20.5 12.5t13 31.5v213q0 41 20.5 66t77.5 33q-57 7 -77.5 32t-20.5 66v212q0 20 -11.5 31.5t-22.5 13.5
l-12 1h-22q-16 0 -16 15v106q0 15 16 15h41h25q74 0 113.5 -42t39.5 -140v-205q0 -16 11.5 -25.5t22.5 -10.5l11 -2h33z" />
    <glyph glyph-name="asciitilde" unicode="~" horiz-adv-x="522" 
d="M473 383q5 -7 3 -14q-8 -25 -43.5 -56.5t-85.5 -31.5h-1q-48 0 -92.5 17t-70.5 17q-33 0 -61 -10t-39 -20q-9 -7 -15 0l-20 29q-6 7 -4 12q5 23 45.5 56.5t92.5 34.5h1q44 -1 89.5 -18t74.5 -17q60 0 92 30q8 8 14 2z" />
    <glyph glyph-name="exclamdown" unicode="&#xa1;" horiz-adv-x="253" 
d="M68 431h117q16 0 16 -15v-92q0 -15 -16 -15h-117q-16 0 -16 15v92q0 15 16 15zM90 228h72q16 0 16 -15l31 -483q0 -15 -15 -15h-136q-16 0 -14 15l30 483q2 15 16 15z" />
    <glyph glyph-name="cent" unicode="&#xa2;" horiz-adv-x="470" 
d="M434 94q9 -9 2 -19q-39 -54 -110 -73v-64q0 -14 -15 -14h-116q-15 0 -15 14v68q-63 23 -105.5 78t-42.5 126t42.5 127t105.5 79v66q0 17 15 17h116q15 0 15 -17v-61q63 -15 101 -63q6 -10 -1 -19l-55 -58q-11 -9 -20 1q-34 38 -85 38q-44 0 -70 -31.5t-26 -78.5
q0 -48 26.5 -79t69.5 -31q60 0 91 46q8 13 21 2z" />
    <glyph glyph-name="sterling" unicode="&#xa3;" horiz-adv-x="570" 
d="M525 135q6 0 10.5 -4.5t4.5 -10.5v-105q0 -6 -4.5 -10.5t-10.5 -4.5h-463q-6 0 -10.5 4.5t-4.5 10.5v85q0 13 15 15h3q19 4 32.5 32.5t13.5 58.5v77h-52q-6 0 -10.5 4.5t-4.5 10.5v105q0 6 4.5 10.5t10.5 4.5h52v52q0 50 11 91t35.5 75.5t69.5 53.5t107 19
q87 0 131.5 -37.5t65.5 -97.5q4 -12 -7 -18l-103 -30q-15 -5 -19 5q-15 43 -68 43q-69 0 -69 -105v-51h127q6 0 10.5 -4.5t4.5 -10.5v-105q0 -6 -4.5 -10.5t-10.5 -4.5h-127v-78q0 -48 -16 -70h276z" />
    <glyph glyph-name="currency" unicode="&#xa4;" horiz-adv-x="512" 
d="M424 271l38 -46q10 -11 0 -21l-70 -57q-13 -8 -20 1l-31 36q-39 -21 -85 -21q-44 0 -86 21l-31 -36q-7 -9 -20 -1l-71 57q-10 8 0 21l39 47q-16 37 -16 76t16 76l-39 46q-10 11 0 21l70 57q13 8 20 -1l31 -35q42 21 87 21q46 0 85 -21l31 36q9 9 21 1l69 -57q11 -8 0 -21
l-38 -46q17 -37 17 -77t-17 -77zM175 348q0 -33 24 -57t57 -24t57 24t24 57t-24 57t-57 24t-57 -24t-24 -57z" />
    <glyph glyph-name="yen" unicode="&#xa5;" horiz-adv-x="665" 
d="M619 700q8 0 12.5 -7t0.5 -16l-185 -315h42q6 0 10.5 -4.5t4.5 -10.5v-56q0 -6 -4.5 -10.5t-10.5 -4.5h-81v-59h81q6 0 10.5 -4.5t4.5 -10.5v-56q0 -6 -4.5 -10.5t-10.5 -4.5h-81v-117q0 -14 -15 -14h-124q-15 0 -15 14v117h-81q-6 0 -10.5 4.5t-4.5 10.5v56
q0 6 4.5 10.5t10.5 4.5h81v59h-81q-6 0 -10.5 4.5t-4.5 10.5v56q0 6 4.5 10.5t10.5 4.5h43l-183 316q-5 8 0 15t13 7h125q14 0 25 -15l135 -238l138 238q11 15 24 15h126z" />
    <glyph glyph-name="brokenbar" unicode="&#xa6;" horiz-adv-x="242" 
d="M78 438q-15 0 -15 14v346q0 17 15 17h86q15 0 15 -17v-346q0 -14 -15 -14h-86zM78 -116q-15 0 -15 14v346q0 17 15 17h86q15 0 15 -17v-346q0 -14 -15 -14h-86z" />
    <glyph glyph-name="section" unicode="&#xa7;" horiz-adv-x="528" 
d="M438 170q54 -45 54 -117q0 -64 -59 -120t-174 -56q-141 0 -219 79q-8 5 0 16l66 71q7 7 17 1q53 -43 136 -43q91 0 91 52q0 25 -20 37t-79 23q-223 43 -223 175q0 73 66 129q-59 45 -59 114q0 63 59.5 120t168.5 57q127 0 218 -72q9 -8 1 -19l-67 -71q-9 -9 -17 -2
q-52 40 -130 40q-89 0 -89 -45q0 -25 22 -39.5t81 -24.5q112 -21 165.5 -64.5t53.5 -116.5q0 -72 -63 -124zM258 354q-30 7 -50 12q-37 -19 -37 -68q0 -25 22.5 -39.5t80.5 -24.5q27 -5 42 -10q41 23 41 70q0 25 -19.5 37t-79.5 23z" />
    <glyph glyph-name="dieresis" unicode="&#xa8;" horiz-adv-x="324" 
d="M92 663q-20 0 -34 13t-14 33q0 21 13.5 34t34.5 13q20 0 33.5 -13t13.5 -34q0 -20 -13.5 -33t-33.5 -13zM233 663q-20 0 -34 13t-14 33q0 21 13.5 34t34.5 13q20 0 33.5 -13t13.5 -34q0 -20 -13.5 -33t-33.5 -13z" />
    <glyph glyph-name="copyright" unicode="&#xa9;" horiz-adv-x="803" 
d="M402 -8q-148 0 -253 104.5t-105 252.5q0 149 105 254t253 105t252.5 -105t104.5 -254q0 -148 -104.5 -252.5t-252.5 -104.5zM402 77q115 0 188.5 78.5t73.5 193.5t-73.5 194.5t-188.5 79.5t-188.5 -79.5t-73.5 -194.5t73.5 -193.5t188.5 -78.5zM401 145q-77 0 -124 56.5
t-47 148.5t47.5 148.5t123.5 56.5q59 0 100.5 -32t58.5 -89q2 -7 -2.5 -13.5t-11.5 -8.5l-61 -11q-17 -3 -22 15q-4 20 -21.5 33.5t-40.5 13.5q-33 0 -52 -30t-19 -83q0 -55 20 -84.5t52 -29.5q22 0 39.5 14.5t22.5 35.5q3 15 20 13l64 -12q15 -4 12 -21q-16 -56 -58 -88.5
t-101 -32.5z" />
    <glyph glyph-name="ordfeminine" unicode="&#xaa;" horiz-adv-x="410" 
d="M370 543v-197q0 -5 -3.5 -9t-8.5 -4h-54q-15 0 -20 17l-6 20q-43 -45 -102 -45q-65 0 -100.5 35t-35.5 89q0 48 38.5 80t105.5 32q50 0 78 -15v15q0 52 -61 52q-41 0 -94 -16q-10 -3 -14 9l-11 59q-3 11 8 15q4 2 18 6t46.5 9t66.5 5q83 0 115.5 -41.5t33.5 -115.5z
M205 394q25 0 41 15.5t16 39.5q0 23 -16 38t-41 15q-23 0 -39.5 -15.5t-16.5 -37.5q0 -24 16.5 -39.5t39.5 -15.5zM290 182q6 0 10.5 -4.5t4.5 -10.5v-107q0 -6 -4.5 -10.5t-10.5 -4.5h-153q-6 0 -10.5 4.5t-4.5 10.5v107q0 6 4.5 10.5t10.5 4.5h153z" />
    <glyph glyph-name="guillemotleft" unicode="&#xab;" horiz-adv-x="554" 
d="M169 212l128 -199q5 -8 2.5 -14.5t-11.5 -6.5h-58q-17 0 -24 10l-146 181q-14 18 -14 25v5v2q0 7 14 25l146 181q7 10 24 10h58q9 0 11.5 -6.5t-2.5 -14.5zM389 212l127 -199q5 -8 3 -14.5t-11 -6.5h-59q-15 0 -24 10l-145 181q-14 16 -14 25v5v2q0 9 14 25l145 181
q9 10 24 10h59q9 0 11 -6.5t-3 -14.5z" />
    <glyph glyph-name="logicalnot" unicode="&#xac;" horiz-adv-x="548" 
d="M488 399q16 0 16 -15v-73v-144q0 -16 -15 -16h-90q-15 0 -15 16v129h-324q-16 0 -16 15v73q0 15 16 15h428z" />
    <glyph glyph-name="registered" unicode="&#xae;" horiz-adv-x="803" 
d="M402 708q148 0 252.5 -105t104.5 -254q0 -148 -104.5 -252.5t-252.5 -104.5t-253 104.5t-105 252.5q0 149 105 254t253 105zM402 77q115 0 188.5 78.5t73.5 193.5t-73.5 194.5t-188.5 79.5t-188.5 -79.5t-73.5 -194.5t73.5 -193.5t188.5 -78.5zM564 424q0 -70 -51 -103
q21 -32 35.5 -78.5t14.5 -74.5q0 -7 -8 -7h-69q-8 0 -8 7q0 76 -54 139h-84v-139q0 -7 -8 -7h-70q-7 0 -7 7v365q0 8 7 8h70h131q44 0 72.5 -32.5t28.5 -84.5zM340 466v-84h105q12 0 25 10.5t13 31.5q0 42 -39 42h-104z" />
    <glyph glyph-name="macron" unicode="&#xaf;" horiz-adv-x="313" 
d="M60 663q-16 0 -16 15v52q0 15 16 15h192q16 0 16 -15v-52q0 -15 -16 -15h-192z" />
    <glyph glyph-name="degree" unicode="&#xb0;" horiz-adv-x="373" 
d="M187 423q-59 0 -101 41.5t-42 100.5t42 101t101 42t100.5 -42t41.5 -101t-41.5 -100.5t-100.5 -41.5zM187 497q29 0 47 19.5t18 48.5t-18 49t-47 20t-47.5 -20t-18.5 -49t18.5 -48.5t47.5 -19.5z" />
    <glyph glyph-name="plusminus" unicode="&#xb1;" horiz-adv-x="518" 
d="M458 393q16 0 16 -15v-74q0 -15 -16 -15h-141v-134q0 -16 -15 -16h-86q-15 0 -15 16v134h-141q-16 0 -16 15v74q0 15 16 15h141v135q0 16 15 16h86q15 0 15 -16v-135h141zM458 81q16 0 16 -15v-57q0 -15 -16 -15h-398q-16 0 -16 15v57q0 15 16 15h398z" />
    <glyph glyph-name="uni00B2" unicode="&#xb2;" horiz-adv-x="397" 
d="M347 454q10 0 10 -9v-78q0 -9 -10 -9h-292q-9 0 -9 9v64q0 5 6 10l126 132q65 69 65 100q0 38 -45 38q-54 0 -56 -40q0 -8 -9 -8h-83q-10 0 -10 10q1 24 8.5 45.5t24.5 42.5t49 33t77 12q78 0 114 -37.5t36 -94.5q0 -31 -9.5 -57t-19.5 -36l-10 -10l-112 -117h149z" />
    <glyph glyph-name="uni00B3" unicode="&#xb3;" horiz-adv-x="398" 
d="M358 483q0 -56 -36.5 -94.5t-121.5 -38.5h-1q-80 0 -119.5 40.5t-39.5 89.5q0 11 9 11h85q9 0 9 -8q1 -17 16.5 -27t40.5 -10q24 0 39.5 11t15.5 29q0 23 -15.5 33.5t-57.5 10.5h-14q-10 0 -10 9v79q0 9 10 9h14q40 0 52.5 11.5t12.5 34.5q0 17 -13.5 27.5t-34.5 10.5
q-24 0 -39.5 -10.5t-16.5 -27.5q0 -8 -9 -8h-85q-9 0 -9 11q0 50 39.5 90t119.5 40h1q80 0 115.5 -37.5t35.5 -91.5q0 -72 -53 -96q60 -23 60 -98z" />
    <glyph glyph-name="acute" unicode="&#xb4;" horiz-adv-x="294" 
d="M84 635q-13 -8 -22 3l-15 22q-7 10 4 21l134 143q11 11 23 -2l38 -58q9 -13 -3 -22z" />
    <glyph glyph-name="paragraph" unicode="&#xb6;" horiz-adv-x="602" 
d="M543 700q14 0 14 -15v-786q0 -15 -14 -15h-86q-6 0 -10.5 4.5t-4.5 10.5v698h-79v-698q0 -15 -14 -15h-86q-6 0 -10.5 4.5t-4.5 10.5v386q-82 0 -143 61t-61 147q0 85 61 146t143 61h1h100h118h76z" />
    <glyph glyph-name="periodcentered" unicode="&#xb7;" horiz-adv-x="215" 
d="M60 308q-16 0 -16 15v88q0 15 16 15h95q16 0 16 -15v-88q0 -15 -16 -15h-95z" />
    <glyph glyph-name="cedilla" unicode="&#xb8;" horiz-adv-x="269" 
d="M143 -39q33 2 57.5 -18.5t24.5 -58.5q0 -89 -104 -89q-25 0 -48 13t-28 25q-2 6 2 9l30 27q5 5 11 -2q13 -13 33 -13q12 0 21 8t9 23q0 16 -11.5 23.5t-21.5 -1.5q-5 -4 -10.5 -5t-8.5 0h-3l-38 11q-7 2 -5 10l36 85h73z" />
    <glyph glyph-name="uni00B9" unicode="&#xb9;" horiz-adv-x="363" 
d="M314 451q9 0 9 -9v-77q0 -9 -9 -9h-176h-89q-9 0 -9 9v77q0 9 9 9h80v234l-69 -24q-4 -1 -7.5 1.5t-3.5 6.5v70q0 4 10 11l74 42l1 1q3 3 10 3h82q9 0 9 -10v-335h79z" />
    <glyph glyph-name="ordmasculine" unicode="&#xba;" horiz-adv-x="412" 
d="M206 325q-72 0 -119 49t-47 139q0 89 47 138t119 49t119 -49t47 -138q0 -90 -47 -139t-119 -49zM206 426q29 0 43.5 24t14.5 63q0 38 -14.5 62t-43.5 24t-43.5 -24t-14.5 -62q0 -39 14.5 -63t43.5 -24zM130 45q-6 0 -10.5 4.5t-4.5 10.5v107q0 6 4.5 10.5t10.5 4.5h154
q6 0 10.5 -4.5t4.5 -10.5v-107q0 -6 -4.5 -10.5t-10.5 -4.5h-154z" />
    <glyph glyph-name="guillemotright" unicode="&#xbb;" horiz-adv-x="542" 
d="M288 208q0 -9 -14 -25l-145 -181q-9 -10 -24 -10h-59q-9 0 -11 6.5t3 14.5l127 199l-127 198q-5 8 -3 14.5t11 6.5h59q15 0 24 -10l145 -181q14 -16 14 -25v-5v-2zM494 240q14 -18 14 -25v-5v-2q0 -7 -14 -25l-146 -181q-7 -10 -24 -10h-58q-9 0 -11.5 6.5t2.5 14.5
l128 199l-128 198q-5 8 -2.5 14.5t11.5 6.5h58q17 0 24 -10z" />
    <glyph glyph-name="onequarter" unicode="&#xbc;" horiz-adv-x="946" 
d="M323 269q0 -9 -9 -9h-176h-89q-9 0 -9 9v77q0 9 9 9h80v233l-69 -23q-4 -1 -7.5 1.5t-3.5 6.5v70q0 4 10 11l74 42l1 1q3 3 10 3h82q9 0 9 -10v-335h79q9 0 9 -9v-77zM707 700q8 0 11 -5t0 -13l-336 -667q-8 -15 -21 -15h-77q-10 0 -14.5 7t-0.5 15l335 663q7 15 20 15
h83zM896 205q10 0 10 -9v-77q0 -8 -10 -8h-39v-76q0 -9 -9 -9h-88q-9 0 -9 9v76h-178q-9 0 -9 8v59q0 3 1 4h-1l178 279q2 5 9 5h97q9 0 9 -9v-252h39zM672 205h79v125z" />
    <glyph glyph-name="onehalf" unicode="&#xbd;" horiz-adv-x="940" 
d="M323 269q0 -9 -9 -9h-176h-89q-9 0 -9 9v77q0 9 9 9h80v233l-69 -23q-4 -1 -7.5 1.5t-3.5 6.5v70q0 4 10 11l74 42l1 1q3 3 10 3h82q9 0 9 -10v-335h79q9 0 9 -9v-77zM666 700q8 0 11.5 -5t-0.5 -13l-336 -667q-7 -15 -21 -15h-76q-10 0 -14.5 7t-0.5 15l334 663
q7 15 20 15h83zM890 120q10 0 10 -9v-78q0 -9 -10 -9h-292q-9 0 -9 9v64q0 5 6 10l126 132q65 69 65 100q0 38 -45 38q-54 0 -56 -40q0 -8 -9 -8h-83q-10 0 -10 10q1 24 8.5 45.5t24.5 42.5t49 33t77 12q78 0 114 -37.5t36 -94.5q0 -31 -10 -57t-20 -36l-9 -10l-112 -117
h149z" />
    <glyph glyph-name="threequarters" unicode="&#xbe;" horiz-adv-x="948" 
d="M200 252h-1q-80 0 -119.5 40.5t-39.5 89.5q0 11 9 11h85q9 0 9 -8q1 -16 16.5 -26.5t39.5 -10.5q25 0 40.5 11t15.5 29q0 23 -15.5 33.5t-57.5 10.5h-14q-10 0 -10 9v79q0 9 10 9h14q40 0 52.5 11.5t12.5 34.5q0 36 -48 38q-54 -2 -56 -38q0 -8 -9 -8h-85q-9 0 -9 11
q0 50 39.5 90t119.5 40h1q81 0 116 -37.5t35 -91.5q0 -72 -53 -96q60 -23 60 -98q0 -56 -36.5 -94.5t-121.5 -38.5zM705 700q8 0 11.5 -5t-0.5 -13l-336 -667q-8 -15 -21 -15h-76q-10 0 -14.5 7t-0.5 15l334 663q7 15 20 15h83zM899 205q10 0 10 -9v-77q0 -8 -10 -8h-39v-76
q0 -9 -9 -9h-88q-9 0 -9 9v76h-178q-9 0 -9 8v59q0 3 1 4h-1l178 279q2 5 9 5h97q9 0 9 -9v-252h39zM675 205h79v125z" />
    <glyph glyph-name="questiondown" unicode="&#xbf;" horiz-adv-x="528" 
d="M249 307q-16 0 -16 15v92q0 15 16 15h116q16 0 16 -15v-92q0 -15 -16 -15h-116zM479 -55q15 -1 13 -17q-2 -98 -58 -156.5t-168 -58.5h-1q-61 0 -105.5 18t-67.5 49t-33.5 65t-10.5 73q0 59 22.5 98t65.5 76q60 52 82 82.5t22 62.5q0 14 13 14h112q14 0 14 -14
q0 -63 -16 -102t-68 -86q-44 -40 -58.5 -54t-27.5 -35t-13 -41q0 -71 70 -71q38 0 58.5 25.5t22.5 63.5q0 11 14 11z" />
    <glyph glyph-name="Agrave" unicode="&#xc0;" horiz-adv-x="740" 
d="M268 794q-14 5 -9 20l21 65q6 18 21 9l168 -100q14 -8 10 -19l-9 -25q-5 -14 -20 -9zM706 20q3 -7 -1.5 -13.5t-12.5 -6.5h-123q-10 0 -13 10l-35 81h-303l-35 -82q-4 -9 -13 -9h-123q-7 0 -11.5 6.5t-1.5 14.5l293 678q5 9 13 9h40h18q11 0 14 -9zM277 226h185l-93 215z
" />
    <glyph glyph-name="Aacute" unicode="&#xc1;" horiz-adv-x="740" 
d="M268 743l-9 25q-4 11 10 19l168 100q15 9 21 -9l21 -65q5 -15 -9 -20l-182 -59q-15 -5 -20 9zM706 20q3 -7 -1.5 -13.5t-12.5 -6.5h-123q-10 0 -13 10l-35 81h-303l-35 -82q-4 -9 -13 -9h-123q-7 0 -11.5 6.5t-1.5 14.5l293 678q5 9 13 9h40h18q11 0 14 -9zM277 226h185
l-93 215z" />
    <glyph glyph-name="Acircumflex" unicode="&#xc2;" horiz-adv-x="740" 
d="M264 742q-19 -13 -19 7v29q0 10 10 20l86 82q12 12 25 12h4q13 0 25 -12l87 -82q10 -10 10 -20v-29q0 -20 -19 -7l-105 66zM706 20q3 -7 -1.5 -13.5t-12.5 -6.5h-123q-10 0 -13 10l-35 81h-303l-35 -82q-4 -9 -13 -9h-123q-7 0 -11.5 6.5t-1.5 14.5l293 678q5 9 13 9h40
h18q11 0 14 -9zM277 226h185l-93 215z" />
    <glyph glyph-name="Atilde" unicode="&#xc3;" horiz-adv-x="740" 
d="M221 768q-8 3 -4 12q26 71 95 70q40 0 75 -16.5t47 -16.5q26 0 50 25q6 6 14 2l20 -8q8 -3 4 -12q-10 -27 -32 -49t-55 -23h-1q-34 0 -66 16.5t-56 16.5q-38 0 -56 -25q-5 -8 -14 -2zM706 20q3 -7 -1.5 -13.5t-12.5 -6.5h-123q-10 0 -13 10l-35 81h-303l-35 -82
q-4 -9 -13 -9h-123q-7 0 -11.5 6.5t-1.5 14.5l293 678q5 9 13 9h40h18q11 0 14 -9zM277 226h185l-93 215z" />
    <glyph glyph-name="Adieresis" unicode="&#xc4;" horiz-adv-x="740" 
d="M299 758q-20 0 -34 13t-14 33q0 21 13.5 34t34.5 13q20 0 33.5 -13t13.5 -34q0 -20 -13.5 -33t-33.5 -13zM440 758q-20 0 -34 13t-14 33q0 21 13.5 34t34.5 13q20 0 33.5 -13t13.5 -34q0 -20 -13.5 -33t-33.5 -13zM706 20q3 -7 -1.5 -13.5t-12.5 -6.5h-123q-10 0 -13 10
l-35 81h-303l-35 -82q-4 -9 -13 -9h-123q-7 0 -11.5 6.5t-1.5 14.5l293 678q5 9 13 9h40h18q11 0 14 -9zM277 226h185l-93 215z" />
    <glyph glyph-name="Aring" unicode="&#xc5;" horiz-adv-x="740" 
d="M368 728q-46 0 -76.5 29.5t-30.5 79.5t30.5 79.5t76.5 29.5t77.5 -30t31.5 -79t-31.5 -79t-77.5 -30zM368 878q-17 0 -25.5 -12.5t-8.5 -28.5q0 -42 34 -42q18 0 27.5 12.5t9.5 29.5q0 16 -10 28.5t-27 12.5zM706 20q3 -7 -1.5 -13.5t-12.5 -6.5h-123q-10 0 -13 10
l-35 81h-303l-35 -82q-4 -9 -13 -9h-123q-7 0 -11.5 6.5t-1.5 14.5l293 678q5 9 13 9h40h18q11 0 14 -9zM277 226h185l-93 215z" />
    <glyph glyph-name="AE" unicode="&#xc6;" horiz-adv-x="988" 
d="M934 136q6 0 10.5 -4.5t4.5 -10.5v-106q0 -6 -4.5 -10.5t-10.5 -4.5h-356h-73q-6 0 -10.5 4.5t-4.5 10.5v76h-255l-52 -82q-7 -9 -13 -9h-124q-7 0 -12.5 6.5t-0.5 14.5l413 670q4 9 13 9h97h74h303q14 0 14 -15v-106q0 -15 -14 -15h-289v-150h190q15 0 15 -14v-108
q0 -14 -15 -14h-190v-142h290zM322 226h168v262z" />
    <glyph glyph-name="Ccedilla" unicode="&#xc7;" horiz-adv-x="704" 
d="M666 145q10 -11 0 -21q-98 -122 -253 -131l-11 -28q33 2 58 -18.5t25 -58.5q0 -89 -104 -89q-25 0 -48 13t-28 25q-2 6 2 9l29 27q5 4 11 -2q14 -14 33 -14q14 0 23 8t9 24t-12 23.5t-22 -1.5q-5 -4 -10 -5.5t-8 -0.5l-3 1l-38 11q-6 3 -5 10l29 68q-132 18 -221 119
t-89 236q0 148 105 253t253 105q80 0 150.5 -32t117.5 -91q9 -9 1 -21l-82 -81q-11 -13 -21 1q-27 39 -71 64t-95 25q-87 0 -145.5 -65t-58.5 -158t58.5 -158t145.5 -65q108 0 177 92q9 13 22 1z" />
    <glyph glyph-name="Egrave" unicode="&#xc8;" horiz-adv-x="561" 
d="M192 794q-14 5 -9 20l21 65q6 18 21 9l168 -100q14 -8 10 -19l-9 -25q-5 -14 -20 -9zM507 136q6 0 10.5 -4.5t4.5 -10.5v-106q0 -6 -4.5 -10.5t-10.5 -4.5h-356h-73q-6 0 -10.5 4.5t-4.5 10.5v670q0 6 4.5 10.5t10.5 4.5h125h303q14 0 14 -15v-106q0 -15 -14 -15h-289
v-150h190q15 0 15 -14v-108q0 -14 -15 -14h-190v-142h290z" />
    <glyph glyph-name="Eacute" unicode="&#xc9;" horiz-adv-x="561" 
d="M192 743l-9 25q-4 11 10 19l168 100q15 9 21 -9l21 -65q5 -15 -9 -20l-182 -59q-15 -5 -20 9zM507 136q6 0 10.5 -4.5t4.5 -10.5v-106q0 -6 -4.5 -10.5t-10.5 -4.5h-356h-73q-6 0 -10.5 4.5t-4.5 10.5v670q0 6 4.5 10.5t10.5 4.5h125h303q14 0 14 -15v-106q0 -15 -14 -15
h-289v-150h190q15 0 15 -14v-108q0 -14 -15 -14h-190v-142h290z" />
    <glyph glyph-name="Ecircumflex" unicode="&#xca;" horiz-adv-x="561" 
d="M187 742q-19 -13 -19 7v29q0 10 10 20l86 82q12 12 25 12h4q13 0 25 -12l87 -82q10 -10 10 -20v-29q0 -20 -19 -7l-105 66zM507 136q6 0 10.5 -4.5t4.5 -10.5v-106q0 -6 -4.5 -10.5t-10.5 -4.5h-356h-73q-6 0 -10.5 4.5t-4.5 10.5v670q0 6 4.5 10.5t10.5 4.5h125h303
q14 0 14 -15v-106q0 -15 -14 -15h-289v-150h190q15 0 15 -14v-108q0 -14 -15 -14h-190v-142h290z" />
    <glyph glyph-name="Edieresis" unicode="&#xcb;" horiz-adv-x="561" 
d="M223 758q-20 0 -34 13t-14 33q0 21 13.5 34t34.5 13q20 0 33.5 -13t13.5 -34q0 -20 -13.5 -33t-33.5 -13zM364 758q-20 0 -34 13t-14 33q0 21 13.5 34t34.5 13q20 0 33.5 -13t13.5 -34q0 -20 -13.5 -33t-33.5 -13zM507 136q6 0 10.5 -4.5t4.5 -10.5v-106q0 -6 -4.5 -10.5
t-10.5 -4.5h-356h-73q-6 0 -10.5 4.5t-4.5 10.5v670q0 6 4.5 10.5t10.5 4.5h125h303q14 0 14 -15v-106q0 -15 -14 -15h-289v-150h190q15 0 15 -14v-108q0 -14 -15 -14h-190v-142h290z" />
    <glyph glyph-name="Igrave" unicode="&#xcc;" horiz-adv-x="298" 
d="M229 735l-182 59q-14 5 -9 20l21 65q6 18 21 9l168 -100q14 -8 10 -19l-9 -25q-5 -14 -20 -9zM86 0q-6 0 -10.5 4.5t-4.5 10.5v670q0 6 4.5 10.5t10.5 4.5h125q14 0 14 -15v-670q0 -15 -14 -15h-125z" />
    <glyph glyph-name="Iacute" unicode="&#xcd;" horiz-adv-x="298" 
d="M67 734q-15 -5 -20 9l-9 25q-4 11 10 19l168 100q15 9 21 -9l21 -65q5 -15 -9 -20zM86 0q-6 0 -10.5 4.5t-4.5 10.5v670q0 6 4.5 10.5t10.5 4.5h125q14 0 14 -15v-670q0 -15 -14 -15h-125z" />
    <glyph glyph-name="Icircumflex" unicode="&#xce;" horiz-adv-x="298" 
d="M261 798q10 -10 10 -20v-29q0 -20 -19 -7l-105 66l-104 -66q-19 -13 -19 7v29q0 10 10 20l86 82q12 12 25 12h4q13 0 25 -12zM211 700q14 0 14 -15v-670q0 -15 -14 -15h-125q-6 0 -10.5 4.5t-4.5 10.5v670q0 6 4.5 10.5t10.5 4.5h125z" />
    <glyph glyph-name="Idieresis" unicode="&#xcf;" horiz-adv-x="298" 
d="M78 758q-20 0 -34 13t-14 33q0 21 13.5 34t34.5 13q20 0 33.5 -13t13.5 -34q0 -20 -13.5 -33t-33.5 -13zM219 758q-20 0 -34 13t-14 33q0 21 13.5 34t34.5 13q20 0 33.5 -13t13.5 -34q0 -20 -13.5 -33t-33.5 -13zM86 0q-6 0 -10.5 4.5t-4.5 10.5v670q0 6 4.5 10.5
t10.5 4.5h125q14 0 14 -15v-670q0 -15 -14 -15h-125z" />
    <glyph glyph-name="Eth" unicode="&#xd0;" horiz-adv-x="723" 
d="M676 349q0 -164 -86.5 -255.5t-219.5 -93.5h-179h-83q-6 0 -10.5 4.5t-4.5 10.5v277h-54q-16 0 -16 15v85q0 15 16 15h54v278q0 6 4.5 10.5t10.5 4.5h125h141q133 -3 217.5 -92.5t84.5 -258.5zM365 136q73 0 115 55.5t42 157.5q0 105 -41.5 160t-115.5 55h-118v-157h76
q16 0 16 -15v-85q0 -15 -16 -15h-76v-156h118z" />
    <glyph glyph-name="Ntilde" unicode="&#xd1;" horiz-adv-x="705" 
d="M204 768q-8 3 -4 12q26 71 95 70q39 0 74 -16.5t48 -16.5q26 0 50 25q6 6 14 2l20 -8q8 -3 4 -12q-10 -27 -32 -49t-55 -23h-1q-34 0 -66 16.5t-56 16.5q-38 0 -56 -25q-5 -8 -14 -2zM627 700q6 0 10.5 -4.5t4.5 -10.5v-671q0 -14 -15 -14h-89h-16q-14 0 -25 14l-280 411
v-411q0 -14 -14 -14h-125q-15 0 -15 14v671q0 6 4.5 10.5t10.5 4.5h90h21q13 0 24 -15l275 -403v403q0 15 14 15h125z" />
    <glyph glyph-name="Ograve" unicode="&#xd2;" horiz-adv-x="781" 
d="M472 735l-182 59q-14 5 -9 20l21 65q6 18 21 9l168 -100q14 -8 10 -19l-9 -25q-5 -14 -20 -9zM391 -8q-148 0 -253 104.5t-105 252.5q0 149 105 254t253 105t252.5 -105t104.5 -254q0 -148 -104.5 -252.5t-252.5 -104.5zM391 128q86 0 144.5 64.5t58.5 156.5t-58.5 157
t-144.5 65t-145 -65t-59 -157t59 -156.5t145 -64.5z" />
    <glyph glyph-name="Oacute" unicode="&#xd3;" horiz-adv-x="781" 
d="M310 734q-15 -5 -20 9l-9 25q-4 11 10 19l168 100q15 9 21 -9l21 -65q5 -15 -9 -20zM391 -8q-148 0 -253 104.5t-105 252.5q0 149 105 254t253 105t252.5 -105t104.5 -254q0 -148 -104.5 -252.5t-252.5 -104.5zM391 128q86 0 144.5 64.5t58.5 156.5t-58.5 157t-144.5 65
t-145 -65t-59 -157t59 -156.5t145 -64.5z" />
    <glyph glyph-name="Ocircumflex" unicode="&#xd4;" horiz-adv-x="781" 
d="M286 742q-19 -13 -19 7v29q0 10 10 20l86 82q12 12 25 12h4q13 0 25 -12l87 -82q10 -10 10 -20v-29q0 -20 -19 -7l-105 66zM391 708q148 0 252.5 -105t104.5 -254q0 -148 -104.5 -252.5t-252.5 -104.5t-253 104.5t-105 252.5q0 149 105 254t253 105zM391 128
q86 0 144.5 64.5t58.5 156.5t-58.5 157t-144.5 65t-145 -65t-59 -157t59 -156.5t145 -64.5z" />
    <glyph glyph-name="Otilde" unicode="&#xd5;" horiz-adv-x="781" 
d="M243 768q-8 3 -4 12q26 71 95 70q40 0 75 -16.5t47 -16.5q26 0 50 25q6 6 14 2l20 -8q8 -3 4 -12q-10 -27 -32 -49t-55 -23h-1q-34 0 -66 16.5t-56 16.5q-38 0 -56 -25q-5 -8 -14 -2zM391 708q148 0 252.5 -105t104.5 -254q0 -148 -104.5 -252.5t-252.5 -104.5
t-253 104.5t-105 252.5q0 149 105 254t253 105zM391 128q86 0 144.5 64.5t58.5 156.5t-58.5 157t-144.5 65t-145 -65t-59 -157t59 -156.5t145 -64.5z" />
    <glyph glyph-name="Odieresis" unicode="&#xd6;" horiz-adv-x="781" 
d="M321 758q-20 0 -34 13t-14 33q0 21 13.5 34t34.5 13q20 0 33.5 -13t13.5 -34q0 -20 -13.5 -33t-33.5 -13zM462 758q-20 0 -34 13t-14 33q0 21 13.5 34t34.5 13q20 0 33.5 -13t13.5 -34q0 -20 -13.5 -33t-33.5 -13zM391 -8q-148 0 -253 104.5t-105 252.5q0 149 105 254
t253 105t252.5 -105t104.5 -254q0 -148 -104.5 -252.5t-252.5 -104.5zM391 128q86 0 144.5 64.5t58.5 156.5t-58.5 157t-144.5 65t-145 -65t-59 -157t59 -156.5t145 -64.5z" />
    <glyph glyph-name="multiply" unicode="&#xd7;" horiz-adv-x="473" 
d="M423 192q11 -12 1 -22l-53 -52q-11 -12 -21 0l-114 113l-112 -113q-12 -12 -22 0l-53 52q-11 10 1 22l113 113l-113 112q-12 11 -1 22l53 52q11 13 21 1l114 -114l112 113q11 11 22 1l53 -53q10 -11 -1 -22l-113 -112z" />
    <glyph glyph-name="Oslash" unicode="&#xd8;" horiz-adv-x="786" 
d="M602 638q68 -50 107 -125.5t39 -163.5q0 -148 -104.5 -252.5t-252.5 -104.5q-59 0 -111 18l-1 -3q-7 -15 -21 -15h-65q-10 0 -14.5 7t-0.5 15l18 36q-75 48 -119 127.5t-44 171.5q0 149 105 254t253 105q67 0 130 -25l5 10q8 15 20 15h72q8 0 11.5 -5t-0.5 -13zM187 349
q0 -106 74 -172l196 382q-30 12 -66 12q-86 0 -145 -65t-59 -157zM391 128q86 0 144.5 64.5t58.5 156.5q0 94 -59 158l-191 -373q23 -6 47 -6z" />
    <glyph glyph-name="Ugrave" unicode="&#xd9;" horiz-adv-x="667" 
d="M229 794q-14 5 -9 20l21 65q6 18 21 9l168 -100q14 -8 10 -19l-9 -25q-5 -14 -20 -9zM590 700q14 0 14 -16v-372q0 -58 -5 -100.5t-22 -86.5t-46 -71t-80 -44.5t-121 -17.5q-83 0 -139.5 24.5t-85 71.5t-39.5 100t-11 124v372q0 7 4.5 11.5t10.5 4.5h125q14 0 14 -16
v-366q0 -47 4 -77t15.5 -58t36.5 -41.5t65 -13.5q39 0 64 13.5t36.5 41.5t15.5 58t4 77v366q0 7 4.5 11.5t10.5 4.5h125z" />
    <glyph glyph-name="Uacute" unicode="&#xda;" horiz-adv-x="667" 
d="M229 743l-9 25q-4 11 10 19l168 100q15 9 21 -9l21 -65q5 -15 -9 -20l-182 -59q-15 -5 -20 9zM590 700q14 0 14 -16v-372q0 -58 -5 -100.5t-22 -86.5t-46 -71t-80 -44.5t-121 -17.5q-83 0 -139.5 24.5t-85 71.5t-39.5 100t-11 124v372q0 7 4.5 11.5t10.5 4.5h125
q14 0 14 -16v-366q0 -47 4 -77t15.5 -58t36.5 -41.5t65 -13.5q39 0 64 13.5t36.5 41.5t15.5 58t4 77v366q0 7 4.5 11.5t10.5 4.5h125z" />
    <glyph glyph-name="Ucircumflex" unicode="&#xdb;" horiz-adv-x="667" 
d="M224 742q-19 -13 -19 7v29q0 10 10 20l86 82q12 12 25 12h4q13 0 25 -12l87 -82q10 -10 10 -20v-29q0 -20 -19 -7l-105 66zM590 700q14 0 14 -16v-372q0 -58 -5 -100.5t-22 -86.5t-46 -71t-80 -44.5t-121 -17.5q-83 0 -139.5 24.5t-85 71.5t-39.5 100t-11 124v372
q0 7 4.5 11.5t10.5 4.5h125q14 0 14 -16v-366q0 -47 4 -77t15.5 -58t36.5 -41.5t65 -13.5q39 0 64 13.5t36.5 41.5t15.5 58t4 77v366q0 7 4.5 11.5t10.5 4.5h125z" />
    <glyph glyph-name="Udieresis" unicode="&#xdc;" horiz-adv-x="667" 
d="M260 758q-20 0 -34 13t-14 33q0 21 13.5 34t34.5 13q20 0 33.5 -13t13.5 -34q0 -20 -13.5 -33t-33.5 -13zM401 758q-20 0 -34 13t-14 33q0 21 13.5 34t34.5 13q20 0 33.5 -13t13.5 -34q0 -20 -13.5 -33t-33.5 -13zM590 700q14 0 14 -16v-372q0 -58 -5 -100.5t-22 -86.5
t-46 -71t-80 -44.5t-121 -17.5q-83 0 -139.5 24.5t-85 71.5t-39.5 100t-11 124v372q0 7 4.5 11.5t10.5 4.5h125q14 0 14 -16v-366q0 -47 4 -77t15.5 -58t36.5 -41.5t65 -13.5q39 0 64 13.5t36.5 41.5t15.5 58t4 77v366q0 7 4.5 11.5t10.5 4.5h125z" />
    <glyph glyph-name="Yacute" unicode="&#xdd;" horiz-adv-x="665" 
d="M231 743l-9 25q-4 11 10 19l168 100q15 9 21 -9l21 -65q5 -15 -9 -20l-182 -59q-15 -5 -20 9zM618 700q8 0 13 -7.5t0 -15.5l-223 -380v-283q0 -14 -15 -14h-124q-15 0 -15 14v283l-222 381q-4 8 1 15t12 7h126q14 0 25 -15l135 -239l137 239q11 15 24 15h126z" />
    <glyph glyph-name="Thorn" unicode="&#xde;" horiz-adv-x="653" 
d="M598 359q0 -97 -56.5 -156t-135.5 -60h-197v-129q0 -14 -14 -14h-125q-15 0 -15 14v671q0 15 15 15h125q14 0 14 -15v-108h204q78 0 131.5 -59.5t53.5 -158.5zM374 279q34 0 52 25t18 55q0 33 -17 57.5t-55 24.5h-163v-162h165z" />
    <glyph glyph-name="germandbls" unicode="&#xdf;" horiz-adv-x="546" 
d="M413 354q0 -13 14.5 -30.5t32 -36t32 -55.5t14.5 -83q0 -157 -177 -157q-52 0 -94 26q-11 7 -7 20l21 69q4 15 20 8q24 -14 49 -14q41 0 41 48q0 41 -16 74.5t-34.5 51t-34 43t-15.5 52.5q0 28 23 60t46 61t23 50q0 33 -19 43.5t-64 10.5q-37 0 -55.5 -23t-18.5 -82v-475
q0 -15 -15 -15h-120q-15 0 -15 15v479v1q0 43 7.5 76.5t17.5 55.5t28.5 37.5t35 24t42 13t44.5 5.5t49 1q93 0 145.5 -17t70 -44.5t17.5 -72.5q0 -46 -13.5 -84.5t-30.5 -59t-30.5 -41.5t-13.5 -35z" />
    <glyph glyph-name="agrave" unicode="&#xe0;" horiz-adv-x="520" 
d="M155 560q-12 9 -3 22l38 58q12 13 23 2l134 -143q11 -11 4 -21l-15 -22q-9 -11 -22 -3zM462 423q14 0 14 -16v-392q0 -6 -4.5 -10.5t-9.5 -4.5h-88q-19 0 -28 19l-9 20q-47 -47 -112 -47q-100 0 -150.5 62t-50.5 157q0 97 52 158.5t149 61.5q66 0 111 -40l12 16
q12 16 24 16h90zM244 101q83 0 83 108q0 111 -82 111q-39 0 -61 -30.5t-22 -79.5q0 -47 22.5 -78t59.5 -31z" />
    <glyph glyph-name="aacute" unicode="&#xe1;" horiz-adv-x="520" 
d="M166 456l-15 22q-7 10 4 21l134 143q11 11 23 -2l38 -58q9 -13 -3 -22l-159 -107q-13 -8 -22 3zM462 423q14 0 14 -16v-392q0 -6 -4.5 -10.5t-9.5 -4.5h-88q-19 0 -28 19l-9 20q-47 -47 -112 -47q-100 0 -150.5 62t-50.5 157q0 97 52 158.5t149 61.5q66 0 111 -40l12 16
q12 16 24 16h90zM244 101q83 0 83 108q0 111 -82 111q-39 0 -61 -30.5t-22 -79.5q0 -47 22.5 -78t59.5 -31z" />
    <glyph glyph-name="acircumflex" unicode="&#xe2;" horiz-adv-x="520" 
d="M145 465q-19 -13 -19 7v29q0 10 10 20l86 82q12 12 25 12h4q13 0 25 -12l87 -82q10 -10 10 -20v-29q0 -20 -19 -7l-105 66zM462 423q14 0 14 -16v-392q0 -6 -4.5 -10.5t-9.5 -4.5h-88q-19 0 -28 19l-9 20q-47 -47 -112 -47q-100 0 -150.5 62t-50.5 157q0 97 52 158.5
t149 61.5q66 0 111 -40l12 16q12 16 24 16h90zM244 101q83 0 83 108q0 111 -82 111q-39 0 -61 -30.5t-22 -79.5q0 -47 22.5 -78t59.5 -31z" />
    <glyph glyph-name="atilde" unicode="&#xe3;" horiz-adv-x="520" 
d="M102 491q-8 3 -4 12q26 71 95 70q39 0 74 -16.5t48 -16.5q26 0 50 25q6 6 14 2l20 -8q8 -3 4 -12q-10 -27 -32 -49t-55 -23h-1q-34 0 -66 16.5t-56 16.5q-38 0 -56 -25q-5 -8 -14 -2zM462 423q14 0 14 -16v-392q0 -6 -4.5 -10.5t-9.5 -4.5h-88q-19 0 -28 19l-9 20
q-47 -47 -112 -47q-100 0 -150.5 62t-50.5 157q0 97 52 158.5t149 61.5q66 0 111 -40l12 16q12 16 24 16h90zM244 101q83 0 83 108q0 111 -82 111q-39 0 -61 -30.5t-22 -79.5q0 -47 22.5 -78t59.5 -31z" />
    <glyph glyph-name="adieresis" unicode="&#xe4;" horiz-adv-x="520" 
d="M180 481q-20 0 -34 13t-14 33q0 21 13.5 34t34.5 13q20 0 33.5 -13t13.5 -34q0 -20 -13.5 -33t-33.5 -13zM321 481q-20 0 -34 13t-14 33q0 21 13.5 34t34.5 13q20 0 33.5 -13t13.5 -34q0 -20 -13.5 -33t-33.5 -13zM462 423q14 0 14 -16v-392q0 -6 -4.5 -10.5t-9.5 -4.5
h-88q-19 0 -28 19l-9 20q-47 -47 -112 -47q-100 0 -150.5 62t-50.5 157q0 97 52 158.5t149 61.5q66 0 111 -40l12 16q12 16 24 16h90zM244 101q83 0 83 108q0 111 -82 111q-39 0 -61 -30.5t-22 -79.5q0 -47 22.5 -78t59.5 -31z" />
    <glyph glyph-name="aring" unicode="&#xe5;" horiz-adv-x="520" 
d="M249 451q-46 0 -76.5 29.5t-30.5 79.5t30.5 79.5t76.5 29.5t77.5 -30t31.5 -79t-31.5 -79t-77.5 -30zM249 601q-17 0 -25.5 -12.5t-8.5 -28.5q0 -42 34 -42q18 0 27.5 12.5t9.5 29.5q0 16 -10 28.5t-27 12.5zM462 423q14 0 14 -16v-392q0 -6 -4.5 -10.5t-9.5 -4.5h-88
q-19 0 -28 19l-9 20q-47 -47 -112 -47q-100 0 -150.5 62t-50.5 157q0 97 52 158.5t149 61.5q66 0 111 -40l12 16q12 16 24 16h90zM244 101q83 0 83 108q0 111 -82 111q-39 0 -61 -30.5t-22 -79.5q0 -47 22.5 -78t59.5 -31z" />
    <glyph glyph-name="ae" unicode="&#xe6;" horiz-adv-x="754" 
d="M514 431q97 0 148.5 -62.5t51.5 -179.5q0 -6 -4.5 -10.5t-10.5 -4.5h-123h-132q8 -35 31.5 -56.5t54.5 -21.5q55 0 87 34q11 11 20 -2l46 -53q10 -11 0 -21q-64 -62 -160 -62q-93 0 -156 63q-29 -32 -78.5 -47.5t-99.5 -15.5q-78 0 -117.5 40.5t-39.5 104.5
q0 57 44.5 94.5t123.5 37.5q52 0 91 -14v14q0 59 -73 59q-42 0 -108 -17q-6 -2 -10.5 1t-5.5 9l-14 70q-3 11 10 17q58 23 151 23q97 0 146 -44q57 44 127 44zM512 330q-56 0 -69 -77h130q-4 34 -20 55.5t-41 21.5zM230 77q28 0 44.5 18t16.5 42q0 26 -16 42t-45 16
q-25 0 -42.5 -16.5t-17.5 -41.5q0 -26 17.5 -43t42.5 -17z" />
    <glyph glyph-name="ccedilla" unicode="&#xe7;" horiz-adv-x="470" 
d="M434 94q8 -10 2 -19q-55 -74 -159 -82l-11 -28q33 2 58 -18.5t25 -58.5q0 -89 -104 -89q-25 0 -48 13t-28 25q-2 6 2 9l29 27q5 4 11 -2q14 -14 33 -14q14 0 23 8t9 24t-12 23.5t-22 -1.5q-5 -4 -10 -5.5t-8 -0.5l-3 1l-38 11q-6 3 -5 10q21 50 30 70q-75 17 -125.5 76.5
t-50.5 136.5q0 91 66.5 156t157.5 65q110 0 171 -73q7 -10 -1 -19l-55 -58q-11 -9 -20 1q-33 38 -85 38q-44 0 -70 -31t-26 -79q0 -47 26 -78.5t70 -31.5q30 0 54 13.5t37 32.5q8 13 21 2z" />
    <glyph glyph-name="egrave" unicode="&#xe8;" horiz-adv-x="501" 
d="M148 560q-12 9 -3 22l38 58q12 13 23 2l134 -143q11 -11 4 -21l-15 -22q-9 -11 -22 -3zM245 431q108 0 162 -63t54 -179q0 -6 -4.5 -10.5t-10.5 -4.5h-122h-158q9 -35 33.5 -56.5t55.5 -21.5q67 0 112 35q12 10 21 -3l44 -53q9 -12 0 -21q-31 -29 -81.5 -45.5
t-103.5 -16.5q-92 0 -157.5 62t-65.5 156q0 95 67.5 158t153.5 63zM245 330q-64 0 -79 -77h155q-7 33 -26.5 55t-49.5 22z" />
    <glyph glyph-name="eacute" unicode="&#xe9;" horiz-adv-x="501" 
d="M159 456l-15 22q-7 10 4 21l134 143q11 11 23 -2l38 -58q9 -13 -3 -22l-159 -107q-13 -8 -22 3zM245 431q108 0 162 -63t54 -179q0 -6 -4.5 -10.5t-10.5 -4.5h-122h-158q9 -35 33.5 -56.5t55.5 -21.5q67 0 112 35q12 10 21 -3l44 -53q9 -12 0 -21q-31 -29 -81.5 -45.5
t-103.5 -16.5q-92 0 -157.5 62t-65.5 156q0 95 67.5 158t153.5 63zM245 330q-64 0 -79 -77h155q-7 33 -26.5 55t-49.5 22z" />
    <glyph glyph-name="ecircumflex" unicode="&#xea;" horiz-adv-x="501" 
d="M138 465q-19 -13 -19 7v29q0 10 10 20l86 82q12 12 25 12h4q13 0 25 -12l87 -82q10 -10 10 -20v-29q0 -20 -19 -7l-105 66zM245 431q108 0 162 -63t54 -179q0 -6 -4.5 -10.5t-10.5 -4.5h-122h-158q9 -35 33.5 -56.5t55.5 -21.5q67 0 112 35q12 10 21 -3l44 -53
q9 -12 0 -21q-31 -29 -81.5 -45.5t-103.5 -16.5q-92 0 -157.5 62t-65.5 156q0 95 67.5 158t153.5 63zM245 330q-64 0 -79 -77h155q-7 33 -26.5 55t-49.5 22z" />
    <glyph glyph-name="edieresis" unicode="&#xeb;" horiz-adv-x="501" 
d="M174 481q-20 0 -34 13t-14 33q0 21 13.5 34t34.5 13q20 0 33.5 -13t13.5 -34q0 -20 -13.5 -33t-33.5 -13zM315 481q-20 0 -34 13t-14 33q0 21 13.5 34t34.5 13q20 0 33.5 -13t13.5 -34q0 -20 -13.5 -33t-33.5 -13zM245 431q108 0 162 -63t54 -179q0 -6 -4.5 -10.5
t-10.5 -4.5h-122h-158q9 -35 33.5 -56.5t55.5 -21.5q67 0 112 35q12 10 21 -3l44 -53q9 -12 0 -21q-31 -29 -81.5 -45.5t-103.5 -16.5q-92 0 -157.5 62t-65.5 156q0 95 67.5 158t153.5 63zM245 330q-64 0 -79 -77h155q-7 33 -26.5 55t-49.5 22z" />
    <glyph glyph-name="igrave" unicode="&#xec;" horiz-adv-x="243" 
d="M184 545l-159 107q-12 9 -3 22l38 58q12 13 23 2l134 -143q11 -11 4 -21l-15 -22q-9 -11 -22 -3zM61 0q-15 0 -15 14v392q0 17 15 17h120q15 0 15 -17v-392q0 -14 -15 -14h-120z" />
    <glyph glyph-name="iacute" unicode="&#xed;" horiz-adv-x="243" 
d="M58 545q-13 -8 -22 3l-15 22q-7 10 4 21l134 143q11 11 23 -2l38 -58q9 -13 -3 -22zM61 0q-15 0 -15 14v392q0 17 15 17h120q15 0 15 -17v-392q0 -14 -15 -14h-120z" />
    <glyph glyph-name="icircumflex" unicode="&#xee;" horiz-adv-x="243" 
d="M234 613q10 -10 10 -20v-29q0 -20 -19 -7l-105 66l-104 -66q-19 -13 -19 7v29q0 10 10 20l86 82q12 12 25 12h4q13 0 25 -12zM181 423q15 0 15 -17v-392q0 -14 -15 -14h-120q-15 0 -15 14v392q0 17 15 17h120z" />
    <glyph glyph-name="idieresis" unicode="&#xef;" horiz-adv-x="243" 
d="M51 573q-20 0 -34 13t-14 33q0 21 13.5 34t34.5 13q20 0 33.5 -13t13.5 -34q0 -20 -13.5 -33t-33.5 -13zM192 573q-20 0 -34 13t-14 33q0 21 13.5 34t34.5 13q20 0 33.5 -13t13.5 -34q0 -20 -13.5 -33t-33.5 -13zM61 0q-15 0 -15 14v392q0 17 15 17h120q15 0 15 -17v-392
q0 -14 -15 -14h-120z" />
    <glyph glyph-name="eth" unicode="&#xf0;" horiz-adv-x="530" 
d="M477 360q18 -105 6 -178q-11 -81 -74.5 -135.5t-149.5 -54.5q-95 0 -161 64t-66 154q0 92 66 156.5t161 64.5q31 0 56 -7q-16 53 -66 101l-38 -43q-11 -11 -22 -2l-33 30q-11 11 0 22l36 41q-31 21 -55 32q-14 8 -8 19l37 74q7 15 27 5q43 -22 76 -44l37 42q11 11 22 2
l34 -30q11 -11 0 -22l-33 -36q123 -104 148 -255zM259 101q37 0 63 28.5t26 80.5t-25.5 81t-63.5 29t-63.5 -29t-25.5 -81t25.5 -80.5t63.5 -28.5z" />
    <glyph glyph-name="ntilde" unicode="&#xf1;" horiz-adv-x="552" 
d="M128 491q-8 3 -4 12q26 71 95 70q39 0 74 -16.5t48 -16.5q26 0 50 25q7 6 14 2l20 -8q8 -3 4 -12q-10 -27 -32 -49t-55 -23h-1q-34 0 -66 16.5t-56 16.5q-38 0 -56 -25q-5 -8 -14 -2zM316 431q100 0 146 -50t46 -138v-228q0 -7 -5.5 -11t-10.5 -4h-119q-15 0 -15 15v222
q0 37 -20.5 60t-58.5 23q-37 0 -61 -22t-24 -52v-231q0 -15 -15 -15h-121q-14 0 -14 15v391q0 17 14 17h111q10 0 15 -17l10 -30v-1q56 56 122 56z" />
    <glyph glyph-name="ograve" unicode="&#xf2;" horiz-adv-x="517" 
d="M322 453l-159 107q-12 9 -3 22l38 58q12 13 23 2l134 -143q11 -11 4 -21l-15 -22q-9 -11 -22 -3zM259 -8q-95 0 -161 64t-66 154q0 92 66 156.5t161 64.5q94 0 160 -64.5t66 -156.5q0 -90 -66 -154t-160 -64zM259 101q37 0 63 28.5t26 80.5t-25.5 81t-63.5 29t-63.5 -29
t-25.5 -81t25.5 -80.5t63.5 -28.5z" />
    <glyph glyph-name="oacute" unicode="&#xf3;" horiz-adv-x="517" 
d="M196 453q-13 -8 -22 3l-15 22q-7 10 4 21l134 143q11 11 23 -2l38 -58q9 -13 -3 -22zM259 -8q-95 0 -161 64t-66 154q0 92 66 156.5t161 64.5q94 0 160 -64.5t66 -156.5q0 -90 -66 -154t-160 -64zM259 101q37 0 63 28.5t26 80.5t-25.5 81t-63.5 29t-63.5 -29t-25.5 -81
t25.5 -80.5t63.5 -28.5z" />
    <glyph glyph-name="ocircumflex" unicode="&#xf4;" horiz-adv-x="517" 
d="M153 465q-19 -13 -19 7v29q0 10 10 20l86 82q12 12 25 12h4q13 0 25 -12l87 -82q10 -10 10 -20v-29q0 -20 -19 -7l-105 66zM259 431q94 0 160 -64.5t66 -156.5q0 -90 -66 -154t-160 -64q-95 0 -161 64t-66 154q0 92 66 156.5t161 64.5zM259 101q37 0 63 28.5t26 80.5
t-25.5 81t-63.5 29t-63.5 -29t-25.5 -81t25.5 -80.5t63.5 -28.5z" />
    <glyph glyph-name="otilde" unicode="&#xf5;" horiz-adv-x="517" 
d="M111 491q-8 3 -4 12q26 71 95 70q40 0 75 -16.5t47 -16.5q26 0 50 25q6 6 14 2l20 -8q8 -3 4 -12q-10 -27 -32 -49t-55 -23h-1q-34 0 -66 16.5t-56 16.5q-38 0 -56 -25q-5 -8 -14 -2zM259 431q94 0 160 -64.5t66 -156.5q0 -90 -66 -154t-160 -64q-95 0 -161 64t-66 154
q0 92 66 156.5t161 64.5zM259 101q37 0 63 28.5t26 80.5t-25.5 81t-63.5 29t-63.5 -29t-25.5 -81t25.5 -80.5t63.5 -28.5z" />
    <glyph glyph-name="odieresis" unicode="&#xf6;" horiz-adv-x="517" 
d="M189 481q-20 0 -34 13t-14 33q0 21 13.5 34t34.5 13q20 0 33.5 -13t13.5 -34q0 -20 -13.5 -33t-33.5 -13zM330 481q-20 0 -34 13t-14 33q0 21 13.5 34t34.5 13q20 0 33.5 -13t13.5 -34q0 -20 -13.5 -33t-33.5 -13zM259 -8q-95 0 -161 64t-66 154q0 92 66 156.5t161 64.5
q94 0 160 -64.5t66 -156.5q0 -90 -66 -154t-160 -64zM259 101q37 0 63 28.5t26 80.5t-25.5 81t-63.5 29t-63.5 -29t-25.5 -81t25.5 -80.5t63.5 -28.5z" />
    <glyph glyph-name="divide" unicode="&#xf7;" horiz-adv-x="542" 
d="M279 453q-26 0 -44 18t-18 44t18 44t44 18q25 0 43.5 -18.5t18.5 -43.5t-18.5 -43.5t-43.5 -18.5zM60 296q-16 0 -16 15v73q0 15 16 15h422q16 0 16 -15v-73q0 -15 -16 -15h-422zM279 121q-26 0 -44 18t-18 44t18 44t44 18q25 0 43.5 -18.5t18.5 -43.5t-18.5 -43.5
t-43.5 -18.5z" />
    <glyph glyph-name="oslash" unicode="&#xf8;" horiz-adv-x="517" 
d="M387 392q46 -30 72 -78t26 -104q0 -90 -66 -154t-160 -64q-36 0 -71 11q-8 -11 -19 -11h-28q-10 0 -14.5 7t-0.5 15l7 14q-47 30 -74 78t-27 104q0 92 66 156.5t161 64.5q39 0 74 -12q7 12 19 12h35q8 0 11.5 -5.5t-0.5 -12.5zM170 210q0 -44 19 -72l92 179q-11 3 -22 3
q-38 0 -63.5 -29t-25.5 -81zM259 101q37 0 63 28.5t26 80.5q0 41 -18 70l-91 -177q14 -2 20 -2z" />
    <glyph glyph-name="ugrave" unicode="&#xf9;" horiz-adv-x="540" 
d="M175 560q-12 9 -3 22l38 58q12 13 23 2l134 -143q11 -11 4 -21l-15 -22q-9 -11 -22 -3zM481 423q15 0 15 -17v-392q0 -14 -15 -14h-91q-14 0 -22 14l-23 35q-53 -57 -119 -57q-89 0 -135.5 49t-46.5 134v231q0 17 14 17h121q15 0 15 -17v-224q0 -35 20 -58.5t55 -23.5
t55.5 22t21.5 52v232q0 17 15 17h120z" />
    <glyph glyph-name="uacute" unicode="&#xfa;" horiz-adv-x="540" 
d="M186 456l-15 22q-7 10 4 21l134 143q11 11 23 -2l38 -58q9 -13 -3 -22l-159 -107q-13 -8 -22 3zM481 423q15 0 15 -17v-392q0 -14 -15 -14h-91q-14 0 -22 14l-23 35q-53 -57 -119 -57q-89 0 -135.5 49t-46.5 134v231q0 17 14 17h121q15 0 15 -17v-224q0 -35 20 -58.5
t55 -23.5t55.5 22t21.5 52v232q0 17 15 17h120z" />
    <glyph glyph-name="ucircumflex" unicode="&#xfb;" horiz-adv-x="540" 
d="M165 465q-19 -13 -19 7v29q0 10 10 20l86 82q12 12 25 12h4q13 0 25 -12l87 -82q10 -10 10 -20v-29q0 -20 -19 -7l-105 66zM481 423q15 0 15 -17v-392q0 -14 -15 -14h-91q-14 0 -22 14l-23 35q-53 -57 -119 -57q-89 0 -135.5 49t-46.5 134v231q0 17 14 17h121
q15 0 15 -17v-224q0 -35 20 -58.5t55 -23.5t55.5 22t21.5 52v232q0 17 15 17h120z" />
    <glyph glyph-name="udieresis" unicode="&#xfc;" horiz-adv-x="540" 
d="M200 481q-20 0 -34 13t-14 33q0 21 13.5 34t34.5 13q20 0 33.5 -13t13.5 -34q0 -20 -13.5 -33t-33.5 -13zM341 481q-20 0 -34 13t-14 33q0 21 13.5 34t34.5 13q20 0 33.5 -13t13.5 -34q0 -20 -13.5 -33t-33.5 -13zM481 423q15 0 15 -17v-392q0 -14 -15 -14h-91
q-14 0 -22 14l-23 35q-53 -57 -119 -57q-89 0 -135.5 49t-46.5 134v231q0 17 14 17h121q15 0 15 -17v-224q0 -35 20 -58.5t55 -23.5t55.5 22t21.5 52v232q0 17 15 17h120z" />
    <glyph glyph-name="yacute" unicode="&#xfd;" horiz-adv-x="533" 
d="M181 456l-15 22q-7 10 4 21l134 143q11 11 23 -2l38 -58q9 -13 -3 -22l-159 -107q-13 -8 -22 3zM504 423q7 0 12.5 -6.5t1.5 -14.5l-341 -674q-4 -8 -13 -8h-114q-8 0 -12.5 6.5t-0.5 14.5l154 306l-175 355q-3 6 0.5 13.5t12.5 7.5h114q11 0 17 -15l105 -215l112 221
q4 9 14 9h113z" />
    <glyph glyph-name="thorn" unicode="&#xfe;" horiz-adv-x="528" 
d="M291 431q96 0 147.5 -64t51.5 -157q0 -95 -52 -156.5t-147 -61.5q-57 0 -97 28v-194q0 -6 -4.5 -10.5t-10.5 -4.5h-121q-14 0 -14 15v769q0 17 14 17h121q15 0 15 -17v-192q40 28 97 28zM270 101q38 0 60.5 30.5t22.5 78.5q0 49 -22 79.5t-61 30.5q-82 0 -82 -110
q0 -109 82 -109z" />
    <glyph glyph-name="ydieresis" unicode="&#xff;" horiz-adv-x="533" 
d="M196 481q-20 0 -34 13t-14 33q0 21 13.5 34t34.5 13q20 0 33.5 -13t13.5 -34q0 -20 -13.5 -33t-33.5 -13zM337 481q-20 0 -34 13t-14 33q0 21 13.5 34t34.5 13q20 0 33.5 -13t13.5 -34q0 -20 -13.5 -33t-33.5 -13zM504 423q7 0 12.5 -6.5t1.5 -14.5l-341 -674
q-4 -8 -13 -8h-114q-8 0 -12.5 6.5t-0.5 14.5l154 306l-175 355q-3 6 0.5 13.5t12.5 7.5h114q11 0 17 -15l105 -215l112 221q4 9 14 9h113z" />
    <glyph glyph-name="Amacron" unicode="&#x100;" horiz-adv-x="740" 
d="M273 758q-16 0 -16 15v52q0 15 16 15h192q16 0 16 -15v-52q0 -15 -16 -15h-192zM706 20q3 -7 -1.5 -13.5t-12.5 -6.5h-123q-10 0 -13 10l-35 81h-303l-35 -82q-4 -9 -13 -9h-123q-7 0 -11.5 6.5t-1.5 14.5l293 678q5 9 13 9h40h18q11 0 14 -9zM277 226h185l-93 215z" />
    <glyph glyph-name="amacron" unicode="&#x101;" horiz-adv-x="520" 
d="M154 481q-16 0 -16 15v52q0 15 16 15h192q16 0 16 -15v-52q0 -15 -16 -15h-192zM462 423q14 0 14 -16v-392q0 -6 -4.5 -10.5t-9.5 -4.5h-88q-19 0 -28 19l-9 20q-47 -47 -112 -47q-100 0 -150.5 62t-50.5 157q0 97 52 158.5t149 61.5q66 0 111 -40l12 16q12 16 24 16h90z
M244 101q83 0 83 108q0 111 -82 111q-39 0 -61 -30.5t-22 -79.5q0 -47 22.5 -78t59.5 -31z" />
    <glyph glyph-name="Abreve" unicode="&#x102;" horiz-adv-x="740" 
d="M369 741q-108 0 -149 102q-3 7 5 10l58 26q8 3 11 -4q11 -19 18.5 -28.5t22.5 -17.5t35 -8t34.5 8.5t22 17.5t18.5 28q4 7 11 4l58 -26q8 -3 5 -10q-41 -102 -150 -102zM706 20q3 -7 -1.5 -13.5t-12.5 -6.5h-123q-10 0 -13 10l-35 81h-303l-35 -82q-4 -9 -13 -9h-123
q-7 0 -11.5 6.5t-1.5 14.5l293 678q5 9 13 9h40h18q11 0 14 -9zM277 226h185l-93 215z" />
    <glyph glyph-name="abreve" unicode="&#x103;" horiz-adv-x="520" 
d="M250 464q-108 0 -149 102q-3 7 5 10l58 26q8 3 11 -4q11 -19 18.5 -28.5t22.5 -17.5t35 -8t34.5 8.5t22 17.5t18.5 28q4 7 11 4l58 -26q8 -3 5 -10q-41 -102 -150 -102zM462 423q14 0 14 -16v-392q0 -6 -4.5 -10.5t-9.5 -4.5h-88q-19 0 -28 19l-9 20q-47 -47 -112 -47
q-100 0 -150.5 62t-50.5 157q0 97 52 158.5t149 61.5q66 0 111 -40l12 16q12 16 24 16h90zM244 101q83 0 83 108q0 111 -82 111q-39 0 -61 -30.5t-22 -79.5q0 -47 22.5 -78t59.5 -31z" />
    <glyph glyph-name="Aogonek" unicode="&#x104;" horiz-adv-x="740" 
d="M715 -130q5 -5 2 -11q-6 -21 -30 -42t-62 -22h-1q-42 0 -69 24.5t-27 64.5q0 62 64 116h-23q-10 0 -13 10l-35 81h-303l-35 -82q-4 -9 -13 -9h-123q-7 0 -11.5 6.5t-1.5 14.5l293 678q5 9 13 9h40h18q11 0 14 -9l294 -679q3 -7 -1.5 -13.5t-12.5 -6.5h-36
q-48 -52 -48 -102q0 -39 32 -39q30 0 50 21q8 8 15 0zM277 226h185l-93 215z" />
    <glyph glyph-name="aogonek" unicode="&#x105;" horiz-adv-x="520" 
d="M506 -130q5 -5 2 -11q-6 -21 -30 -42t-62 -22h-1q-42 0 -69 24.5t-27 64.5q0 62 64 116h-9q-19 0 -28 19l-9 20q-47 -47 -112 -47q-100 0 -150.5 62t-50.5 157q0 97 52 158.5t149 61.5q66 0 111 -40l12 16q12 16 24 16h90q14 0 14 -16v-392q0 -6 -4.5 -10.5t-9.5 -4.5
h-15q-48 -52 -48 -102q0 -39 32 -39q30 0 50 21q8 8 15 0zM244 101q83 0 83 108q0 111 -82 111q-39 0 -61 -30.5t-22 -79.5q0 -47 22.5 -78t59.5 -31z" />
    <glyph glyph-name="Cacute" unicode="&#x106;" horiz-adv-x="704" 
d="M309 734q-15 -5 -20 9l-9 25q-4 11 10 19l168 100q15 9 21 -9l21 -65q5 -15 -9 -20zM391 -8q-148 0 -253 105t-105 253t105 253t253 105q80 0 150.5 -32t117.5 -91q9 -9 1 -21l-82 -81q-11 -13 -21 1q-27 39 -71 64t-95 25q-87 0 -145.5 -65t-58.5 -158t58.5 -158
t145.5 -65q108 0 177 92q9 13 22 1l76 -75q10 -11 0 -21q-50 -62 -121.5 -97t-153.5 -35z" />
    <glyph glyph-name="cacute" unicode="&#x107;" horiz-adv-x="470" 
d="M192 453q-13 -8 -22 3l-15 22q-7 10 4 21l134 143q11 11 23 -2l38 -58q9 -13 -3 -22zM256 -8q-91 0 -157.5 64t-66.5 154q0 91 66.5 156t157.5 65q110 0 171 -73q7 -10 -1 -19l-55 -58q-11 -9 -20 1q-33 38 -85 38q-44 0 -70 -31t-26 -79q0 -47 26 -78.5t70 -31.5
q30 0 54 13.5t37 32.5q8 13 21 2l56 -54q8 -10 2 -19q-28 -39 -76.5 -61t-103.5 -22z" />
    <glyph glyph-name="Cdotaccent" unicode="&#x10a;" horiz-adv-x="704" 
d="M390 746q-24 0 -41 16.5t-17 40.5q0 25 17 41.5t41 16.5t41 -16.5t17 -41.5q0 -24 -17 -40.5t-41 -16.5zM391 -8q-148 0 -253 105t-105 253t105 253t253 105q80 0 150.5 -32t117.5 -91q9 -9 1 -21l-82 -81q-11 -13 -21 1q-27 39 -71 64t-95 25q-87 0 -145.5 -65
t-58.5 -158t58.5 -158t145.5 -65q108 0 177 92q9 13 22 1l76 -75q10 -11 0 -21q-50 -62 -121.5 -97t-153.5 -35z" />
    <glyph glyph-name="cdotaccent" unicode="&#x10b;" horiz-adv-x="470" 
d="M255 469q-24 0 -41 16.5t-17 40.5q0 25 17 41.5t41 16.5t41 -16.5t17 -41.5q0 -24 -17 -40.5t-41 -16.5zM256 -8q-91 0 -157.5 64t-66.5 154q0 91 66.5 156t157.5 65q110 0 171 -73q7 -10 -1 -19l-55 -58q-11 -9 -20 1q-33 38 -85 38q-44 0 -70 -31t-26 -79
q0 -47 26 -78.5t70 -31.5q30 0 54 13.5t37 32.5q8 13 21 2l56 -54q8 -10 2 -19q-28 -39 -76.5 -61t-103.5 -22z" />
    <glyph glyph-name="Ccaron" unicode="&#x10c;" horiz-adv-x="704" 
d="M276 832q-10 10 -10 20v29q0 20 19 7l104 -66l105 66q19 13 19 -7v-29q0 -10 -10 -20l-87 -82q-12 -12 -25 -12h-4q-13 0 -25 12zM666 145q10 -11 0 -21q-50 -62 -121.5 -97t-153.5 -35q-148 0 -253 105t-105 253t105 253t253 105q80 0 150.5 -32t117.5 -91q9 -9 1 -21
l-82 -81q-11 -13 -21 1q-27 39 -71 64t-95 25q-87 0 -145.5 -65t-58.5 -158t58.5 -158t145.5 -65q108 0 177 92q9 13 22 1z" />
    <glyph glyph-name="ccaron" unicode="&#x10d;" horiz-adv-x="470" 
d="M141 555q-10 10 -10 20v29q0 20 19 7l104 -66l105 66q19 13 19 -7v-29q0 -10 -10 -20l-87 -82q-12 -12 -25 -12h-4q-13 0 -25 12zM434 94q8 -10 2 -19q-28 -39 -76.5 -61t-103.5 -22q-91 0 -157.5 64t-66.5 154q0 91 66.5 156t157.5 65q110 0 171 -73q7 -10 -1 -19
l-55 -58q-11 -9 -20 1q-33 38 -85 38q-44 0 -70 -31t-26 -79q0 -47 26 -78.5t70 -31.5q30 0 54 13.5t37 32.5q8 13 21 2z" />
    <glyph glyph-name="Dcaron" unicode="&#x10e;" horiz-adv-x="689" 
d="M213 832q-10 10 -10 20v29q0 20 19 7l104 -66l105 66q19 13 19 -7v-29q0 -10 -10 -20l-87 -82q-12 -12 -25 -12h-4q-13 0 -25 12zM646 349q0 -164 -86.5 -255.5t-219.5 -93.5h-179h-83q-6 0 -10.5 4.5t-4.5 10.5v670q0 6 4.5 10.5t10.5 4.5h125h141q133 -3 217.5 -92.5
t84.5 -258.5zM335 136q73 0 115 55.5t42 157.5q0 105 -41.5 160t-115.5 55h-118v-428h118z" />
    <glyph glyph-name="dcaron" unicode="&#x10f;" horiz-adv-x="526" 
d="M154 832q-10 10 -10 20v29q0 20 19 7l104 -66l105 66q19 13 19 -7v-29q0 -10 -10 -20l-87 -82q-12 -12 -25 -12h-4q-13 0 -25 12zM464 708q14 0 14 -16v-677q0 -15 -14 -15h-75q-18 0 -27 19l-10 19q-48 -46 -121 -46q-99 0 -149 62t-50 157q0 97 52 158.5t148 61.5
q55 0 96 -27v288q0 7 4.5 11.5t10.5 4.5h121zM255 101q80 0 80 111q0 108 -81 108q-40 0 -62 -30.5t-22 -78.5q0 -49 22.5 -79.5t62.5 -30.5z" />
    <glyph glyph-name="Dcroat" unicode="&#x110;" horiz-adv-x="725" 
d="M677 349q0 -164 -86.5 -255.5t-219.5 -93.5h-178h-83q-6 0 -10.5 4.5t-4.5 10.5v277h-56q-16 0 -16 15v85q0 15 16 15h56v278q0 6 4.5 10.5t10.5 4.5h125h140q133 -3 217.5 -92.5t84.5 -258.5zM366 136q73 0 115 55.5t42 157.5q0 105 -41.5 160t-115.5 55h-117v-157h74
q16 0 16 -15v-85q0 -15 -16 -15h-74v-156h117z" />
    <glyph glyph-name="dcroat" unicode="&#x111;" horiz-adv-x="543" 
d="M527 617q16 0 16 -15v-60q0 -15 -16 -15h-49v-512q0 -15 -14 -15h-75q-18 0 -27 19l-10 19q-48 -46 -121 -46q-99 0 -149 62t-50 157q0 97 52 158.5t148 61.5q55 0 96 -27v123h-59q-16 0 -16 15v60q0 15 16 15h59v75q0 7 4.5 11.5t10.5 4.5h121q14 0 14 -16v-75h49z
M255 101q80 0 80 111q0 108 -81 108q-40 0 -62 -30.5t-22 -78.5q0 -49 22.5 -79.5t62.5 -30.5z" />
    <glyph glyph-name="Emacron" unicode="&#x112;" horiz-adv-x="561" 
d="M197 758q-16 0 -16 15v52q0 15 16 15h192q16 0 16 -15v-52q0 -15 -16 -15h-192zM507 136q6 0 10.5 -4.5t4.5 -10.5v-106q0 -6 -4.5 -10.5t-10.5 -4.5h-356h-73q-6 0 -10.5 4.5t-4.5 10.5v670q0 6 4.5 10.5t10.5 4.5h125h303q14 0 14 -15v-106q0 -15 -14 -15h-289v-150
h190q15 0 15 -14v-108q0 -14 -15 -14h-190v-142h290z" />
    <glyph glyph-name="emacron" unicode="&#x113;" horiz-adv-x="501" 
d="M148 481q-16 0 -16 15v52q0 15 16 15h192q16 0 16 -15v-52q0 -15 -16 -15h-192zM245 431q108 0 162 -63t54 -179q0 -6 -4.5 -10.5t-10.5 -4.5h-122h-158q9 -35 33.5 -56.5t55.5 -21.5q67 0 112 35q12 10 21 -3l44 -53q9 -12 0 -21q-31 -29 -81.5 -45.5t-103.5 -16.5
q-92 0 -157.5 62t-65.5 156q0 95 67.5 158t153.5 63zM245 330q-64 0 -79 -77h155q-7 33 -26.5 55t-49.5 22z" />
    <glyph glyph-name="Edotaccent" unicode="&#x116;" horiz-adv-x="561" 
d="M293 746q-24 0 -41 16.5t-17 40.5q0 25 17 41.5t41 16.5t41 -16.5t17 -41.5q0 -24 -17 -40.5t-41 -16.5zM507 136q6 0 10.5 -4.5t4.5 -10.5v-106q0 -6 -4.5 -10.5t-10.5 -4.5h-356h-73q-6 0 -10.5 4.5t-4.5 10.5v670q0 6 4.5 10.5t10.5 4.5h125h303q14 0 14 -15v-106
q0 -15 -14 -15h-289v-150h190q15 0 15 -14v-108q0 -14 -15 -14h-190v-142h290z" />
    <glyph glyph-name="edotaccent" unicode="&#x117;" horiz-adv-x="501" 
d="M244 469q-24 0 -41 16.5t-17 40.5q0 25 17 41.5t41 16.5t41 -16.5t17 -41.5q0 -24 -17 -40.5t-41 -16.5zM245 431q108 0 162 -63t54 -179q0 -6 -4.5 -10.5t-10.5 -4.5h-122h-158q9 -35 33.5 -56.5t55.5 -21.5q67 0 112 35q12 10 21 -3l44 -53q9 -12 0 -21
q-31 -29 -81.5 -45.5t-103.5 -16.5q-92 0 -157.5 62t-65.5 156q0 95 67.5 158t153.5 63zM245 330q-64 0 -79 -77h155q-7 33 -26.5 55t-49.5 22z" />
    <glyph glyph-name="Eogonek" unicode="&#x118;" horiz-adv-x="561" 
d="M551 -130q5 -5 2 -11q-6 -21 -30 -42t-62 -22h-1q-42 0 -69 24.5t-27 64.5q0 62 64 116h-277h-73q-6 0 -10.5 4.5t-4.5 10.5v670q0 6 4.5 10.5t10.5 4.5h125h303q14 0 14 -15v-106q0 -15 -14 -15h-289v-150h190q15 0 15 -14v-108q0 -14 -15 -14h-190v-142h290
q6 0 10.5 -4.5t4.5 -10.5v-106q0 -6 -4.5 -10.5t-10.5 -4.5h-15q-48 -52 -48 -102q0 -39 32 -39q30 0 50 21q8 8 15 0z" />
    <glyph glyph-name="eogonek" unicode="&#x119;" horiz-adv-x="501" 
d="M245 431q108 0 162 -63t54 -179q0 -6 -4.5 -10.5t-10.5 -4.5h-122h-158q9 -35 33.5 -56.5t55.5 -21.5q67 0 112 35q12 10 21 -3l44 -53q9 -12 0 -21q-30 -27 -80 -45q-58 -56 -58 -111q0 -39 33 -39q29 0 50 21q8 8 15 0l10 -10q5 -5 2 -11q-8 -22 -31 -42.5t-61 -21.5
h-1q-43 0 -70 24.5t-27 64.5q0 57 56 109q-8 -1 -23 -1q-92 0 -157.5 62t-65.5 156q0 95 67.5 158t153.5 63zM245 330q-64 0 -79 -77h155q-7 33 -26.5 55t-49.5 22z" />
    <glyph glyph-name="Ecaron" unicode="&#x11a;" horiz-adv-x="561" 
d="M179 832q-10 10 -10 20v29q0 20 19 7l104 -66l105 66q19 13 19 -7v-29q0 -10 -10 -20l-87 -82q-12 -12 -25 -12h-4q-13 0 -25 12zM507 136q6 0 10.5 -4.5t4.5 -10.5v-106q0 -6 -4.5 -10.5t-10.5 -4.5h-356h-73q-6 0 -10.5 4.5t-4.5 10.5v670q0 6 4.5 10.5t10.5 4.5h125
h303q14 0 14 -15v-106q0 -15 -14 -15h-289v-150h190q15 0 15 -14v-108q0 -14 -15 -14h-190v-142h290z" />
    <glyph glyph-name="ecaron" unicode="&#x11b;" horiz-adv-x="501" 
d="M130 555q-10 10 -10 20v29q0 20 19 7l104 -66l105 66q19 13 19 -7v-29q0 -10 -10 -20l-87 -82q-12 -12 -25 -12h-4q-13 0 -25 12zM245 431q108 0 162 -63t54 -179q0 -6 -4.5 -10.5t-10.5 -4.5h-122h-158q9 -35 33.5 -56.5t55.5 -21.5q67 0 112 35q12 10 21 -3l44 -53
q9 -12 0 -21q-31 -29 -81.5 -45.5t-103.5 -16.5q-92 0 -157.5 62t-65.5 156q0 95 67.5 158t153.5 63zM245 330q-64 0 -79 -77h155q-7 33 -26.5 55t-49.5 22z" />
    <glyph glyph-name="Gbreve" unicode="&#x11e;" horiz-adv-x="720" 
d="M388 741q-108 0 -149 102q-3 7 5 10l58 26q8 3 11 -4q11 -19 18.5 -28.5t22.5 -17.5t35 -8t34.5 8.5t22 17.5t18.5 28q4 7 11 4l58 -26q8 -3 5 -10q-41 -102 -150 -102zM648 350q14 0 14 -14v-79v-180q0 -6 -5 -11q-43 -37 -124 -55.5t-146 -18.5q-87 0 -167 42.5
t-133.5 126.5t-53.5 189q0 106 55 190t135.5 126t165.5 42q81 0 152 -31t120 -90q9 -11 -1 -21l-81 -81q-4 -4 -10.5 -4.5t-10.5 5.5q-26 37 -71.5 62t-97.5 25q-84 0 -143 -66t-59 -157q0 -89 59 -156t141 -67q64 0 115 27v89h-74q-15 0 -15 14v79q0 14 15 14h220z" />
    <glyph glyph-name="gbreve" unicode="&#x11f;" horiz-adv-x="518" 
d="M244 470q-108 0 -149 102q-3 7 5 10l58 26q8 3 11 -4q11 -19 18.5 -28.5t22.5 -17.5t35 -8t34.5 8.5t22 17.5t18.5 28q4 7 11 4l58 -26q8 -3 5 -10q-41 -102 -150 -102zM460 423q14 0 14 -16v-392v-61q0 -98 -67.5 -157.5t-173.5 -59.5q-58 0 -108 23.5t-78 64.5
q-7 9 2 18l57 55q12 10 19 -2q37 -50 108 -50q40 0 71.5 26.5t31.5 78.5v79q-46 -38 -116 -38q-96 0 -146 63t-50 157q0 96 51.5 157.5t143.5 61.5q72 0 117 -39l11 15q12 16 24 16h89zM245 101q82 0 82 109q0 110 -83 110q-39 0 -60.5 -30.5t-21.5 -78.5t22 -79t61 -31z
" />
    <glyph glyph-name="Gdotaccent" unicode="&#x120;" horiz-adv-x="720" 
d="M389 746q-24 0 -41 16.5t-17 40.5q0 25 17 41.5t41 16.5t41 -16.5t17 -41.5q0 -24 -17 -40.5t-41 -16.5zM648 350q14 0 14 -14v-79v-180q0 -6 -5 -11q-43 -37 -124 -55.5t-146 -18.5q-87 0 -167 42.5t-133.5 126.5t-53.5 189q0 106 55 190t135.5 126t165.5 42
q81 0 152 -31t120 -90q9 -11 -1 -21l-81 -81q-4 -4 -10.5 -4.5t-10.5 5.5q-26 37 -71.5 62t-97.5 25q-84 0 -143 -66t-59 -157q0 -89 59 -156t141 -67q64 0 115 27v89h-74q-15 0 -15 14v79q0 14 15 14h220z" />
    <glyph glyph-name="gdotaccent" unicode="&#x121;" horiz-adv-x="518" 
d="M244 475q-24 0 -41 16.5t-17 40.5q0 25 17 41.5t41 16.5t41 -16.5t17 -41.5q0 -24 -17 -40.5t-41 -16.5zM460 423q14 0 14 -16v-392v-61q0 -98 -67.5 -157.5t-173.5 -59.5q-58 0 -108 23.5t-78 64.5q-7 9 2 18l57 55q12 10 19 -2q37 -50 108 -50q40 0 71.5 26.5
t31.5 78.5v79q-46 -38 -116 -38q-96 0 -146 63t-50 157q0 96 51.5 157.5t143.5 61.5q72 0 117 -39l11 15q12 16 24 16h89zM245 101q82 0 82 109q0 110 -83 110q-39 0 -60.5 -30.5t-21.5 -78.5t22 -79t61 -31z" />
    <glyph glyph-name="Gcommaaccent" unicode="&#x122;" horiz-adv-x="720" 
d="M648 350q14 0 14 -14v-79v-180q0 -6 -5 -11q-43 -37 -124 -55.5t-146 -18.5q-87 0 -167 42.5t-133.5 126.5t-53.5 189q0 106 55 190t135.5 126t165.5 42q81 0 152 -31t120 -90q9 -11 -1 -21l-81 -81q-4 -4 -10.5 -4.5t-10.5 5.5q-26 37 -71.5 62t-97.5 25q-84 0 -143 -66
t-59 -157q0 -89 59 -156t141 -67q64 0 115 27v89h-74q-15 0 -15 14v79q0 14 15 14h220zM437 -42q16 0 16 -15v-86q0 -3 -2 -7l-34 -98h-30q-12 0 -9 16l8 74h-46q-16 0 -16 15v86q0 15 16 15h97z" />
    <glyph glyph-name="gcommaaccent" unicode="&#x123;" horiz-adv-x="518" 
d="M196 462q-16 0 -16 15v87q0 4 1 6l35 99h30q11 0 10 -16l-9 -74h46q16 0 16 -15v-87q0 -15 -16 -15h-97zM460 423q14 0 14 -16v-392v-61q0 -98 -67.5 -157.5t-173.5 -59.5q-58 0 -108 23.5t-78 64.5q-7 9 2 18l57 55q12 10 19 -2q37 -50 108 -50q40 0 71.5 26.5
t31.5 78.5v79q-46 -38 -116 -38q-96 0 -146 63t-50 157q0 96 51.5 157.5t143.5 61.5q72 0 117 -39l11 15q12 16 24 16h89zM245 101q82 0 82 109q0 110 -83 110q-39 0 -60.5 -30.5t-21.5 -78.5t22 -79t61 -31z" />
    <glyph glyph-name="Hbar" unicode="&#x126;" horiz-adv-x="774" 
d="M716 616q14 0 14 -14v-92q0 -14 -14 -14h-34v-481q0 -15 -14 -15h-125q-15 0 -15 15v263h-279v-263q0 -15 -14 -15h-125q-6 0 -10.5 4.5t-4.5 10.5v481h-37q-15 0 -15 14v92q0 14 15 14h37v69q0 6 4.5 10.5t10.5 4.5h125q14 0 14 -15v-69h279v69q0 15 15 15h125
q14 0 14 -15v-69h34zM528 414v82h-279v-82h279z" />
    <glyph glyph-name="hbar" unicode="&#x127;" horiz-adv-x="562" 
d="M336 431q83 0 134.5 -53.5t51.5 -156.5v-206q0 -15 -14 -15h-121q-15 0 -15 15v220q0 38 -19 61.5t-54 23.5q-34 0 -54 -22t-20 -52v-231q0 -15 -14 -15h-121q-15 0 -15 15v512h-59q-16 0 -16 15v60q0 15 16 15h59v75q0 16 15 16h121q14 0 14 -16v-75h49q16 0 16 -15v-60
q0 -15 -16 -15h-49v-132q51 36 111 36z" />
    <glyph glyph-name="Imacron" unicode="&#x12a;" horiz-adv-x="298" 
d="M52 758q-16 0 -16 15v52q0 15 16 15h192q16 0 16 -15v-52q0 -15 -16 -15h-192zM86 0q-6 0 -10.5 4.5t-4.5 10.5v670q0 6 4.5 10.5t10.5 4.5h125q14 0 14 -15v-670q0 -15 -14 -15h-125z" />
    <glyph glyph-name="imacron" unicode="&#x12b;" horiz-adv-x="243" 
d="M25 573q-16 0 -16 15v52q0 15 16 15h192q16 0 16 -15v-52q0 -15 -16 -15h-192zM61 0q-15 0 -15 14v392q0 17 15 17h120q15 0 15 -17v-392q0 -14 -15 -14h-120z" />
    <glyph glyph-name="Iogonek" unicode="&#x12e;" horiz-adv-x="298" 
d="M277 -130q5 -5 2 -11q-6 -21 -30 -42t-62 -22h-1q-42 0 -69 24.5t-27 64.5q0 62 64 116h-68q-6 0 -10.5 4.5t-4.5 10.5v670q0 6 4.5 10.5t10.5 4.5h125q14 0 14 -15v-670v-3h5q-60 -58 -60 -114q0 -39 32 -39q30 0 50 21q8 8 15 0z" />
    <glyph glyph-name="iogonek" unicode="&#x12f;" horiz-adv-x="243" 
d="M121 561q-24 0 -41 16.5t-17 40.5q0 25 17 41.5t41 16.5t41 -16.5t17 -41.5q0 -24 -17 -40.5t-41 -16.5zM242 -130q5 -5 2 -11q-6 -21 -30 -42t-62 -22h-1q-42 0 -69 24.5t-27 64.5q0 62 64 116h-58q-15 0 -15 14v392q0 17 15 17h120q15 0 15 -17v-392q0 -12 -13 -14
q-48 -52 -48 -102q0 -39 32 -39q30 0 50 21q8 8 15 0z" />
    <glyph glyph-name="Idotaccent" unicode="&#x130;" horiz-adv-x="298" 
d="M148 746q-24 0 -41 16.5t-17 40.5q0 25 17 41.5t41 16.5t41 -16.5t17 -41.5q0 -24 -17 -40.5t-41 -16.5zM86 0q-6 0 -10.5 4.5t-4.5 10.5v670q0 6 4.5 10.5t10.5 4.5h125q14 0 14 -15v-670q0 -15 -14 -15h-125z" />
    <glyph glyph-name="dotlessi" unicode="&#x131;" horiz-adv-x="243" 
d="M61 0q-15 0 -15 14v392q0 17 15 17h120q15 0 15 -17v-392q0 -14 -15 -14h-120z" />
    <glyph glyph-name="Kcommaaccent" unicode="&#x136;" horiz-adv-x="673" 
d="M359 350l278 -326q6 -6 3 -15t-14 -9h-129q-17 0 -29 15l-251 293v-293q0 -15 -14 -15h-125q-6 0 -10.5 4.5t-4.5 10.5v670q0 6 4.5 10.5t10.5 4.5h125q14 0 14 -15v-293l251 293q11 15 29 15h129q10 0 14 -8.5t-2 -15.5zM400 -42q16 0 16 -15v-86q0 -3 -2 -7l-34 -98
h-30q-12 0 -9 16l8 74h-46q-16 0 -16 15v86q0 15 16 15h97z" />
    <glyph glyph-name="kcommaaccent" unicode="&#x137;" horiz-adv-x="535" 
d="M512 23q5 -6 1 -14.5t-13 -8.5h-120q-15 0 -27 14l-155 186v-185q0 -15 -15 -15h-121q-14 0 -14 15v677q0 16 14 16h121q6 0 10.5 -4.5t4.5 -11.5v-445l139 161q13 15 24 15h120q8 0 13 -8t-2 -16l-152 -173zM331 -42q16 0 16 -15v-86q0 -3 -2 -7l-34 -98h-30
q-12 0 -9 16l8 74h-46q-16 0 -16 15v86q0 15 16 15h97z" />
    <glyph glyph-name="Lacute" unicode="&#x139;" horiz-adv-x="555" 
d="M201 733l-15 22q-7 10 4 21l134 143q11 11 23 -2l38 -58q9 -13 -3 -22l-159 -107q-13 -8 -22 3zM503 136q14 0 14 -15v-106q0 -15 -14 -15h-336h-97q-6 0 -10.5 4.5t-4.5 10.5v669q0 7 4.5 11.5t10.5 4.5h125q14 0 14 -16v-548h294z" />
    <glyph glyph-name="lacute" unicode="&#x13a;" horiz-adv-x="251" 
d="M44 734q-15 -5 -20 9l-9 25q-4 11 10 19l168 100q15 9 21 -9l21 -65q5 -15 -9 -20zM64 0q-14 0 -14 15v677q0 16 14 16h121q6 0 10.5 -4.5t4.5 -11.5v-677q0 -15 -15 -15h-121z" />
    <glyph glyph-name="Lcommaaccent" unicode="&#x13b;" horiz-adv-x="555" 
d="M503 136q14 0 14 -15v-106q0 -15 -14 -15h-336h-97q-6 0 -10.5 4.5t-4.5 10.5v669q0 7 4.5 11.5t10.5 4.5h125q14 0 14 -16v-548h294zM336 -42q16 0 16 -15v-86q0 -3 -2 -7l-34 -98h-30q-12 0 -9 16l8 74h-46q-16 0 -16 15v86q0 15 16 15h97z" />
    <glyph glyph-name="lcommaaccent" unicode="&#x13c;" horiz-adv-x="251" 
d="M185 708q6 0 10.5 -4.5t4.5 -11.5v-677q0 -15 -15 -15h-121q-14 0 -14 15v677q0 16 14 16h121zM175 -42q16 0 16 -15v-86q0 -3 -2 -7l-34 -98h-30q-12 0 -9 16l8 74h-46q-16 0 -16 15v86q0 15 16 15h97z" />
    <glyph glyph-name="Lcaron" unicode="&#x13d;" horiz-adv-x="555" 
d="M172 832q-10 10 -10 20v29q0 20 19 7l104 -66l105 66q19 13 19 -7v-29q0 -10 -10 -20l-87 -82q-12 -12 -25 -12h-4q-13 0 -25 12zM503 136q14 0 14 -15v-106q0 -15 -14 -15h-336h-97q-6 0 -10.5 4.5t-4.5 10.5v669q0 7 4.5 11.5t10.5 4.5h125q14 0 14 -16v-548h294z" />
    <glyph glyph-name="lcaron" unicode="&#x13e;" horiz-adv-x="251" 
d="M229 888q19 13 19 -7v-29q0 -10 -10 -20l-87 -82q-12 -12 -25 -12h-4q-13 0 -25 12l-86 82q-10 10 -10 20v29q0 20 19 7l104 -66zM185 708q6 0 10.5 -4.5t4.5 -11.5v-677q0 -15 -15 -15h-121q-14 0 -14 15v677q0 16 14 16h121z" />
    <glyph glyph-name="Ldot" unicode="&#x13f;" horiz-adv-x="563" 
d="M503 136q14 0 14 -15v-106q0 -15 -14 -15h-336h-97q-6 0 -10.5 4.5t-4.5 10.5v669q0 7 4.5 11.5t10.5 4.5h125q14 0 14 -16v-548h294zM361 308q-16 0 -16 15v88q0 15 16 15h95q16 0 16 -15v-88q0 -15 -16 -15h-95z" />
    <glyph glyph-name="ldot" unicode="&#x140;" horiz-adv-x="397" 
d="M64 0q-14 0 -14 15v677q0 16 14 16h121q6 0 10.5 -4.5t4.5 -11.5v-677q0 -15 -15 -15h-121zM277 308q-16 0 -16 15v88q0 15 16 15h94q16 0 16 -15v-88q0 -15 -16 -15h-94z" />
    <glyph glyph-name="Lslash" unicode="&#x141;" horiz-adv-x="656" 
d="M596 136q14 0 14 -15v-106q0 -15 -14 -15h-336h-97q-6 0 -10.5 4.5t-4.5 10.5v231l-51 -42q-12 -10 -21 1l-49 57q-8 11 2 21l119 99v302q0 7 4.5 11.5t10.5 4.5h125q14 0 14 -16v-173l46 39q12 8 21 -3l48 -56q10 -11 -2 -21l-113 -95v-239h294z" />
    <glyph glyph-name="lslash" unicode="&#x142;" horiz-adv-x="389" 
d="M386 475q10 -11 -2 -21l-108 -90v-349q0 -15 -15 -15h-121q-14 0 -14 15v223l-60 -50q-12 -10 -21 1l-42 50q-4 4 -3 10.5t5 10.5l121 101v331q0 16 14 16h121q6 0 10.5 -4.5t4.5 -11.5v-205l48 40q10 8 20 -3z" />
    <glyph glyph-name="Nacute" unicode="&#x143;" horiz-adv-x="705" 
d="M251 743l-9 25q-4 11 10 19l168 100q15 9 21 -9l21 -65q5 -15 -9 -20l-182 -59q-15 -5 -20 9zM627 700q6 0 10.5 -4.5t4.5 -10.5v-671q0 -14 -15 -14h-89h-16q-14 0 -25 14l-280 411v-411q0 -14 -14 -14h-125q-15 0 -15 14v671q0 6 4.5 10.5t10.5 4.5h90h21q13 0 24 -15
l275 -403v403q0 15 14 15h125z" />
    <glyph glyph-name="nacute" unicode="&#x144;" horiz-adv-x="552" 
d="M191 456l-15 22q-7 10 4 21l134 143q11 11 23 -2l38 -58q9 -13 -3 -22l-159 -107q-13 -8 -22 3zM316 431q100 0 146 -50t46 -138v-228q0 -7 -5.5 -11t-10.5 -4h-119q-15 0 -15 15v222q0 37 -20.5 60t-58.5 23q-37 0 -61 -22t-24 -52v-231q0 -15 -15 -15h-121
q-14 0 -14 15v391q0 17 14 17h111q10 0 15 -17l10 -30v-1q56 56 122 56z" />
    <glyph glyph-name="Ncommaaccent" unicode="&#x145;" horiz-adv-x="705" 
d="M627 700q6 0 10.5 -4.5t4.5 -10.5v-671q0 -14 -15 -14h-89h-16q-14 0 -25 14l-280 411v-411q0 -14 -14 -14h-125q-15 0 -15 14v671q0 6 4.5 10.5t10.5 4.5h90h21q13 0 24 -15l275 -403v403q0 15 14 15h125zM402 -42q16 0 16 -15v-86q0 -3 -2 -7l-34 -98h-30q-12 0 -9 16
l8 74h-46q-16 0 -16 15v86q0 15 16 15h97z" />
    <glyph glyph-name="ncommaaccent" unicode="&#x146;" horiz-adv-x="552" 
d="M316 431q100 0 146 -50t46 -138v-228q0 -7 -5.5 -11t-10.5 -4h-119q-15 0 -15 15v222q0 37 -20.5 60t-58.5 23q-37 0 -61 -22t-24 -52v-231q0 -15 -15 -15h-121q-14 0 -14 15v391q0 17 14 17h111q10 0 15 -17l10 -30v-1q56 56 122 56zM326 -42q16 0 16 -15v-86
q0 -3 -2 -7l-34 -98h-30q-12 0 -9 16l8 74h-46q-16 0 -16 15v86q0 15 16 15h97z" />
    <glyph glyph-name="Ncaron" unicode="&#x147;" horiz-adv-x="705" 
d="M238 832q-10 10 -10 20v29q0 20 19 7l104 -66l105 66q19 13 19 -7v-29q0 -10 -10 -20l-87 -82q-12 -12 -25 -12h-4q-13 0 -25 12zM627 700q6 0 10.5 -4.5t4.5 -10.5v-671q0 -14 -15 -14h-89h-16q-14 0 -25 14l-280 411v-411q0 -14 -14 -14h-125q-15 0 -15 14v671
q0 6 4.5 10.5t10.5 4.5h90h21q13 0 24 -15l275 -403v403q0 15 14 15h125z" />
    <glyph glyph-name="ncaron" unicode="&#x148;" horiz-adv-x="552" 
d="M162 555q-10 10 -10 20v29q0 20 19 7l104 -66l105 66q19 13 19 -7v-29q0 -10 -10 -20l-87 -82q-12 -12 -25 -12h-4q-13 0 -25 12zM316 431q100 0 146 -50t46 -138v-228q0 -7 -5.5 -11t-10.5 -4h-119q-15 0 -15 15v222q0 37 -20.5 60t-58.5 23q-37 0 -61 -22t-24 -52v-231
q0 -15 -15 -15h-121q-14 0 -14 15v391q0 17 14 17h111q10 0 15 -17l10 -30v-1q56 56 122 56z" />
    <glyph glyph-name="Eng" unicode="&#x14a;" horiz-adv-x="689" 
d="M627 700q6 0 10.5 -4.5t4.5 -10.5v-671v-49q0 -80 -98 -158q-9 -8 -17 0l-58 60q-7 10 0 19q2 2 14.5 16.5t17 21t10 18.5t5.5 22q0 19 -28 64l-271 397v-411q0 -14 -14 -14h-125q-15 0 -15 14v671q0 6 4.5 10.5t10.5 4.5h90h21q13 0 24 -15l275 -403v403q0 15 14 15h125
z" />
    <glyph glyph-name="eng" unicode="&#x14b;" horiz-adv-x="552" 
d="M508 35q0 -38 -2 -75q-2 -80 -96 -153q-9 -8 -17 0l-58 60q-7 10 0 19q23 28 23 78v51v222q0 37 -20.5 60t-58.5 23q-37 0 -61 -22t-24 -52v-231q0 -15 -15 -15h-121q-14 0 -14 15v391q0 17 14 17h111q10 0 15 -17l10 -30v-1q56 56 122 56q100 0 146 -50t46 -138v-208z
" />
    <glyph glyph-name="Omacron" unicode="&#x14c;" horiz-adv-x="781" 
d="M295 758q-16 0 -16 15v52q0 15 16 15h192q16 0 16 -15v-52q0 -15 -16 -15h-192zM391 -8q-148 0 -253 104.5t-105 252.5q0 149 105 254t253 105t252.5 -105t104.5 -254q0 -148 -104.5 -252.5t-252.5 -104.5zM391 128q86 0 144.5 64.5t58.5 156.5t-58.5 157t-144.5 65
t-145 -65t-59 -157t59 -156.5t145 -64.5z" />
    <glyph glyph-name="omacron" unicode="&#x14d;" horiz-adv-x="517" 
d="M163 481q-16 0 -16 15v52q0 15 16 15h192q16 0 16 -15v-52q0 -15 -16 -15h-192zM259 -8q-95 0 -161 64t-66 154q0 92 66 156.5t161 64.5q94 0 160 -64.5t66 -156.5q0 -90 -66 -154t-160 -64zM259 101q37 0 63 28.5t26 80.5t-25.5 81t-63.5 29t-63.5 -29t-25.5 -81
t25.5 -80.5t63.5 -28.5z" />
    <glyph glyph-name="Ohungarumlaut" unicode="&#x150;" horiz-adv-x="781" 
d="M255 741q-10 -5 -21 6l-11 13q-6 7 7 20l101 89q12 8 20 -3l40 -44q12 -16 -6 -21zM424 741q-10 -5 -21 6l-11 13q-6 7 7 20l101 89q11 7 20 -3l39 -44q12 -14 -5 -22zM391 -8q-148 0 -253 104.5t-105 252.5q0 149 105 254t253 105t252.5 -105t104.5 -254
q0 -148 -104.5 -252.5t-252.5 -104.5zM391 128q86 0 144.5 64.5t58.5 156.5t-58.5 157t-144.5 65t-145 -65t-59 -157t59 -156.5t145 -64.5z" />
    <glyph glyph-name="ohungarumlaut" unicode="&#x151;" horiz-adv-x="517" 
d="M134 467l-15 9q-7 5 2 21l73 113q8 13 19 4l52 -32q13 -11 0 -22l-109 -93q-10 -8 -22 0zM276 467l-14 9q-8 5 1 21l73 113q7 11 19 4l51 -32q14 -11 1 -22l-109 -93q-10 -8 -22 0zM259 -8q-95 0 -161 64t-66 154q0 92 66 156.5t161 64.5q94 0 160 -64.5t66 -156.5
q0 -90 -66 -154t-160 -64zM259 101q37 0 63 28.5t26 80.5t-25.5 81t-63.5 29t-63.5 -29t-25.5 -81t25.5 -80.5t63.5 -28.5z" />
    <glyph glyph-name="OE" unicode="&#x152;" horiz-adv-x="985" 
d="M931 136q6 0 10.5 -4.5t4.5 -10.5v-106q0 -6 -4.5 -10.5t-10.5 -4.5h-356h-73q-6 0 -11 5q-48 -13 -97 -13h-1q-63 0 -125.5 24t-115 67.5t-85 113.5t-32.5 153t32.5 153t85 113.5t115 67.5t124.5 24q45 0 97 -13v-2q5 7 13 7h125h303q14 0 14 -15v-106q0 -15 -14 -15
h-289v-150h190q15 0 15 -14v-108q0 -14 -15 -14h-190v-142h290zM393 128q51 0 94 24v394q-44 25 -95 25q-85 -1 -144 -62.5t-59 -158.5q0 -99 59 -160.5t145 -61.5z" />
    <glyph glyph-name="oe" unicode="&#x153;" horiz-adv-x="774" 
d="M534 431q97 0 148.5 -62.5t51.5 -179.5q0 -6 -4.5 -10.5t-10.5 -4.5h-123h-132q8 -35 31.5 -56.5t54.5 -21.5q55 0 87 34q11 11 20 -2l46 -53q10 -11 0 -21q-64 -62 -160 -62q-88 0 -151 57q-60 -57 -147 -57q-94 0 -153.5 63t-59.5 155q0 94 59.5 157.5t153.5 63.5
q86 0 146 -57q62 57 143 57zM532 330q-56 0 -69 -77h130q-4 34 -20 55.5t-41 21.5zM245 101q74 0 74 109q0 110 -74 110q-75 0 -75 -110q0 -109 75 -109z" />
    <glyph glyph-name="Racute" unicode="&#x154;" horiz-adv-x="658" 
d="M229 743l-9 25q-4 11 10 19l168 100q15 9 21 -9l21 -65q5 -15 -9 -20l-182 -59q-15 -5 -20 9zM603 21q5 -9 -0.5 -15t-12.5 -6h-123q-13 0 -21 15l-122 236h-115v-237q0 -14 -14 -14h-125q-15 0 -15 14v671q0 15 15 15h125h220q76 -1 129.5 -62t53.5 -160
q0 -84 -34.5 -139t-90.5 -76zM209 564v-176h162q26 0 49.5 20t23.5 70q0 10 -1.5 19.5t-7.5 27t-23 28.5t-43 11h-160z" />
    <glyph glyph-name="racute" unicode="&#x155;" horiz-adv-x="384" 
d="M123 456l-15 22q-7 10 4 21l134 143q11 11 23 -2l38 -58q9 -13 -3 -22l-159 -107q-13 -8 -22 3zM365 414q11 -8 6 -17l-45 -85q-7 -11 -19 -5q-26 17 -50 17q-28 0 -45.5 -20t-17.5 -54v-235q0 -15 -15 -15h-120q-15 0 -15 15v391q0 17 15 17h76q11 0 26 -19l12 -14
q43 41 112 41q50 0 80 -17z" />
    <glyph glyph-name="Rcommaaccent" unicode="&#x156;" horiz-adv-x="658" 
d="M603 21q5 -9 -0.5 -15t-12.5 -6h-123q-13 0 -21 15l-122 236h-115v-237q0 -14 -14 -14h-125q-15 0 -15 14v671q0 15 15 15h125h220q76 -1 129.5 -62t53.5 -160q0 -84 -34.5 -139t-90.5 -76zM209 564v-176h162q26 0 49.5 20t23.5 70q0 10 -1.5 19.5t-7.5 27t-23 28.5
t-43 11h-160zM379 -42q16 0 16 -15v-86q0 -3 -2 -7l-34 -98h-30q-12 0 -9 16l8 74h-46q-16 0 -16 15v86q0 15 16 15h97z" />
    <glyph glyph-name="rcommaaccent" unicode="&#x157;" horiz-adv-x="384" 
d="M365 414q11 -8 6 -17l-45 -85q-7 -11 -19 -5q-26 17 -50 17q-28 0 -45.5 -20t-17.5 -54v-235q0 -15 -15 -15h-120q-15 0 -15 15v391q0 17 15 17h76q11 0 26 -19l12 -14q43 41 112 41q50 0 80 -17zM258 -42q16 0 16 -15v-86q0 -3 -2 -7l-34 -98h-30q-12 0 -9 16l8 74h-46
q-16 0 -16 15v86q0 15 16 15h97z" />
    <glyph glyph-name="Rcaron" unicode="&#x158;" horiz-adv-x="658" 
d="M216 832q-10 10 -10 20v29q0 20 19 7l104 -66l105 66q19 13 19 -7v-29q0 -10 -10 -20l-87 -82q-12 -12 -25 -12h-4q-13 0 -25 12zM603 21q5 -9 -0.5 -15t-12.5 -6h-123q-13 0 -21 15l-122 236h-115v-237q0 -14 -14 -14h-125q-15 0 -15 14v671q0 15 15 15h125h220
q76 -1 129.5 -62t53.5 -160q0 -84 -34.5 -139t-90.5 -76zM209 564v-176h162q26 0 49.5 20t23.5 70q0 10 -1.5 19.5t-7.5 27t-23 28.5t-43 11h-160z" />
    <glyph glyph-name="rcaron" unicode="&#x159;" horiz-adv-x="384" 
d="M94 555q-10 10 -10 20v29q0 20 19 7l104 -66l105 66q19 13 19 -7v-29q0 -10 -10 -20l-87 -82q-12 -12 -25 -12h-4q-13 0 -25 12zM365 414q11 -8 6 -17l-45 -85q-7 -11 -19 -5q-26 17 -50 17q-28 0 -45.5 -20t-17.5 -54v-235q0 -15 -15 -15h-120q-15 0 -15 15v391
q0 17 15 17h76q11 0 26 -19l12 -14q43 41 112 41q50 0 80 -17z" />
    <glyph glyph-name="Sacute" unicode="&#x15a;" horiz-adv-x="633" 
d="M236 734q-15 -5 -20 9l-9 25q-4 11 10 19l168 100q15 9 21 -9l21 -65q5 -15 -9 -20zM316 -8q-171 0 -266 95q-10 10 0 20l78 80q9 9 20 1q67 -53 169 -53q41 0 80 17.5t39 53.5q0 29 -27.5 44t-103.5 30q-142 28 -201 81.5t-59 131.5q0 35 15 70.5t44.5 69t83.5 54.5
t123 21q154 0 264 -87q12 -11 1 -22l-78 -82q-10 -8 -19 -2q-66 50 -162 50q-55 0 -86.5 -16t-31.5 -45q0 -30 30.5 -48t103.5 -33q136 -25 196.5 -76.5t60.5 -140.5q0 -36 -14.5 -71t-45 -68.5t-86 -54t-128.5 -20.5z" />
    <glyph glyph-name="sacute" unicode="&#x15b;" horiz-adv-x="433" 
d="M154 453q-13 -8 -22 3l-15 22q-7 10 4 21l134 143q11 11 23 -2l38 -58q9 -13 -3 -22zM203 -8q-116 0 -169 51q-8 8 -2 19l33 59q6 13 20 6q56 -28 118 -28q55 0 55 30q0 20 -61 32q-85 19 -120.5 48.5t-35.5 84.5q0 58 47 97.5t128 39.5q88 0 155 -38q12 -7 6 -19
l-36 -65q-9 -11 -20 -6q-50 21 -90 21q-52 0 -52 -28q0 -18 58 -32q45 -11 67 -19t47 -23t34.5 -37.5t9.5 -55.5q0 -23 -8.5 -44.5t-28.5 -43.5t-60 -35.5t-95 -13.5z" />
    <glyph glyph-name="Scedilla" unicode="&#x15e;" horiz-adv-x="633" 
d="M590 206q0 -34 -13.5 -68t-41.5 -66.5t-78.5 -54t-117.5 -24.5l-11 -28q33 2 58 -18.5t25 -58.5q0 -89 -104 -89q-25 0 -48 13t-28 25q-2 6 2 9l29 27q5 4 11 -2q14 -14 33 -14q14 0 23 8t9 24t-12 23.5t-22 -1.5q-5 -4 -10 -5.5t-8 -0.5l-3 1l-38 11q-6 3 -5 10
q19 44 28 67q-136 11 -218 93q-10 10 0 20l78 80q9 9 20 1q67 -53 169 -53q41 0 80 17.5t39 53.5q0 29 -27.5 44t-103.5 30q-142 28 -201 81.5t-59 131.5q0 35 15 70.5t44.5 69t83.5 54.5t123 21q154 0 264 -87q12 -11 1 -22l-78 -82q-10 -8 -19 -2q-66 50 -162 50
q-55 0 -86.5 -16t-31.5 -45q0 -30 30.5 -48t103.5 -33q136 -25 196.5 -76.5t60.5 -140.5z" />
    <glyph glyph-name="scedilla" unicode="&#x15f;" horiz-adv-x="433" 
d="M395 129q0 -21 -7.5 -42t-25 -42t-52.5 -35t-84 -17l-11 -28q33 2 58 -18.5t25 -58.5q0 -89 -104 -89q-25 0 -48 13t-28 25q-2 6 2 9l29 27q5 4 11 -2q14 -14 33 -14q14 0 23 8t9 24t-11.5 23.5t-22.5 -1.5q-5 -4 -10 -5.5t-8 -0.5l-3 1l-38 11q-6 3 -5 10q19 46 29 68
q-82 10 -122 48q-8 8 -2 19l33 59q6 13 20 6q56 -28 118 -28q55 0 55 30q0 20 -61 32q-85 19 -120.5 48.5t-35.5 84.5q0 58 47 97.5t128 39.5q88 0 155 -38q12 -7 6 -19l-36 -65q-9 -11 -20 -6q-50 21 -90 21q-52 0 -52 -28q0 -18 58 -32q45 -11 67 -19t47 -23t34.5 -37.5
t9.5 -55.5z" />
    <glyph glyph-name="Scaron" unicode="&#x160;" horiz-adv-x="633" 
d="M203 832q-10 10 -10 20v29q0 20 19 7l104 -66l105 66q19 13 19 -7v-29q0 -10 -10 -20l-87 -82q-12 -12 -25 -12h-4q-13 0 -25 12zM333 423q136 -25 196.5 -76.5t60.5 -140.5q0 -36 -14.5 -71t-45 -68.5t-86 -54t-128.5 -20.5q-171 0 -266 95q-10 10 0 20l78 80q9 9 20 1
q67 -53 169 -53q41 0 80 17.5t39 53.5q0 29 -27.5 44t-103.5 30q-142 28 -201 81.5t-59 131.5q0 35 15 70.5t44.5 69t83.5 54.5t123 21q154 0 264 -87q12 -11 1 -22l-78 -82q-10 -8 -19 -2q-66 50 -162 50q-55 0 -86.5 -16t-31.5 -45q0 -30 30.5 -48t103.5 -33z" />
    <glyph glyph-name="scaron" unicode="&#x161;" horiz-adv-x="433" 
d="M104 555q-10 10 -10 20v29q0 20 19 7l104 -66l105 66q19 13 19 -7v-29q0 -10 -10 -20l-87 -82q-12 -12 -25 -12h-4q-13 0 -25 12zM237 264q45 -11 67 -19t47 -23t34.5 -37.5t9.5 -55.5q0 -23 -8.5 -44.5t-28.5 -43.5t-60 -35.5t-95 -13.5q-116 0 -169 51q-8 8 -2 19
l33 59q6 13 20 6q56 -28 118 -28q55 0 55 30q0 20 -61 32q-85 19 -120.5 48.5t-35.5 84.5q0 58 47 97.5t128 39.5q88 0 155 -38q12 -7 6 -19l-36 -65q-9 -11 -20 -6q-50 21 -90 21q-52 0 -52 -28q0 -18 58 -32z" />
    <glyph glyph-name="uni0162" unicode="&#x162;" horiz-adv-x="611" 
d="M568 700q6 0 10 -5t4 -11v-105q0 -15 -14 -15h-183v-549q0 -6 -4.5 -10.5t-10.5 -4.5h-38l-13 -32q33 2 58 -18.5t25 -58.5q0 -89 -104 -89q-25 0 -48 13t-28 25q-2 6 2 9l29 27q5 4 11 -2q14 -14 33 -14q14 0 23 8t9 24t-11.5 23.5t-22.5 -1.5q-5 -4 -10 -5t-8 -1l-3 1
l-38 11q-6 3 -5 10q21 50 30 70h-16q-14 0 -14 15v549h-183q-6 0 -10.5 4.5t-4.5 10.5v105q0 6 4.5 11t10.5 5h227h95h198z" />
    <glyph glyph-name="uni0163" unicode="&#x163;" horiz-adv-x="387" 
d="M374 44v-3q1 -3 1 -5.5t-1.5 -6t-5.5 -5.5q-54 -31 -137 -32l-11 -27q33 2 58 -18.5t25 -58.5q0 -89 -104 -89q-25 0 -48 13t-28 25q-2 6 2 9l29 27q5 4 11 -2q14 -14 33 -14q14 0 23 8t9 24t-12 23.5t-22 -1.5q-5 -4 -10 -5.5t-8 -0.5l-3 1l-38 11q-6 3 -5 10
q25 60 32 75q-76 30 -79 138h-1v169h-38q-14 0 -14 16v81q0 17 14 17h38v105q0 15 15 15h120q15 0 15 -15v-105h91q15 0 15 -17v-81q0 -16 -15 -16h-91v-152q0 -52 41 -52q28 0 50 17q1 1 4 2t8 -1t8 -7z" />
    <glyph glyph-name="Tcaron" unicode="&#x164;" horiz-adv-x="611" 
d="M194 832q-10 10 -10 20v29q0 20 19 7l104 -66l105 66q19 13 19 -7v-29q0 -10 -10 -20l-87 -82q-12 -12 -25 -12h-4q-13 0 -25 12zM568 700q6 0 10 -5t4 -11v-105q0 -15 -14 -15h-183v-549q0 -6 -4.5 -10.5t-10.5 -4.5h-125q-14 0 -14 15v549h-183q-6 0 -10.5 4.5
t-4.5 10.5v105q0 6 4.5 11t10.5 5h227h95h198z" />
    <glyph glyph-name="tcaron" unicode="&#x165;" horiz-adv-x="387" 
d="M86 693q-10 10 -10 20v29q0 20 19 7l104 -66l105 66q19 13 19 -7v-29q0 -10 -10 -20l-87 -82q-12 -12 -25 -12h-4q-13 0 -25 12zM374 44v-3q1 -3 1 -5.5t-1.5 -6t-5.5 -5.5q-55 -32 -143 -32q-135 0 -140 148h-1v169h-38q-14 0 -14 16v81q0 17 14 17h38v105q0 15 15 15
h120q15 0 15 -15v-105h91q15 0 15 -17v-81q0 -16 -15 -16h-91v-152q0 -52 41 -52q28 0 50 17q1 1 4 2t8 -1t8 -7z" />
    <glyph glyph-name="Tbar" unicode="&#x166;" horiz-adv-x="611" 
d="M568 700q6 0 10 -5t4 -11v-105q0 -15 -14 -15h-183v-157h64q16 0 16 -15v-85q0 -15 -16 -15h-64v-277q0 -6 -4.5 -10.5t-10.5 -4.5h-125q-14 0 -14 15v277h-66q-16 0 -16 15v85q0 15 16 15h66v157h-183q-6 0 -10.5 4.5t-4.5 10.5v105q0 6 4.5 11t10.5 5h227h95h198z" />
    <glyph glyph-name="tbar" unicode="&#x167;" horiz-adv-x="431" 
d="M386 44q7 -13 -6 -20q-55 -32 -143 -32q-135 0 -140 148v169h-39q-14 0 -14 16v81q0 17 14 17h39v52h-39q-14 0 -14 16v81q0 17 14 17h39v84q0 15 15 15h120q15 0 15 -15v-84h90q15 0 15 -17v-81q0 -16 -15 -16h-90v-52h90q15 0 15 -17v-81q0 -16 -15 -16h-90v-152
q0 -27 9 -39.5t32 -12.5q27 0 49 17q1 1 4 2t8 -1t8 -7z" />
    <glyph glyph-name="Umacron" unicode="&#x16a;" horiz-adv-x="667" 
d="M234 758q-16 0 -16 15v52q0 15 16 15h192q16 0 16 -15v-52q0 -15 -16 -15h-192zM590 700q14 0 14 -16v-372q0 -58 -5 -100.5t-22 -86.5t-46 -71t-80 -44.5t-121 -17.5q-83 0 -139.5 24.5t-85 71.5t-39.5 100t-11 124v372q0 7 4.5 11.5t10.5 4.5h125q14 0 14 -16v-366
q0 -47 4 -77t15.5 -58t36.5 -41.5t65 -13.5q39 0 64 13.5t36.5 41.5t15.5 58t4 77v366q0 7 4.5 11.5t10.5 4.5h125z" />
    <glyph glyph-name="umacron" unicode="&#x16b;" horiz-adv-x="540" 
d="M174 481q-16 0 -16 15v52q0 15 16 15h192q16 0 16 -15v-52q0 -15 -16 -15h-192zM481 423q15 0 15 -17v-392q0 -14 -15 -14h-91q-14 0 -22 14l-23 35q-53 -57 -119 -57q-89 0 -135.5 49t-46.5 134v231q0 17 14 17h121q15 0 15 -17v-224q0 -35 20 -58.5t55 -23.5t55.5 22
t21.5 52v232q0 17 15 17h120z" />
    <glyph glyph-name="ubreve" unicode="&#x16d;" horiz-adv-x="540" 
d="M270 464q-108 0 -149 102q-3 7 5 10l58 26q8 3 11 -4q11 -19 18.5 -28.5t22.5 -17.5t35 -8t34.5 8.5t22 17.5t18.5 28q4 7 11 4l58 -26q8 -3 5 -10q-41 -102 -150 -102zM481 423q15 0 15 -17v-392q0 -14 -15 -14h-91q-14 0 -22 14l-23 35q-53 -57 -119 -57
q-89 0 -135.5 49t-46.5 134v231q0 17 14 17h121q15 0 15 -17v-224q0 -35 20 -58.5t55 -23.5t55.5 22t21.5 52v232q0 17 15 17h120z" />
    <glyph glyph-name="Uring" unicode="&#x16e;" horiz-adv-x="667" 
d="M329 728q-46 0 -76.5 29.5t-30.5 79.5t30.5 79.5t76.5 29.5t77.5 -30t31.5 -79t-31.5 -79t-77.5 -30zM329 878q-17 0 -25.5 -12.5t-8.5 -28.5q0 -42 34 -42q18 0 27.5 12.5t9.5 29.5q0 16 -10 28.5t-27 12.5zM590 700q14 0 14 -16v-372q0 -58 -5 -100.5t-22 -86.5
t-46 -71t-80 -44.5t-121 -17.5q-83 0 -139.5 24.5t-85 71.5t-39.5 100t-11 124v372q0 7 4.5 11.5t10.5 4.5h125q14 0 14 -16v-366q0 -47 4 -77t15.5 -58t36.5 -41.5t65 -13.5q39 0 64 13.5t36.5 41.5t15.5 58t4 77v366q0 7 4.5 11.5t10.5 4.5h125z" />
    <glyph glyph-name="uring" unicode="&#x16f;" horiz-adv-x="540" 
d="M269 451q-46 0 -76.5 29.5t-30.5 79.5t30.5 79.5t76.5 29.5t77.5 -30t31.5 -79t-31.5 -79t-77.5 -30zM269 601q-17 0 -25.5 -12.5t-8.5 -28.5q0 -42 34 -42q18 0 27.5 12.5t9.5 29.5q0 16 -10 28.5t-27 12.5zM481 423q15 0 15 -17v-392q0 -14 -15 -14h-91q-14 0 -22 14
l-23 35q-53 -57 -119 -57q-89 0 -135.5 49t-46.5 134v231q0 17 14 17h121q15 0 15 -17v-224q0 -35 20 -58.5t55 -23.5t55.5 22t21.5 52v232q0 17 15 17h120z" />
    <glyph glyph-name="Uhungarumlaut" unicode="&#x170;" horiz-adv-x="667" 
d="M172 747l-11 13q-6 7 7 20l101 89q12 8 20 -3l40 -44q12 -16 -6 -21l-130 -60q-10 -5 -21 6zM330 760q-6 7 7 20l101 89q11 7 20 -3l39 -44q12 -14 -5 -22l-130 -59q-10 -5 -21 6zM590 700q14 0 14 -16v-372q0 -58 -5 -100.5t-22 -86.5t-46 -71t-80 -44.5t-121 -17.5
q-83 0 -139.5 24.5t-85 71.5t-39.5 100t-11 124v372q0 7 4.5 11.5t10.5 4.5h125q14 0 14 -16v-366q0 -47 4 -77t15.5 -58t36.5 -41.5t65 -13.5q39 0 64 13.5t36.5 41.5t15.5 58t4 77v366q0 7 4.5 11.5t10.5 4.5h125z" />
    <glyph glyph-name="uhungarumlaut" unicode="&#x171;" horiz-adv-x="540" 
d="M130 476q-7 5 2 21l73 113q9 13 19 4l52 -32q13 -11 0 -22l-109 -93q-10 -8 -22 0zM273 476q-8 5 1 21l73 113q7 11 19 4l51 -32q14 -11 1 -22l-109 -93q-10 -8 -22 0zM481 423q15 0 15 -17v-392q0 -14 -15 -14h-91q-14 0 -22 14l-23 35q-53 -57 -119 -57
q-89 0 -135.5 49t-46.5 134v231q0 17 14 17h121q15 0 15 -17v-224q0 -35 20 -58.5t55 -23.5t55.5 22t21.5 52v232q0 17 15 17h120z" />
    <glyph glyph-name="Uogonek" unicode="&#x172;" horiz-adv-x="667" 
d="M590 700q14 0 14 -16v-372q0 -47 -3.5 -83t-13.5 -74t-27.5 -65t-47 -49.5t-70.5 -34.5q-54 -54 -54 -108q0 -39 32 -39q30 0 50 21q8 8 15 0l10 -10q5 -5 2 -11q-6 -21 -30 -42t-62 -22h-1q-42 0 -69 24.5t-27 64.5q0 57 56 109q-11 -1 -34 -1q-83 0 -139.5 24.5
t-85 71.5t-39.5 100t-11 124v372q0 7 4.5 11.5t10.5 4.5h125q14 0 14 -16v-366q0 -47 4 -77t15.5 -58t36.5 -41.5t65 -13.5q39 0 64 13.5t36.5 41.5t15.5 58t4 77v366q0 7 4.5 11.5t10.5 4.5h125z" />
    <glyph glyph-name="uogonek" unicode="&#x173;" horiz-adv-x="540" 
d="M524 -130q5 -5 2 -11q-6 -21 -30 -42t-62 -22h-1q-42 0 -69 24.5t-27 64.5q0 62 64 116h-11q-14 0 -22 14l-23 35q-53 -57 -119 -57q-89 0 -135.5 49t-46.5 134v231q0 17 14 17h121q15 0 15 -17v-224q0 -35 20 -58.5t55 -23.5t55.5 22t21.5 52v232q0 17 15 17h120
q15 0 15 -17v-392q0 -14 -15 -14h-16q-48 -52 -48 -102q0 -39 32 -39q30 0 50 21q8 8 15 0z" />
    <glyph glyph-name="Wcircumflex" unicode="&#x174;" horiz-adv-x="992" 
d="M391 742q-19 -13 -19 7v29q0 10 10 20l86 82q12 12 25 12h4q13 0 25 -12l87 -82q10 -10 10 -20v-29q0 -20 -19 -7l-105 66zM954 700q7 0 11.5 -6t1.5 -14l-252 -670q-3 -10 -13 -10h-55q-9 0 -13 9l-138 383l-136 -382q-4 -10 -14 -10h-55q-10 0 -14 10l-252 670
q-2 8 2.5 14t11.5 6h120q9 0 13 -10l150 -394l123 393q3 10 14 10h70h3q10 0 14 -10l124 -393l150 394q4 10 14 10h120z" />
    <glyph glyph-name="wcircumflex" unicode="&#x175;" horiz-adv-x="672" 
d="M230 465q-19 -13 -19 7v29q0 10 10 20l86 82q12 12 25 12h4q13 0 25 -12l87 -82q10 -10 10 -20v-29q0 -20 -19 -7l-105 66zM636 423q9 0 12.5 -7.5t0.5 -13.5l-147 -392q-4 -10 -14 -10h-25h-33q-9 0 -14 10l-80 232l-80 -233q-4 -9 -13 -9h-39h-21q-9 0 -14 9l-145 393
q-3 6 0.5 13.5t12.5 7.5h119q12 0 15 -10l49 -211l80 211q4 10 13 10h44h3q10 0 13 -10l80 -210l49 209q3 11 15 11h119z" />
    <glyph glyph-name="Ycircumflex" unicode="&#x176;" horiz-adv-x="665" 
d="M226 742q-19 -13 -19 7v29q0 10 10 20l86 82q12 12 25 12h4q13 0 25 -12l87 -82q10 -10 10 -20v-29q0 -20 -19 -7l-105 66zM618 700q8 0 13 -7.5t0 -15.5l-223 -380v-283q0 -14 -15 -14h-124q-15 0 -15 14v283l-222 381q-4 8 1 15t12 7h126q14 0 25 -15l135 -239l137 239
q11 15 24 15h126z" />
    <glyph glyph-name="ycircumflex" unicode="&#x177;" horiz-adv-x="533" 
d="M161 465q-19 -13 -19 7v29q0 10 10 20l86 82q12 12 25 12h4q13 0 25 -12l87 -82q10 -10 10 -20v-29q0 -20 -19 -7l-105 66zM504 423q7 0 12.5 -6.5t1.5 -14.5l-341 -674q-4 -8 -13 -8h-114q-8 0 -12.5 6.5t-0.5 14.5l154 306l-175 355q-3 6 0.5 13.5t12.5 7.5h114
q11 0 17 -15l105 -215l112 221q4 9 14 9h113z" />
    <glyph glyph-name="Ydieresis" unicode="&#x178;" horiz-adv-x="665" 
d="M262 758q-20 0 -34 13t-14 33q0 21 13.5 34t34.5 13q20 0 33.5 -13t13.5 -34q0 -20 -13.5 -33t-33.5 -13zM403 758q-20 0 -34 13t-14 33q0 21 13.5 34t34.5 13q20 0 33.5 -13t13.5 -34q0 -20 -13.5 -33t-33.5 -13zM618 700q8 0 13 -7.5t0 -15.5l-223 -380v-283
q0 -14 -15 -14h-124q-15 0 -15 14v283l-222 381q-4 8 1 15t12 7h126q14 0 25 -15l135 -239l137 239q11 15 24 15h126z" />
    <glyph glyph-name="Zacute" unicode="&#x179;" horiz-adv-x="644" 
d="M224 743l-9 25q-4 11 10 19l168 100q15 9 21 -9l21 -65q5 -15 -9 -20l-182 -59q-15 -5 -20 9zM582 700q8 0 12.5 -7t0.5 -15l-309 -542h288q5 0 9.5 -4.5t4.5 -10.5v-106q0 -15 -14 -15h-503h-5q-8 0 -12.5 7t-0.5 14l310 543h-272q-14 0 -14 14v106q0 16 14 16h487h4z
" />
    <glyph glyph-name="zacute" unicode="&#x17a;" horiz-adv-x="442" 
d="M136 456l-15 22q-7 10 4 21l134 143q11 11 23 -2l38 -58q9 -13 -3 -22l-159 -107q-13 -8 -22 3zM356 321q0 -4 -4 -8l-108 -199h133q6 0 10.5 -4.5t4.5 -10.5v-85q0 -14 -15 -14h-275h-47q-7 0 -12 7t-1 15l157 287h-133q-15 0 -15 14v85q0 6 4.5 10.5t10.5 4.5h276h45
q8 0 12.5 -6.5t0.5 -15.5z" />
    <glyph glyph-name="Zdotaccent" unicode="&#x17b;" horiz-adv-x="644" 
d="M325 746q-24 0 -41 16.5t-17 40.5q0 25 17 41.5t41 16.5t41 -16.5t17 -41.5q0 -24 -17 -40.5t-41 -16.5zM582 700q8 0 12.5 -7t0.5 -15l-309 -542h288q5 0 9.5 -4.5t4.5 -10.5v-106q0 -15 -14 -15h-503h-5q-8 0 -12.5 7t-0.5 14l310 543h-272q-14 0 -14 14v106
q0 16 14 16h487h4z" />
    <glyph glyph-name="zdotaccent" unicode="&#x17c;" horiz-adv-x="442" 
d="M221 469q-24 0 -41 16.5t-17 40.5q0 25 17 41.5t41 16.5t41 -16.5t17 -41.5q0 -24 -17 -40.5t-41 -16.5zM356 321q0 -4 -4 -8l-108 -199h133q6 0 10.5 -4.5t4.5 -10.5v-85q0 -14 -15 -14h-275h-47q-7 0 -12 7t-1 15l157 287h-133q-15 0 -15 14v85q0 6 4.5 10.5t10.5 4.5
h276h45q8 0 12.5 -6.5t0.5 -15.5z" />
    <glyph glyph-name="Zcaron" unicode="&#x17d;" horiz-adv-x="644" 
d="M211 832q-10 10 -10 20v29q0 20 19 7l104 -66l105 66q19 13 19 -7v-29q0 -10 -10 -20l-87 -82q-12 -12 -25 -12h-4q-13 0 -25 12zM582 700q8 0 12.5 -7t0.5 -15l-309 -542h288q5 0 9.5 -4.5t4.5 -10.5v-106q0 -15 -14 -15h-503h-5q-8 0 -12.5 7t-0.5 14l310 543h-272
q-14 0 -14 14v106q0 16 14 16h487h4z" />
    <glyph glyph-name="zcaron" unicode="&#x17e;" horiz-adv-x="442" 
d="M107 555q-10 10 -10 20v29q0 20 19 7l104 -66l105 66q19 13 19 -7v-29q0 -10 -10 -20l-87 -82q-12 -12 -25 -12h-4q-13 0 -25 12zM356 321q0 -4 -4 -8l-108 -199h133q6 0 10.5 -4.5t4.5 -10.5v-85q0 -14 -15 -14h-275h-47q-7 0 -12 7t-1 15l157 287h-133q-15 0 -15 14v85
q0 6 4.5 10.5t10.5 4.5h276h45q8 0 12.5 -6.5t0.5 -15.5z" />
    <glyph glyph-name="florin" unicode="&#x192;" horiz-adv-x="476" 
d="M425 680q5 -3 6.5 -8t0.5 -8.5t-2 -4.5l-50 -69q-7 -12 -18 -6q-24 10 -45 10q-37 0 -53 -25.5t-16 -78.5v-72h92q6 0 10.5 -4.5t4.5 -10.5v-105q0 -6 -4.5 -10.5t-10.5 -4.5h-92v-268v-50q0 -32 -19 -64t-38 -50t-51 -43q-10 -7 -19 0l-64 61q-7 9 0 19q1 2 6 7.5
t6.5 7.5t6 7.5t6 8.5t5 8.5t5 9t3.5 8.5t2.5 9.5t0.5 9.5v51v268h-40q-14 0 -14 15v105q0 15 14 15h40v76q0 214 203 214q73 0 124 -28z" />
    <glyph glyph-name="Scommaaccent" unicode="&#x218;" horiz-adv-x="633" 
d="M333 423q136 -25 196.5 -76.5t60.5 -140.5q0 -36 -14.5 -71t-45 -68.5t-86 -54t-128.5 -20.5q-171 0 -266 95q-10 10 0 20l78 80q9 9 20 1q67 -53 169 -53q41 0 80 17.5t39 53.5q0 29 -27.5 44t-103.5 30q-142 28 -201 81.5t-59 131.5q0 35 15 70.5t44.5 69t83.5 54.5
t123 21q154 0 264 -87q12 -11 1 -22l-78 -82q-10 -8 -19 -2q-66 50 -162 50q-55 0 -86.5 -16t-31.5 -45q0 -30 30.5 -48t103.5 -33zM367 -42q16 0 16 -15v-86q0 -3 -2 -7l-34 -98h-30q-12 0 -9 16l8 74h-46q-16 0 -16 15v86q0 15 16 15h97z" />
    <glyph glyph-name="scommaaccent" unicode="&#x219;" horiz-adv-x="433" 
d="M237 264q45 -11 67 -19t47 -23t34.5 -37.5t9.5 -55.5q0 -23 -8.5 -44.5t-28.5 -43.5t-60 -35.5t-95 -13.5q-116 0 -169 51q-8 8 -2 19l33 59q6 13 20 6q56 -28 118 -28q55 0 55 30q0 20 -61 32q-85 19 -120.5 48.5t-35.5 84.5q0 58 47 97.5t128 39.5q88 0 155 -38
q12 -7 6 -19l-36 -65q-9 -11 -20 -6q-50 21 -90 21q-52 0 -52 -28q0 -18 58 -32zM253 -42q16 0 16 -15v-86q0 -3 -2 -7l-34 -98h-30q-12 0 -9 16l8 74h-46q-16 0 -16 15v86q0 15 16 15h97z" />
    <glyph glyph-name="uni021A" unicode="&#x21a;" horiz-adv-x="611" 
d="M568 700q6 0 10 -5t4 -11v-105q0 -15 -14 -15h-183v-549q0 -6 -4.5 -10.5t-10.5 -4.5h-125q-14 0 -14 15v549h-183q-6 0 -10.5 4.5t-4.5 10.5v105q0 6 4.5 11t10.5 5h227h95h198zM357 -39q16 0 16 -15v-86q0 -3 -2 -7l-34 -98h-30q-12 0 -9 16l8 74h-46q-16 0 -16 15v86
q0 15 16 15h97z" />
    <glyph glyph-name="uni021B" unicode="&#x21b;" horiz-adv-x="387" 
d="M374 44v-3q1 -3 1 -5.5t-1.5 -6t-5.5 -5.5q-55 -32 -143 -32q-135 0 -140 148h-1v169h-38q-14 0 -14 16v81q0 17 14 17h38v105q0 15 15 15h120q15 0 15 -15v-105h91q15 0 15 -17v-81q0 -16 -15 -16h-91v-152q0 -52 41 -52q28 0 50 17q1 1 4 2t8 -1t8 -7zM259 -42
q16 0 16 -15v-86q0 -3 -2 -7l-34 -98h-30q-12 0 -9 16l8 74h-46q-16 0 -16 15v86q0 15 16 15h97z" />
    <glyph glyph-name="circumflex" unicode="&#x2c6;" horiz-adv-x="335" 
d="M281 703q10 -10 10 -20v-29q0 -18 -19 -7l-105 67l-104 -67q-19 -11 -19 7v29q0 10 10 20l86 82q12 12 25 12h4q13 0 25 -12z" />
    <glyph glyph-name="caron" unicode="&#x2c7;" horiz-adv-x="335" 
d="M272 793q19 13 19 -7v-29q0 -10 -10 -20l-87 -82q-12 -12 -25 -12h-4q-13 0 -25 12l-86 82q-10 10 -10 20v29q0 20 19 7l104 -66z" />
    <glyph glyph-name="breve" unicode="&#x2d8;" horiz-adv-x="389" 
d="M339 758q8 -3 5 -10q-41 -102 -150 -102q-108 0 -149 102q-3 7 5 10l58 26q8 3 11 -4q11 -19 18.5 -28.5t22.5 -17.5t35 -8t34.5 8.5t22 17.5t18.5 28q4 7 11 4z" />
    <glyph glyph-name="dotaccent" unicode="&#x2d9;" horiz-adv-x="204" 
d="M102 651q-24 0 -41 16.5t-17 40.5q0 25 17 41.5t41 16.5t41 -16.5t17 -41.5q0 -24 -17 -40.5t-41 -16.5z" />
    <glyph glyph-name="ring" unicode="&#x2da;" horiz-adv-x="304" 
d="M151 633q-46 0 -76.5 29.5t-30.5 79.5t30.5 79.5t76.5 29.5t77.5 -30t31.5 -79t-31.5 -79t-77.5 -30zM151 700q18 0 27.5 12.5t9.5 29.5q0 16 -10 28.5t-27 12.5t-25.5 -12.5t-8.5 -28.5q0 -42 34 -42z" />
    <glyph glyph-name="ogonek" unicode="&#x2db;" horiz-adv-x="280" 
d="M232 -142q5 -5 2 -11q-7 -22 -30 -43t-62 -21h-1q-43 0 -70 24.5t-27 64.5q0 72 80 128h61q-58 -64 -58 -114q0 -38 30 -38q31 0 50 20q8 8 15 1z" />
    <glyph glyph-name="tilde" unicode="&#x2dc;" horiz-adv-x="395" 
d="M346 741q8 -3 4 -12q-10 -27 -32 -49.5t-55 -22.5h-1q-34 0 -66.5 16.5t-56.5 16.5q-37 0 -55 -25q-5 -8 -14 -2l-21 10q-8 3 -4 12q26 71 95 70q40 0 75 -16.5t47 -16.5q25 0 50 25q6 7 14 2z" />
    <glyph glyph-name="hungarumlaut" unicode="&#x2dd;" horiz-adv-x="387" 
d="M64 649l-15 9q-7 5 2 21l73 113q10 11 20 4l51 -32q14 -11 0 -22l-109 -93q-10 -8 -22 0zM205 649l-14 9q-8 5 1 21l72 113q9 10 20 4l51 -32q14 -11 1 -22l-109 -93q-10 -9 -22 0z" />
    <glyph glyph-name="gravecomb" unicode="&#x300;" 
d="M-84 635l-159 107q-12 9 -3 22l38 58q12 13 23 2l134 -143q11 -11 4 -21l-15 -22q-9 -11 -22 -3z" />
    <glyph glyph-name="acutecomb" unicode="&#x301;" 
d="M-210 635q-13 -8 -22 3l-15 22q-7 10 4 21l134 143q11 11 23 -2l38 -58q9 -13 -3 -22z" />
    <glyph glyph-name="uni0302" unicode="&#x302;" 
d="M-54 703q10 -10 10 -20v-29q0 -18 -19 -7l-105 67l-104 -67q-19 -11 -19 7v29q0 10 10 20l86 82q12 12 25 12h4q13 0 25 -12z" />
    <glyph glyph-name="tildecomb" unicode="&#x303;" 
d="M-49 741q8 -3 4 -12q-10 -27 -32 -49.5t-55 -22.5h-1q-34 0 -66.5 16.5t-56.5 16.5q-37 0 -55 -25q-5 -8 -14 -2l-21 10q-8 3 -4 12q26 71 95 70q40 0 75 -16.5t47 -16.5q25 0 50 25q7 7 14 2z" />
    <glyph glyph-name="uni0304" unicode="&#x304;" 
d="M-253 663q-16 0 -16 15v52q0 15 16 15h192q16 0 16 -15v-52q0 -15 -16 -15h-192z" />
    <glyph glyph-name="uni0306" unicode="&#x306;" 
d="M-50 758q8 -3 5 -10q-41 -102 -150 -102q-108 0 -149 102q-3 7 5 10l58 26q7 3 11 -4q11 -19 18.5 -28.5t22.5 -17.5t35 -8t34.5 8.5t22 17.5t18.5 28q3 7 11 4z" />
    <glyph glyph-name="uni0307" unicode="&#x307;" 
d="M-102 651q-24 0 -41 16.5t-17 40.5q0 25 17 41.5t41 16.5t41 -16.5t17 -41.5q0 -24 -17 -40.5t-41 -16.5z" />
    <glyph glyph-name="uni0308" unicode="&#x308;" 
d="M-232 663q-20 0 -34 13t-14 33q0 21 13.5 34t34.5 13q20 0 33.5 -13t13.5 -34q0 -20 -13.5 -33t-33.5 -13zM-91 663q-20 0 -34 13t-14 33q0 21 13.5 34t34.5 13q20 0 33.5 -13t13.5 -34q0 -20 -13.5 -33t-33.5 -13z" />
    <glyph glyph-name="uni030A" unicode="&#x30a;" 
d="M-153 633q-46 0 -76.5 29.5t-30.5 79.5t30.5 79.5t76.5 29.5t77.5 -30t31.5 -79t-31.5 -79t-77.5 -30zM-153 700q18 0 27.5 12.5t9.5 29.5q0 16 -10 28.5t-27 12.5t-25.5 -12.5t-8.5 -28.5q0 -42 34 -42z" />
    <glyph glyph-name="uni030B" unicode="&#x30b;" 
d="M-323 649l-15 9q-7 5 2 21l73 113q9 13 19 4l52 -32q13 -11 0 -22l-109 -93q-10 -8 -22 0zM-181 649l-14 9q-8 5 1 21l73 113q7 11 19 4l51 -32q14 -11 1 -22l-109 -93q-10 -8 -22 0z" />
    <glyph glyph-name="uni030C" unicode="&#x30c;" 
d="M-63 793q19 13 19 -7v-29q0 -10 -10 -20l-87 -82q-12 -12 -25 -12h-4q-13 0 -25 12l-86 82q-10 10 -10 20v29q0 20 19 7l104 -66z" />
    <glyph glyph-name="uni0312" unicode="&#x312;" 
d="M-59 751q16 0 16 -15v-87q0 -15 -16 -15h-97q-16 0 -16 15v87q0 1 0.5 2.5t0.5 2.5l35 100h30q11 0 10 -16l-9 -74h46z" />
    <glyph glyph-name="uni0326" unicode="&#x326;" 
d="M-40 -58v-87q0 -3 -1 -5l-35 -99h-30q-12 0 -9 16l8 73h-46q-16 0 -16 15v87q0 15 16 15h97q16 0 16 -15z" />
    <glyph glyph-name="uni0327" unicode="&#x327;" 
d="M-127 -39q33 2 58 -18.5t25 -58.5q0 -89 -104 -89q-25 0 -48 13t-28 25q-2 6 2 9l29 27q5 4 11 -2q14 -14 34 -14q13 0 22 8.5t9 23.5q0 16 -11.5 23.5t-22.5 -1.5q-5 -4 -10 -5.5t-8 -0.5l-3 1l-38 11q-6 3 -5 10l36 85h71z" />
    <glyph glyph-name="uni0328" unicode="&#x328;" 
d="M-48 -142q5 -5 2 -11q-7 -22 -30 -43t-62 -21h-1q-42 0 -69 24.5t-27 64.5q0 72 80 128h60q-60 -58 -60 -114q0 -39 32 -39q30 0 50 21q8 8 15 0z" />
    <glyph glyph-name="uni0335" unicode="&#x335;" 
d="M-345 152q-16 0 -16 15v85q0 15 16 15h284q16 0 16 -15v-85q0 -15 -16 -15h-284z" />
    <glyph glyph-name="uni0336" unicode="&#x336;" 
d="M-638 152q-16 0 -16 15v85q0 15 16 15h578q16 0 16 -15v-85q0 -15 -16 -15h-578z" />
    <glyph glyph-name="uni0394" unicode="&#x394;" horiz-adv-x="745" 
d="M705 20q3 -7 -1.5 -13.5t-12.5 -6.5h-78h-491h-69q-7 0 -11.5 6.5t-1.5 14.5l250 670q4 9 13 9h77h61q11 0 14 -9zM372 522l-138 -387h277z" />
    <glyph glyph-name="Pi" unicode="&#x3a0;" horiz-adv-x="635" 
d="M556 700q16 0 16 -15v-98v-571q0 -16 -15 -16h-116q-15 0 -15 16v556h-217v-556q0 -16 -15 -16h-116q-15 0 -15 16v622v47q0 15 16 15h477z" />
    <glyph glyph-name="uni03A9" unicode="&#x3a9;" horiz-adv-x="763" 
d="M704 135q15 0 15 -14v-107q0 -14 -15 -14h-269h-8q-5 0 -8.5 4.5t-1.5 10.5q5 19 30 60.5t50.5 83.5t46 105t20.5 124q0 93 -49 138t-134 45t-134.5 -45.5t-49.5 -137.5q0 -61 20.5 -124.5t45.5 -105t52 -84t33 -59.5q2 -6 -1.5 -10.5t-9.5 -4.5h-26h-253q-15 0 -15 14
v107q0 14 15 14h67q-82 146 -82 253q0 144 94 232t244 88t243.5 -86.5t93.5 -233.5q0 -101 -81 -253h67z" />
    <glyph glyph-name="uni03BC" unicode="&#x3bc;" horiz-adv-x="550" 
d="M518 18q3 -6 0 -12t-10 -6h-118q-14 0 -22 14l-23 35q-53 -57 -118 -57q-11 0 -33 2v-264q0 -15 -15 -15h-121q-14 0 -14 15v676v1q0 16 14 16h121h1q5 0 9.5 -4.5t4.5 -11.5v-223q0 -34 18.5 -59t56.5 -25q35 0 55.5 22t21.5 52v232q0 17 15 17h120q15 0 15 -17v-313
q0 -31 22 -75z" />
    <glyph glyph-name="pi" unicode="&#x3c0;" horiz-adv-x="690" 
d="M641 423q17 0 17 -15v-97q0 -15 -17 -15h-63v-182q0 -48 32 -96q4 -6 1 -12t-11 -6h-118q-13 0 -22 14q-1 2 -3 5q-26 42 -29 83v13v181h-132v-281q0 -15 -15 -15h-121q-14 0 -14 15v281q-51 -1 -94 -32q-6 -4 -12 -0.5t-6 10.5v95q0 13 14 22q2 1 5 3q42 26 83 29h13
h492z" />
    <glyph glyph-name="Wgrave" unicode="&#x1e80;" horiz-adv-x="992" 
d="M395 794q-14 5 -9 20l21 65q6 18 21 9l168 -100q14 -8 10 -19l-9 -25q-5 -14 -20 -9zM954 700q7 0 11.5 -6t1.5 -14l-252 -670q-3 -10 -13 -10h-55q-9 0 -13 9l-138 383l-136 -382q-4 -10 -14 -10h-55q-10 0 -14 10l-252 670q-2 8 2.5 14t11.5 6h120q9 0 13 -10l150 -394
l123 393q3 10 14 10h70h3q10 0 14 -10l124 -393l150 394q4 10 14 10h120z" />
    <glyph glyph-name="wgrave" unicode="&#x1e81;" horiz-adv-x="672" 
d="M240 560q-12 9 -3 22l38 58q12 13 23 2l134 -143q11 -11 4 -21l-15 -22q-9 -11 -22 -3zM636 423q9 0 12.5 -7.5t0.5 -13.5l-147 -392q-4 -10 -14 -10h-25h-33q-9 0 -14 10l-80 232l-80 -233q-4 -9 -13 -9h-39h-21q-9 0 -14 9l-145 393q-3 6 0.5 13.5t12.5 7.5h119
q12 0 15 -10l49 -211l80 211q4 10 13 10h44h3q10 0 13 -10l80 -210l49 209q3 11 15 11h119z" />
    <glyph glyph-name="Wacute" unicode="&#x1e82;" horiz-adv-x="992" 
d="M395 743l-9 25q-4 11 10 19l168 100q15 9 21 -9l21 -65q5 -15 -9 -20l-182 -59q-15 -5 -20 9zM954 700q7 0 11.5 -6t1.5 -14l-252 -670q-3 -10 -13 -10h-55q-9 0 -13 9l-138 383l-136 -382q-4 -10 -14 -10h-55q-10 0 -14 10l-252 670q-2 8 2.5 14t11.5 6h120q9 0 13 -10
l150 -394l123 393q3 10 14 10h70h3q10 0 14 -10l124 -393l150 394q4 10 14 10h120z" />
    <glyph glyph-name="wacute" unicode="&#x1e83;" horiz-adv-x="672" 
d="M251 456l-15 22q-7 10 4 21l134 143q11 11 23 -2l38 -58q9 -13 -3 -22l-159 -107q-13 -8 -22 3zM636 423q9 0 12.5 -7.5t0.5 -13.5l-147 -392q-4 -10 -14 -10h-25h-33q-9 0 -14 10l-80 232l-80 -233q-4 -9 -13 -9h-39h-21q-9 0 -14 9l-145 393q-3 6 0.5 13.5t12.5 7.5
h119q12 0 15 -10l49 -211l80 211q4 10 13 10h44h3q10 0 13 -10l80 -210l49 209q3 11 15 11h119z" />
    <glyph glyph-name="Wdieresis" unicode="&#x1e84;" horiz-adv-x="992" 
d="M426 758q-20 0 -34 13t-14 33q0 21 13.5 34t34.5 13q20 0 33.5 -13t13.5 -34q0 -20 -13.5 -33t-33.5 -13zM567 758q-20 0 -34 13t-14 33q0 21 13.5 34t34.5 13q20 0 33.5 -13t13.5 -34q0 -20 -13.5 -33t-33.5 -13zM954 700q7 0 11.5 -6t1.5 -14l-252 -670q-3 -10 -13 -10
h-55q-9 0 -13 9l-138 383l-136 -382q-4 -10 -14 -10h-55q-10 0 -14 10l-252 670q-2 8 2.5 14t11.5 6h120q9 0 13 -10l150 -394l123 393q3 10 14 10h70h3q10 0 14 -10l124 -393l150 394q4 10 14 10h120z" />
    <glyph glyph-name="wdieresis" unicode="&#x1e85;" horiz-adv-x="672" 
d="M266 481q-20 0 -34 13t-14 33q0 21 13.5 34t34.5 13q20 0 33.5 -13t13.5 -34q0 -20 -13.5 -33t-33.5 -13zM407 481q-20 0 -34 13t-14 33q0 21 13.5 34t34.5 13q20 0 33.5 -13t13.5 -34q0 -20 -13.5 -33t-33.5 -13zM636 423q9 0 12.5 -7.5t0.5 -13.5l-147 -392
q-4 -10 -14 -10h-25h-33q-9 0 -14 10l-80 232l-80 -233q-4 -9 -13 -9h-39h-21q-9 0 -14 9l-145 393q-3 6 0.5 13.5t12.5 7.5h119q12 0 15 -10l49 -211l80 211q4 10 13 10h44h3q10 0 13 -10l80 -210l49 209q3 11 15 11h119z" />
    <glyph glyph-name="Ygrave" unicode="&#x1ef2;" horiz-adv-x="665" 
d="M231 794q-14 5 -9 20l21 65q6 18 21 9l168 -100q14 -8 10 -19l-9 -25q-5 -14 -20 -9zM618 700q8 0 13 -7.5t0 -15.5l-223 -380v-283q0 -14 -15 -14h-124q-15 0 -15 14v283l-222 381q-4 8 1 15t12 7h126q14 0 25 -15l135 -239l137 239q11 15 24 15h126z" />
    <glyph glyph-name="ygrave" unicode="&#x1ef3;" horiz-adv-x="533" 
d="M170 560q-12 9 -3 22l38 58q12 13 23 2l134 -143q11 -11 4 -21l-15 -22q-9 -11 -22 -3zM504 423q7 0 12.5 -6.5t1.5 -14.5l-341 -674q-4 -8 -13 -8h-114q-8 0 -12.5 6.5t-0.5 14.5l154 306l-175 355q-3 6 0.5 13.5t12.5 7.5h114q11 0 17 -15l105 -215l112 221q4 9 14 9
h113z" />
    <glyph glyph-name="endash" unicode="&#x2013;" horiz-adv-x="542" 
d="M60 222q-16 0 -16 15v73q0 15 16 15h422q16 0 16 -15v-73q0 -15 -16 -15h-422z" />
    <glyph glyph-name="emdash" unicode="&#x2014;" horiz-adv-x="816" 
d="M60 222q-16 0 -16 15v73q0 15 16 15h696q16 0 16 -15v-73q0 -15 -16 -15h-696z" />
    <glyph glyph-name="quoteleft" unicode="&#x2018;" horiz-adv-x="218" 
d="M150 572q31 -6 31 -37v-78q0 -16 -17 -16h-115q-17 0 -17 16v112q0 7 3 11l66 150h33q7 0 11.5 -5.5t2.5 -12.5l-39 -133z" />
    <glyph glyph-name="quoteright" unicode="&#x2019;" horiz-adv-x="218" 
d="M185 713v-111q0 -7 -2 -10l-66 -151h-34q-7 0 -11 5.5t-2 12.5l39 132l-42 8q-31 6 -31 37v77q0 17 17 17h116q16 0 16 -17z" />
    <glyph glyph-name="quotesinglbase" unicode="&#x201a;" horiz-adv-x="215" 
d="M185 114v-112q0 -5 -2 -9l-66 -151h-34q-7 0 -11 5t-2 12l39 132l-42 8q-31 6 -31 37v78q0 17 17 17h116q16 0 16 -17z" />
    <glyph glyph-name="quotedblleft" unicode="&#x201c;" horiz-adv-x="414" 
d="M151 572q31 -6 31 -37v-77q0 -17 -17 -17h-116q-16 0 -16 17v111q0 4 2 10l66 151h34q7 0 11 -5.5t2 -12.5l-39 -132zM347 572q31 -6 31 -37v-77q0 -17 -17 -17h-116q-16 0 -16 17v111q0 4 2 10l66 151h34q7 0 11 -5.5t2 -12.5l-39 -132z" />
    <glyph glyph-name="quotedblright" unicode="&#x201d;" horiz-adv-x="414" 
d="M169 730q16 0 16 -17v-111q0 -7 -2 -10l-66 -151h-34q-7 0 -11 5.5t-2 12.5l39 132l-42 8q-31 6 -31 37v77q0 17 17 17h116zM382 713v-111q0 -6 -3 -11l-66 -150h-34q-7 0 -11 5.5t-2 12.5l39 132l-41 8q-32 6 -32 37v77q0 17 17 17h116q17 0 17 -17z" />
    <glyph glyph-name="quotedblbase" unicode="&#x201e;" horiz-adv-x="409" 
d="M169 131q16 0 16 -17v-111q0 -4 -2 -10l-66 -151h-34q-7 0 -11 5.5t-2 12.5l39 132l-42 8q-31 6 -31 37v77q0 17 17 17h116zM381 114v-111q0 -4 -2 -10l-66 -151h-34q-7 0 -11 5.5t-2 12.5l39 132l-42 8q-31 6 -31 37v77q0 17 17 17h116q16 0 16 -17z" />
    <glyph glyph-name="dagger" unicode="&#x2020;" horiz-adv-x="471" 
d="M410 531q16 0 16 -15v-73q0 -15 -16 -15h-117v-413q0 -15 -14 -15h-87q-6 0 -10.5 4.5t-4.5 10.5v413h-117q-16 0 -16 15v73q0 15 16 15h117v154q0 6 4.5 10.5t10.5 4.5h87q14 0 14 -15v-154h117z" />
    <glyph glyph-name="daggerdbl" unicode="&#x2021;" horiz-adv-x="471" 
d="M410 428h-117v-156h117q16 0 16 -15v-73q0 -15 -16 -15h-117v-154q0 -15 -14 -15h-87q-6 0 -10.5 4.5t-4.5 10.5v154h-117q-16 0 -16 15v73q0 15 16 15h117v156h-117q-16 0 -16 15v73q0 15 16 15h117v154q0 6 4.5 10.5t10.5 4.5h87q14 0 14 -15v-154h117q16 0 16 -15v-73
q0 -15 -16 -15z" />
    <glyph glyph-name="bullet" unicode="&#x2022;" horiz-adv-x="212" 
d="M106 305q-26 0 -44 18t-18 44t18 44t44 18t44 -18.5t18 -43.5t-18 -43.5t-44 -18.5z" />
    <glyph glyph-name="ellipsis" unicode="&#x2026;" horiz-adv-x="714" 
d="M48 0q-16 0 -16 15v89q0 15 16 15h96q16 0 16 -15v-89q0 -15 -16 -15h-96zM303 0q-16 0 -16 15v89q0 15 16 15h96q16 0 16 -15v-89q0 -15 -16 -15h-96zM558 0q-16 0 -16 15v89q0 15 16 15h96q16 0 16 -15v-89q0 -15 -16 -15h-96z" />
    <glyph glyph-name="perthousand" unicode="&#x2030;" horiz-adv-x="1404" 
d="M210 252q-85 0 -127.5 53.5t-42.5 174.5t42.5 175t127.5 54t127 -54t42 -175t-42 -174.5t-127 -53.5zM292 0q-10 0 -14.5 7t-0.5 15l335 663q7 15 20 15h82q8 0 11.5 -5t-0.5 -13l-335 -667q-8 -15 -21 -15h-77zM210 366q35 0 48 28.5t13 85.5q0 58 -13 86.5t-48 28.5
t-48.5 -29t-13.5 -86t13.5 -85.5t48.5 -28.5zM799 15q-85 0 -127.5 53.5t-42.5 174.5t42.5 175t127.5 54t127 -54t42 -175t-42 -174.5t-127 -53.5zM1195 15q-85 0 -127.5 53.5t-42.5 174.5t42.5 175t127.5 54t127 -54t42 -175t-42 -174.5t-127 -53.5zM799 129q35 0 48 28.5
t13 85.5q0 58 -13 86.5t-48 28.5t-48.5 -29t-13.5 -86t13.5 -85.5t48.5 -28.5zM1195 129q35 0 48 28.5t13 85.5q0 58 -13 86.5t-48 28.5t-48.5 -29t-13.5 -86t13.5 -85.5t48.5 -28.5z" />
    <glyph glyph-name="guilsinglleft" unicode="&#x2039;" horiz-adv-x="343" 
d="M167 212l128 -199q5 -8 2.5 -14.5t-11.5 -6.5h-58q-17 0 -24 10l-146 181q-14 16 -14 25v5v2q0 9 14 25l146 181q7 10 24 10h58q9 0 11.5 -6.5t-2.5 -14.5z" />
    <glyph glyph-name="guilsinglright" unicode="&#x203a;" horiz-adv-x="343" 
d="M284 240q14 -16 14 -25v-5v-2q0 -9 -14 -25l-145 -181q-9 -10 -24 -10h-59q-9 0 -11 6.5t3 14.5l128 199l-128 198q-5 8 -3 14.5t11 6.5h59q15 0 24 -10z" />
    <glyph glyph-name="fraction" unicode="&#x2044;" horiz-adv-x="180" 
d="M-120 0q-10 0 -14.5 7t-0.5 15l335 663q7 15 20 15h83q8 0 11 -5t0 -13l-336 -667q-8 -15 -21 -15h-77z" />
    <glyph glyph-name="uni2070" unicode="&#x2070;" horiz-adv-x="419" 
d="M210 350q-85 0 -127.5 53.5t-42.5 174.5t42.5 175t127.5 54t127 -54t42 -175t-42 -174.5t-127 -53.5zM210 464q35 0 48 28.5t13 85.5q0 58 -13 86.5t-48 28.5t-48.5 -29t-13.5 -86t13.5 -85.5t48.5 -28.5z" />
    <glyph glyph-name="uni2074" unicode="&#x2074;" horiz-adv-x="412" 
d="M362 535q10 0 10 -9v-77q0 -8 -10 -8h-39v-76q0 -9 -9 -9h-88q-9 0 -9 9v76h-178q-9 0 -9 8v59q0 3 1 4h-1l178 279q2 5 9 5h97q9 0 9 -9v-252h39zM138 535h79v125z" />
    <glyph glyph-name="uni2075" unicode="&#x2075;" horiz-adv-x="397" 
d="M357 502q0 -63 -37 -107.5t-121 -44.5h-1q-77 0 -116.5 41t-39.5 89q0 10 9 10h84q8 0 8 -7q2 -17 17 -27t38 -10q26 0 39.5 16t13.5 42q0 29 -21 42.5t-46 9t-39 -21.5q-1 -2 -4 -2.5t-5 0.5h-3l-85 18q-8 2 -7 9l37 230q2 9 10 9h235q10 0 10 -9v-78q0 -9 -10 -9h-163
l-11 -65q80 28 144 -9.5t64 -125.5z" />
    <glyph glyph-name="uni2076" unicode="&#x2076;" horiz-adv-x="398" 
d="M214 653q65 0 104.5 -42.5t39.5 -104.5q0 -70 -45 -113t-108 -43q-83 0 -128 70q-37 48 -37 146q0 108 43.5 174t124.5 66q70 0 102 -36.5t33 -80.5q0 -11 -7 -11h-90q-8 0 -10 8q-9 31 -33 31q-42 0 -47 -83q29 19 58 19zM206 453q20 0 33 14t14 38q-1 23 -14.5 38.5
t-32.5 15.5q-20 0 -34 -15t-14 -38q0 -22 13.5 -37.5t34.5 -15.5z" />
    <glyph glyph-name="uni2077" unicode="&#x2077;" horiz-adv-x="362" 
d="M346 795q9 -5 4 -13l-198 -417q-5 -9 -15 -9h-88q-6 0 -8.5 4.5t-0.5 8.5l158 332h-159q-9 0 -9 8v77q0 10 9 10h303q3 0 4 -1z" />
    <glyph glyph-name="uni2078" unicode="&#x2078;" horiz-adv-x="399" 
d="M312 577q47 -39 47 -99q0 -56 -42 -92t-118 -36q-75 0 -117 36t-42 92q0 59 48 99q-37 41 -37 104q0 52 38.5 88.5t109.5 36.5q70 0 108.5 -36.5t38.5 -88.5q0 -63 -34 -104zM200 710q-45 0 -45 -35q0 -37 43 -49q44 12 44 47q0 37 -42 37zM199 446q26 0 40.5 10t14.5 27
q0 37 -53 59q-57 -19 -57 -59q0 -17 15 -27t40 -10z" />
    <glyph glyph-name="uni2079" unicode="&#x2079;" horiz-adv-x="398" 
d="M334 720q24 -55 24 -145q0 -115 -44.5 -170t-122.5 -55q-67 0 -104.5 40t-37.5 81q0 11 7 11h87q8 0 10 -8q12 -26 38 -26q27 0 38.5 14t16.5 49q-19 -8 -48 -8q-74 0 -116 43t-42 108q0 71 45.5 111.5t114.5 40.5q102 0 134 -86zM198 601q20 0 33.5 14.5t13.5 38.5
t-13.5 39t-34.5 15q-20 0 -35 -14t-14 -40q1 -25 16 -39t34 -14z" />
    <glyph glyph-name="Euro" unicode="&#x20ac;" horiz-adv-x="623" 
d="M576 72q8 -11 -4 -21q-30 -26 -82 -42.5t-108 -16.5q-117 0 -190.5 62t-96.5 181h-36q-6 0 -10.5 4.5t-4.5 10.5v56q0 6 4.5 10.5t10.5 4.5h26v29v29h-26q-6 0 -10.5 4.5t-4.5 10.5v56q0 6 4.5 10.5t10.5 4.5h36q23 119 96.5 181t190.5 62q106 0 178 -47q13 -9 4 -21
l-63 -90q-9 -13 -21 -5q-47 28 -98 28q-110 0 -135 -108h130q6 0 10.5 -4.5t4.5 -10.5v-56q0 -6 -4.5 -10.5t-10.5 -4.5h-141v-29v-29h141q6 0 10.5 -4.5t4.5 -10.5v-56q0 -6 -4.5 -10.5t-10.5 -4.5h-131q13 -54 45.5 -81t90.5 -27q28 0 61 12t51 27q12 9 20 -3z" />
    <glyph glyph-name="trademark" unicode="&#x2122;" horiz-adv-x="629" 
d="M252 700q5 0 5 -6v-56q0 -6 -5 -6h-61v-195q0 -6 -6 -6h-69q-6 0 -6 6v195h-60q-6 0 -6 6v56q0 6 6 6h88h47h67zM579 700q6 0 6 -6v-257q0 -6 -6 -6h-69q-7 0 -7 6v112l-60 -116q-3 -6 -9 -6h-6h-2q-5 0 -8 6l-58 115v-111q0 -6 -7 -6h-68q-6 0 -6 6v257q0 6 5 6h57h18
q6 0 9 -6l62 -134l64 134q3 6 9 6h44h32z" />
    <glyph glyph-name="estimated" unicode="&#x212e;" horiz-adv-x="834" 
d="M185 316q-5 0 -5 -4v-183q0 -10 9 -21q93 -99 229 -99q145 0 240 111h55q-52 -61 -130 -96t-166 -35q-155 0 -264.5 98.5t-109.5 237.5t109.5 237.5t264.5 98.5t264 -98.5t109 -237.5v-9h-605zM654 524q0 12 -10 22q-95 95 -226 95q-133 0 -228 -98q-10 -10 -10 -23v-180
q0 -5 5 -5h464q5 0 5 5v184z" />
    <glyph glyph-name="uni2153" unicode="&#x2153;" horiz-adv-x="942" 
d="M323 269q0 -9 -9 -9h-176h-89q-9 0 -9 9v77q0 9 9 9h80v233l-69 -23q-4 -1 -7.5 1.5t-3.5 6.5v70q0 4 10 11l74 42l1 1q3 3 10 3h82q9 0 9 -10v-335h79q9 0 9 -9v-77zM666 700q8 0 11 -5t0 -13l-336 -667q-7 -15 -21 -15h-77q-10 0 -14.5 7t-0.5 15l335 663q7 15 20 15
h83zM901 148q0 -56 -36.5 -94.5t-121.5 -38.5h-1q-80 0 -119.5 40.5t-39.5 89.5q0 11 9 11h85q9 0 9 -8q1 -17 16.5 -27t40.5 -10q24 0 39.5 11t15.5 29q0 23 -15.5 33.5t-57.5 10.5h-14q-10 0 -10 9v79q0 9 10 9h14q40 0 52.5 11.5t12.5 34.5q0 17 -13.5 27.5t-34.5 10.5
q-24 0 -39.5 -10.5t-16.5 -27.5q0 -8 -9 -8h-85q-9 0 -9 11q0 50 39.5 90t119.5 40h1q80 0 115.5 -37.5t35.5 -91.5q0 -72 -53 -96q60 -22 60 -98z" />
    <glyph glyph-name="uni2154" unicode="&#x2154;" horiz-adv-x="975" 
d="M357 269q0 -9 -10 -9h-292q-9 0 -9 9v64q0 5 4 9l128 133q65 69 65 100q0 38 -45 38q-54 0 -56 -40q0 -8 -9 -8h-83q-10 0 -10 10q1 24 8.5 45.5t24.5 42.5t49 33t77 12q78 0 114 -37.5t36 -94.5q0 -31 -9.5 -57t-19.5 -36l-10 -10l-112 -117h149q10 0 10 -9v-78z
M700 700q8 0 11 -5t0 -13l-336 -667q-7 -15 -21 -15h-77q-10 0 -14.5 7t-0.5 15l335 663q7 15 20 15h83zM935 148q0 -56 -36.5 -94.5t-121.5 -38.5h-1q-80 0 -119.5 40.5t-39.5 89.5q0 11 9 11h85q9 0 9 -8q1 -17 16.5 -27t40.5 -10q24 0 39.5 11t15.5 29q0 23 -15.5 33.5
t-57.5 10.5h-14q-10 0 -10 9v79q0 9 10 9h14q40 0 52.5 11.5t12.5 34.5q0 17 -13.5 27.5t-34.5 10.5q-24 0 -39.5 -10.5t-16.5 -27.5q0 -8 -9 -8h-85q-9 0 -9 11q0 50 39.5 90t119.5 40h1q80 0 115.5 -37.5t35.5 -91.5q0 -72 -53 -96q60 -22 60 -98z" />
    <glyph glyph-name="oneeighth" unicode="&#x215b;" horiz-adv-x="942" 
d="M323 269q0 -9 -9 -9h-176h-89q-9 0 -9 9v77q0 9 9 9h80v233l-69 -23q-4 -1 -7.5 1.5t-3.5 6.5v70q0 4 10 11l74 42l1 1q3 3 10 3h82q9 0 9 -10v-335h79q9 0 9 -9v-77zM666 700q8 0 11 -5t0 -13l-336 -667q-7 -15 -21 -15h-77q-10 0 -14.5 7t-0.5 15l335 663q7 15 20 15
h83zM855 242q47 -39 47 -99q0 -56 -42 -92t-118 -36q-75 0 -117 36t-42 92q0 59 48 99q-37 41 -37 104q0 52 38.5 88.5t109.5 36.5q70 0 108.5 -36.5t38.5 -88.5q0 -63 -34 -104zM743 375q-45 0 -45 -35q0 -37 43 -49q44 12 44 47q0 37 -42 37zM742 111q26 0 40.5 10
t14.5 27q0 37 -53 59q-57 -19 -57 -59q0 -17 15 -27t40 -10z" />
    <glyph glyph-name="threeeighths" unicode="&#x215c;" horiz-adv-x="977" 
d="M200 252h-1q-80 0 -119.5 40.5t-39.5 89.5q0 11 9 11h85q9 0 9 -8q1 -16 16.5 -26.5t39.5 -10.5q25 0 40.5 11t15.5 29q0 23 -15.5 33.5t-57.5 10.5h-14q-10 0 -10 9v79q0 9 10 9h14q40 0 52.5 11.5t12.5 34.5q0 36 -48 38q-54 -2 -56 -38q0 -8 -9 -8h-85q-9 0 -9 11
q0 50 39.5 90t119.5 40h1q81 0 116 -37.5t35 -91.5q0 -72 -53 -96q60 -23 60 -98q0 -56 -36.5 -94.5t-121.5 -38.5zM701 700q8 0 11 -5t0 -13l-336 -667q-8 -15 -21 -15h-77q-10 0 -14.5 7t-0.5 15l335 663q7 15 20 15h83zM890 242q47 -39 47 -99q0 -56 -42 -92t-118 -36
q-75 0 -117 36t-42 92q0 59 48 99q-37 41 -37 104q0 52 38.5 88.5t109.5 36.5q70 0 108.5 -36.5t38.5 -88.5q0 -63 -34 -104zM778 375q-45 0 -45 -35q0 -37 43 -49q44 12 44 47q0 37 -42 37zM777 111q26 0 40.5 10t14.5 27q0 37 -53 59q-57 -19 -57 -59q0 -17 15 -27t40 -10
z" />
    <glyph glyph-name="fiveeighths" unicode="&#x215d;" horiz-adv-x="976" 
d="M199 252h-1q-77 0 -116.5 41t-39.5 90q0 10 9 10h84q8 0 8 -7q1 -17 16.5 -27.5t38.5 -10.5q26 0 39.5 16t13.5 42q0 29 -21 42.5t-46 9t-39 -21.5q-1 -2 -4 -2.5t-5 0.5h-3l-85 18q-8 2 -7 9l37 230q2 9 10 9h235q10 0 10 -9v-78q0 -9 -10 -9h-163l-10 -65
q79 28 143 -9.5t64 -125.5q0 -63 -37 -107.5t-121 -44.5zM700 700q8 0 11 -5t0 -13l-336 -667q-7 -15 -21 -15h-77q-10 0 -14.5 7t-0.5 15l335 663q7 15 20 15h83zM889 242q47 -39 47 -99q0 -56 -42 -92t-118 -36q-75 0 -117 36t-42 92q0 59 48 99q-37 41 -37 104
q0 52 38.5 88.5t109.5 36.5q70 0 108.5 -36.5t38.5 -88.5q0 -63 -34 -104zM777 375q-45 0 -45 -35q0 -37 43 -49q44 12 44 47q0 37 -42 37zM776 111q26 0 40.5 10t14.5 27q0 37 -53 59q-57 -19 -57 -59q0 -17 15 -27t40 -10z" />
    <glyph glyph-name="seveneighths" unicode="&#x215e;" horiz-adv-x="882" 
d="M347 700q11 -4 6 -14l-199 -417q-5 -9 -15 -9h-88q-6 0 -8.5 4.5t-0.5 8.5l158 332h-159q-9 0 -9 8v77q0 10 9 10h303h3zM593 700q8 0 11.5 -5t-0.5 -13l-336 -667q-8 -15 -21 -15h-76q-10 0 -14.5 7t-0.5 15l334 663q7 15 20 15h83zM795 242q47 -39 47 -99
q0 -56 -42 -92t-118 -36q-75 0 -117 36t-42 92q0 59 48 99q-37 41 -37 104q0 52 38.5 88.5t109.5 36.5q70 0 108.5 -36.5t38.5 -88.5q0 -63 -34 -104zM683 375q-45 0 -45 -35q0 -37 43 -49q44 12 44 47q0 37 -42 37zM682 111q26 0 40.5 10t14.5 27q0 37 -53 59
q-57 -19 -57 -59q0 -17 15 -27t40 -10z" />
    <glyph glyph-name="arrowleft" unicode="&#x2190;" horiz-adv-x="788" 
d="M730 408q14 0 14 -15v-116q0 -15 -14 -15h-446l117 -128q11 -12 1 -22l-51 -51q-11 -11 -22 1l-281 261l-3 4q-1 2 -1 7t2 9q0 1 2 3l281 262q11 12 22 1l51 -52q10 -11 -1 -22l-116 -127h445z" />
    <glyph glyph-name="arrowup" unicode="&#x2191;" horiz-adv-x="646" 
d="M596 415q12 -11 1 -22l-51 -52q-11 -10 -22 1l-128 117v-445q0 -14 -15 -14h-116q-15 0 -15 14v445l-127 -117q-12 -11 -22 -1l-52 52q-11 11 1 22l262 281l3 2q4 2 9 2t7 -1t4 -3z" />
    <glyph glyph-name="arrowright" unicode="&#x2192;" horiz-adv-x="788" 
d="M744 334q0 -5 -1 -7l-3 -4l-281 -261q-11 -12 -22 -1l-51 51q-10 10 1 22l117 128h-446q-14 0 -14 15v116q0 15 14 15h445l-116 127q-11 11 -1 22l51 52q11 11 22 -1l281 -262q2 -2 2 -3q2 -4 2 -9z" />
    <glyph glyph-name="arrowdown" unicode="&#x2193;" horiz-adv-x="646" 
d="M597 307q11 -11 -1 -22l-262 -281q-2 -2 -3 -2q-4 -2 -9 -2t-7 1l-4 3l-261 281q-12 11 -1 22l52 52q11 11 22 -1l127 -117v445q0 14 15 14h116q15 0 15 -14v-445l127 117q12 11 22 1z" />
    <glyph glyph-name="arrowboth" unicode="&#x2194;" horiz-adv-x="1020" 
d="M976 337q0 -5 -1 -7l-3 -4l-281 -261q-11 -11 -22 -1l-51 51q-10 11 1 22l117 128h-446h-5l117 -128q11 -11 1 -22l-52 -51q-11 -10 -22 1l-281 261l-3 4q-1 2 -1 7t2 9q0 1 2 3l281 262q11 11 22 1l52 -52q11 -10 -1 -22l-117 -127h445h5l-116 127q-11 12 -1 22l51 52
q11 10 22 -1l281 -262q2 -2 2 -3q2 -4 2 -9z" />
    <glyph glyph-name="arrowupdn" unicode="&#x2195;" horiz-adv-x="646" 
d="M546 243l51 -52q11 -11 -1 -22l-261 -281l-4 -3q-2 -1 -7 -1t-9 2q-1 0 -3 2l-262 281q-12 11 -1 22l52 52q10 10 22 -1l127 -117v445v5l-127 -117q-12 -11 -22 -1l-52 52q-11 11 1 22l262 281q2 2 3 2q4 2 9 2t7 -1l4 -3l261 -281q12 -11 1 -22l-51 -52q-11 -10 -22 1
l-128 117v-445v-5l128 117q11 11 22 1z" />
    <glyph glyph-name="uni2196" unicode="&#x2196;" horiz-adv-x="634" 
d="M586 179q4 -4 4 -10t-5 -10l-82 -82q-11 -12 -20 -1l-315 314l-8 -172q0 -16 -14 -16h-73q-15 0 -15 16l-14 383v1q-2 5 5 10q5 7 10 5h1l384 -13q16 0 16 -15v-73q0 -15 -16 -15l-172 -7z" />
    <glyph glyph-name="uni2197" unicode="&#x2197;" horiz-adv-x="634" 
d="M585 612q7 -5 5 -10v-1l-14 -383q0 -16 -15 -16h-73q-14 0 -14 16l-8 172l-315 -314q-9 -11 -20 1l-82 82q-5 4 -5 10t4 10l314 315l-172 7q-16 0 -16 15v73q0 15 16 15l384 13h1q5 2 10 -5z" />
    <glyph glyph-name="uni2198" unicode="&#x2198;" horiz-adv-x="633" 
d="M590 77q0 -6 -8 -12q-3 -4 -9 -4l-383 14q-16 0 -16 15v73q0 15 16 15l173 7l-315 315q-10 10 1 21l82 82q11 11 20 0l315 -314l7 172q1 16 15 16h73q15 0 15 -16z" />
    <glyph glyph-name="uni2199" unicode="&#x2199;" horiz-adv-x="633" 
d="M584 521q11 -11 1 -21l-315 -315l173 -7q16 0 16 -15v-73q0 -15 -16 -15l-383 -14q-6 0 -9 4q-8 6 -8 12l14 384q0 16 15 16h73q14 0 15 -16l7 -172l315 314q9 11 20 0z" />
    <glyph glyph-name="partialdiff" unicode="&#x2202;" horiz-adv-x="530" 
d="M477 360q18 -105 6 -178q-11 -81 -74.5 -135.5t-149.5 -54.5q-95 0 -161 64t-66 154q0 92 66 156.5t161 64.5q31 0 56 -7q-17 53 -66 101.5t-112 79.5q-14 8 -8 19l37 74q7 15 27 5q50 -26 88.5 -52.5t82 -67.5t73 -98t40.5 -125zM259 101q37 0 63 28.5t26 80.5t-25.5 81
t-63.5 29t-63.5 -29t-25.5 -81t25.5 -80.5t63.5 -28.5z" />
    <glyph glyph-name="emptyset" unicode="&#x2205;" horiz-adv-x="801" 
d="M692 557q66 -93 66 -208q0 -148 -104.5 -252.5t-252.5 -104.5q-115 0 -208 67l-55 -55q-10 -10 -21 0l-66 66q-9 10 1 20l55 55q-64 93 -64 204q0 149 105 254t253 105q113 0 205 -65l52 52q12 11 21 2l66 -66q11 -11 -1 -22zM197 349q0 -49 19 -95l288 287
q-47 30 -103 30q-86 0 -145 -65t-59 -157zM401 128q86 0 144.5 64.5t58.5 156.5q0 55 -21 100l-289 -289q50 -32 107 -32z" />
    <glyph glyph-name="product" unicode="&#x220f;" horiz-adv-x="671" 
d="M611 700q16 0 16 -15v-98q0 -15 -16 -15h-34v-556q0 -16 -15 -16h-116q-15 0 -15 16v556h-191v-556q0 -16 -15 -16h-116q-15 0 -15 16v556h-34q-16 0 -16 15v98q0 15 16 15h551z" />
    <glyph glyph-name="summation" unicode="&#x2211;" horiz-adv-x="579" 
d="M535 612q0 -15 -16 -15h-303l180 -209q7 -9 6 -14v-48q1 -5 -6 -14l-180 -209h303q16 0 16 -15v-73q0 -15 -16 -15h-459q-16 0 -16 15v73q0 9 5 12l2 2l212 248l-212 247l-3 4q-4 4 -4 11v73q0 15 16 15h459q16 0 16 -15v-73z" />
    <glyph glyph-name="minus" unicode="&#x2212;" horiz-adv-x="542" 
d="M60 296q-16 0 -16 15v73q0 15 16 15h422q16 0 16 -15v-73q0 -15 -16 -15h-422z" />
    <glyph glyph-name="radical" unicode="&#x221a;" horiz-adv-x="652" 
d="M615 700q8 0 12.5 -6.5t0.5 -15.5l-274 -664q-6 -14 -16 -14h-22h-15q-9 0 -17 14l-151 297l-53 -28q-15 -8 -21 5l-35 65q-7 13 8 21l97 50q0 1 2 1l37 20q17 9 25 -7l116 -221l192 468q6 15 22 15h92z" />
    <glyph glyph-name="infinity" unicode="&#x221e;" horiz-adv-x="840" 
d="M607 511q79 0 133.5 -50t54.5 -132q0 -80 -55.5 -134t-131.5 -54q-56 0 -107.5 29t-80.5 71q-29 -42 -80.5 -71t-107.5 -29q-76 0 -132 54t-56 134q0 82 55 132t134 50q55 0 107 -26t80 -66q27 40 79 66t108 26zM242 252q28 0 61.5 19.5t52.5 54.5q-19 34 -53 53.5
t-61 19.5q-75 0 -75 -70q0 -37 21 -57t54 -20zM598 252q32 0 53 20t21 57q0 70 -74 70q-28 0 -61.5 -19.5t-52.5 -53.5q19 -35 52.5 -54.5t61.5 -19.5z" />
    <glyph glyph-name="integral" unicode="&#x222b;" horiz-adv-x="541" 
d="M360 815q137 0 137 -109v-37q0 -16 -15 -16h-86q-15 0 -15 16v15q0 28 -21 28h-9q-2 0 -6 -1t-10 -8t-6 -19v-395v-352q0 -109 -138 -109h-10q-65 0 -101 27.5t-36 81.5v37q0 16 15 16h86q15 0 15 -16v-15q0 -28 21 -28h9q2 0 6 1t10 8t6 19v395v352q0 109 138 109h10z
" />
    <glyph glyph-name="approxequal" unicode="&#x2248;" horiz-adv-x="542" 
d="M493 476q5 -7 3 -14q-8 -25 -43.5 -56t-85.5 -32h-1q-48 0 -93 17t-71 17q-33 0 -60.5 -10t-38.5 -20q-9 -7 -15 0l-20 29q-6 7 -4 12q5 23 45.5 56.5t92.5 34.5h1q45 0 90 -17.5t74 -17.5q62 0 92 30q8 8 14 2zM467 323l20 -31q5 -7 3 -14q-8 -25 -43.5 -56.5
t-85.5 -32.5h-1q-48 0 -92.5 17.5t-71.5 17.5q-33 0 -60.5 -10t-38.5 -20q-9 -7 -15 0l-20 29q-5 7 -4 12q5 23 45.5 56.5t92.5 34.5h1q45 0 90 -17.5t74 -17.5q62 0 92 30q8 8 14 2z" />
    <glyph glyph-name="notequal" unicode="&#x2260;" horiz-adv-x="542" 
d="M482 398h-124l-56 -99h180q16 0 16 -15v-73q0 -15 -16 -15h-237l-47 -83q-7 -15 -20 -7l-62 36q-13 7 -6 22l18 32h-68q-16 0 -16 15v73q0 15 16 15h125l56 99h-181q-16 0 -16 15v73q0 15 16 15h238l49 87q9 14 20 7l63 -35q14 -8 6 -22l-21 -37h67q16 0 16 -15v-73
q0 -15 -16 -15z" />
    <glyph glyph-name="lessequal" unicode="&#x2264;" horiz-adv-x="568" 
d="M481 149q-6 -14 -21 -8l-405 165q-14 6 -10 18v51q-4 12 10 18l405 165q16 6 21 -8l27 -67q5 -14 -9 -20l-278 -113l279 -114q13 -6 9 -20zM507 97q16 0 16 -15v-73q0 -15 -16 -15h-432q-16 0 -16 15v73q0 15 16 15h432z" />
    <glyph glyph-name="greaterequal" unicode="&#x2265;" horiz-adv-x="568" 
d="M523 375v-51q4 -12 -10 -18l-405 -165q-15 -6 -21 8l-28 67q-4 14 9 20l279 114l-278 113q-14 6 -9 20l27 67q5 14 21 8l405 -165q14 -6 10 -18zM493 97q16 0 16 -15v-73q0 -15 -16 -15h-433q-16 0 -16 15v73q0 15 16 15h433z" />
    <glyph glyph-name="lozenge" unicode="&#x25ca;" horiz-adv-x="568" 
d="M514 378q9 -15 9 -25v-5v-2q0 -8 -9 -25l-173 -306q-9 -15 -27 -15h-57h-4q-18 0 -27 15l-173 306q-9 17 -9 25v5v2q0 10 9 25l173 306q9 16 27 16h57h4q18 0 27 -16zM284 111l121 239l-121 239l-122 -239z" />
    <glyph glyph-name="B.ss01" horiz-adv-x="682" 
d="M631 199q0 -82 -53.5 -140t-129.5 -59h-260h-110q-6 0 -10.5 4.5t-4.5 10.5v670q0 6 4.5 10.5t10.5 4.5h125h225h1q76 -1 128.5 -57.5t52.5 -139.5q0 -88 -66 -144q39 -26 63 -68.5t24 -91.5zM385 564h-168v-150h170q11 0 24.5 4t29.5 22.5t16 48.5q0 23 -17 49t-55 26z
M405 136q38 0 55 27t17 50q0 24 -9 40.5t-23 22.5t-22.5 8t-15.5 2h-46h-144v-150h188z" />
    <glyph glyph-name="C.ss01" horiz-adv-x="643" 
d="M336 -8q-128 0 -212.5 94.5t-84.5 263.5t84.5 263.5t212.5 94.5q99 0 170.5 -55t100.5 -155q4 -15 -11 -18l-115 -20q-13 -3 -17 11q-11 43 -45.5 72.5t-82.5 29.5q-65 0 -104 -60t-39 -163q0 -106 39 -164.5t104 -58.5q48 0 82.5 30t45.5 73q4 13 17 11l115 -21
q15 -2 11 -18q-29 -100 -100.5 -155t-170.5 -55z" />
    <glyph glyph-name="Cacute.ss01" horiz-adv-x="643" 
d="M255 734q-15 -5 -20 9l-9 25q-4 11 10 19l168 100q15 9 21 -9l21 -65q5 -15 -9 -20zM336 -8q-128 0 -212.5 94.5t-84.5 263.5t84.5 263.5t212.5 94.5q99 0 170.5 -55t100.5 -155q4 -15 -11 -18l-115 -20q-13 -3 -17 11q-11 43 -45.5 72.5t-82.5 29.5q-65 0 -104 -60
t-39 -163q0 -106 39 -164.5t104 -58.5q48 0 82.5 30t45.5 73q4 13 17 11l115 -21q15 -2 11 -18q-29 -100 -100.5 -155t-170.5 -55z" />
    <glyph glyph-name="Ccaron.ss01" horiz-adv-x="643" 
d="M222 832q-10 10 -10 20v29q0 20 19 7l104 -66l105 66q19 13 19 -7v-29q0 -10 -10 -20l-87 -82q-12 -12 -25 -12h-4q-13 0 -25 12zM596 220q15 -2 11 -18q-29 -100 -100.5 -155t-170.5 -55q-128 0 -212.5 94.5t-84.5 263.5t84.5 263.5t212.5 94.5q99 0 170.5 -55
t100.5 -155q4 -15 -11 -18l-115 -20q-13 -3 -17 11q-11 43 -45.5 72.5t-82.5 29.5q-65 0 -104 -60t-39 -163q0 -106 39 -164.5t104 -58.5q48 0 82.5 30t45.5 73q4 13 17 11z" />
    <glyph glyph-name="Ccedilla.ss01" horiz-adv-x="643" 
d="M596 220q15 -2 11 -18q-28 -94 -93 -148.5t-156 -60.5l-11 -28q33 2 58 -18.5t25 -58.5q0 -89 -104 -89q-25 0 -48 13t-28 25q-2 6 2 9l29 27q5 4 11 -2q14 -14 33 -14q14 0 23 8t9 24t-11.5 23.5t-22.5 -1.5q-5 -4 -10 -5.5t-8 -0.5l-3 1l-38 11q-6 3 -5 10l29 69
q-110 17 -179.5 109.5t-69.5 244.5q0 169 84.5 263.5t212.5 94.5q99 0 170.5 -55t100.5 -155q4 -15 -11 -18l-115 -20q-13 -3 -17 11q-11 43 -45.5 72.5t-82.5 29.5q-65 0 -104 -60t-39 -163q0 -106 39 -164.5t104 -58.5q48 0 82.5 30t45.5 73q4 13 17 11z" />
    <glyph glyph-name="Cdotaccent.ss01" horiz-adv-x="643" 
d="M336 746q-24 0 -41 16.5t-17 40.5q0 25 17 41.5t41 16.5t41 -16.5t17 -41.5q0 -24 -17 -40.5t-41 -16.5zM336 -8q-128 0 -212.5 94.5t-84.5 263.5t84.5 263.5t212.5 94.5q99 0 170.5 -55t100.5 -155q4 -15 -11 -18l-115 -20q-13 -3 -17 11q-11 43 -45.5 72.5t-82.5 29.5
q-65 0 -104 -60t-39 -163q0 -106 39 -164.5t104 -58.5q48 0 82.5 30t45.5 73q4 13 17 11l115 -21q15 -2 11 -18q-29 -100 -100.5 -155t-170.5 -55z" />
    <glyph glyph-name="D.ss01" horiz-adv-x="707" 
d="M418 700q106 0 167 -54t61 -167v-141v-117q0 -112 -62 -166.5t-166 -54.5h-215h-125q-6 0 -10.5 4.5t-4.5 10.5v670q0 6 4.5 10.5t10.5 4.5h125h215zM492 338v24v108q0 94 -94 94h-181v-428h181q94 0 94 96v106z" />
    <glyph glyph-name="Eth.ss01" horiz-adv-x="717" 
d="M442 700q105 0 166 -54t61 -167v-141v-117q0 -112 -62 -166.5t-165 -54.5h-215h-125q-6 0 -10.5 4.5t-4.5 10.5v277h-48q-16 0 -16 15v85q0 15 16 15h48v278q0 6 4.5 10.5t10.5 4.5h125h215zM515 338v24v108q0 94 -93 94h-181v-157h82q16 0 16 -15v-85q0 -15 -16 -15h-82
v-156h181q93 0 93 96v106z" />
    <glyph glyph-name="Dcaron.ss01" horiz-adv-x="707" 
d="M241 832q-10 10 -10 20v29q0 20 19 7l104 -66l105 66q19 13 19 -7v-29q0 -10 -10 -20l-87 -82q-12 -12 -25 -12h-4q-13 0 -25 12zM418 700q106 0 167 -54t61 -167v-141v-117q0 -112 -62 -166.5t-166 -54.5h-215h-125q-6 0 -10.5 4.5t-4.5 10.5v670q0 6 4.5 10.5t10.5 4.5
h125h215zM492 338v24v108q0 94 -94 94h-181v-428h181q94 0 94 96v106z" />
    <glyph glyph-name="Dcroat.ss01" horiz-adv-x="718" 
d="M443 700q106 0 167 -54t61 -167v-141v-117q0 -112 -62 -166.5t-166 -54.5h-215h-125q-6 0 -10.5 4.5t-4.5 10.5v277h-49q-16 0 -16 15v85q0 15 16 15h49v278q0 6 4.5 10.5t10.5 4.5h125h215zM517 338v24v108q0 94 -93 94h-182v-157h81q16 0 16 -15v-85q0 -15 -16 -15h-81
v-156h182q93 0 93 96v106z" />
    <glyph glyph-name="E.ss01" horiz-adv-x="648" 
d="M594 136q6 0 10.5 -4.5t4.5 -10.5v-106q0 -6 -4.5 -10.5t-10.5 -4.5h-445h-71q-6 0 -10.5 4.5t-4.5 10.5v670q0 6 4.5 10.5t10.5 4.5h125h390q14 0 14 -15v-106q0 -15 -14 -15h-376v-150h190q15 0 15 -14v-108q0 -14 -15 -14h-190v-142h377z" />
    <glyph glyph-name="Eacute.ss01" horiz-adv-x="648" 
d="M235 743l-9 25q-4 11 10 19l168 100q15 9 21 -9l21 -65q5 -15 -9 -20l-182 -59q-15 -5 -20 9zM594 136q6 0 10.5 -4.5t4.5 -10.5v-106q0 -6 -4.5 -10.5t-10.5 -4.5h-445h-71q-6 0 -10.5 4.5t-4.5 10.5v670q0 6 4.5 10.5t10.5 4.5h125h390q14 0 14 -15v-106q0 -15 -14 -15
h-376v-150h190q15 0 15 -14v-108q0 -14 -15 -14h-190v-142h377z" />
    <glyph glyph-name="Ecaron.ss01" horiz-adv-x="648" 
d="M223 832q-10 10 -10 20v29q0 20 19 7l104 -66l105 66q19 13 19 -7v-29q0 -10 -10 -20l-87 -82q-12 -12 -25 -12h-4q-13 0 -25 12zM594 136q6 0 10.5 -4.5t4.5 -10.5v-106q0 -6 -4.5 -10.5t-10.5 -4.5h-445h-71q-6 0 -10.5 4.5t-4.5 10.5v670q0 6 4.5 10.5t10.5 4.5h125
h390q14 0 14 -15v-106q0 -15 -14 -15h-376v-150h190q15 0 15 -14v-108q0 -14 -15 -14h-190v-142h377z" />
    <glyph glyph-name="Ecircumflex.ss01" horiz-adv-x="648" 
d="M231 742q-19 -13 -19 7v29q0 10 10 20l86 82q12 12 25 12h4q13 0 25 -12l87 -82q10 -10 10 -20v-29q0 -20 -19 -7l-105 66zM594 136q6 0 10.5 -4.5t4.5 -10.5v-106q0 -6 -4.5 -10.5t-10.5 -4.5h-445h-71q-6 0 -10.5 4.5t-4.5 10.5v670q0 6 4.5 10.5t10.5 4.5h125h390
q14 0 14 -15v-106q0 -15 -14 -15h-376v-150h190q15 0 15 -14v-108q0 -14 -15 -14h-190v-142h377z" />
    <glyph glyph-name="Edieresis.ss01" horiz-adv-x="648" 
d="M266 758q-20 0 -34 13t-14 33q0 21 13.5 34t34.5 13q20 0 33.5 -13t13.5 -34q0 -20 -13.5 -33t-33.5 -13zM407 758q-20 0 -34 13t-14 33q0 21 13.5 34t34.5 13q20 0 33.5 -13t13.5 -34q0 -20 -13.5 -33t-33.5 -13zM594 136q6 0 10.5 -4.5t4.5 -10.5v-106q0 -6 -4.5 -10.5
t-10.5 -4.5h-445h-71q-6 0 -10.5 4.5t-4.5 10.5v670q0 6 4.5 10.5t10.5 4.5h125h390q14 0 14 -15v-106q0 -15 -14 -15h-376v-150h190q15 0 15 -14v-108q0 -14 -15 -14h-190v-142h377z" />
    <glyph glyph-name="Edotaccent.ss01" horiz-adv-x="648" 
d="M337 746q-24 0 -41 16.5t-17 40.5q0 25 17 41.5t41 16.5t41 -16.5t17 -41.5q0 -24 -17 -40.5t-41 -16.5zM594 136q6 0 10.5 -4.5t4.5 -10.5v-106q0 -6 -4.5 -10.5t-10.5 -4.5h-445h-71q-6 0 -10.5 4.5t-4.5 10.5v670q0 6 4.5 10.5t10.5 4.5h125h390q14 0 14 -15v-106
q0 -15 -14 -15h-376v-150h190q15 0 15 -14v-108q0 -14 -15 -14h-190v-142h377z" />
    <glyph glyph-name="Egrave.ss01" horiz-adv-x="648" 
d="M235 794q-14 5 -9 20l21 65q6 18 21 9l168 -100q14 -8 10 -19l-9 -25q-5 -14 -20 -9zM594 136q6 0 10.5 -4.5t4.5 -10.5v-106q0 -6 -4.5 -10.5t-10.5 -4.5h-445h-71q-6 0 -10.5 4.5t-4.5 10.5v670q0 6 4.5 10.5t10.5 4.5h125h390q14 0 14 -15v-106q0 -15 -14 -15h-376
v-150h190q15 0 15 -14v-108q0 -14 -15 -14h-190v-142h377z" />
    <glyph glyph-name="Emacron.ss01" horiz-adv-x="648" 
d="M240 758q-16 0 -16 15v52q0 15 16 15h192q16 0 16 -15v-52q0 -15 -16 -15h-192zM594 136q6 0 10.5 -4.5t4.5 -10.5v-106q0 -6 -4.5 -10.5t-10.5 -4.5h-445h-71q-6 0 -10.5 4.5t-4.5 10.5v670q0 6 4.5 10.5t10.5 4.5h125h390q14 0 14 -15v-106q0 -15 -14 -15h-376v-150
h190q15 0 15 -14v-108q0 -14 -15 -14h-190v-142h377z" />
    <glyph glyph-name="Eogonek.ss01" horiz-adv-x="648" 
d="M653 -130q5 -5 2 -11q-6 -21 -30 -42t-62 -22h-1q-42 0 -69 24.5t-27 64.5q0 62 64 116h-381h-71q-6 0 -10.5 4.5t-4.5 10.5v670q0 6 4.5 10.5t10.5 4.5h125h390q14 0 14 -15v-106q0 -15 -14 -15h-376v-150h190q15 0 15 -14v-108q0 -14 -15 -14h-190v-142h377
q6 0 10.5 -4.5t4.5 -10.5v-106q0 -6 -4.5 -10.5t-10.5 -4.5q-48 -52 -48 -102q0 -39 32 -39q30 0 50 21q8 8 15 0z" />
    <glyph glyph-name="F.ss01" horiz-adv-x="640" 
d="M594 700q6 0 10.5 -4.5t4.5 -10.5v-106q0 -6 -4.5 -10.5t-10.5 -4.5h-377v-155h197q15 0 15 -14v-108q0 -14 -15 -14h-197v-258q0 -15 -14 -15h-125q-6 0 -10.5 4.5t-4.5 10.5v670q0 6 4.5 10.5t10.5 4.5h125h391z" />
    <glyph glyph-name="G.ss01" horiz-adv-x="646" 
d="M579 335q14 0 14 -14v-79v-228q0 -14 -14 -14h-64q-12 0 -14 14l-11 55q-68 -77 -160 -77q-128 0 -211.5 94.5t-83.5 263.5t83.5 263.5t211.5 94.5q115 0 182.5 -58.5t76.5 -144.5q0 -6 -4.5 -10.5t-10.5 -4.5h-125q-11 0 -14 12q-6 31 -34 51t-71 20q-71 0 -106 -64
t-35 -159q0 -94 35 -158.5t106 -64.5q44 0 78.5 23t52.5 64l-3 14h-84q-15 0 -15 14v79q0 14 15 14h205z" />
    <glyph glyph-name="Gbreve.ss01" horiz-adv-x="646" 
d="M326 741q-108 0 -149 102q-3 7 5 10l58 26q8 3 11 -4q11 -19 18.5 -28.5t22.5 -17.5t35 -8t34.5 8.5t22 17.5t18.5 28q4 7 11 4l58 -26q8 -3 5 -10q-41 -102 -150 -102zM579 335q14 0 14 -14v-79v-228q0 -14 -14 -14h-64q-12 0 -14 14l-11 55q-68 -77 -160 -77
q-128 0 -211.5 94.5t-83.5 263.5t83.5 263.5t211.5 94.5q115 0 182.5 -58.5t76.5 -144.5q0 -6 -4.5 -10.5t-10.5 -4.5h-125q-11 0 -14 12q-6 31 -34 51t-71 20q-71 0 -106 -64t-35 -159q0 -94 35 -158.5t106 -64.5q44 0 78.5 23t52.5 64l-3 14h-84q-15 0 -15 14v79
q0 14 15 14h205z" />
    <glyph glyph-name="Gcommaaccent.ss01" horiz-adv-x="646" 
d="M579 335q14 0 14 -14v-79v-228q0 -14 -14 -14h-64q-12 0 -14 14l-11 55q-68 -77 -160 -77q-128 0 -211.5 94.5t-83.5 263.5t83.5 263.5t211.5 94.5q115 0 182.5 -58.5t76.5 -144.5q0 -6 -4.5 -10.5t-10.5 -4.5h-125q-11 0 -14 12q-6 31 -34 51t-71 20q-71 0 -106 -64
t-35 -159q0 -94 35 -158.5t106 -64.5q44 0 78.5 23t52.5 64l-3 14h-84q-15 0 -15 14v79q0 14 15 14h205zM376 -42q16 0 16 -15v-86q0 -3 -2 -7l-34 -98h-30q-12 0 -9 16l8 74h-46q-16 0 -16 15v86q0 15 16 15h97z" />
    <glyph glyph-name="Gdotaccent.ss01" horiz-adv-x="646" 
d="M326 746q-24 0 -41 16.5t-17 40.5q0 25 17 41.5t41 16.5t41 -16.5t17 -41.5q0 -24 -17 -40.5t-41 -16.5zM579 335q14 0 14 -14v-79v-228q0 -14 -14 -14h-64q-12 0 -14 14l-11 55q-68 -77 -160 -77q-128 0 -211.5 94.5t-83.5 263.5t83.5 263.5t211.5 94.5
q115 0 182.5 -58.5t76.5 -144.5q0 -6 -4.5 -10.5t-10.5 -4.5h-125q-11 0 -14 12q-6 31 -34 51t-71 20q-71 0 -106 -64t-35 -159q0 -94 35 -158.5t106 -64.5q44 0 78.5 23t52.5 64l-3 14h-84q-15 0 -15 14v79q0 14 15 14h205z" />
    <glyph glyph-name="O.ss01" horiz-adv-x="659" 
d="M330 -8q-128 0 -212.5 95t-84.5 263t84.5 263t212.5 95t212 -95t84 -263t-84 -263t-212 -95zM330 127q72 0 107 63t35 160t-35 160t-107 63q-71 0 -107 -63.5t-36 -159.5q0 -97 35.5 -160t107.5 -63z" />
    <glyph glyph-name="Oacute.ss01" horiz-adv-x="659" 
d="M249 734q-15 -5 -20 9l-9 25q-4 11 10 19l168 100q15 9 21 -9l21 -65q5 -15 -9 -20zM330 -8q-128 0 -212.5 95t-84.5 263t84.5 263t212.5 95t212 -95t84 -263t-84 -263t-212 -95zM330 127q72 0 107 63t35 160t-35 160t-107 63q-71 0 -107 -63.5t-36 -159.5
q0 -97 35.5 -160t107.5 -63z" />
    <glyph glyph-name="Ocircumflex.ss01" horiz-adv-x="659" 
d="M225 742q-19 -13 -19 7v29q0 10 10 20l86 82q12 12 25 12h4q13 0 25 -12l87 -82q10 -10 10 -20v-29q0 -20 -19 -7l-105 66zM330 708q128 0 212 -95t84 -263t-84 -263t-212 -95t-212.5 95t-84.5 263t84.5 263t212.5 95zM330 127q72 0 107 63t35 160t-35 160t-107 63
q-71 0 -107 -63.5t-36 -159.5q0 -97 35.5 -160t107.5 -63z" />
    <glyph glyph-name="Odieresis.ss01" horiz-adv-x="659" 
d="M260 758q-20 0 -34 13t-14 33q0 21 13.5 34t34.5 13q20 0 33.5 -13t13.5 -34q0 -20 -13.5 -33t-33.5 -13zM401 758q-20 0 -34 13t-14 33q0 21 13.5 34t34.5 13q20 0 33.5 -13t13.5 -34q0 -20 -13.5 -33t-33.5 -13zM330 -8q-128 0 -212.5 95t-84.5 263t84.5 263t212.5 95
t212 -95t84 -263t-84 -263t-212 -95zM330 127q72 0 107 63t35 160t-35 160t-107 63q-71 0 -107 -63.5t-36 -159.5q0 -97 35.5 -160t107.5 -63z" />
    <glyph glyph-name="Ograve.ss01" horiz-adv-x="659" 
d="M411 735l-182 59q-14 5 -9 20l21 65q6 18 21 9l168 -100q14 -8 10 -19l-9 -25q-5 -14 -20 -9zM330 -8q-128 0 -212.5 95t-84.5 263t84.5 263t212.5 95t212 -95t84 -263t-84 -263t-212 -95zM330 127q72 0 107 63t35 160t-35 160t-107 63q-71 0 -107 -63.5t-36 -159.5
q0 -97 35.5 -160t107.5 -63z" />
    <glyph glyph-name="Ohungarumlaut.ss01" horiz-adv-x="659" 
d="M194 741q-10 -5 -21 6l-11 13q-6 7 7 20l101 89q12 8 20 -3l40 -44q12 -16 -6 -21zM363 741q-10 -5 -21 6l-11 13q-6 7 7 20l101 89q11 7 20 -3l39 -44q12 -14 -5 -22zM330 -8q-128 0 -212.5 95t-84.5 263t84.5 263t212.5 95t212 -95t84 -263t-84 -263t-212 -95zM330 127
q72 0 107 63t35 160t-35 160t-107 63q-71 0 -107 -63.5t-36 -159.5q0 -97 35.5 -160t107.5 -63z" />
    <glyph glyph-name="Omacron.ss01" horiz-adv-x="659" 
d="M234 758q-16 0 -16 15v52q0 15 16 15h192q16 0 16 -15v-52q0 -15 -16 -15h-192zM330 -8q-128 0 -212.5 95t-84.5 263t84.5 263t212.5 95t212 -95t84 -263t-84 -263t-212 -95zM330 127q72 0 107 63t35 160t-35 160t-107 63q-71 0 -107 -63.5t-36 -159.5q0 -97 35.5 -160
t107.5 -63z" />
    <glyph glyph-name="Oslash.ss01" horiz-adv-x="659" 
d="M527 630q99 -99 99 -280q0 -168 -84 -263t-212 -95q-64 0 -118 24l-5 -10q-7 -15 -21 -15h-65q-10 0 -14.5 7t-0.5 15l29 56q-102 99 -102 281q0 168 84.5 263t212.5 95q66 0 120 -25l4 9q8 15 20 15h72q8 0 11.5 -5.5t-0.5 -12.5zM187 350q0 -79 23 -134l176 343
q-25 14 -56 14q-71 0 -107 -63.5t-36 -159.5zM330 127q72 0 107 63t35 160q0 76 -21 131l-176 -342q24 -12 55 -12z" />
    <glyph glyph-name="Otilde.ss01" horiz-adv-x="659" 
d="M182 768q-8 3 -4 12q26 71 95 70q39 0 74 -16.5t48 -16.5q26 0 50 25q7 6 14 2l20 -8q8 -3 4 -12q-10 -27 -32 -49t-55 -23h-1q-34 0 -66 16.5t-56 16.5q-38 0 -56 -25q-5 -8 -14 -2zM330 708q128 0 212 -95t84 -263t-84 -263t-212 -95t-212.5 95t-84.5 263t84.5 263
t212.5 95zM330 127q72 0 107 63t35 160t-35 160t-107 63q-71 0 -107 -63.5t-36 -159.5q0 -97 35.5 -160t107.5 -63z" />
    <glyph glyph-name="P.ss01" horiz-adv-x="631" 
d="M598 482q0 -97 -56.5 -156t-135.5 -60h-197v-252q0 -14 -14 -14h-125q-15 0 -15 14v671q0 15 15 15h125h219q78 -1 131 -60.5t53 -157.5zM370 402q22 0 48 19t26 61q0 16 -5 32.5t-23 33t-48 16.5h-159v-162h161z" />
    <glyph glyph-name="Q.ss01" horiz-adv-x="683" 
d="M653 60q11 -10 0 -21l-77 -77q-10 -10 -21 0l-72 72q-66 -42 -151 -42q-128 0 -212.5 95t-84.5 263t84.5 263t212.5 95t212.5 -95t84.5 -263q0 -127 -51 -216zM332 127q70 0 106.5 63.5t36.5 159.5q0 95 -36.5 159t-106.5 64t-106 -63.5t-36 -159.5t36 -159.5t106 -63.5z
" />
    <glyph glyph-name="R.ss01" horiz-adv-x="683" 
d="M627 484q0 -132 -96 -188q39 -58 67 -145t28 -137q0 -14 -15 -14h-125q-15 0 -15 14q0 52 -24.5 123.5t-77.5 132.5h-160v-256q0 -14 -14 -14h-125q-15 0 -15 14v671q0 15 15 15h125h249q78 -1 130.5 -59.5t52.5 -156.5zM209 564v-157h192q12 0 26.5 5t30 23.5t15.5 48.5
q0 16 -4.5 32t-22 32t-47.5 16h-190z" />
    <glyph glyph-name="Racute.ss01" horiz-adv-x="683" 
d="M240 743l-9 25q-4 11 10 19l168 100q15 9 21 -9l21 -65q5 -15 -9 -20l-182 -59q-15 -5 -20 9zM627 484q0 -132 -96 -188q39 -58 67 -145t28 -137q0 -14 -15 -14h-125q-15 0 -15 14q0 52 -24.5 123.5t-77.5 132.5h-160v-256q0 -14 -14 -14h-125q-15 0 -15 14v671
q0 15 15 15h125h249q78 -1 130.5 -59.5t52.5 -156.5zM209 564v-157h192q12 0 26.5 5t30 23.5t15.5 48.5q0 16 -4.5 32t-22 32t-47.5 16h-190z" />
    <glyph glyph-name="Rcaron.ss01" horiz-adv-x="683" 
d="M227 832q-10 10 -10 20v29q0 20 19 7l104 -66l105 66q19 13 19 -7v-29q0 -10 -10 -20l-87 -82q-12 -12 -25 -12h-4q-13 0 -25 12zM627 484q0 -132 -96 -188q39 -58 67 -145t28 -137q0 -14 -15 -14h-125q-15 0 -15 14q0 52 -24.5 123.5t-77.5 132.5h-160v-256
q0 -14 -14 -14h-125q-15 0 -15 14v671q0 15 15 15h125h249q78 -1 130.5 -59.5t52.5 -156.5zM209 564v-157h192q12 0 26.5 5t30 23.5t15.5 48.5q0 16 -4.5 32t-22 32t-47.5 16h-190z" />
    <glyph glyph-name="Rcommaaccent.ss01" horiz-adv-x="683" 
d="M627 484q0 -132 -96 -188q39 -58 67 -145t28 -137q0 -14 -15 -14h-125q-15 0 -15 14q0 52 -24.5 123.5t-77.5 132.5h-160v-256q0 -14 -14 -14h-125q-15 0 -15 14v671q0 15 15 15h125h249q78 -1 130.5 -59.5t52.5 -156.5zM209 564v-157h192q12 0 26.5 5t30 23.5t15.5 48.5
q0 16 -4.5 32t-22 32t-47.5 16h-190zM391 -42q16 0 16 -15v-86q0 -3 -2 -7l-34 -98h-30q-12 0 -9 16l8 74h-46q-16 0 -16 15v86q0 15 16 15h97z" />
    <glyph glyph-name="U.ss01" horiz-adv-x="675" 
d="M598 700q14 0 14 -16v-448q0 -236 -224 -236h-86h-15q-116 0 -170 63.5t-54 172.5v448q0 7 4.5 11.5t10.5 4.5h124q6 0 10.5 -4.5t4.5 -11.5v-432q0 -56 23.5 -86t69.5 -30h55q46 0 69.5 30t23.5 86v432q0 7 4.5 11.5t10.5 4.5h125z" />
    <glyph glyph-name="Uacute.ss01" horiz-adv-x="675" 
d="M237 743l-9 25q-4 11 10 19l168 100q15 9 21 -9l21 -65q5 -15 -9 -20l-182 -59q-15 -5 -20 9zM598 700q14 0 14 -16v-448q0 -236 -224 -236h-86h-15q-116 0 -170 63.5t-54 172.5v448q0 7 4.5 11.5t10.5 4.5h124q6 0 10.5 -4.5t4.5 -11.5v-432q0 -56 23.5 -86t69.5 -30h55
q46 0 69.5 30t23.5 86v432q0 7 4.5 11.5t10.5 4.5h125z" />
    <glyph glyph-name="Ucircumflex.ss01" horiz-adv-x="675" 
d="M232 742q-19 -13 -19 7v29q0 10 10 20l86 82q12 12 25 12h4q13 0 25 -12l87 -82q10 -10 10 -20v-29q0 -20 -19 -7l-105 66zM598 700q14 0 14 -16v-448q0 -236 -224 -236h-86h-15q-116 0 -170 63.5t-54 172.5v448q0 7 4.5 11.5t10.5 4.5h124q6 0 10.5 -4.5t4.5 -11.5v-432
q0 -56 23.5 -86t69.5 -30h55q46 0 69.5 30t23.5 86v432q0 7 4.5 11.5t10.5 4.5h125z" />
    <glyph glyph-name="Udieresis.ss01" horiz-adv-x="675" 
d="M268 758q-20 0 -34 13t-14 33q0 21 13.5 34t34.5 13q20 0 33.5 -13t13.5 -34q0 -20 -13.5 -33t-33.5 -13zM409 758q-20 0 -34 13t-14 33q0 21 13.5 34t34.5 13q20 0 33.5 -13t13.5 -34q0 -20 -13.5 -33t-33.5 -13zM598 700q14 0 14 -16v-448q0 -236 -224 -236h-86h-15
q-116 0 -170 63.5t-54 172.5v448q0 7 4.5 11.5t10.5 4.5h124q6 0 10.5 -4.5t4.5 -11.5v-432q0 -56 23.5 -86t69.5 -30h55q46 0 69.5 30t23.5 86v432q0 7 4.5 11.5t10.5 4.5h125z" />
    <glyph glyph-name="Ugrave.ss01" horiz-adv-x="675" 
d="M236 794q-14 5 -9 20l21 65q6 18 21 9l168 -100q14 -8 10 -19l-9 -25q-5 -14 -20 -9zM598 700q14 0 14 -16v-448q0 -236 -224 -236h-86h-15q-116 0 -170 63.5t-54 172.5v448q0 7 4.5 11.5t10.5 4.5h124q6 0 10.5 -4.5t4.5 -11.5v-432q0 -56 23.5 -86t69.5 -30h55
q46 0 69.5 30t23.5 86v432q0 7 4.5 11.5t10.5 4.5h125z" />
    <glyph glyph-name="Uhungarumlaut.ss01" horiz-adv-x="675" 
d="M180 747l-11 13q-6 7 7 20l101 89q12 8 20 -3l40 -44q12 -16 -6 -21l-130 -60q-10 -5 -21 6zM338 760q-6 7 7 20l101 89q11 7 20 -3l39 -44q12 -14 -5 -22l-130 -59q-10 -5 -21 6zM598 700q14 0 14 -16v-448q0 -236 -224 -236h-86h-15q-116 0 -170 63.5t-54 172.5v448
q0 7 4.5 11.5t10.5 4.5h124q6 0 10.5 -4.5t4.5 -11.5v-432q0 -56 23.5 -86t69.5 -30h55q46 0 69.5 30t23.5 86v432q0 7 4.5 11.5t10.5 4.5h125z" />
    <glyph glyph-name="Umacron.ss01" horiz-adv-x="675" 
d="M242 758q-16 0 -16 15v52q0 15 16 15h192q16 0 16 -15v-52q0 -15 -16 -15h-192zM598 700q14 0 14 -16v-448q0 -236 -224 -236h-86h-15q-116 0 -170 63.5t-54 172.5v448q0 7 4.5 11.5t10.5 4.5h124q6 0 10.5 -4.5t4.5 -11.5v-432q0 -56 23.5 -86t69.5 -30h55q46 0 69.5 30
t23.5 86v432q0 7 4.5 11.5t10.5 4.5h125z" />
    <glyph glyph-name="Uogonek.ss01" horiz-adv-x="675" 
d="M598 700q14 0 14 -16v-448q0 -194 -153 -229q-55 -55 -55 -109q0 -39 32 -39q30 0 50 21q8 8 15 0l10 -10q5 -5 2 -11q-6 -21 -30 -42t-62 -22h-1q-42 0 -69 24.5t-27 64.5q0 62 64 116h-86h-15q-116 0 -170 63.5t-54 172.5v448q0 7 4.5 11.5t10.5 4.5h124q6 0 10.5 -4.5
t4.5 -11.5v-432q0 -56 23.5 -86t69.5 -30h55q46 0 69.5 30t23.5 86v432q0 7 4.5 11.5t10.5 4.5h125z" />
    <glyph glyph-name="Uring.ss01" horiz-adv-x="675" 
d="M337 728q-46 0 -76.5 29.5t-30.5 79.5t30.5 79.5t76.5 29.5t77.5 -30t31.5 -79t-31.5 -79t-77.5 -30zM337 878q-17 0 -25.5 -12.5t-8.5 -28.5q0 -42 34 -42q18 0 27.5 12.5t9.5 29.5q0 16 -10 28.5t-27 12.5zM598 700q14 0 14 -16v-448q0 -236 -224 -236h-86h-15
q-116 0 -170 63.5t-54 172.5v448q0 7 4.5 11.5t10.5 4.5h124q6 0 10.5 -4.5t4.5 -11.5v-432q0 -56 23.5 -86t69.5 -30h55q46 0 69.5 30t23.5 86v432q0 7 4.5 11.5t10.5 4.5h125z" />
    <glyph glyph-name="a.ss01" horiz-adv-x="493" 
d="M441 248v-233q0 -6 -4.5 -10.5t-10.5 -4.5h-72q-22 0 -29 19l-12 29q-54 -56 -124 -56q-78 0 -117.5 40t-39.5 103q0 57 44 95.5t124 38.5q55 0 91 -18v18q0 59 -73 59q-42 0 -108 -17q-6 -2 -10.5 1t-5.5 9l-14 70q-3 11 10 17q58 23 151 23q196 0 200 -183zM230 77
q25 0 43 17t18 43t-16.5 42t-44.5 16q-26 0 -43 -17t-17 -43t17.5 -42t42.5 -16z" />
    <glyph glyph-name="aacute.ss01" horiz-adv-x="493" 
d="M154 456l-15 22q-7 10 4 21l134 143q11 11 23 -2l38 -58q9 -13 -3 -22l-159 -107q-13 -8 -22 3zM441 248v-233q0 -6 -4.5 -10.5t-10.5 -4.5h-72q-22 0 -29 19l-12 29q-54 -56 -124 -56q-78 0 -117.5 40t-39.5 103q0 57 44 95.5t124 38.5q55 0 91 -18v18q0 59 -73 59
q-42 0 -108 -17q-6 -2 -10.5 1t-5.5 9l-14 70q-3 11 10 17q58 23 151 23q196 0 200 -183zM230 77q25 0 43 17t18 43t-16.5 42t-44.5 16q-26 0 -43 -17t-17 -43t17.5 -42t42.5 -16z" />
    <glyph glyph-name="abreve.ss01" horiz-adv-x="493" 
d="M239 464q-108 0 -149 102q-3 7 5 10l58 26q8 3 11 -4q11 -19 18.5 -28.5t22.5 -17.5t35 -8t34.5 8.5t22 17.5t18.5 28q3 7 11 4l58 -26q8 -3 5 -10q-41 -102 -150 -102zM441 248v-233q0 -6 -4.5 -10.5t-10.5 -4.5h-72q-22 0 -29 19l-12 29q-54 -56 -124 -56
q-78 0 -117.5 40t-39.5 103q0 57 44 95.5t124 38.5q55 0 91 -18v18q0 59 -73 59q-42 0 -108 -17q-6 -2 -10.5 1t-5.5 9l-14 70q-3 11 10 17q58 23 151 23q196 0 200 -183zM230 77q25 0 43 17t18 43t-16.5 42t-44.5 16q-26 0 -43 -17t-17 -43t17.5 -42t42.5 -16z" />
    <glyph glyph-name="acircumflex.ss01" horiz-adv-x="493" 
d="M134 465q-19 -13 -19 7v29q0 10 10 20l86 82q12 12 25 12h4q13 0 25 -12l87 -82q10 -10 10 -20v-29q0 -20 -19 -7l-105 66zM441 248v-233q0 -6 -4.5 -10.5t-10.5 -4.5h-72q-22 0 -29 19l-12 29q-54 -56 -124 -56q-78 0 -117.5 40t-39.5 103q0 57 44 95.5t124 38.5
q55 0 91 -18v18q0 59 -73 59q-42 0 -108 -17q-6 -2 -10.5 1t-5.5 9l-14 70q-3 11 10 17q58 23 151 23q196 0 200 -183zM230 77q25 0 43 17t18 43t-16.5 42t-44.5 16q-26 0 -43 -17t-17 -43t17.5 -42t42.5 -16z" />
    <glyph glyph-name="adieresis.ss01" horiz-adv-x="493" 
d="M169 481q-20 0 -34 13t-14 33q0 21 13.5 34t34.5 13q20 0 33.5 -13t13.5 -34q0 -20 -13.5 -33t-33.5 -13zM310 481q-20 0 -34 13t-14 33q0 21 13.5 34t34.5 13q20 0 33.5 -13t13.5 -34q0 -20 -13.5 -33t-33.5 -13zM441 248v-233q0 -6 -4.5 -10.5t-10.5 -4.5h-72
q-22 0 -29 19l-12 29q-54 -56 -124 -56q-78 0 -117.5 40t-39.5 103q0 57 44 95.5t124 38.5q55 0 91 -18v18q0 59 -73 59q-42 0 -108 -17q-6 -2 -10.5 1t-5.5 9l-14 70q-3 11 10 17q58 23 151 23q196 0 200 -183zM230 77q25 0 43 17t18 43t-16.5 42t-44.5 16q-26 0 -43 -17
t-17 -43t17.5 -42t42.5 -16z" />
    <glyph glyph-name="agrave.ss01" horiz-adv-x="493" 
d="M143 560q-12 9 -3 22l38 58q12 13 23 2l134 -143q11 -11 4 -21l-15 -22q-9 -11 -22 -3zM441 248v-233q0 -6 -4.5 -10.5t-10.5 -4.5h-72q-22 0 -29 19l-12 29q-54 -56 -124 -56q-78 0 -117.5 40t-39.5 103q0 57 44 95.5t124 38.5q55 0 91 -18v18q0 59 -73 59
q-42 0 -108 -17q-6 -2 -10.5 1t-5.5 9l-14 70q-3 11 10 17q58 23 151 23q196 0 200 -183zM230 77q25 0 43 17t18 43t-16.5 42t-44.5 16q-26 0 -43 -17t-17 -43t17.5 -42t42.5 -16z" />
    <glyph glyph-name="amacron.ss01" horiz-adv-x="493" 
d="M143 481q-16 0 -16 15v52q0 15 16 15h192q16 0 16 -15v-52q0 -15 -16 -15h-192zM441 248v-233q0 -6 -4.5 -10.5t-10.5 -4.5h-72q-22 0 -29 19l-12 29q-54 -56 -124 -56q-78 0 -117.5 40t-39.5 103q0 57 44 95.5t124 38.5q55 0 91 -18v18q0 59 -73 59q-42 0 -108 -17
q-6 -2 -10.5 1t-5.5 9l-14 70q-3 11 10 17q58 23 151 23q196 0 200 -183zM230 77q25 0 43 17t18 43t-16.5 42t-44.5 16q-26 0 -43 -17t-17 -43t17.5 -42t42.5 -16z" />
    <glyph glyph-name="aogonek.ss01" horiz-adv-x="493" 
d="M471 -130q5 -5 2 -11q-6 -21 -30 -42t-62 -22h-1q-42 0 -69 24.5t-27 64.5q0 62 65 117q-19 4 -24 18l-12 29q-54 -56 -124 -56q-78 0 -117.5 40t-39.5 103q0 57 44 95.5t124 38.5q55 0 91 -18v18q0 59 -73 59q-42 0 -108 -17q-6 -2 -10.5 1t-5.5 9l-14 70q-3 11 10 17
q58 23 151 23q196 0 200 -183v-233q0 -6 -4.5 -10.5t-10.5 -4.5h-14q-48 -52 -48 -102q0 -39 32 -39q30 0 50 21q8 8 15 0zM230 77q25 0 43 17t18 43t-16.5 42t-44.5 16q-26 0 -43 -17t-17 -43t17.5 -42t42.5 -16z" />
    <glyph glyph-name="aring.ss01" horiz-adv-x="493" 
d="M238 451q-46 0 -76.5 29.5t-30.5 79.5t30.5 79.5t76.5 29.5t77.5 -30t31.5 -79t-31.5 -79t-77.5 -30zM238 601q-17 0 -25.5 -12.5t-8.5 -28.5q0 -42 34 -42q18 0 27.5 12.5t9.5 29.5q0 16 -10 28.5t-27 12.5zM441 248v-233q0 -6 -4.5 -10.5t-10.5 -4.5h-72q-22 0 -29 19
l-12 29q-54 -56 -124 -56q-78 0 -117.5 40t-39.5 103q0 57 44 95.5t124 38.5q55 0 91 -18v18q0 59 -73 59q-42 0 -108 -17q-6 -2 -10.5 1t-5.5 9l-14 70q-3 11 10 17q58 23 151 23q196 0 200 -183zM230 77q25 0 43 17t18 43t-16.5 42t-44.5 16q-26 0 -43 -17t-17 -43
t17.5 -42t42.5 -16z" />
    <glyph glyph-name="atilde.ss01" horiz-adv-x="493" 
d="M91 491q-8 3 -4 12q26 71 95 70q40 0 75 -16.5t47 -16.5q26 0 50 25q6 6 14 2l20 -8q8 -3 4 -12q-10 -27 -32 -49t-55 -23h-1q-34 0 -66 16.5t-56 16.5q-38 0 -56 -25q-5 -8 -14 -2zM441 248v-233q0 -6 -4.5 -10.5t-10.5 -4.5h-72q-22 0 -29 19l-12 29q-54 -56 -124 -56
q-78 0 -117.5 40t-39.5 103q0 57 44 95.5t124 38.5q55 0 91 -18v18q0 59 -73 59q-42 0 -108 -17q-6 -2 -10.5 1t-5.5 9l-14 70q-3 11 10 17q58 23 151 23q196 0 200 -183zM230 77q25 0 43 17t18 43t-16.5 42t-44.5 16q-26 0 -43 -17t-17 -43t17.5 -42t42.5 -16z" />
    <glyph glyph-name="c.ss01" horiz-adv-x="457" 
d="M238 -8q-94 0 -154 61.5t-60 156.5q0 98 60 159.5t154 61.5q69 0 118.5 -39t67.5 -104q2 -5 -1.5 -10.5t-8.5 -6.5l-88 -14q-13 -2 -18 9q-12 54 -70 54q-76 0 -76 -110q0 -109 76 -109q59 0 71 52q2 13 16 11l88 -14q15 -2 12 -17q-12 -66 -65 -103.5t-122 -37.5z" />
    <glyph glyph-name="cacute.ss01" horiz-adv-x="457" 
d="M162 453q-13 -8 -22 3l-15 22q-7 10 4 21l134 143q11 11 23 -2l38 -58q9 -13 -3 -22zM238 -8q-94 0 -154 61.5t-60 156.5q0 98 60 159.5t154 61.5q69 0 118.5 -39t67.5 -104q2 -5 -1.5 -10.5t-8.5 -6.5l-88 -14q-13 -2 -18 9q-12 54 -70 54q-76 0 -76 -110
q0 -109 76 -109q59 0 71 52q2 13 16 11l88 -14q15 -2 12 -17q-12 -66 -65 -103.5t-122 -37.5z" />
    <glyph glyph-name="ccaron.ss01" horiz-adv-x="457" 
d="M111 555q-10 10 -10 20v29q0 20 19 7l104 -66l105 66q19 13 19 -7v-29q0 -10 -10 -20l-87 -82q-12 -12 -25 -12h-4q-13 0 -25 12zM413 150q15 -2 12 -17q-12 -66 -65 -103.5t-122 -37.5q-94 0 -154 61.5t-60 156.5q0 98 60 159.5t154 61.5q69 0 118.5 -39t67.5 -104
q2 -5 -1.5 -10.5t-8.5 -6.5l-88 -14q-13 -2 -18 9q-12 54 -70 54q-76 0 -76 -110q0 -109 76 -109q59 0 71 52q2 13 16 11z" />
    <glyph glyph-name="ccedilla.ss01" horiz-adv-x="457" 
d="M413 150q15 -2 12 -17q-12 -64 -62 -101.5t-116 -39.5l-11 -27q33 2 58 -18.5t25 -58.5q0 -89 -104 -89q-25 0 -48 13t-28 25q-2 6 2 9l29 27q5 4 11 -2q14 -14 33 -14q14 0 23 8t9 24t-12 23.5t-22 -1.5q-5 -4 -10 -5.5t-8 -0.5l-3 1l-38 11q-6 3 -5 10l31 72
q-70 18 -112.5 75t-42.5 136q0 98 60 159.5t154 61.5q69 0 118.5 -39t67.5 -104q2 -5 -1.5 -10.5t-8.5 -6.5l-88 -14q-13 -2 -18 9q-12 54 -70 54q-76 0 -76 -110q0 -109 76 -109q59 0 71 52q2 13 16 11z" />
    <glyph glyph-name="cdotaccent.ss01" horiz-adv-x="457" 
d="M225 469q-24 0 -41 16.5t-17 40.5q0 25 17 41.5t41 16.5t41 -16.5t17 -41.5q0 -24 -17 -40.5t-41 -16.5zM238 -8q-94 0 -154 61.5t-60 156.5q0 98 60 159.5t154 61.5q69 0 118.5 -39t67.5 -104q2 -5 -1.5 -10.5t-8.5 -6.5l-88 -14q-13 -2 -18 9q-12 54 -70 54
q-76 0 -76 -110q0 -109 76 -109q59 0 71 52q2 13 16 11l88 -14q15 -2 12 -17q-12 -66 -65 -103.5t-122 -37.5z" />
    <glyph glyph-name="e.ss01" horiz-adv-x="484" 
d="M244 431q97 0 148.5 -62.5t51.5 -179.5q0 -6 -4.5 -10.5t-10.5 -4.5h-124h-131q8 -36 31 -57t55 -21q54 0 86 34q10 10 21 -2l45 -53q10 -12 1 -21q-64 -62 -161 -62q-91 0 -155.5 62t-64.5 156q0 96 63.5 158.5t148.5 62.5zM241 330q-56 0 -68 -77h130q-5 34 -21 55.5
t-41 21.5z" />
    <glyph glyph-name="eacute.ss01" horiz-adv-x="484" 
d="M154 456l-15 22q-7 10 4 21l134 143q11 11 23 -2l38 -58q9 -13 -3 -22l-159 -107q-13 -8 -22 3zM244 431q97 0 148.5 -62.5t51.5 -179.5q0 -6 -4.5 -10.5t-10.5 -4.5h-124h-131q8 -36 31 -57t55 -21q54 0 86 34q10 10 21 -2l45 -53q10 -12 1 -21q-64 -62 -161 -62
q-91 0 -155.5 62t-64.5 156q0 96 63.5 158.5t148.5 62.5zM241 330q-56 0 -68 -77h130q-5 34 -21 55.5t-41 21.5z" />
    <glyph glyph-name="ecaron.ss01" horiz-adv-x="484" 
d="M125 555q-10 10 -10 20v29q0 20 19 7l104 -66l105 66q19 13 19 -7v-29q0 -10 -10 -20l-87 -82q-12 -12 -25 -12h-4q-13 0 -25 12zM244 431q97 0 148.5 -62.5t51.5 -179.5q0 -6 -4.5 -10.5t-10.5 -4.5h-124h-131q8 -36 31 -57t55 -21q54 0 86 34q10 10 21 -2l45 -53
q10 -12 1 -21q-64 -62 -161 -62q-91 0 -155.5 62t-64.5 156q0 96 63.5 158.5t148.5 62.5zM241 330q-56 0 -68 -77h130q-5 34 -21 55.5t-41 21.5z" />
    <glyph glyph-name="ecircumflex.ss01" horiz-adv-x="484" 
d="M134 465q-19 -13 -19 7v29q0 10 10 20l86 82q12 12 25 12h4q13 0 25 -12l87 -82q10 -10 10 -20v-29q0 -20 -19 -7l-105 66zM244 431q97 0 148.5 -62.5t51.5 -179.5q0 -6 -4.5 -10.5t-10.5 -4.5h-124h-131q8 -36 31 -57t55 -21q54 0 86 34q10 10 21 -2l45 -53
q10 -12 1 -21q-64 -62 -161 -62q-91 0 -155.5 62t-64.5 156q0 96 63.5 158.5t148.5 62.5zM241 330q-56 0 -68 -77h130q-5 34 -21 55.5t-41 21.5z" />
    <glyph glyph-name="edieresis.ss01" horiz-adv-x="484" 
d="M169 481q-20 0 -34 13t-14 33q0 21 13.5 34t34.5 13q20 0 33.5 -13t13.5 -34q0 -20 -13.5 -33t-33.5 -13zM310 481q-20 0 -34 13t-14 33q0 21 13.5 34t34.5 13q20 0 33.5 -13t13.5 -34q0 -20 -13.5 -33t-33.5 -13zM244 431q97 0 148.5 -62.5t51.5 -179.5q0 -6 -4.5 -10.5
t-10.5 -4.5h-124h-131q8 -36 31 -57t55 -21q54 0 86 34q10 10 21 -2l45 -53q10 -12 1 -21q-64 -62 -161 -62q-91 0 -155.5 62t-64.5 156q0 96 63.5 158.5t148.5 62.5zM241 330q-56 0 -68 -77h130q-5 34 -21 55.5t-41 21.5z" />
    <glyph glyph-name="edotaccent.ss01" horiz-adv-x="484" 
d="M239 469q-24 0 -41 16.5t-17 40.5q0 25 17 41.5t41 16.5t41 -16.5t17 -41.5q0 -24 -17 -40.5t-41 -16.5zM244 431q97 0 148.5 -62.5t51.5 -179.5q0 -6 -4.5 -10.5t-10.5 -4.5h-124h-131q8 -36 31 -57t55 -21q54 0 86 34q10 10 21 -2l45 -53q10 -12 1 -21
q-64 -62 -161 -62q-91 0 -155.5 62t-64.5 156q0 96 63.5 158.5t148.5 62.5zM241 330q-56 0 -68 -77h130q-5 34 -21 55.5t-41 21.5z" />
    <glyph glyph-name="egrave.ss01" horiz-adv-x="484" 
d="M143 560q-12 9 -3 22l38 58q12 13 23 2l134 -143q11 -11 4 -21l-15 -22q-9 -11 -22 -3zM244 431q97 0 148.5 -62.5t51.5 -179.5q0 -6 -4.5 -10.5t-10.5 -4.5h-124h-131q8 -36 31 -57t55 -21q54 0 86 34q10 10 21 -2l45 -53q10 -12 1 -21q-64 -62 -161 -62
q-91 0 -155.5 62t-64.5 156q0 96 63.5 158.5t148.5 62.5zM241 330q-56 0 -68 -77h130q-5 34 -21 55.5t-41 21.5z" />
    <glyph glyph-name="emacron.ss01" horiz-adv-x="484" 
d="M143 481q-16 0 -16 15v52q0 15 16 15h192q16 0 16 -15v-52q0 -15 -16 -15h-192zM244 431q97 0 148.5 -62.5t51.5 -179.5q0 -6 -4.5 -10.5t-10.5 -4.5h-124h-131q8 -36 31 -57t55 -21q54 0 86 34q10 10 21 -2l45 -53q10 -12 1 -21q-64 -62 -161 -62q-91 0 -155.5 62
t-64.5 156q0 96 63.5 158.5t148.5 62.5zM241 330q-56 0 -68 -77h130q-5 34 -21 55.5t-41 21.5z" />
    <glyph glyph-name="eogonek.ss01" horiz-adv-x="484" 
d="M244 431q97 0 148.5 -62.5t51.5 -179.5q0 -6 -4.5 -10.5t-10.5 -4.5h-124h-131q8 -36 31 -57t55 -21q54 0 86 34q10 10 21 -2l45 -53q10 -12 1 -21q-29 -27 -64 -42q-60 -58 -60 -114q0 -39 32 -39q30 0 51 21q7 9 14 0l10 -10q6 -6 3 -11q-8 -22 -31 -42.5t-61 -21.5h-1
q-43 0 -70 24.5t-27 64.5q0 57 55 108h-12q-91 0 -155.5 62t-64.5 156q0 96 63.5 158.5t148.5 62.5zM241 330q-56 0 -68 -77h130q-5 34 -21 55.5t-41 21.5z" />
    <glyph glyph-name="g.ss01" horiz-adv-x="511" 
d="M311 31q84 0 122 -46.5t38 -113.5q0 -76 -46.5 -118.5t-126.5 -42.5h-63q-95 0 -142.5 44t-47.5 109q0 15 15 15h106q7 0 11.5 -4.5t4.5 -9.5q0 -15 15.5 -30t46.5 -15h34q55 0 55 53q0 20 -12 35t-34 15h-96q-55 0 -103 35t-48 102t46 106q-28 40 -28 90q0 74 54.5 125
t139.5 51q52 0 97 -21h103q15 0 15 -15v-50q0 -8 -14 -14l-20 -7q14 -33 14 -69q0 -74 -54.5 -125t-140.5 -51q-30 0 -62 10q-12 -11 -12 -28q0 -30 25 -30h108zM252 320q-27 0 -44 -19t-17 -46q0 -28 17 -46t44 -18q26 0 44 18.5t18 45.5q0 26 -18.5 45.5t-43.5 19.5z" />
    <glyph glyph-name="gbreve.ss01" horiz-adv-x="511" 
d="M251 464q-108 0 -149 102q-3 7 5 10l58 26q7 3 11 -4q11 -19 18.5 -28.5t22.5 -17.5t35 -8t34.5 8.5t22 17.5t18.5 28q4 7 11 4l58 -26q8 -3 5 -10q-41 -102 -150 -102zM311 31q84 0 122 -46.5t38 -113.5q0 -76 -46.5 -118.5t-126.5 -42.5h-63q-95 0 -142.5 44t-47.5 109
q0 15 15 15h106q7 0 11.5 -4.5t4.5 -9.5q0 -15 15.5 -30t46.5 -15h34q55 0 55 53q0 20 -12 35t-34 15h-96q-55 0 -103 35t-48 102t46 106q-28 40 -28 90q0 74 54.5 125t139.5 51q52 0 97 -21h103q15 0 15 -15v-50q0 -8 -14 -14l-20 -7q14 -33 14 -69q0 -74 -54.5 -125
t-140.5 -51q-30 0 -62 10q-12 -11 -12 -28q0 -30 25 -30h108zM252 320q-27 0 -44 -19t-17 -46q0 -28 17 -46t44 -18q26 0 44 18.5t18 45.5q0 26 -18.5 45.5t-43.5 19.5z" />
    <glyph glyph-name="gcommaaccent.ss01" horiz-adv-x="511" 
d="M203 456q-16 0 -16 15v87q0 4 1 6l35 99h30q11 0 10 -16l-9 -74h46q16 0 16 -15v-87q0 -15 -16 -15h-97zM311 31q84 0 122 -46.5t38 -113.5q0 -76 -46.5 -118.5t-126.5 -42.5h-63q-95 0 -142.5 44t-47.5 109q0 15 15 15h106q7 0 11.5 -4.5t4.5 -9.5q0 -15 15.5 -30
t46.5 -15h34q55 0 55 53q0 20 -12 35t-34 15h-96q-55 0 -103 35t-48 102t46 106q-28 40 -28 90q0 74 54.5 125t139.5 51q52 0 97 -21h103q15 0 15 -15v-50q0 -8 -14 -14l-20 -7q14 -33 14 -69q0 -74 -54.5 -125t-140.5 -51q-30 0 -62 10q-12 -11 -12 -28q0 -30 25 -30h108z
M252 320q-27 0 -44 -19t-17 -46q0 -28 17 -46t44 -18q26 0 44 18.5t18 45.5q0 26 -18.5 45.5t-43.5 19.5z" />
    <glyph glyph-name="gdotaccent.ss01" horiz-adv-x="511" 
d="M251 469q-24 0 -41 16.5t-17 40.5q0 25 17 41.5t41 16.5t41 -16.5t17 -41.5q0 -24 -17 -40.5t-41 -16.5zM311 31q84 0 122 -46.5t38 -113.5q0 -76 -46.5 -118.5t-126.5 -42.5h-63q-95 0 -142.5 44t-47.5 109q0 15 15 15h106q7 0 11.5 -4.5t4.5 -9.5q0 -15 15.5 -30
t46.5 -15h34q55 0 55 53q0 20 -12 35t-34 15h-96q-55 0 -103 35t-48 102t46 106q-28 40 -28 90q0 74 54.5 125t139.5 51q52 0 97 -21h103q15 0 15 -15v-50q0 -8 -14 -14l-20 -7q14 -33 14 -69q0 -74 -54.5 -125t-140.5 -51q-30 0 -62 10q-12 -11 -12 -28q0 -30 25 -30h108z
M252 320q-27 0 -44 -19t-17 -46q0 -28 17 -46t44 -18q26 0 44 18.5t18 45.5q0 26 -18.5 45.5t-43.5 19.5z" />
    <glyph glyph-name="i.loclTRK" horiz-adv-x="243" 
d="M121 569q-28 0 -47.5 19t-19.5 47t19.5 47.5t47.5 19.5t47.5 -19.5t19.5 -47.5t-19.5 -47t-47.5 -19zM61 0q-15 0 -15 14v392q0 17 15 17h120q15 0 15 -17v-392q0 -14 -15 -14h-120z" />
    <glyph glyph-name="o.ss01" horiz-adv-x="489" 
d="M245 -8q-94 0 -153.5 63t-59.5 155q0 94 59.5 157.5t153.5 63.5q93 0 152.5 -64t59.5 -157q0 -92 -59.5 -155t-152.5 -63zM245 101q74 0 74 109q0 110 -74 110q-75 0 -75 -110q0 -109 75 -109z" />
    <glyph glyph-name="oacute.ss01" horiz-adv-x="489" 
d="M182 453q-13 -8 -22 3l-15 22q-7 10 4 21l134 143q11 11 23 -2l38 -58q9 -13 -3 -22zM245 -8q-94 0 -153.5 63t-59.5 155q0 94 59.5 157.5t153.5 63.5q93 0 152.5 -64t59.5 -157q0 -92 -59.5 -155t-152.5 -63zM245 101q74 0 74 109q0 110 -74 110q-75 0 -75 -110
q0 -109 75 -109z" />
    <glyph glyph-name="ocircumflex.ss01" horiz-adv-x="489" 
d="M139 465q-19 -13 -19 7v29q0 10 10 20l86 82q12 12 25 12h4q13 0 25 -12l87 -82q10 -10 10 -20v-29q0 -20 -19 -7l-105 66zM245 431q93 0 152.5 -64t59.5 -157q0 -92 -59.5 -155t-152.5 -63q-94 0 -153.5 63t-59.5 155q0 94 59.5 157.5t153.5 63.5zM245 101q74 0 74 109
q0 110 -74 110q-75 0 -75 -110q0 -109 75 -109z" />
    <glyph glyph-name="odieresis.ss01" horiz-adv-x="489" 
d="M175 481q-20 0 -34 13t-14 33q0 21 13.5 34t34.5 13q20 0 33.5 -13t13.5 -34q0 -20 -13.5 -33t-33.5 -13zM316 481q-20 0 -34 13t-14 33q0 21 13.5 34t34.5 13q20 0 33.5 -13t13.5 -34q0 -20 -13.5 -33t-33.5 -13zM245 -8q-94 0 -153.5 63t-59.5 155q0 94 59.5 157.5
t153.5 63.5q93 0 152.5 -64t59.5 -157q0 -92 -59.5 -155t-152.5 -63zM245 101q74 0 74 109q0 110 -74 110q-75 0 -75 -110q0 -109 75 -109z" />
    <glyph glyph-name="ograve.ss01" horiz-adv-x="489" 
d="M308 453l-159 107q-12 9 -3 22l38 58q12 13 23 2l134 -143q11 -11 4 -21l-15 -22q-9 -11 -22 -3zM245 -8q-94 0 -153.5 63t-59.5 155q0 94 59.5 157.5t153.5 63.5q93 0 152.5 -64t59.5 -157q0 -92 -59.5 -155t-152.5 -63zM245 101q74 0 74 109q0 110 -74 110
q-75 0 -75 -110q0 -109 75 -109z" />
    <glyph glyph-name="ohungarumlaut.ss01" horiz-adv-x="489" 
d="M120 467l-15 9q-7 5 2 21l73 113q8 13 19 4l52 -32q13 -11 0 -22l-109 -93q-10 -8 -22 0zM262 467l-14 9q-8 5 1 21l73 113q7 11 19 4l51 -32q14 -11 1 -22l-109 -93q-10 -8 -22 0zM245 -8q-94 0 -153.5 63t-59.5 155q0 94 59.5 157.5t153.5 63.5q93 0 152.5 -64
t59.5 -157q0 -92 -59.5 -155t-152.5 -63zM245 101q74 0 74 109q0 110 -74 110q-75 0 -75 -110q0 -109 75 -109z" />
    <glyph glyph-name="omacron.ss01" horiz-adv-x="489" 
d="M149 481q-16 0 -16 15v52q0 15 16 15h192q16 0 16 -15v-52q0 -15 -16 -15h-192zM245 -8q-94 0 -153.5 63t-59.5 155q0 94 59.5 157.5t153.5 63.5q93 0 152.5 -64t59.5 -157q0 -92 -59.5 -155t-152.5 -63zM245 101q74 0 74 109q0 110 -74 110q-75 0 -75 -110
q0 -109 75 -109z" />
    <glyph glyph-name="oslash.ss01" horiz-adv-x="489" 
d="M372 390q40 -30 62.5 -77.5t22.5 -102.5q0 -92 -59.5 -155t-152.5 -63q-36 0 -71 11q-8 -11 -19 -11h-28q-10 0 -14.5 7t-0.5 15l8 16q-41 29 -64.5 76.5t-23.5 103.5q0 94 59.5 157.5t153.5 63.5q41 0 74 -13q7 13 19 13h35q8 0 11.5 -5.5t-0.5 -12.5zM170 210
q0 -38 9 -64l88 171q-11 3 -22 3q-75 0 -75 -110zM245 101q74 0 74 109q0 40 -8 61l-86 -168q12 -2 20 -2z" />
    <glyph glyph-name="otilde.ss01" horiz-adv-x="489" 
d="M96 491q-8 3 -4 12q26 71 95 70q39 0 74 -16.5t48 -16.5q26 0 50 25q6 6 14 2l20 -8q8 -3 4 -12q-10 -27 -32 -49t-55 -23h-1q-34 0 -66 16.5t-56 16.5q-38 0 -56 -25q-5 -8 -14 -2zM245 431q93 0 152.5 -64t59.5 -157q0 -92 -59.5 -155t-152.5 -63q-94 0 -153.5 63
t-59.5 155q0 94 59.5 157.5t153.5 63.5zM245 101q74 0 74 109q0 110 -74 110q-75 0 -75 -110q0 -109 75 -109z" />
    <glyph glyph-name="zero.osf" horiz-adv-x="625" 
d="M313 -8q-131 0 -200 69t-69 194q0 120 70 191t199 71t198.5 -70.5t69.5 -191.5q0 -125 -69 -194t-199 -69zM313 126q119 0 119 129q0 24 -3.5 41.5t-14 39.5t-36 34t-65.5 12q-120 0 -120 -127q0 -129 120 -129z" />
    <glyph glyph-name="one.osf" horiz-adv-x="525" 
d="M470 126q6 0 10.5 -4.5t4.5 -10.5v-97q0 -14 -15 -14h-267h-144q-15 0 -15 14v97q0 6 4.5 10.5t10.5 4.5h129v222l-111 -37q-6 -3 -12 1.5t-6 10.5v96q0 7 15 16l122 70q8 4 17 4h115q14 0 14 -15v-368h128z" />
    <glyph glyph-name="two.osf" horiz-adv-x="568" 
d="M509 136q6 0 10.5 -4.5t4.5 -10.5v-107q0 -14 -15 -14h-450q-15 0 -15 14v57q0 6 3 11.5t6 7.5l3 3l172 119q116 84 116 124q0 44 -64 46q-44 -1 -62.5 -14t-20.5 -40q-1 -12 -14 -12h-118q-15 0 -15 16q0 31 13 62t39 59.5t72.5 46t106.5 17.5h1q105 0 162 -54t57 -127
q0 -44 -23.5 -83.5t-46.5 -56.5l-23 -17l-63 -43h164z" />
    <glyph glyph-name="three.osf" horiz-adv-x="588" 
d="M544 7q0 -40 -12 -74.5t-39 -65.5t-77.5 -49t-120.5 -18h-1q-126 0 -188 59.5t-62 135.5q0 17 15 17h118q14 0 14 -12q1 -31 27.5 -48t75.5 -17q47 0 74.5 20t27.5 59q0 48 -25 62.5t-103 14.5h-27q-15 0 -15 14v107q0 14 15 14h27q73 0 94.5 16t21.5 64q0 75 -90 75
q-48 0 -75 -17.5t-28 -47.5q0 -12 -14 -12h-118q-15 0 -15 17q0 76 62 135.5t188 59.5h1q66 0 114.5 -17.5t74 -48t37 -64.5t11.5 -73q0 -113 -83 -150q95 -37 95 -156z" />
    <glyph glyph-name="four.osf" horiz-adv-x="620" 
d="M561 79q15 0 15 -14v-107q0 -14 -15 -14h-52v-121q0 -15 -14 -15h-125q-6 0 -10.5 4.5t-4.5 10.5v121h-296q-15 0 -15 14v89q0 2 2 6h-1l282 447q4 8 16 8h152q14 0 14 -15v-414h52zM196 79h159v254z" />
    <glyph glyph-name="five.osf" horiz-adv-x="588" 
d="M544 38q0 -46 -12.5 -85.5t-39.5 -75t-78 -56.5t-121 -21h-1q-64 0 -114 18.5t-78 48t-42 62.5t-14 66q0 17 15 17h116q14 0 14 -12q2 -26 30 -45.5t73 -19.5q47 0 75.5 28t28.5 78q0 82 -64.5 103.5t-143.5 -33.5q-4 -2 -8.5 -3t-7.5 0h-3l-111 22q-12 3 -11 15l55 349
q2 14 15 14h372q15 0 15 -14v-107q0 -14 -15 -14l-271 -1l-19 -125q62 28 123.5 24.5t111 -28t80 -78.5t30.5 -127z" />
    <glyph glyph-name="six.osf" horiz-adv-x="588" 
d="M319 468q100 0 162.5 -67t62.5 -164q0 -106 -71 -175.5t-169 -69.5q-66 0 -118.5 30.5t-85.5 82.5q-56 79 -56 227q0 172 71.5 274t193.5 102q96 0 153 -56.5t58 -120.5q0 -16 -11 -16h-120q-10 0 -16 12q-18 46 -72 46q-51 0 -80 -38.5t-31 -114.5q46 48 129 48z
M306 127q39 0 66.5 31.5t28.5 77.5q-1 47 -29.5 78.5t-66.5 31.5q-40 0 -69 -31t-29 -77t27 -78.5t72 -32.5z" />
    <glyph glyph-name="seven.osf" horiz-adv-x="568" 
d="M533 507q6 -2 9 -8t0 -13l-316 -664q-9 -14 -24 -14h-125q-8 0 -12.5 7t-0.5 14l258 543h-264q-14 0 -14 14v106q0 16 14 16h471q3 0 4 -1z" />
    <glyph glyph-name="eight.osf" horiz-adv-x="588" 
d="M447 352q97 -52 97 -160q0 -87 -65.5 -143.5t-184.5 -56.5q-118 0 -184 56.5t-66 143.5q0 107 97 159q-38 29 -59 71.5t-21 88.5q0 82 61 139.5t171 57.5q111 0 171.5 -57.5t60.5 -139.5q0 -99 -78 -159zM294 573q-38 0 -61.5 -20.5t-23.5 -50.5q0 -29 23 -52.5t63 -36.5
q82 24 82 85q0 33 -22 54t-61 21zM294 127q43 0 72.5 18.5t29.5 55.5q0 35 -27.5 62t-72.5 40q-47 -13 -75.5 -40t-28.5 -62q0 -37 29.5 -55.5t72.5 -18.5z" />
    <glyph glyph-name="nine.osf" horiz-adv-x="588" 
d="M492 414q6 -8 14.5 -25t23 -83.5t14.5 -150.5q0 -180 -70.5 -266.5t-191.5 -86.5q-105 0 -164.5 57.5t-59.5 119.5q0 17 11 17h120q10 0 16 -12q5 -17 25.5 -32t51.5 -15q104 0 112 131q-32 -26 -102 -26q-116 0 -182 67.5t-66 169.5q0 111 71.5 175t179.5 64
q138 0 197 -104zM293 171q41 0 68.5 30t27.5 78q0 49 -27 79.5t-71 30.5q-40 0 -70.5 -28t-29.5 -82q1 -51 33 -79.5t69 -28.5z" />
    <glyph glyph-name="zero.dnom" horiz-adv-x="419" 
d="M212 15q-85 0 -127.5 53.5t-42.5 174.5t42.5 175t127.5 54t127 -54t42 -175t-42 -174.5t-127 -53.5zM212 129q35 0 48 28.5t13 85.5q0 58 -13 86.5t-48 28.5t-48.5 -29t-13.5 -86t13.5 -85.5t48.5 -28.5z" />
    <glyph glyph-name="one.dnom" horiz-adv-x="363" 
d="M314 120q9 0 9 -9v-77q0 -9 -9 -9h-176h-89q-9 0 -9 9v77q0 9 9 9h80v234l-69 -24q-4 -1 -7.5 1.5t-3.5 6.5v70q0 4 10 11l74 42l1 1q3 3 10 3h82q9 0 9 -10v-335h79z" />
    <glyph glyph-name="two.dnom" horiz-adv-x="397" 
d="M342 120q10 0 10 -9v-78q0 -9 -10 -9h-292q-9 0 -9 9v64q0 5 6 10l126 132q65 69 65 100q0 38 -45 38q-54 0 -56 -40q0 -8 -9 -8h-83q-10 0 -10 10q1 24 8.5 45.5t24.5 42.5t49 33t77 12q78 0 114 -37.5t36 -94.5q0 -31 -10 -57t-20 -36l-9 -10l-112 -117h149z" />
    <glyph glyph-name="three.dnom" horiz-adv-x="398" 
d="M358 148q0 -56 -36.5 -94.5t-121.5 -38.5h-1q-80 0 -119.5 40.5t-39.5 89.5q0 11 9 11h85q9 0 9 -8q1 -17 16.5 -27t40.5 -10q24 0 39.5 11t15.5 29q0 23 -15.5 33.5t-57.5 10.5h-14q-10 0 -10 9v79q0 9 10 9h14q40 0 52.5 11.5t12.5 34.5q0 17 -13.5 27.5t-34.5 10.5
q-24 0 -39.5 -10.5t-16.5 -27.5q0 -8 -9 -8h-85q-9 0 -9 11q0 50 39.5 90t119.5 40h1q80 0 115.5 -37.5t35.5 -91.5q0 -72 -53 -96q60 -22 60 -98z" />
    <glyph glyph-name="four.dnom" horiz-adv-x="412" 
d="M362 205q10 0 10 -9v-77q0 -8 -10 -8h-39v-76q0 -9 -9 -9h-88q-9 0 -9 9v76h-178q-9 0 -9 8v59q0 3 1 4h-1l178 279q2 5 9 5h97q9 0 9 -9v-252h39zM138 205h79v125z" />
    <glyph glyph-name="five.dnom" horiz-adv-x="397" 
d="M357 167q0 -63 -37 -107.5t-121 -44.5h-1q-77 0 -116.5 41t-39.5 89q0 10 9 10h84q8 0 8 -7q2 -17 17 -27t38 -10q26 0 39.5 16t13.5 42q0 29 -21 42.5t-46 9t-39 -21.5q-1 -2 -4 -2.5t-5 -0.5l-3 1l-85 18q-8 2 -7 9l37 230q2 9 10 9h235q10 0 10 -9v-78q0 -9 -10 -9
h-163l-11 -65q80 28 144 -9.5t64 -125.5z" />
    <glyph glyph-name="six.dnom" horiz-adv-x="398" 
d="M214 319q65 0 104.5 -42.5t39.5 -104.5q0 -70 -45 -113t-108 -43q-83 0 -128 70q-37 48 -37 146q0 108 43.5 174t124.5 66q70 0 102 -36.5t33 -80.5q0 -11 -7 -11h-90q-8 0 -10 8q-9 31 -33 31q-42 0 -47 -83q29 19 58 19zM206 119q20 0 33 14t14 38q-1 23 -14.5 38.5
t-32.5 15.5q-20 0 -34 -15t-14 -38q0 -22 13.5 -37.5t34.5 -15.5z" />
    <glyph glyph-name="seven.dnom" horiz-adv-x="362" 
d="M346 464q9 -5 4 -13l-198 -417q-5 -9 -15 -9h-88q-6 0 -8.5 4.5t-0.5 8.5l158 332h-159q-9 0 -9 8v77q0 10 9 10h303q3 0 4 -1z" />
    <glyph glyph-name="eight.dnom" horiz-adv-x="399" 
d="M312 242q47 -39 47 -99q0 -56 -42 -92t-118 -36q-75 0 -117 36t-42 92q0 59 48 99q-37 41 -37 104q0 52 38.5 88.5t109.5 36.5q70 0 108.5 -36.5t38.5 -88.5q0 -63 -34 -104zM200 375q-45 0 -45 -35q0 -37 43 -49q44 12 44 47q0 37 -42 37zM199 111q26 0 40.5 10t14.5 27
q0 37 -53 59q-57 -19 -57 -59q0 -17 15 -27t40 -10z" />
    <glyph glyph-name="nine.dnom" horiz-adv-x="398" 
d="M334 385q24 -55 24 -145q0 -115 -44.5 -170t-122.5 -55q-67 0 -104.5 40t-37.5 81q0 11 7 11h87q8 0 10 -8q12 -26 38 -26q27 0 38.5 14t16.5 49q-19 -8 -48 -8q-74 0 -116 43t-42 108q0 71 45.5 111.5t114.5 40.5q102 0 134 -86zM198 266q20 0 33.5 14.5t13.5 38.5
t-13.5 39t-34.5 15q-20 0 -35 -14t-14 -40q1 -25 16 -39t34 -14z" />
    <glyph glyph-name="zero.numr" horiz-adv-x="419" 
d="M210 252q-85 0 -127.5 53.5t-42.5 174.5t42.5 175t127.5 54t127 -54t42 -175t-42 -174.5t-127 -53.5zM210 366q35 0 48 28.5t13 85.5q0 58 -13 86.5t-48 28.5t-48.5 -29t-13.5 -86t13.5 -85.5t48.5 -28.5z" />
    <glyph glyph-name="one.numr" horiz-adv-x="363" 
d="M314 355q9 0 9 -9v-77q0 -9 -9 -9h-176h-89q-9 0 -9 9v77q0 9 9 9h80v233l-69 -23q-4 -1 -7.5 1.5t-3.5 6.5v70q0 4 10 11l74 42l1 1q3 3 10 3h82q9 0 9 -10v-335h79z" />
    <glyph glyph-name="two.numr" horiz-adv-x="397" 
d="M347 356q10 0 10 -9v-78q0 -9 -10 -9h-292q-9 0 -9 9v64q0 5 4 9l128 133q65 69 65 100q0 38 -45 38q-54 0 -56 -40q0 -8 -9 -8h-83q-10 0 -10 10q1 24 8.5 45.5t24.5 42.5t49 33t77 12q78 0 114 -37.5t36 -94.5q0 -31 -9.5 -57t-19.5 -36l-10 -10l-112 -117h149z" />
    <glyph glyph-name="three.numr" horiz-adv-x="398" 
d="M358 385q0 -56 -36.5 -94.5t-121.5 -38.5h-1q-80 0 -119.5 40.5t-39.5 89.5q0 11 9 11h85q9 0 9 -8q1 -16 16.5 -26.5t39.5 -10.5q25 0 40.5 11t15.5 29q0 23 -15.5 33.5t-57.5 10.5h-14q-10 0 -10 9v79q0 9 10 9h14q40 0 52.5 11.5t12.5 34.5q0 36 -48 38
q-54 -2 -56 -38q0 -8 -9 -8h-85q-9 0 -9 11q0 50 39.5 90t119.5 40h1q81 0 116 -37.5t35 -91.5q0 -72 -53 -96q60 -23 60 -98z" />
    <glyph glyph-name="four.numr" horiz-adv-x="412" 
d="M362 439q10 0 10 -9v-77q0 -8 -10 -8h-39v-76q0 -9 -9 -9h-88q-9 0 -9 9v76h-178q-9 0 -9 8v59q0 3 1 4h-1l178 279q3 5 9 5h97q9 0 9 -9v-252h39zM137 439h80v125z" />
    <glyph glyph-name="five.numr" horiz-adv-x="397" 
d="M357 404q0 -63 -37 -107.5t-121 -44.5h-1q-77 0 -116.5 41t-39.5 90q0 10 9 10h84q8 0 8 -7q1 -17 16.5 -27.5t38.5 -10.5q26 0 39.5 16t13.5 42q0 29 -21 42.5t-46 9t-39 -21.5q-1 -2 -4 -2.5t-5 0.5h-3l-85 18q-8 2 -7 9l37 230q2 9 10 9h235q10 0 10 -9v-78
q0 -9 -10 -9h-163l-10 -65q79 28 143 -9.5t64 -125.5z" />
    <glyph glyph-name="six.numr" horiz-adv-x="398" 
d="M214 555q65 0 104.5 -42.5t39.5 -104.5q0 -70 -45 -113t-108 -43q-83 0 -128 70q-37 51 -37 146q0 109 43.5 174.5t125.5 65.5q69 0 101 -36.5t33 -80.5q0 -11 -7 -11h-90q-8 0 -10 8q-9 31 -33 31q-42 0 -47 -83q27 19 58 19zM206 355q20 0 33 14t14 38
q-1 23 -14.5 38.5t-32.5 15.5q-20 0 -34 -15t-14 -38q0 -22 13.5 -37.5t34.5 -15.5z" />
    <glyph glyph-name="seven.numr" horiz-adv-x="362" 
d="M346 699q8 -4 4 -13l-198 -417q-5 -9 -15 -9h-88q-6 0 -8.5 4.5t-0.5 8.5l158 332h-159q-9 0 -9 8v77q0 10 9 10h303q3 0 4 -1z" />
    <glyph glyph-name="eight.numr" horiz-adv-x="399" 
d="M312 479q47 -39 47 -99q0 -56 -42 -92t-118 -36q-75 0 -117 36t-42 92q0 60 48 98q-37 43 -37 105q0 52 38.5 88.5t109.5 36.5q70 0 108.5 -36.5t38.5 -88.5q0 -64 -34 -104zM200 612q-45 0 -45 -35q0 -37 43 -49q44 13 44 47q0 37 -42 37zM199 348q26 0 40.5 10t14.5 27
q0 38 -53 59q-57 -19 -57 -59q0 -17 15 -27t40 -10z" />
    <glyph glyph-name="nine.numr" horiz-adv-x="398" 
d="M331 631q27 -60 27 -154q0 -115 -44.5 -170t-122.5 -55q-67 0 -104.5 40t-37.5 81q0 11 7 11h87q8 0 10 -8q12 -26 38 -26q27 0 38.5 14t16.5 49q-19 -8 -48 -8q-74 0 -116 43t-42 108q0 71 45.5 111.5t114.5 40.5q96 0 131 -77zM198 503q20 0 33.5 14.5t13.5 38.5
t-13.5 39t-34.5 15q-20 0 -35 -14t-14 -40q1 -25 16 -39t34 -14z" />
    <glyph glyph-name="acutecomb.cap" 
d="M-236 639q-15 -5 -20 9l-9 25q-4 11 10 19l168 100q15 9 21 -9l21 -65q5 -15 -9 -20z" />
    <glyph glyph-name="gravecomb.cap" 
d="M-74 640l-182 59q-14 5 -9 20l22 65q6 18 21 9l167 -100q14 -8 10 -19l-9 -25q-5 -14 -20 -9z" />
    <glyph glyph-name="uni030B.cap" 
d="M-184 646q-10 -5 -21 6l-11 13q-6 7 7 20l101 89q11 7 20 -3l39 -44q12 -14 -5 -22zM-353 646q-10 -5 -21 6l-11 13q-6 7 7 20l101 89q12 8 20 -3l40 -44q12 -16 -6 -21z" />
    <glyph glyph-name="hungarumlaut.cap." horiz-adv-x="433" 
d="M248 646q-10 -5 -21 6l-11 13q-6 7 7 20l101 89q11 8 19 -3l40 -44q12 -14 -5 -22zM80 646q-10 -5 -21 6l-12 13q-5 7 8 20l101 89q12 8 20 -3l40 -44q12 -16 -6 -21z" />
    <glyph glyph-name="acute.cap" horiz-adv-x="310" 
d="M74 639q-15 -5 -20 9l-9 25q-4 11 10 19l168 100q15 9 21 -9l21 -65q5 -15 -9 -20z" />
    <glyph glyph-name="grave.cap" horiz-adv-x="310" 
d="M236 640l-182 59q-14 5 -9 20l22 65q6 18 21 9l167 -100q14 -8 10 -19l-9 -25q-5 -14 -20 -9z" />
    </font>
</defs>
</svg>
